<?xml version="1.0" standalone="no"?>
<!DOCTYPE svg PUBLIC "-//W3C//DTD SVG 1.1//EN" "http://www.w3.org/Graphics/SVG/1.1/DTD/svg11.dtd" >
<svg xmlns="http://www.w3.org/2000/svg" xmlns:xlink="http://www.w3.org/1999/xlink" version="1.1">
<metadata>
Created by FontForge 20190801 at Tue Nov 29 15:02:40 2011
 By Jimmy Wärting
Copyright (c) 2010 by Stereotypes.de. All rights reserved.
</metadata>
<defs>
<font id="StRydeRegular" horiz-adv-x="551" >
  <font-face 
    font-family="St Ryde Regular"
    font-weight="400"
    font-stretch="normal"
    units-per-em="1000"
    panose-1="2 0 5 3 2 0 0 2 0 3"
    ascent="800"
    descent="-200"
    x-height="482"
    cap-height="700"
    bbox="-77.7469 -267 1177 939"
    underline-thickness="70"
    underline-position="-160"
    stemh="74"
    stemv="78"
    unicode-range="U+000D-FB02"
  />
<missing-glyph horiz-adv-x="469" 
d="M80 0v700h626v-700h-626zM114 666v-632h559v632h-559zM229 343c0 89 73 162 162 162s162 -73 162 -162s-73 -162 -162 -162s-162 73 -162 162z" />
    <glyph glyph-name="fi" unicode="fi" horiz-adv-x="601" 
d="M395 417h-208v-392c0 -20 -19 -25 -43 -25c-13 0 -27 3 -34 9v408h-59c-4 7 -7 17 -7 28c0 21 8 37 37 37h29v92c0 98 47 132 123 132c89 0 101 -18 101 -41c0 -16 -4 -27 -9 -33h-72c-42 0 -66 -14 -66 -68v-82h237c44 0 71 -15 71 -78v-316c0 -19 9 -26 23 -26h29
c3 -6 6 -13 6 -25c0 -23 -19 -37 -67 -37c-41 0 -66 18 -66 68v321c0 22 -11 28 -25 28zM399 619c0 33 16 50 49 50c32 0 49 -17 49 -50s-17 -48 -49 -48s-49 16 -49 48z" />
    <glyph glyph-name="fl" unicode="fl" horiz-adv-x="629" 
d="M187 564v-82h121c4 -6 7 -16 7 -27c0 -17 -7 -38 -34 -38h-94v-392c0 -20 -19 -25 -43 -25c-13 0 -27 3 -34 9v408h-59c-4 7 -7 17 -7 28c0 21 8 37 37 37h29v92c0 98 47 132 123 132c89 0 101 -18 101 -41c0 -16 -4 -27 -9 -33h-72c-42 0 -66 -14 -66 -68zM477 667v-526
c0 -60 19 -76 67 -76h68c2 -6 3 -12 3 -23c0 -21 -27 -42 -96 -42c-81 0 -117 37 -117 123v567c9 7 18 11 37 11c29 -1 38 -15 38 -34z" />
    <glyph glyph-name=".notdef" horiz-adv-x="469" 
d="M80 0v700h626v-700h-626zM114 666v-632h559v632h-559zM229 343c0 89 73 162 162 162s162 -73 162 -162s-73 -162 -162 -162s-162 73 -162 162z" />
    <glyph glyph-name="A" unicode="A" horiz-adv-x="640" 
d="M56 0c-19 0 -31 4 -38 11l258 676c12 7 22 13 46 13c23 0 37 -12 44 -30l256 -652c-7 -15 -23 -18 -38 -18c-20 0 -37 8 -44 31l-56 139h-329l-55 -145c-7 -19 -20 -25 -44 -25zM317 593l-137 -357h278z" />
    <glyph glyph-name="AE" unicode="&#xc6;" horiz-adv-x="978" 
d="M894 0h-413c-18 0 -35 5 -35 37v133h-285l-58 -145c-7 -19 -20 -25 -44 -25c-19 0 -34 4 -41 11l272 676c18 12 52 13 81 13h546c5 -5 9 -14 9 -32c0 -25 -11 -42 -32 -42h-370v-230h334c4 -5 9 -17 9 -35c0 -25 -11 -39 -31 -39h-312v-248h393c5 -5 9 -14 9 -32
c0 -25 -11 -42 -32 -42zM343 626l-156 -389h259v389h-103z" />
    <glyph glyph-name="AEacute" unicode="&#x1fc;" horiz-adv-x="978" 
d="M894 0h-413c-18 0 -35 5 -35 37v133h-285l-58 -145c-7 -19 -20 -25 -44 -25c-19 0 -34 4 -41 11l272 676c18 12 52 13 81 13h546c5 -5 9 -14 9 -32c0 -25 -11 -42 -32 -42h-370v-230h334c4 -5 9 -17 9 -35c0 -25 -11 -39 -31 -39h-312v-248h393c5 -5 9 -14 9 -32
c0 -25 -11 -42 -32 -42zM343 626l-156 -389h259v389h-103zM457 797c34 19 117 112 158 112c28 0 38 -15 38 -34c-50 -27 -127 -106 -161 -106c-19 0 -31 10 -35 28z" />
    <glyph glyph-name="Aacute" unicode="&#xc1;" horiz-adv-x="640" 
d="M56 0c-19 0 -31 4 -38 11l258 676c12 7 22 13 46 13c23 0 37 -12 44 -30l256 -652c-7 -15 -23 -18 -38 -18c-20 0 -37 8 -44 31l-56 139h-329l-55 -145c-7 -19 -20 -25 -44 -25zM317 593l-137 -357h278zM226 797c34 19 117 112 158 112c28 0 38 -15 38 -34
c-50 -27 -127 -106 -161 -106c-19 0 -31 10 -35 28z" />
    <glyph glyph-name="Abreve" unicode="&#x102;" horiz-adv-x="640" 
d="M56 0c-19 0 -31 4 -38 11l258 676c12 7 22 13 46 13c23 0 37 -12 44 -30l256 -652c-7 -15 -23 -18 -38 -18c-20 0 -37 8 -44 31l-56 139h-329l-55 -145c-7 -19 -20 -25 -44 -25zM317 593l-137 -357h278zM232 893c1 -18 9 -38 22 -50c15 -14 37 -20 66 -20
c25 0 48 5 63 19c16 14 22 35 24 50c6 5 16 7 29 6c19 0 26 -12 24 -24c-4 -26 -15 -51 -39 -73c-23 -20 -58 -30 -101 -30s-77 10 -101 29c-25 20 -39 48 -41 76c-1 14 6 22 23 23c13 1 23 -2 31 -6z" />
    <glyph glyph-name="Acircumflex" unicode="&#xc2;" horiz-adv-x="640" 
d="M56 0c-19 0 -31 4 -38 11l258 676c12 7 22 13 46 13c23 0 37 -12 44 -30l256 -652c-7 -15 -23 -18 -38 -18c-20 0 -37 8 -44 31l-56 139h-329l-55 -145c-7 -19 -20 -25 -44 -25zM317 593l-137 -357h278zM479 798c-3 -14 -11 -24 -24 -26c-5 -2 -12 -2 -19 0
c-29 8 -75 49 -116 77c-41 -28 -88 -69 -117 -77c-6 -2 -13 -2 -18 0c-13 2 -21 12 -24 26c34 18 115 112 157 112c41 0 122 -92 161 -112z" />
    <glyph glyph-name="Adieresis" unicode="&#xc4;" horiz-adv-x="640" 
d="M56 0c-19 0 -31 4 -38 11l258 676c12 7 22 13 46 13c23 0 37 -12 44 -30l256 -652c-7 -15 -23 -18 -38 -18c-20 0 -37 8 -44 31l-56 139h-329l-55 -145c-7 -19 -20 -25 -44 -25zM317 593l-137 -357h278zM169 833c0 31 15 46 46 46c29 0 46 -15 46 -46s-17 -45 -46 -45
c-31 0 -46 15 -46 45zM379 833c0 31 14 46 45 46c30 0 46 -15 46 -46s-16 -45 -46 -45s-45 15 -45 45z" />
    <glyph glyph-name="Agrave" unicode="&#xc0;" horiz-adv-x="640" 
d="M56 0c-19 0 -31 4 -38 11l258 676c12 7 22 13 46 13c23 0 37 -12 44 -30l256 -652c-7 -15 -23 -18 -38 -18c-20 0 -37 8 -44 31l-56 139h-329l-55 -145c-7 -19 -20 -25 -44 -25zM317 593l-137 -357h278zM409 796c-4 -18 -16 -28 -34 -28c-34 0 -112 79 -162 106
c1 19 11 34 39 34c40 0 123 -93 157 -112z" />
    <glyph glyph-name="Amacron" unicode="&#x100;" horiz-adv-x="640" 
d="M56 0c-19 0 -31 4 -38 11l258 676c12 7 22 13 46 13c23 0 37 -12 44 -30l256 -652c-7 -15 -23 -18 -38 -18c-20 0 -37 8 -44 31l-56 139h-329l-55 -145c-7 -19 -20 -25 -44 -25zM317 593l-137 -357h278zM431 799h-266c-4 8 -8 13 -8 26c0 21 5 34 45 34h274
c4 -4 8 -9 8 -24c0 -16 -9 -36 -53 -36z" />
    <glyph glyph-name="Aogonek" unicode="&#x104;" horiz-adv-x="640" 
d="M366 670l257 -653c-28 -36 -59 -78 -59 -109c0 -34 23 -42 56 -42c3 -7 4 -13 4 -22c0 -11 -4 -23 -33 -23c-34 0 -77 19 -77 76c0 54 36 96 49 112c-12 4 -22 14 -28 32l-51 129h-329l-55 -145c-7 -19 -20 -25 -44 -25c-19 0 -31 4 -38 11l258 676c12 7 22 13 46 13
c23 0 37 -12 44 -30zM317 593l-137 -357h278z" />
    <glyph glyph-name="Aring" unicode="&#xc5;" horiz-adv-x="640" 
d="M56 0c-19 0 -31 4 -38 11l258 676c12 7 22 13 46 13c23 0 37 -12 44 -30l256 -652c-7 -15 -23 -18 -38 -18c-20 0 -37 8 -44 31l-56 139h-329l-55 -145c-7 -19 -20 -25 -44 -25zM317 593l-137 -357h278zM232 851c0 58 29 88 88 88c58 0 88 -32 88 -88
c0 -57 -30 -88 -88 -88c-59 0 -88 31 -88 88zM273 851c0 -30 16 -47 47 -47c30 0 47 17 47 47c0 29 -17 47 -47 47c-32 0 -47 -16 -47 -47z" />
    <glyph glyph-name="Atilde" unicode="&#xc3;" horiz-adv-x="640" 
d="M56 0c-19 0 -31 4 -38 11l258 676c12 7 22 13 46 13c23 0 37 -12 44 -30l256 -652c-7 -15 -23 -18 -38 -18c-20 0 -37 8 -44 31l-56 139h-329l-55 -145c-7 -19 -20 -25 -44 -25zM317 593l-137 -357h278zM237 875c56 0 111 -31 160 -31c41 0 56 16 63 24
c8 -4 18 -18 18 -34c0 -24 -24 -46 -69 -46c-53 0 -127 29 -173 29c-26 0 -51 -15 -54 -26c-15 5 -20 16 -20 31c0 20 28 53 75 53z" />
    <glyph glyph-name="B" unicode="B" horiz-adv-x="665" 
d="M143 700h219c110 0 197 -44 197 -184c0 -70 -30 -117 -72 -147c66 -26 114 -80 114 -174c0 -142 -115 -195 -226 -195h-232c-21 0 -39 5 -39 36v657c8 5 20 7 39 7zM345 328h-164v-263h171c91 0 171 27 171 134c0 98 -74 129 -178 129zM347 636h-166v-245h165
c78 2 139 31 139 127c0 91 -52 118 -138 118z" />
    <glyph glyph-name="C" unicode="C" horiz-adv-x="641" 
d="M569 147c14 1 34 -8 34 -32c0 -18 -8 -33 -26 -46c-21 -21 -84 -79 -217 -79c-174 0 -296 105 -296 360c0 245 119 360 291 360c118 0 177 -37 215 -83c14 -12 22 -23 22 -43c0 -19 -14 -31 -29 -36c-45 57 -107 88 -205 88c-129 0 -217 -91 -217 -287
c0 -211 91 -287 222 -287c87 0 159 29 206 85z" />
    <glyph glyph-name="CR" unicode="&#xd;" horiz-adv-x="0" 
 />
    <glyph glyph-name="Cacute" unicode="&#x106;" horiz-adv-x="641" 
d="M569 147c14 1 34 -8 34 -32c0 -18 -8 -33 -26 -46c-21 -21 -84 -79 -217 -79c-174 0 -296 105 -296 360c0 245 119 360 291 360c118 0 177 -37 215 -83c14 -12 22 -23 22 -43c0 -19 -14 -31 -29 -36c-45 57 -107 88 -205 88c-129 0 -217 -91 -217 -287
c0 -211 91 -287 222 -287c87 0 159 29 206 85zM255 797c34 19 117 112 158 112c28 0 38 -15 38 -34c-50 -27 -127 -106 -161 -106c-19 0 -31 10 -35 28z" />
    <glyph glyph-name="Ccaron" unicode="&#x10c;" horiz-adv-x="641" 
d="M569 147c14 1 34 -8 34 -32c0 -18 -8 -33 -26 -46c-21 -21 -84 -79 -217 -79c-174 0 -296 105 -296 360c0 245 119 360 291 360c118 0 177 -37 215 -83c14 -12 22 -23 22 -43c0 -19 -14 -31 -29 -36c-45 57 -107 88 -205 88c-129 0 -217 -91 -217 -287
c0 -211 91 -287 222 -287c87 0 159 29 206 85zM355 770c-8 0 -13 2 -17 5c-38 17 -101 78 -144 101c1 19 17 34 39 34c29 0 83 -50 123 -84c41 34 95 84 124 84c21 0 38 -15 39 -34c-43 -23 -105 -83 -144 -101c-4 -2 -9 -5 -20 -5z" />
    <glyph glyph-name="Ccedilla" unicode="&#xc7;" horiz-adv-x="641" 
d="M569 147c14 1 34 -8 34 -32c0 -18 -8 -33 -26 -46c-21 -21 -84 -79 -217 -79c-174 0 -296 105 -296 360c0 245 119 360 291 360c118 0 177 -37 215 -83c14 -12 22 -23 22 -43c0 -19 -14 -31 -29 -36c-45 57 -107 88 -205 88c-129 0 -217 -91 -217 -287
c0 -211 91 -287 222 -287c87 0 159 29 206 85zM408 -112c0 30 -35 40 -64 41c-3 3 -6 11 -6 20l1 67l49 -1l-4 -51c44 -6 70 -31 70 -80c0 -50 -34 -80 -87 -80s-78 24 -78 44c0 15 11 23 19 27c9 -13 31 -26 56 -26c26 0 44 13 44 39z" />
    <glyph glyph-name="Ccircumflex" unicode="&#x108;" horiz-adv-x="641" 
d="M569 147c14 1 34 -8 34 -32c0 -18 -8 -33 -26 -46c-21 -21 -84 -79 -217 -79c-174 0 -296 105 -296 360c0 245 119 360 291 360c118 0 177 -37 215 -83c14 -12 22 -23 22 -43c0 -19 -14 -31 -29 -36c-45 57 -107 88 -205 88c-129 0 -217 -91 -217 -287
c0 -211 91 -287 222 -287c87 0 159 29 206 85zM521 798c-3 -14 -11 -24 -24 -26c-5 -2 -12 -2 -19 0c-29 8 -75 49 -116 77c-41 -28 -88 -69 -117 -77c-6 -2 -13 -2 -18 0c-13 2 -21 12 -24 26c34 18 115 112 157 112c41 0 122 -92 161 -112z" />
    <glyph glyph-name="Cdotaccent" unicode="&#x10a;" horiz-adv-x="641" 
d="M569 147c14 1 34 -8 34 -32c0 -18 -8 -33 -26 -46c-21 -21 -84 -79 -217 -79c-174 0 -296 105 -296 360c0 245 119 360 291 360c118 0 177 -37 215 -83c14 -12 22 -23 22 -43c0 -19 -14 -31 -29 -36c-45 57 -107 88 -205 88c-129 0 -217 -91 -217 -287
c0 -211 91 -287 222 -287c87 0 159 29 206 85zM318 830c0 32 15 47 45 47s46 -15 46 -47c0 -30 -16 -45 -46 -45s-45 15 -45 45z" />
    <glyph glyph-name="D" unicode="D" horiz-adv-x="696" 
d="M143 700h136c238 0 353 -111 353 -358c0 -253 -124 -342 -326 -342h-163c-21 0 -39 5 -39 36v656c8 5 20 8 39 8zM284 627h-102v-557h121c163 0 251 72 251 270c0 196 -86 287 -270 287z" />
    <glyph glyph-name="Dcaron" unicode="&#x10e;" horiz-adv-x="696" 
d="M143 700h136c238 0 353 -111 353 -358c0 -253 -124 -342 -326 -342h-163c-21 0 -39 5 -39 36v656c8 5 20 8 39 8zM284 627h-102v-557h121c163 0 251 72 251 270c0 196 -86 287 -270 287zM318 770c-8 0 -13 2 -17 5c-38 17 -101 78 -144 101c1 19 17 34 39 34
c29 0 83 -50 123 -84c41 34 95 84 124 84c21 0 38 -15 39 -34c-43 -23 -105 -83 -144 -101c-4 -2 -9 -5 -20 -5z" />
    <glyph glyph-name="Dcroat" unicode="&#x110;" horiz-adv-x="696" 
d="M143 700h136c238 0 353 -111 353 -358c0 -253 -124 -342 -326 -342h-160c-33 0 -42 25 -42 68v239h-79c-5 10 -9 18 -9 35c0 23 10 39 40 39h48v311c8 5 20 8 39 8zM312 307h-130v-237h121c163 0 251 72 251 270c0 196 -86 287 -270 287h-102v-246h164c5 -7 8 -18 8 -35
c0 -24 -11 -39 -42 -39z" />
    <glyph glyph-name="Delta" unicode="&#x2206;" horiz-adv-x="642" 
d="M73 0c-19 0 -34 4 -41 11l253 647c11 31 29 42 54 42c30 0 53 -43 68 -83l229 -599c-7 -15 -20 -18 -36 -18h-527zM339 593l-207 -525h410z" />
    <glyph glyph-name="E" unicode="E" horiz-adv-x="636" 
d="M494 322h-312v-248h393c5 -5 9 -14 9 -32c0 -25 -10 -42 -32 -42h-413c-17 0 -35 5 -35 37v655c8 5 18 8 37 8h434c5 -5 9 -14 9 -32c0 -25 -10 -42 -32 -42h-370v-230h334c5 -5 9 -17 9 -35c0 -25 -11 -39 -31 -39z" />
    <glyph glyph-name="Eacute" unicode="&#xc9;" horiz-adv-x="636" 
d="M494 322h-312v-248h393c5 -5 9 -14 9 -32c0 -25 -10 -42 -32 -42h-413c-17 0 -35 5 -35 37v655c8 5 18 8 37 8h434c5 -5 9 -14 9 -32c0 -25 -10 -42 -32 -42h-370v-230h334c5 -5 9 -17 9 -35c0 -25 -11 -39 -31 -39zM236 797c34 19 117 112 158 112c28 0 38 -15 38 -34
c-50 -27 -127 -106 -161 -106c-19 0 -31 10 -35 28z" />
    <glyph glyph-name="Ebreve" unicode="&#x114;" horiz-adv-x="636" 
d="M494 322h-312v-248h393c5 -5 9 -14 9 -32c0 -25 -10 -42 -32 -42h-413c-17 0 -35 5 -35 37v655c8 5 18 8 37 8h434c5 -5 9 -14 9 -32c0 -25 -10 -42 -32 -42h-370v-230h334c5 -5 9 -17 9 -35c0 -25 -11 -39 -31 -39zM257 893c1 -18 9 -38 22 -50c15 -14 37 -20 66 -20
c25 0 48 5 63 19c16 14 22 35 24 50c6 5 16 7 29 6c19 0 26 -12 24 -24c-4 -26 -15 -51 -39 -73c-23 -20 -58 -30 -101 -30s-77 10 -101 29c-25 20 -39 48 -41 76c-1 14 6 22 23 23c13 1 23 -2 31 -6z" />
    <glyph glyph-name="Ecaron" unicode="&#x11a;" horiz-adv-x="636" 
d="M494 322h-312v-248h393c5 -5 9 -14 9 -32c0 -25 -10 -42 -32 -42h-413c-17 0 -35 5 -35 37v655c8 5 18 8 37 8h434c5 -5 9 -14 9 -32c0 -25 -10 -42 -32 -42h-370v-230h334c5 -5 9 -17 9 -35c0 -25 -11 -39 -31 -39zM343 770c-8 0 -13 2 -17 5c-38 17 -101 78 -144 101
c1 19 17 34 39 34c29 0 83 -50 123 -84c41 34 95 84 124 84c21 0 38 -15 39 -34c-43 -23 -105 -83 -144 -101c-4 -2 -9 -5 -20 -5z" />
    <glyph glyph-name="Ecircumflex" unicode="&#xca;" horiz-adv-x="636" 
d="M494 322h-312v-248h393c5 -5 9 -14 9 -32c0 -25 -10 -42 -32 -42h-413c-17 0 -35 5 -35 37v655c8 5 18 8 37 8h434c5 -5 9 -14 9 -32c0 -25 -10 -42 -32 -42h-370v-230h334c5 -5 9 -17 9 -35c0 -25 -11 -39 -31 -39zM500 798c-3 -14 -11 -24 -24 -26c-5 -2 -12 -2 -19 0
c-29 8 -75 49 -116 77c-41 -28 -88 -69 -117 -77c-6 -2 -13 -2 -18 0c-13 2 -21 12 -24 26c34 18 115 112 157 112c41 0 122 -92 161 -112z" />
    <glyph glyph-name="Edieresis" unicode="&#xcb;" horiz-adv-x="636" 
d="M494 322h-312v-248h393c5 -5 9 -14 9 -32c0 -25 -10 -42 -32 -42h-413c-17 0 -35 5 -35 37v655c8 5 18 8 37 8h434c5 -5 9 -14 9 -32c0 -25 -10 -42 -32 -42h-370v-230h334c5 -5 9 -17 9 -35c0 -25 -11 -39 -31 -39zM199 833c0 31 15 46 46 46c29 0 46 -15 46 -46
s-17 -45 -46 -45c-31 0 -46 15 -46 45zM409 833c0 31 14 46 45 46c30 0 46 -15 46 -46s-16 -45 -46 -45s-45 15 -45 45z" />
    <glyph glyph-name="Edotaccent" unicode="&#x116;" horiz-adv-x="636" 
d="M494 322h-312v-248h393c5 -5 9 -14 9 -32c0 -25 -10 -42 -32 -42h-413c-17 0 -35 5 -35 37v655c8 5 18 8 37 8h434c5 -5 9 -14 9 -32c0 -25 -10 -42 -32 -42h-370v-230h334c5 -5 9 -17 9 -35c0 -25 -11 -39 -31 -39zM307 830c0 32 15 47 45 47s46 -15 46 -47
c0 -30 -16 -45 -46 -45s-45 15 -45 45z" />
    <glyph glyph-name="Egrave" unicode="&#xc8;" horiz-adv-x="636" 
d="M494 322h-312v-248h393c5 -5 9 -14 9 -32c0 -25 -10 -42 -32 -42h-413c-17 0 -35 5 -35 37v655c8 5 18 8 37 8h434c5 -5 9 -14 9 -32c0 -25 -10 -42 -32 -42h-370v-230h334c5 -5 9 -17 9 -35c0 -25 -11 -39 -31 -39zM432 796c-4 -18 -16 -28 -34 -28
c-34 0 -112 79 -162 106c1 19 11 34 39 34c40 0 123 -93 157 -112z" />
    <glyph glyph-name="Emacron" unicode="&#x112;" horiz-adv-x="636" 
d="M494 322h-312v-248h393c5 -5 9 -14 9 -32c0 -25 -10 -42 -32 -42h-413c-17 0 -35 5 -35 37v655c8 5 18 8 37 8h434c5 -5 9 -14 9 -32c0 -25 -10 -42 -32 -42h-370v-230h334c5 -5 9 -17 9 -35c0 -25 -11 -39 -31 -39zM456 799h-266c-4 8 -8 13 -8 26c0 21 5 34 45 34h274
c4 -4 8 -9 8 -24c0 -16 -9 -36 -53 -36z" />
    <glyph glyph-name="Eng" unicode="&#x14a;" horiz-adv-x="734" 
d="M557 -34v52l-379 533l4 -542c-6 -5 -26 -9 -44 -9c-16 0 -34 4 -34 36v656c10 5 24 8 41 8s28 -8 36 -19l376 -540l-3 549c8 6 19 10 37 10c20 0 41 -8 41 -31v-714c0 -93 -50 -126 -118 -126c-55 0 -94 12 -94 42c0 10 0 19 5 30h69c38 0 63 17 63 65z" />
    <glyph glyph-name="Eogonek" unicode="&#x118;" horiz-adv-x="636" 
d="M494 322h-312v-248h395c4 -6 7 -16 7 -31c0 -12 -5 -28 -15 -41c-25 -27 -49 -68 -49 -94c0 -34 23 -42 56 -42c3 -7 5 -13 5 -22c0 -11 -5 -23 -34 -23c-38 0 -83 18 -83 74c0 44 26 81 44 105h-369c-17 0 -35 5 -35 37v655c8 5 18 8 37 8h434c5 -5 9 -14 9 -32
c0 -25 -10 -42 -32 -42h-370v-230h334c5 -5 9 -17 9 -35c0 -25 -11 -39 -31 -39z" />
    <glyph glyph-name="Eth" unicode="&#xd0;" horiz-adv-x="696" 
d="M143 700h136c238 0 353 -111 353 -358c0 -253 -124 -342 -326 -342h-160c-33 0 -42 25 -42 68v239h-79c-5 10 -9 18 -9 35c0 23 10 39 40 39h48v311c8 5 20 8 39 8zM312 307h-130v-237h121c163 0 251 72 251 270c0 196 -86 287 -270 287h-102v-246h164c5 -7 8 -18 8 -35
c0 -24 -11 -39 -42 -39z" />
    <glyph glyph-name="Euro" unicode="&#x20ac;" horiz-adv-x="682" 
d="M401 249h-204c24 -133 102 -180 208 -180c86 0 162 39 186 83c7 2 18 2 29 -2c7 -2 13 -6 16 -10c9 -10 10 -25 -1 -44c-25 -41 -98 -100 -230 -100c-149 0 -259 72 -287 253h-87c-4 8 -6 12 -6 22c-1 6 -1 12 0 19c3 14 12 22 43 22h42v37c0 13 0 26 1 39h-80
c-4 8 -7 12 -7 27c0 22 4 36 44 36h50c29 174 136 256 287 256c102 0 181 -25 208 -64c11 -15 11 -31 5 -40c-7 -12 -20 -22 -32 -24c-42 37 -100 54 -181 54c-108 0 -183 -60 -207 -182h281c5 -5 7 -9 7 -26s-7 -37 -51 -37h-248c-1 -14 -1 -28 -1 -41c0 -12 0 -24 1 -35
h259c5 -4 7 -9 7 -25c0 -17 -8 -38 -52 -38z" />
    <glyph glyph-name="Euro.lf" horiz-adv-x="682" 
d="M401 249h-204c24 -133 102 -180 208 -180c86 0 162 39 186 83c7 2 18 2 29 -2c7 -2 13 -6 16 -10c9 -10 10 -25 -1 -44c-25 -41 -98 -100 -230 -100c-149 0 -259 72 -287 253h-87c-4 8 -6 12 -6 22c-1 6 -1 12 0 19c3 14 12 22 43 22h42v37c0 13 0 26 1 39h-80
c-4 8 -7 12 -7 27c0 22 4 36 44 36h50c29 174 136 256 287 256c102 0 181 -25 208 -64c11 -15 11 -31 5 -40c-7 -12 -20 -22 -32 -24c-42 37 -100 54 -181 54c-108 0 -183 -60 -207 -182h281c5 -5 7 -9 7 -26s-7 -37 -51 -37h-248c-1 -14 -1 -28 -1 -41c0 -12 0 -24 1 -35
h259c5 -4 7 -9 7 -25c0 -17 -8 -38 -52 -38z" />
    <glyph glyph-name="Euro.sc" horiz-adv-x="603" 
d="M346 193h-161c20 -95 84 -127 167 -127c70 0 133 30 154 66c7 1 18 2 29 -3c6 -2 12 -5 15 -10c8 -9 9 -23 -1 -40c-23 -37 -88 -82 -197 -82c-125 0 -218 56 -244 196h-73c-5 7 -6 11 -6 21c-1 7 -1 12 0 18c3 12 11 18 39 18h33c-1 10 -1 17 -1 26c0 10 1 19 1 29h-66
c-5 8 -8 12 -8 25c0 21 5 33 41 33h40c25 136 117 200 243 200c87 0 157 -19 180 -56c9 -13 8 -27 3 -35c-7 -12 -19 -21 -30 -23c-37 30 -83 44 -153 44c-85 0 -145 -41 -166 -130h231c5 -4 7 -9 7 -23c0 -15 -7 -35 -47 -35h-201c-1 -10 -1 -20 -1 -30c0 -8 0 -16 1 -25
h211c4 -4 7 -8 7 -22c0 -15 -7 -35 -47 -35z" />
    <glyph glyph-name="Euro.tf" horiz-adv-x="632" 
d="M371 249h-204c24 -133 102 -180 208 -180c86 0 162 39 186 83c7 2 18 2 29 -2c7 -2 13 -6 16 -10c9 -10 10 -25 -1 -44c-25 -41 -98 -100 -230 -100c-149 0 -259 72 -287 253h-87c-4 8 -6 12 -6 22c-1 6 -1 12 0 19c3 14 12 22 43 22h42v37c0 13 0 26 1 39h-80
c-4 8 -7 12 -7 27c0 22 4 36 44 36h50c29 174 136 256 287 256c102 0 181 -25 208 -64c11 -15 11 -31 5 -40c-7 -12 -20 -22 -32 -24c-42 37 -100 54 -181 54c-108 0 -183 -60 -207 -182h281c5 -5 7 -9 7 -26s-7 -37 -51 -37h-248c-1 -14 -1 -28 -1 -41c0 -12 0 -24 1 -35
h259c5 -4 7 -9 7 -25c0 -17 -8 -38 -52 -38z" />
    <glyph glyph-name="Euro.tosf" horiz-adv-x="632" 
d="M371 249h-204c24 -133 102 -180 208 -180c86 0 162 39 186 83c7 2 18 2 29 -2c7 -2 13 -6 16 -10c9 -10 10 -25 -1 -44c-25 -41 -98 -100 -230 -100c-149 0 -259 72 -287 253h-87c-4 8 -6 12 -6 22c-1 6 -1 12 0 19c3 14 12 22 43 22h42v37c0 13 0 26 1 39h-80
c-4 8 -7 12 -7 27c0 22 4 36 44 36h50c29 174 136 256 287 256c102 0 181 -25 208 -64c11 -15 11 -31 5 -40c-7 -12 -20 -22 -32 -24c-42 37 -100 54 -181 54c-108 0 -183 -60 -207 -182h281c5 -5 7 -9 7 -26s-7 -37 -51 -37h-248c-1 -14 -1 -28 -1 -41c0 -12 0 -24 1 -35
h259c5 -4 7 -9 7 -25c0 -17 -8 -38 -52 -38z" />
    <glyph glyph-name="F" unicode="F" horiz-adv-x="623" 
d="M494 309h-312v-301c-6 -5 -24 -8 -43 -8c-17 0 -35 5 -35 37v655c8 5 18 8 37 8h430c4 -5 8 -14 8 -32c0 -25 -10 -42 -32 -42h-365v-243h336c4 -5 8 -13 8 -32c0 -25 -10 -42 -32 -42z" />
    <glyph glyph-name="G" unicode="G" horiz-adv-x="702" 
d="M557 295h-188c-4 9 -7 18 -7 33c0 17 6 32 46 32h160c43 0 54 -16 54 -63v-289c-9 -6 -17 -9 -36 -9c-17 0 -29 5 -29 32v65c-50 -65 -118 -106 -203 -106c-152 0 -290 105 -290 360c0 245 133 360 304 360c150 0 228 -66 228 -100c0 -21 -18 -34 -32 -35
c-38 34 -91 64 -195 64c-126 0 -232 -94 -232 -290c0 -211 110 -292 223 -292c81 0 153 43 197 113v125z" />
    <glyph glyph-name="Gbreve" unicode="&#x11e;" horiz-adv-x="702" 
d="M557 295h-188c-4 9 -7 18 -7 33c0 17 6 32 46 32h160c43 0 54 -16 54 -63v-289c-9 -6 -17 -9 -36 -9c-17 0 -29 5 -29 32v65c-50 -65 -118 -106 -203 -106c-152 0 -290 105 -290 360c0 245 133 360 304 360c150 0 228 -66 228 -100c0 -21 -18 -34 -32 -35
c-38 34 -91 64 -195 64c-126 0 -232 -94 -232 -290c0 -211 110 -292 223 -292c81 0 153 43 197 113v125zM277 893c1 -18 9 -38 22 -50c15 -14 37 -20 66 -20c25 0 48 5 63 19c16 14 22 35 24 50c6 5 16 7 29 6c19 0 26 -12 24 -24c-4 -26 -15 -51 -39 -73
c-23 -20 -58 -30 -101 -30s-77 10 -101 29c-25 20 -39 48 -41 76c-1 14 6 22 23 23c13 1 23 -2 31 -6z" />
    <glyph glyph-name="Gcircumflex" unicode="&#x11c;" horiz-adv-x="702" 
d="M557 295h-188c-4 9 -7 18 -7 33c0 17 6 32 46 32h160c43 0 54 -16 54 -63v-289c-9 -6 -17 -9 -36 -9c-17 0 -29 5 -29 32v65c-50 -65 -118 -106 -203 -106c-152 0 -290 105 -290 360c0 245 133 360 304 360c150 0 228 -66 228 -100c0 -21 -18 -34 -32 -35
c-38 34 -91 64 -195 64c-126 0 -232 -94 -232 -290c0 -211 110 -292 223 -292c81 0 153 43 197 113v125zM529 798c-3 -14 -11 -24 -24 -26c-5 -2 -12 -2 -19 0c-29 8 -75 49 -116 77c-41 -28 -88 -69 -117 -77c-6 -2 -13 -2 -18 0c-13 2 -21 12 -24 26
c34 18 115 112 157 112c41 0 122 -92 161 -112z" />
    <glyph glyph-name="Gcommaaccent" unicode="&#x122;" horiz-adv-x="702" 
d="M364 -177c-27 0 -43 14 -43 42c0 29 16 44 43 44c29 0 46 -15 46 -65c0 -71 -22 -111 -48 -111c-14 0 -22 4 -25 15c19 18 27 56 27 75zM557 295h-188c-4 9 -7 18 -7 33c0 17 6 32 46 32h160c43 0 54 -16 54 -63v-289c-9 -6 -17 -9 -36 -9c-17 0 -29 5 -29 32v65
c-50 -65 -118 -106 -203 -106c-152 0 -290 105 -290 360c0 245 133 360 304 360c150 0 228 -66 228 -100c0 -21 -18 -34 -32 -35c-38 34 -91 64 -195 64c-126 0 -232 -94 -232 -290c0 -211 110 -292 223 -292c81 0 153 43 197 113v125z" />
    <glyph glyph-name="Gdotaccent" unicode="&#x120;" horiz-adv-x="702" 
d="M557 295h-188c-4 9 -7 18 -7 33c0 17 6 32 46 32h160c43 0 54 -16 54 -63v-289c-9 -6 -17 -9 -36 -9c-17 0 -29 5 -29 32v65c-50 -65 -118 -106 -203 -106c-152 0 -290 105 -290 360c0 245 133 360 304 360c150 0 228 -66 228 -100c0 -21 -18 -34 -32 -35
c-38 34 -91 64 -195 64c-126 0 -232 -94 -232 -290c0 -211 110 -292 223 -292c81 0 153 43 197 113v125zM315 830c0 32 15 47 45 47s46 -15 46 -47c0 -30 -16 -45 -46 -45s-45 15 -45 45z" />
    <glyph glyph-name="H" unicode="H" horiz-adv-x="733" 
d="M591 700c21 0 38 -8 38 -31v-660c-7 -5 -23 -9 -38 -9c-21 0 -41 5 -41 37v285h-368v-312c-6 -6 -24 -10 -43 -10c-17 0 -35 5 -35 37v655c9 5 25 8 41 8c21 0 37 -8 37 -31v-275h368v298c8 4 25 8 41 8z" />
    <glyph glyph-name="Hbar" unicode="&#x126;" horiz-adv-x="733" 
d="M591 700c21 0 38 -8 38 -31v-101h91c5 -7 8 -17 8 -33c0 -24 -10 -38 -42 -38h-57v-488c-7 -5 -23 -9 -38 -9c-21 0 -41 5 -41 37v267h-368v-294c-6 -6 -24 -10 -43 -10c-17 0 -35 5 -35 37v460h-91c-5 10 -9 17 -9 34c0 22 10 37 40 37h60v124c9 5 25 8 41 8
c21 0 37 -8 37 -31v-101h368v124c8 4 25 8 41 8zM182 497v-121h368v121h-368z" />
    <glyph glyph-name="Hcircumflex" unicode="&#x124;" horiz-adv-x="733" 
d="M591 700c21 0 38 -8 38 -31v-660c-7 -5 -23 -9 -38 -9c-21 0 -41 5 -41 37v285h-368v-312c-6 -6 -24 -10 -43 -10c-17 0 -35 5 -35 37v655c9 5 25 8 41 8c21 0 37 -8 37 -31v-275h368v298c8 4 25 8 41 8zM525 798c-3 -14 -11 -24 -24 -26c-5 -2 -12 -2 -19 0
c-29 8 -75 49 -116 77c-41 -28 -88 -69 -117 -77c-6 -2 -13 -2 -18 0c-13 2 -21 12 -24 26c34 18 115 112 157 112c41 0 122 -92 161 -112z" />
    <glyph glyph-name="I" unicode="I" horiz-adv-x="286" 
d="M146 700c20 0 36 -8 36 -31v-659c-10 -6 -21 -10 -42 -10c-20 0 -36 8 -36 37v655c9 5 23 8 42 8z" />
    <glyph glyph-name="IJ" unicode="&#x132;" horiz-adv-x="672" 
d="M146 700c20 0 36 -8 36 -31v-659c-10 -6 -21 -10 -42 -10c-20 0 -36 8 -36 37v655c9 5 23 8 42 8zM533 700c21 0 35 -7 35 -32v-532c0 -97 -51 -136 -135 -136c-88 0 -127 20 -127 47c0 13 1 19 6 29h102c53 0 80 21 80 78v538c10 5 22 8 39 8z" />
    <glyph glyph-name="Iacute" unicode="&#xcd;" horiz-adv-x="286" 
d="M146 700c20 0 36 -8 36 -31v-659c-10 -6 -21 -10 -42 -10c-20 0 -36 8 -36 37v655c9 5 23 8 42 8zM45 797c34 19 117 112 158 112c28 0 38 -15 38 -34c-50 -27 -127 -106 -161 -106c-19 0 -31 10 -35 28z" />
    <glyph glyph-name="Ibreve" unicode="&#x12c;" horiz-adv-x="286" 
d="M146 700c20 0 36 -8 36 -31v-659c-10 -6 -21 -10 -42 -10c-20 0 -36 8 -36 37v655c9 5 23 8 42 8zM56 893c1 -18 9 -38 22 -50c15 -14 37 -20 66 -20c25 0 48 5 63 19c16 14 22 35 24 50c6 5 16 7 29 6c19 0 26 -12 24 -24c-4 -26 -15 -51 -39 -73
c-23 -20 -58 -30 -101 -30s-77 10 -101 29c-25 20 -39 48 -41 76c-1 14 6 22 23 23c13 1 23 -2 31 -6z" />
    <glyph glyph-name="Icircumflex" unicode="&#xce;" horiz-adv-x="286" 
d="M146 700c20 0 36 -8 36 -31v-659c-10 -6 -21 -10 -42 -10c-20 0 -36 8 -36 37v655c9 5 23 8 42 8zM302 798c-3 -14 -11 -24 -24 -26c-5 -2 -12 -2 -19 0c-29 8 -75 49 -116 77c-41 -28 -88 -69 -117 -77c-6 -2 -13 -2 -18 0c-13 2 -21 12 -24 26c34 18 115 112 157 112
c41 0 122 -92 161 -112z" />
    <glyph glyph-name="Idieresis" unicode="&#xcf;" horiz-adv-x="286" 
d="M146 700c20 0 36 -8 36 -31v-659c-10 -6 -21 -10 -42 -10c-20 0 -36 8 -36 37v655c9 5 23 8 42 8zM-7 833c0 31 15 46 46 46c29 0 46 -15 46 -46s-17 -45 -46 -45c-31 0 -46 15 -46 45zM203 833c0 31 14 46 45 46c30 0 46 -15 46 -46s-16 -45 -46 -45s-45 15 -45 45z" />
    <glyph glyph-name="Idotaccent" unicode="&#x130;" horiz-adv-x="286" 
d="M146 700c20 0 36 -8 36 -31v-659c-10 -6 -21 -10 -42 -10c-20 0 -36 8 -36 37v655c9 5 23 8 42 8zM98 830c0 32 15 47 45 47s46 -15 46 -47c0 -30 -16 -45 -46 -45s-45 15 -45 45z" />
    <glyph glyph-name="Idotaccent.sc" horiz-adv-x="262" 
d="M134 557c19 0 34 -7 34 -28v-520c-10 -6 -21 -9 -40 -9c-20 0 -34 7 -34 34v516c8 4 22 7 40 7zM85 677c0 31 15 46 46 46c30 0 46 -15 46 -46s-16 -46 -46 -46s-46 15 -46 46z" />
    <glyph glyph-name="Igrave" unicode="&#xcc;" horiz-adv-x="286" 
d="M146 700c20 0 36 -8 36 -31v-659c-10 -6 -21 -10 -42 -10c-20 0 -36 8 -36 37v655c9 5 23 8 42 8zM241 796c-4 -18 -16 -28 -34 -28c-34 0 -112 79 -162 106c1 19 11 34 39 34c40 0 123 -93 157 -112z" />
    <glyph glyph-name="Imacron" unicode="&#x12a;" horiz-adv-x="286" 
d="M146 700c20 0 36 -8 36 -31v-659c-10 -6 -21 -10 -42 -10c-20 0 -36 8 -36 37v655c9 5 23 8 42 8zM254 799h-266c-4 8 -8 13 -8 26c0 21 5 34 45 34h274c4 -4 8 -9 8 -24c0 -16 -9 -36 -53 -36z" />
    <glyph glyph-name="Iogonek" unicode="&#x12e;" horiz-adv-x="286" 
d="M125 10h-1c-12 4 -20 12 -20 36v646c9 5 23 8 42 8c20 0 36 -8 36 -31v-659c-30 -29 -56 -77 -56 -103c0 -34 22 -42 55 -42c4 -7 5 -13 5 -22c0 -11 -4 -24 -33 -24c-34 0 -77 20 -77 76c0 44 24 86 49 115z" />
    <glyph glyph-name="Itilde" unicode="&#x128;" horiz-adv-x="286" 
d="M146 700c20 0 36 -8 36 -31v-659c-10 -6 -21 -10 -42 -10c-20 0 -36 8 -36 37v655c9 5 23 8 42 8zM60 875c56 0 111 -31 160 -31c41 0 56 16 63 24c8 -4 18 -18 18 -34c0 -24 -24 -46 -69 -46c-53 0 -127 29 -173 29c-26 0 -51 -15 -54 -26c-15 5 -20 16 -20 31
c0 20 28 53 75 53z" />
    <glyph glyph-name="J" unicode="J" horiz-adv-x="386" 
d="M247 700c21 0 35 -7 35 -32v-532c0 -97 -51 -136 -135 -136c-88 0 -127 20 -127 47c0 13 1 19 6 29h102c53 0 80 21 80 78v538c10 5 22 8 39 8z" />
    <glyph glyph-name="Jcircumflex" unicode="&#x134;" horiz-adv-x="386" 
d="M247 700c21 0 35 -7 35 -32v-532c0 -97 -51 -136 -135 -136c-88 0 -127 20 -127 47c0 13 1 19 6 29h102c53 0 80 21 80 78v538c10 5 22 8 39 8zM400 798c-3 -14 -11 -24 -24 -26c-5 -2 -12 -2 -19 0c-29 8 -75 49 -116 77c-41 -28 -88 -69 -117 -77c-6 -2 -13 -2 -18 0
c-13 2 -21 12 -24 26c34 18 115 112 157 112c41 0 122 -92 161 -112z" />
    <glyph glyph-name="K" unicode="K" horiz-adv-x="614" 
d="M145 700c22 0 36 -8 36 -31v-308c116 88 218 227 261 333c8 4 18 6 33 6s28 -12 28 -27c0 -11 -6 -31 -15 -48c-38 -73 -97 -165 -190 -250c77 -75 162 -306 239 -306h28c4 -5 7 -14 7 -26c0 -25 -17 -43 -60 -43c-104 0 -180 229 -265 333c-21 -16 -43 -32 -66 -47v-277
c-10 -6 -25 -9 -44 -9c-20 0 -33 8 -33 36v655c10 5 24 9 41 9z" />
    <glyph glyph-name="Kcommaaccent" unicode="&#x136;" horiz-adv-x="614" 
d="M304 -169c-27 0 -43 14 -43 43s16 43 43 43c29 0 46 -15 46 -65c0 -71 -22 -111 -48 -111c-14 0 -22 4 -25 15c19 18 27 57 27 75zM145 700c22 0 36 -8 36 -31v-308c116 88 218 227 261 333c8 4 18 6 33 6s28 -12 28 -27c0 -11 -6 -31 -15 -48
c-38 -73 -97 -165 -190 -250c77 -75 162 -306 239 -306h28c4 -5 7 -14 7 -26c0 -25 -17 -43 -60 -43c-104 0 -180 229 -265 333c-21 -16 -43 -32 -66 -47v-277c-10 -6 -25 -9 -44 -9c-20 0 -33 8 -33 36v655c10 5 24 9 41 9z" />
    <glyph glyph-name="L" unicode="L" horiz-adv-x="540" 
d="M144 700c18 0 38 -8 38 -31v-595h331c4 -5 9 -17 9 -32c0 -25 -11 -42 -45 -42h-338c-21 0 -35 9 -35 36v657c8 4 23 7 40 7z" />
    <glyph glyph-name="Lacute" unicode="&#x139;" horiz-adv-x="540" 
d="M144 700c18 0 38 -8 38 -31v-595h331c4 -5 9 -17 9 -32c0 -25 -11 -42 -45 -42h-338c-21 0 -35 9 -35 36v657c8 4 23 7 40 7zM118 797c34 19 117 112 158 112c28 0 38 -15 38 -34c-50 -27 -127 -106 -161 -106c-19 0 -31 10 -35 28z" />
    <glyph glyph-name="Lcaron" unicode="&#x13d;" horiz-adv-x="540" 
d="M144 700c18 0 38 -8 38 -31v-595h331c4 -5 9 -17 9 -32c0 -25 -11 -42 -45 -42h-338c-21 0 -35 9 -35 36v657c8 4 23 7 40 7zM300 608c-29 0 -46 15 -46 45c0 32 17 47 46 47c31 0 49 -16 49 -69c0 -75 -24 -118 -51 -118c-15 0 -23 5 -26 17c19 18 28 59 28 78z" />
    <glyph glyph-name="Lcommaaccent" unicode="&#x13b;" horiz-adv-x="540" 
d="M312 -161c-26 0 -43 14 -43 43s16 43 44 43s46 -15 46 -65c0 -71 -23 -111 -48 -111c-15 0 -22 4 -25 16c18 17 26 56 26 74zM144 700c18 0 38 -8 38 -31v-595h331c4 -5 9 -17 9 -32c0 -25 -11 -42 -45 -42h-338c-21 0 -35 9 -35 36v657c8 4 23 7 40 7z" />
    <glyph glyph-name="Ldot" unicode="&#x13f;" horiz-adv-x="540" 
d="M144 700c18 0 38 -8 38 -31v-595h331c4 -5 9 -17 9 -32c0 -25 -11 -42 -45 -42h-338c-21 0 -35 9 -35 36v657c8 4 23 7 40 7zM350 334c0 32 15 47 45 47s46 -15 46 -47c0 -30 -16 -45 -46 -45s-45 15 -45 45z" />
    <glyph glyph-name="Ldot.latn_CAT" horiz-adv-x="540" 
d="M144 700c18 0 38 -8 38 -31v-595h331c4 -5 9 -17 9 -32c0 -25 -11 -42 -45 -42h-338c-21 0 -35 9 -35 36v657c8 4 23 7 40 7zM350 334c0 32 15 47 45 47s46 -15 46 -47c0 -30 -16 -45 -46 -45s-45 15 -45 45z" />
    <glyph glyph-name="Lslash" unicode="&#x141;" horiz-adv-x="540" 
d="M144 700c18 0 38 -8 38 -31v-295l133 86c10 -3 29 -19 29 -40c0 -14 -10 -25 -24 -34l-138 -89v-223h331c4 -5 9 -17 9 -32c0 -25 -11 -42 -45 -42h-338c-21 0 -35 9 -35 36v211l-67 -43c-16 8 -31 21 -31 38c0 12 7 24 24 34l74 48v369c8 4 23 7 40 7z" />
    <glyph glyph-name="M" unicode="M" horiz-adv-x="897" 
d="M445 38c-24 0 -41 11 -51 42l-198 484l-33 -536c-1 -21 -16 -28 -38 -28c-15 0 -31 3 -39 7l45 639c3 33 19 54 54 54c18 0 27 -2 38 -6l222 -552l190 516c9 31 27 42 53 42c24 0 34 -4 47 -10l76 -680c-9 -6 -23 -10 -41 -10c-21 0 -38 5 -41 28l-48 536l-183 -484
c-10 -38 -30 -42 -53 -42z" />
    <glyph glyph-name="N" unicode="N" horiz-adv-x="734" 
d="M555 20l-377 531l4 -542c-6 -5 -26 -9 -44 -9c-16 0 -34 4 -34 36v656c10 5 24 8 41 8s28 -8 36 -19l375 -541l-2 550c8 6 19 10 37 10c20 0 41 -8 41 -31v-662c-7 -4 -20 -7 -40 -7c-15 0 -27 7 -37 20z" />
    <glyph glyph-name="Nacute" unicode="&#x143;" horiz-adv-x="734" 
d="M555 20l-377 531l4 -542c-6 -5 -26 -9 -44 -9c-16 0 -34 4 -34 36v656c10 5 24 8 41 8s28 -8 36 -19l375 -541l-2 550c8 6 19 10 37 10c20 0 41 -8 41 -31v-662c-7 -4 -20 -7 -40 -7c-15 0 -27 7 -37 20zM269 797c34 19 117 112 158 112c28 0 38 -15 38 -34
c-50 -27 -127 -106 -161 -106c-19 0 -31 10 -35 28z" />
    <glyph glyph-name="Ncaron" unicode="&#x147;" horiz-adv-x="734" 
d="M555 20l-377 531l4 -542c-6 -5 -26 -9 -44 -9c-16 0 -34 4 -34 36v656c10 5 24 8 41 8s28 -8 36 -19l375 -541l-2 550c8 6 19 10 37 10c20 0 41 -8 41 -31v-662c-7 -4 -20 -7 -40 -7c-15 0 -27 7 -37 20zM366 770c-8 0 -13 2 -17 5c-38 17 -101 78 -144 101
c1 19 17 34 39 34c29 0 83 -50 123 -84c41 34 95 84 124 84c21 0 38 -15 39 -34c-43 -23 -105 -83 -144 -101c-4 -2 -9 -5 -20 -5z" />
    <glyph glyph-name="Ncommaaccent" unicode="&#x145;" horiz-adv-x="734" 
d="M375 -167c-27 0 -43 14 -43 42c0 29 16 43 43 43c29 0 46 -14 46 -64c0 -71 -22 -111 -48 -111c-14 0 -22 4 -25 15c19 18 27 56 27 75zM555 20l-377 531l4 -542c-6 -5 -26 -9 -44 -9c-16 0 -34 4 -34 36v656c10 5 24 8 41 8s28 -8 36 -19l375 -541l-2 550
c8 6 19 10 37 10c20 0 41 -8 41 -31v-662c-7 -4 -20 -7 -40 -7c-15 0 -27 7 -37 20z" />
    <glyph glyph-name="Ntilde" unicode="&#xd1;" horiz-adv-x="734" 
d="M555 20l-377 531l4 -542c-6 -5 -26 -9 -44 -9c-16 0 -34 4 -34 36v656c10 5 24 8 41 8s28 -8 36 -19l375 -541l-2 550c8 6 19 10 37 10c20 0 41 -8 41 -31v-662c-7 -4 -20 -7 -40 -7c-15 0 -27 7 -37 20zM284 875c56 0 111 -31 160 -31c41 0 56 16 63 24
c8 -4 18 -18 18 -34c0 -24 -24 -46 -69 -46c-53 0 -127 29 -173 29c-26 0 -51 -15 -54 -26c-15 5 -20 16 -20 31c0 20 28 53 75 53z" />
    <glyph glyph-name="O" unicode="O" horiz-adv-x="712" 
d="M64 350c0 245 121 360 295 360c172 0 288 -115 288 -360c0 -258 -117 -360 -288 -360c-173 0 -295 105 -295 360zM140 349c0 -211 92 -291 220 -291s211 80 211 291c0 197 -85 291 -212 291c-132 0 -219 -95 -219 -291z" />
    <glyph glyph-name="OE" unicode="&#x152;" horiz-adv-x="1030" 
d="M946 0h-411c-7 0 -16 0 -22 4c-52 -11 -93 -14 -145 -14c-182 0 -304 105 -304 360c0 236 113 360 304 360c46 0 87 -4 137 -15c8 4 18 5 33 5h432c4 -5 8 -14 8 -32c0 -25 -10 -42 -32 -42h-370v-230h334c5 -5 9 -17 9 -35c0 -25 -11 -39 -31 -39h-312v-248h394
c4 -5 8 -14 8 -32c0 -25 -10 -42 -32 -42zM140 349c0 -211 92 -291 228 -291c45 0 89 5 130 16v545c-45 17 -82 21 -130 21c-141 0 -228 -95 -228 -291z" />
    <glyph glyph-name="Oacute" unicode="&#xd3;" horiz-adv-x="712" 
d="M64 350c0 245 121 360 295 360c172 0 288 -115 288 -360c0 -258 -117 -360 -288 -360c-173 0 -295 105 -295 360zM140 349c0 -211 92 -291 220 -291s211 80 211 291c0 197 -85 291 -212 291c-132 0 -219 -95 -219 -291zM257 797c34 19 117 112 158 112
c28 0 38 -15 38 -34c-50 -27 -127 -106 -161 -106c-19 0 -31 10 -35 28z" />
    <glyph glyph-name="Obreve" unicode="&#x14e;" horiz-adv-x="712" 
d="M64 350c0 245 121 360 295 360c172 0 288 -115 288 -360c0 -258 -117 -360 -288 -360c-173 0 -295 105 -295 360zM140 349c0 -211 92 -291 220 -291s211 80 211 291c0 197 -85 291 -212 291c-132 0 -219 -95 -219 -291zM274 893c1 -18 9 -38 22 -50c15 -14 37 -20 66 -20
c25 0 48 5 63 19c16 14 22 35 24 50c6 5 16 7 29 6c19 0 26 -12 24 -24c-4 -26 -15 -51 -39 -73c-23 -20 -58 -30 -101 -30s-77 10 -101 29c-25 20 -39 48 -41 76c-1 14 6 22 23 23c13 1 23 -2 31 -6z" />
    <glyph glyph-name="Ocircumflex" unicode="&#xd4;" horiz-adv-x="712" 
d="M64 350c0 245 121 360 295 360c172 0 288 -115 288 -360c0 -258 -117 -360 -288 -360c-173 0 -295 105 -295 360zM140 349c0 -211 92 -291 220 -291s211 80 211 291c0 197 -85 291 -212 291c-132 0 -219 -95 -219 -291zM515 798c-3 -14 -11 -24 -24 -26
c-5 -2 -12 -2 -19 0c-29 8 -75 49 -116 77c-41 -28 -88 -69 -117 -77c-6 -2 -13 -2 -18 0c-13 2 -21 12 -24 26c34 18 115 112 157 112c41 0 122 -92 161 -112z" />
    <glyph glyph-name="Odieresis" unicode="&#xd6;" horiz-adv-x="712" 
d="M64 350c0 245 121 360 295 360c172 0 288 -115 288 -360c0 -258 -117 -360 -288 -360c-173 0 -295 105 -295 360zM140 349c0 -211 92 -291 220 -291s211 80 211 291c0 197 -85 291 -212 291c-132 0 -219 -95 -219 -291zM205 833c0 31 15 46 46 46c29 0 46 -15 46 -46
s-17 -45 -46 -45c-31 0 -46 15 -46 45zM415 833c0 31 14 46 45 46c30 0 46 -15 46 -46s-16 -45 -46 -45s-45 15 -45 45z" />
    <glyph glyph-name="Ograve" unicode="&#xd2;" horiz-adv-x="712" 
d="M64 350c0 245 121 360 295 360c172 0 288 -115 288 -360c0 -258 -117 -360 -288 -360c-173 0 -295 105 -295 360zM140 349c0 -211 92 -291 220 -291s211 80 211 291c0 197 -85 291 -212 291c-132 0 -219 -95 -219 -291zM454 796c-4 -18 -16 -28 -34 -28
c-34 0 -112 79 -162 106c1 19 11 34 39 34c40 0 123 -93 157 -112z" />
    <glyph glyph-name="Ohungarumlaut" unicode="&#x150;" horiz-adv-x="712" 
d="M64 350c0 245 121 360 295 360c172 0 288 -115 288 -360c0 -258 -117 -360 -288 -360c-173 0 -295 105 -295 360zM140 349c0 -211 92 -291 220 -291s211 80 211 291c0 197 -85 291 -212 291c-132 0 -219 -95 -219 -291zM178 797c35 25 102 132 146 132
c26 0 36 -11 39 -28c-50 -35 -115 -127 -152 -127c-17 0 -28 8 -33 23zM353 802c34 19 118 112 158 112c28 0 38 -15 39 -34c-51 -27 -128 -106 -162 -106c-18 0 -31 10 -35 28z" />
    <glyph glyph-name="Omacron" unicode="&#x14c;" horiz-adv-x="712" 
d="M64 350c0 245 121 360 295 360c172 0 288 -115 288 -360c0 -258 -117 -360 -288 -360c-173 0 -295 105 -295 360zM140 349c0 -211 92 -291 220 -291s211 80 211 291c0 197 -85 291 -212 291c-132 0 -219 -95 -219 -291zM466 799h-266c-4 8 -8 13 -8 26c0 21 5 34 45 34
h274c4 -4 8 -9 8 -24c0 -16 -9 -36 -53 -36z" />
    <glyph glyph-name="Omega" unicode="&#x2126;" horiz-adv-x="712" 
d="M227 62l1 3c-79 30 -164 117 -164 292c0 238 121 353 295 353c172 0 288 -114 288 -353c0 -161 -73 -258 -157 -292v-3l166 3c4 -5 8 -9 8 -27c0 -22 -10 -38 -32 -38h-241c-5 9 -10 23 -10 46c0 20 5 39 19 40c99 4 171 89 171 270c0 190 -85 284 -212 284
c-132 0 -219 -95 -219 -283c0 -189 97 -267 185 -272c4 -8 9 -22 9 -42c0 -23 -11 -43 -32 -43h-245c-5 9 -10 15 -10 30c0 23 11 35 47 35z" />
    <glyph glyph-name="Oslash" unicode="&#xd8;" horiz-adv-x="712" 
d="M64 350c0 245 121 360 295 360c39 0 73 -6 106 -18l45 115c8 4 17 5 28 5c16 0 27 -10 28 -21c0 -4 -1 -9 -3 -14l-45 -114c82 -52 129 -157 129 -313c0 -258 -117 -360 -288 -360c-35 0 -68 4 -99 13l-53 -137c-7 -3 -14 -3 -24 -3c-14 0 -31 8 -31 21c0 5 1 10 4 16
l50 130c-88 48 -142 150 -142 320zM140 349c0 -130 36 -207 98 -245l198 522c-24 9 -49 14 -77 14c-132 0 -219 -95 -219 -291zM571 349c0 113 -32 193 -87 236l-195 -518c21 -6 45 -9 71 -9c128 0 211 80 211 291z" />
    <glyph glyph-name="Oslashacute" unicode="&#x1fe;" horiz-adv-x="712" 
d="M64 350c0 245 121 360 295 360c39 0 73 -6 106 -18l45 115c8 4 17 5 28 5c16 0 27 -10 28 -21c0 -4 -1 -9 -3 -14l-45 -114c82 -52 129 -157 129 -313c0 -258 -117 -360 -288 -360c-35 0 -68 4 -99 13l-53 -137c-7 -3 -14 -3 -24 -3c-14 0 -31 8 -31 21c0 5 1 10 4 16
l50 130c-88 48 -142 150 -142 320zM140 349c0 -130 36 -207 98 -245l198 522c-24 9 -49 14 -77 14c-132 0 -219 -95 -219 -291zM571 349c0 113 -32 193 -87 236l-195 -518c21 -6 45 -9 71 -9c128 0 211 80 211 291zM257 797c34 19 117 112 158 112c28 0 38 -15 38 -34
c-50 -27 -127 -106 -161 -106c-19 0 -31 10 -35 28z" />
    <glyph glyph-name="Otilde" unicode="&#xd5;" horiz-adv-x="712" 
d="M64 350c0 245 121 360 295 360c172 0 288 -115 288 -360c0 -258 -117 -360 -288 -360c-173 0 -295 105 -295 360zM140 349c0 -211 92 -291 220 -291s211 80 211 291c0 197 -85 291 -212 291c-132 0 -219 -95 -219 -291zM273 875c56 0 111 -31 160 -31c41 0 56 16 63 24
c8 -4 18 -18 18 -34c0 -24 -24 -46 -69 -46c-53 0 -127 29 -173 29c-26 0 -51 -15 -54 -26c-15 5 -20 16 -20 31c0 20 28 53 75 53z" />
    <glyph glyph-name="P" unicode="P" horiz-adv-x="621" 
d="M143 700h219c110 0 197 -64 197 -206c0 -170 -112 -216 -222 -216h-155v-270c-8 -5 -24 -8 -43 -8s-35 7 -35 36v657c10 5 20 7 39 7zM350 636h-168v-293h139c97 0 164 35 164 146c0 100 -52 147 -135 147z" />
    <glyph glyph-name="Q" unicode="Q" horiz-adv-x="712" 
d="M64 350c0 245 121 360 295 360c172 0 288 -115 288 -360c0 -187 -61 -290 -161 -333c36 -68 81 -103 128 -103h50c3 -6 6 -15 6 -28c0 -29 -24 -49 -68 -49c-80 0 -140 62 -183 158c-19 -3 -39 -5 -60 -5c-173 0 -295 105 -295 360zM140 349c0 -211 92 -291 220 -291
s211 80 211 291c0 197 -85 291 -212 291c-132 0 -219 -95 -219 -291z" />
    <glyph glyph-name="R" unicode="R" horiz-adv-x="670" 
d="M143 700h219c110 0 201 -51 201 -193c0 -111 -77 -177 -163 -196c65 -85 113 -242 183 -242h28c4 -5 7 -14 7 -26c0 -25 -17 -43 -60 -43c-103 0 -148 202 -232 305h-144v-296c-7 -6 -23 -9 -39 -9c-21 0 -39 5 -39 36v657c8 5 22 7 39 7zM347 638h-165v-271h152
c84 0 155 43 155 139s-56 132 -142 132z" />
    <glyph glyph-name="Racute" unicode="&#x154;" horiz-adv-x="670" 
d="M143 700h219c110 0 201 -51 201 -193c0 -111 -77 -177 -163 -196c65 -85 113 -242 183 -242h28c4 -5 7 -14 7 -26c0 -25 -17 -43 -60 -43c-103 0 -148 202 -232 305h-144v-296c-7 -6 -23 -9 -39 -9c-21 0 -39 5 -39 36v657c8 5 22 7 39 7zM347 638h-165v-271h152
c84 0 155 43 155 139s-56 132 -142 132zM236 797c34 19 117 112 158 112c28 0 38 -15 38 -34c-50 -27 -127 -106 -161 -106c-19 0 -31 10 -35 28z" />
    <glyph glyph-name="Rcaron" unicode="&#x158;" horiz-adv-x="670" 
d="M143 700h219c110 0 201 -51 201 -193c0 -111 -77 -177 -163 -196c65 -85 113 -242 183 -242h28c4 -5 7 -14 7 -26c0 -25 -17 -43 -60 -43c-103 0 -148 202 -232 305h-144v-296c-7 -6 -23 -9 -39 -9c-21 0 -39 5 -39 36v657c8 5 22 7 39 7zM347 638h-165v-271h152
c84 0 155 43 155 139s-56 132 -142 132zM304 770c-8 0 -13 2 -17 5c-38 17 -101 78 -144 101c1 19 17 34 39 34c29 0 83 -50 123 -84c41 34 95 84 124 84c21 0 38 -15 39 -34c-43 -23 -105 -83 -144 -101c-4 -2 -9 -5 -20 -5z" />
    <glyph glyph-name="Rcommaaccent" unicode="&#x156;" horiz-adv-x="670" 
d="M338 -177c-26 0 -42 14 -42 42c0 29 15 44 43 44s46 -15 46 -65c0 -71 -22 -111 -48 -111c-15 0 -22 4 -25 15c19 18 26 56 26 75zM143 700h219c110 0 201 -51 201 -193c0 -111 -77 -177 -163 -196c65 -85 113 -242 183 -242h28c4 -5 7 -14 7 -26c0 -25 -17 -43 -60 -43
c-103 0 -148 202 -232 305h-144v-296c-7 -6 -23 -9 -39 -9c-21 0 -39 5 -39 36v657c8 5 22 7 39 7zM347 638h-165v-271h152c84 0 155 43 155 139s-56 132 -142 132z" />
    <glyph glyph-name="S" unicode="S" horiz-adv-x="608" 
d="M299 710c117 0 178 -33 207 -61c11 -11 16 -26 16 -39c0 -15 -11 -29 -22 -37c-31 26 -94 55 -201 55c-106 0 -148 -46 -148 -104c0 -62 43 -96 178 -135c150 -40 220 -89 221 -206c1 -116 -78 -193 -245 -193c-91 0 -160 21 -202 47c-30 19 -45 39 -45 59
c0 19 7 32 14 40c50 -43 140 -69 230 -69c126 0 172 50 172 113c0 65 -39 100 -170 137c-168 46 -229 94 -229 208c0 105 70 185 224 185z" />
    <glyph glyph-name="S_S" horiz-adv-x="1217" 
d="M299 710c117 0 178 -33 207 -61c11 -11 16 -26 16 -39c0 -15 -11 -29 -22 -37c-31 26 -94 55 -201 55c-106 0 -148 -46 -148 -104c0 -62 43 -96 178 -135c150 -40 220 -89 221 -206c1 -116 -78 -193 -245 -193c-91 0 -160 21 -202 47c-30 19 -45 39 -45 59
c0 19 7 32 14 40c50 -43 140 -69 230 -69c126 0 172 50 172 113c0 65 -39 100 -170 137c-168 46 -229 94 -229 208c0 105 70 185 224 185zM907 710c117 0 178 -33 207 -61c11 -11 16 -26 16 -39c0 -15 -11 -29 -22 -37c-31 26 -94 55 -201 55c-106 0 -148 -46 -148 -104
c0 -62 43 -96 178 -135c150 -40 220 -89 221 -206c1 -116 -78 -193 -245 -193c-91 0 -160 21 -202 47c-30 19 -45 39 -45 59c0 19 7 32 14 40c50 -43 140 -69 230 -69c126 0 172 50 172 113c0 65 -39 100 -170 137c-168 46 -229 94 -229 208c0 105 70 185 224 185z" />
    <glyph glyph-name="Sacute" unicode="&#x15a;" horiz-adv-x="608" 
d="M299 710c117 0 178 -33 207 -61c11 -11 16 -26 16 -39c0 -15 -11 -29 -22 -37c-31 26 -94 55 -201 55c-106 0 -148 -46 -148 -104c0 -62 43 -96 178 -135c150 -40 220 -89 221 -206c1 -116 -78 -193 -245 -193c-91 0 -160 21 -202 47c-30 19 -45 39 -45 59
c0 19 7 32 14 40c50 -43 140 -69 230 -69c126 0 172 50 172 113c0 65 -39 100 -170 137c-168 46 -229 94 -229 208c0 105 70 185 224 185zM211 797c34 19 117 112 158 112c28 0 38 -15 38 -34c-50 -27 -127 -106 -161 -106c-19 0 -31 10 -35 28z" />
    <glyph glyph-name="Scaron" unicode="&#x160;" horiz-adv-x="608" 
d="M299 710c117 0 178 -33 207 -61c11 -11 16 -26 16 -39c0 -15 -11 -29 -22 -37c-31 26 -94 55 -201 55c-106 0 -148 -46 -148 -104c0 -62 43 -96 178 -135c150 -40 220 -89 221 -206c1 -116 -78 -193 -245 -193c-91 0 -160 21 -202 47c-30 19 -45 39 -45 59
c0 19 7 32 14 40c50 -43 140 -69 230 -69c126 0 172 50 172 113c0 65 -39 100 -170 137c-168 46 -229 94 -229 208c0 105 70 185 224 185zM303 770c-8 0 -13 2 -17 5c-38 17 -101 78 -144 101c1 19 17 34 39 34c29 0 83 -50 123 -84c41 34 95 84 124 84c21 0 38 -15 39 -34
c-43 -23 -105 -83 -144 -101c-4 -2 -9 -5 -20 -5z" />
    <glyph glyph-name="Scedilla" unicode="&#x15e;" horiz-adv-x="608" 
d="M299 710c117 0 178 -33 207 -61c11 -11 16 -26 16 -39c0 -15 -11 -29 -22 -37c-31 26 -94 55 -201 55c-106 0 -148 -46 -148 -104c0 -62 43 -96 178 -135c150 -40 220 -89 221 -206c1 -116 -78 -193 -245 -193c-91 0 -160 21 -202 47c-30 19 -45 39 -45 59
c0 19 7 32 14 40c50 -43 140 -69 230 -69c126 0 172 50 172 113c0 65 -39 100 -170 137c-168 46 -229 94 -229 208c0 105 70 185 224 185zM344 -115c0 30 -35 40 -64 41c-3 3 -6 11 -6 20l1 67l49 -1l-4 -51c44 -6 70 -31 70 -80c0 -50 -34 -80 -87 -80s-78 24 -78 44
c0 15 11 23 19 27c9 -13 31 -26 56 -26c26 0 44 13 44 39z" />
    <glyph glyph-name="Scircumflex" unicode="&#x15c;" horiz-adv-x="608" 
d="M299 710c117 0 178 -33 207 -61c11 -11 16 -26 16 -39c0 -15 -11 -29 -22 -37c-31 26 -94 55 -201 55c-106 0 -148 -46 -148 -104c0 -62 43 -96 178 -135c150 -40 220 -89 221 -206c1 -116 -78 -193 -245 -193c-91 0 -160 21 -202 47c-30 19 -45 39 -45 59
c0 19 7 32 14 40c50 -43 140 -69 230 -69c126 0 172 50 172 113c0 65 -39 100 -170 137c-168 46 -229 94 -229 208c0 105 70 185 224 185zM463 798c-3 -14 -11 -24 -24 -26c-5 -2 -12 -2 -19 0c-29 8 -75 49 -116 77c-41 -28 -88 -69 -117 -77c-6 -2 -13 -2 -18 0
c-13 2 -21 12 -24 26c34 18 115 112 157 112c41 0 122 -92 161 -112z" />
    <glyph glyph-name="Scommaaccent" unicode="&#x218;" horiz-adv-x="608" 
d="M302 -165c-27 0 -43 14 -43 43s15 43 43 43s46 -15 46 -65c0 -70 -22 -111 -48 -111c-14 0 -22 4 -25 16c19 18 27 56 27 74zM299 710c117 0 178 -33 207 -61c11 -11 16 -26 16 -39c0 -15 -11 -29 -22 -37c-31 26 -94 55 -201 55c-106 0 -148 -46 -148 -104
c0 -62 43 -96 178 -135c150 -40 220 -89 221 -206c1 -116 -78 -193 -245 -193c-91 0 -160 21 -202 47c-30 19 -45 39 -45 59c0 19 7 32 14 40c50 -43 140 -69 230 -69c126 0 172 50 172 113c0 65 -39 100 -170 137c-168 46 -229 94 -229 208c0 105 70 185 224 185z" />
    <glyph glyph-name="T" unicode="T" horiz-adv-x="598" 
d="M549 626h-212v-618c-8 -6 -23 -8 -43 -8c-18 0 -33 9 -33 36v590h-236c-5 10 -9 22 -9 38c0 18 10 36 41 36h516c5 -6 9 -17 9 -32c0 -25 -11 -42 -33 -42z" />
    <glyph glyph-name="T_h" horiz-adv-x="1061" 
d="M576 37v589h-239v-618c-8 -6 -23 -8 -43 -8c-18 0 -33 9 -33 36v590h-236c-5 10 -9 22 -9 38c0 18 10 36 41 36h584c7 -7 10 -15 10 -35v-277c42 60 110 104 182 104c89 0 140 -52 140 -159v-252c0 -18 8 -25 22 -25h31c4 -5 5 -11 5 -22c0 -20 -24 -34 -70 -34
c-40 0 -64 20 -64 74v241c0 69 -28 100 -86 100c-61 0 -123 -38 -160 -105v-302c-7 -5 -22 -8 -39 -8s-36 5 -36 37z" />
    <glyph glyph-name="Tbar" unicode="&#x166;" horiz-adv-x="598" 
d="M549 626h-212v-253h150c5 -9 7 -22 7 -36c0 -19 -7 -38 -36 -38h-121v-291c-8 -6 -23 -8 -43 -8c-18 0 -33 9 -33 36v263h-150c-4 10 -8 19 -8 38s9 36 32 36h126v253h-236c-5 10 -9 22 -9 38c0 18 10 36 41 36h516c5 -6 9 -17 9 -32c0 -25 -11 -42 -33 -42z" />
    <glyph glyph-name="Tbar_h" horiz-adv-x="1061" 
d="M455 299h-118v-291c-8 -6 -23 -8 -43 -8c-18 0 -33 9 -33 36v263h-148c-5 10 -9 18 -9 35c0 23 9 39 38 39h119v253h-236c-5 10 -9 22 -9 38c0 18 10 36 41 36h584c7 -7 10 -15 10 -35v-277c42 60 110 104 182 104c89 0 140 -52 140 -159v-252c0 -18 8 -25 22 -25h31
c4 -5 5 -11 5 -22c0 -20 -24 -34 -70 -34c-40 0 -64 20 -64 74v241c0 69 -28 100 -86 100c-61 0 -123 -38 -160 -105v-302c-7 -5 -22 -8 -39 -8s-36 5 -36 37v589h-239v-253h148c5 -7 8 -18 8 -35c0 -23 -7 -39 -38 -39z" />
    <glyph glyph-name="Tcaron" unicode="&#x164;" horiz-adv-x="598" 
d="M549 626h-212v-618c-8 -6 -23 -8 -43 -8c-18 0 -33 9 -33 36v590h-236c-5 10 -9 22 -9 38c0 18 10 36 41 36h516c5 -6 9 -17 9 -32c0 -25 -11 -42 -33 -42zM297 770c-8 0 -13 2 -17 5c-38 17 -101 78 -144 101c1 19 17 34 39 34c29 0 83 -50 123 -84c41 34 95 84 124 84
c21 0 38 -15 39 -34c-43 -23 -105 -83 -144 -101c-4 -2 -9 -5 -20 -5z" />
    <glyph glyph-name="Tcaron_h" horiz-adv-x="1061" 
d="M576 37v589h-239v-618c-8 -6 -23 -8 -43 -8c-18 0 -33 9 -33 36v590h-236c-5 10 -9 22 -9 38c0 18 10 36 41 36h584c7 -7 10 -15 10 -35v-277c42 60 110 104 182 104c89 0 140 -52 140 -159v-252c0 -18 8 -25 22 -25h31c4 -5 5 -11 5 -22c0 -20 -24 -34 -70 -34
c-40 0 -64 20 -64 74v241c0 69 -28 100 -86 100c-61 0 -123 -38 -160 -105v-302c-7 -5 -22 -8 -39 -8s-36 5 -36 37zM297 770c-8 0 -13 2 -17 5c-38 17 -101 78 -144 101c1 19 17 34 39 34c29 0 83 -50 123 -84c41 34 95 84 124 84c21 0 38 -15 39 -34
c-43 -23 -105 -83 -144 -101c-4 -2 -9 -5 -20 -5z" />
    <glyph glyph-name="Tcommaaccent" unicode="&#x162;" horiz-adv-x="598" 
d="M299 -177c-26 0 -43 14 -43 43s16 43 44 43s46 -15 46 -65c0 -70 -23 -111 -48 -111c-15 0 -22 4 -25 16c18 18 26 56 26 74zM549 626h-212v-618c-8 -6 -23 -8 -43 -8c-18 0 -33 9 -33 36v590h-236c-5 10 -9 22 -9 38c0 18 10 36 41 36h516c5 -6 9 -17 9 -32
c0 -25 -11 -42 -33 -42z" />
    <glyph glyph-name="Tcommaaccent_h" horiz-adv-x="1061" 
d="M576 37v589h-239v-618c-8 -6 -23 -8 -43 -8c-18 0 -33 9 -33 36v590h-236c-5 10 -9 22 -9 38c0 18 10 36 41 36h584c7 -7 10 -15 10 -35v-277c42 60 110 104 182 104c89 0 140 -52 140 -159v-252c0 -18 8 -25 22 -25h31c4 -5 5 -11 5 -22c0 -20 -24 -34 -70 -34
c-40 0 -64 20 -64 74v241c0 69 -28 100 -86 100c-61 0 -123 -38 -160 -105v-302c-7 -5 -22 -8 -39 -8s-36 5 -36 37zM302 -156c-29 0 -46 15 -46 45c0 32 17 47 46 47c31 0 49 -16 49 -69c0 -75 -24 -118 -51 -118c-15 0 -23 5 -26 17c19 18 28 59 28 78z" />
    <glyph glyph-name="Thorn" unicode="&#xde;" horiz-adv-x="593" 
d="M140 700c18 0 32 -8 32 -24v-102h180c110 0 197 -64 197 -206c0 -170 -112 -217 -222 -217h-155v-143c-8 -5 -24 -8 -43 -8s-35 7 -35 36v657c10 5 27 7 46 7zM340 510h-168v-293h139c97 0 164 34 164 146c0 100 -52 147 -135 147z" />
    <glyph glyph-name="U" unicode="U" horiz-adv-x="701" 
d="M530 264v428c8 5 20 8 39 8c22 0 39 -8 39 -31v-415c0 -176 -85 -264 -258 -264s-252 85 -252 264l-1 438c8 5 23 8 40 8c23 0 38 -8 38 -31v-404c0 -135 48 -204 175 -204c133 0 180 68 180 203z" />
    <glyph glyph-name="Uacute" unicode="&#xda;" horiz-adv-x="701" 
d="M530 264v428c8 5 20 8 39 8c22 0 39 -8 39 -31v-415c0 -176 -85 -264 -258 -264s-252 85 -252 264l-1 438c8 5 23 8 40 8c23 0 38 -8 38 -31v-404c0 -135 48 -204 175 -204c133 0 180 68 180 203zM252 797c34 19 117 112 158 112c28 0 38 -15 38 -34
c-50 -27 -127 -106 -161 -106c-19 0 -31 10 -35 28z" />
    <glyph glyph-name="Ubreve" unicode="&#x16c;" horiz-adv-x="701" 
d="M530 264v428c8 5 20 8 39 8c22 0 39 -8 39 -31v-415c0 -176 -85 -264 -258 -264s-252 85 -252 264l-1 438c8 5 23 8 40 8c23 0 38 -8 38 -31v-404c0 -135 48 -204 175 -204c133 0 180 68 180 203zM263 893c1 -18 9 -38 22 -50c15 -14 37 -20 66 -20c25 0 48 5 63 19
c16 14 22 35 24 50c6 5 16 7 29 6c19 0 26 -12 24 -24c-4 -26 -15 -51 -39 -73c-23 -20 -58 -30 -101 -30s-77 10 -101 29c-25 20 -39 48 -41 76c-1 14 6 22 23 23c13 1 23 -2 31 -6z" />
    <glyph glyph-name="Ucircumflex" unicode="&#xdb;" horiz-adv-x="701" 
d="M530 264v428c8 5 20 8 39 8c22 0 39 -8 39 -31v-415c0 -176 -85 -264 -258 -264s-252 85 -252 264l-1 438c8 5 23 8 40 8c23 0 38 -8 38 -31v-404c0 -135 48 -204 175 -204c133 0 180 68 180 203zM509 798c-3 -14 -11 -24 -24 -26c-5 -2 -12 -2 -19 0
c-29 8 -75 49 -116 77c-41 -28 -88 -69 -117 -77c-6 -2 -13 -2 -18 0c-13 2 -21 12 -24 26c34 18 115 112 157 112c41 0 122 -92 161 -112z" />
    <glyph glyph-name="Udieresis" unicode="&#xdc;" horiz-adv-x="701" 
d="M530 264v428c8 5 20 8 39 8c22 0 39 -8 39 -31v-415c0 -176 -85 -264 -258 -264s-252 85 -252 264l-1 438c8 5 23 8 40 8c23 0 38 -8 38 -31v-404c0 -135 48 -204 175 -204c133 0 180 68 180 203zM200 833c0 31 15 46 46 46c29 0 46 -15 46 -46s-17 -45 -46 -45
c-31 0 -46 15 -46 45zM410 833c0 31 14 46 45 46c30 0 46 -15 46 -46s-16 -45 -46 -45s-45 15 -45 45z" />
    <glyph glyph-name="Ugrave" unicode="&#xd9;" horiz-adv-x="701" 
d="M530 264v428c8 5 20 8 39 8c22 0 39 -8 39 -31v-415c0 -176 -85 -264 -258 -264s-252 85 -252 264l-1 438c8 5 23 8 40 8c23 0 38 -8 38 -31v-404c0 -135 48 -204 175 -204c133 0 180 68 180 203zM448 796c-4 -18 -16 -28 -34 -28c-34 0 -112 79 -162 106
c1 19 11 34 39 34c40 0 123 -93 157 -112z" />
    <glyph glyph-name="Uhungarumlaut" unicode="&#x170;" horiz-adv-x="701" 
d="M530 264v428c8 5 20 8 39 8c22 0 39 -8 39 -31v-415c0 -176 -85 -264 -258 -264s-252 85 -252 264l-1 438c8 5 23 8 40 8c23 0 38 -8 38 -31v-404c0 -135 48 -204 175 -204c133 0 180 68 180 203zM184 797c35 25 102 132 146 132c26 0 36 -11 39 -28
c-50 -35 -115 -127 -152 -127c-17 0 -28 8 -33 23zM359 802c34 19 118 112 158 112c28 0 38 -15 39 -34c-51 -27 -128 -106 -162 -106c-18 0 -31 10 -35 28z" />
    <glyph glyph-name="Umacron" unicode="&#x16a;" horiz-adv-x="701" 
d="M530 264v428c8 5 20 8 39 8c22 0 39 -8 39 -31v-415c0 -176 -85 -264 -258 -264s-252 85 -252 264l-1 438c8 5 23 8 40 8c23 0 38 -8 38 -31v-404c0 -135 48 -204 175 -204c133 0 180 68 180 203zM461 799h-266c-4 8 -8 13 -8 26c0 21 5 34 45 34h274c4 -4 8 -9 8 -24
c0 -16 -9 -36 -53 -36z" />
    <glyph glyph-name="Uogonek" unicode="&#x172;" horiz-adv-x="701" 
d="M409 -6c-16 -3 -47 -4 -59 -4c-173 0 -252 85 -252 264l-1 438c8 5 23 8 40 8c23 0 38 -8 38 -31v-404c0 -135 48 -204 175 -204c133 0 180 68 180 203v428c8 5 20 8 39 8c22 0 39 -8 39 -31v-415c0 -127 -45 -199 -111 -233c-52 -27 -80 -87 -80 -113
c0 -34 23 -42 56 -42c3 -7 5 -13 5 -22c0 -11 -5 -23 -34 -23c-33 0 -77 19 -77 76c0 41 19 74 42 97z" />
    <glyph glyph-name="Uring" unicode="&#x16e;" horiz-adv-x="701" 
d="M530 264v428c8 5 20 8 39 8c22 0 39 -8 39 -31v-415c0 -176 -85 -264 -258 -264s-252 85 -252 264l-1 438c8 5 23 8 40 8c23 0 38 -8 38 -31v-404c0 -135 48 -204 175 -204c133 0 180 68 180 203zM262 851c0 58 29 88 88 88c58 0 88 -32 88 -88c0 -57 -30 -88 -88 -88
c-59 0 -88 31 -88 88zM303 851c0 -30 16 -47 47 -47c30 0 47 17 47 47c0 29 -17 47 -47 47c-32 0 -47 -16 -47 -47z" />
    <glyph glyph-name="Utilde" unicode="&#x168;" horiz-adv-x="701" 
d="M530 264v428c8 5 20 8 39 8c22 0 39 -8 39 -31v-415c0 -176 -85 -264 -258 -264s-252 85 -252 264l-1 438c8 5 23 8 40 8c23 0 38 -8 38 -31v-404c0 -135 48 -204 175 -204c133 0 180 68 180 203zM268 875c56 0 111 -31 160 -31c41 0 56 16 63 24c8 -4 18 -18 18 -34
c0 -24 -24 -46 -69 -46c-53 0 -127 29 -173 29c-26 0 -51 -15 -54 -26c-15 5 -20 16 -20 31c0 20 28 53 75 53z" />
    <glyph glyph-name="V" unicode="V" horiz-adv-x="647" 
d="M69 700c20 0 33 -8 41 -27l224 -567c86 142 202 448 220 585c11 6 22 9 41 9c15 0 28 -8 28 -20c0 -6 -1 -21 -7 -52c-21 -115 -140 -421 -259 -622c-11 -4 -20 -6 -34 -6c-19 0 -30 10 -39 32l-260 660c10 5 26 8 45 8z" />
    <glyph glyph-name="W" unicode="W" horiz-adv-x="1000" 
d="M453 700c20 0 33 -8 40 -27l224 -567c86 142 179 448 196 585c12 6 23 9 41 9c15 0 28 -8 28 -20c0 -6 -1 -21 -6 -52c-21 -115 -117 -421 -235 -622c-11 -4 -21 -6 -34 -6c-19 0 -31 10 -39 32l-142 360c-52 -127 -123 -279 -185 -385c-11 -4 -20 -6 -34 -6
c-19 0 -30 10 -39 31l-250 660c10 5 26 8 45 8c20 0 33 -8 41 -27l214 -566c50 84 122 248 170 381l-80 204c9 5 26 8 45 8z" />
    <glyph glyph-name="Wacute" unicode="&#x1e82;" horiz-adv-x="1000" 
d="M453 700c20 0 33 -8 40 -27l224 -567c86 142 179 448 196 585c12 6 23 9 41 9c15 0 28 -8 28 -20c0 -6 -1 -21 -6 -52c-21 -115 -117 -421 -235 -622c-11 -4 -21 -6 -34 -6c-19 0 -31 10 -39 32l-142 360c-52 -127 -123 -279 -185 -385c-11 -4 -20 -6 -34 -6
c-19 0 -30 10 -39 31l-250 660c10 5 26 8 45 8c20 0 33 -8 41 -27l214 -566c50 84 122 248 170 381l-80 204c9 5 26 8 45 8zM402 797c34 19 117 112 158 112c28 0 38 -15 38 -34c-50 -27 -127 -106 -161 -106c-19 0 -31 10 -35 28z" />
    <glyph glyph-name="Wcircumflex" unicode="&#x174;" horiz-adv-x="1000" 
d="M453 700c20 0 33 -8 40 -27l224 -567c86 142 179 448 196 585c12 6 23 9 41 9c15 0 28 -8 28 -20c0 -6 -1 -21 -6 -52c-21 -115 -117 -421 -235 -622c-11 -4 -21 -6 -34 -6c-19 0 -31 10 -39 32l-142 360c-52 -127 -123 -279 -185 -385c-11 -4 -20 -6 -34 -6
c-19 0 -30 10 -39 31l-250 660c10 5 26 8 45 8c20 0 33 -8 41 -27l214 -566c50 84 122 248 170 381l-80 204c9 5 26 8 45 8zM653 798c-3 -14 -11 -24 -24 -26c-5 -2 -12 -2 -19 0c-29 8 -75 49 -116 77c-41 -28 -88 -69 -117 -77c-6 -2 -13 -2 -18 0c-13 2 -21 12 -24 26
c34 18 115 112 157 112c41 0 122 -92 161 -112z" />
    <glyph glyph-name="Wdieresis" unicode="&#x1e84;" horiz-adv-x="1000" 
d="M453 700c20 0 33 -8 40 -27l224 -567c86 142 179 448 196 585c12 6 23 9 41 9c15 0 28 -8 28 -20c0 -6 -1 -21 -6 -52c-21 -115 -117 -421 -235 -622c-11 -4 -21 -6 -34 -6c-19 0 -31 10 -39 32l-142 360c-52 -127 -123 -279 -185 -385c-11 -4 -20 -6 -34 -6
c-19 0 -30 10 -39 31l-250 660c10 5 26 8 45 8c20 0 33 -8 41 -27l214 -566c50 84 122 248 170 381l-80 204c9 5 26 8 45 8zM349 833c0 31 15 46 46 46c29 0 46 -15 46 -46s-17 -45 -46 -45c-31 0 -46 15 -46 45zM559 833c0 31 14 46 45 46c30 0 46 -15 46 -46
s-16 -45 -46 -45s-45 15 -45 45z" />
    <glyph glyph-name="Wgrave" unicode="&#x1e80;" horiz-adv-x="1000" 
d="M453 700c20 0 33 -8 40 -27l224 -567c86 142 179 448 196 585c12 6 23 9 41 9c15 0 28 -8 28 -20c0 -6 -1 -21 -6 -52c-21 -115 -117 -421 -235 -622c-11 -4 -21 -6 -34 -6c-19 0 -31 10 -39 32l-142 360c-52 -127 -123 -279 -185 -385c-11 -4 -20 -6 -34 -6
c-19 0 -30 10 -39 31l-250 660c10 5 26 8 45 8c20 0 33 -8 41 -27l214 -566c50 84 122 248 170 381l-80 204c9 5 26 8 45 8zM598 796c-4 -18 -16 -28 -34 -28c-34 0 -112 79 -162 106c1 19 11 34 39 34c40 0 123 -93 157 -112z" />
    <glyph glyph-name="X" unicode="X" horiz-adv-x="669" 
d="M105 700c29 0 47 -13 65 -39l167 -236l170 246c13 20 29 29 55 29c25 0 36 -7 42 -16l-223 -321l246 -347c-12 -10 -24 -16 -52 -16c-21 0 -47 11 -62 32l-187 266l-191 -272c-11 -18 -30 -26 -54 -26c-21 0 -31 7 -39 18l239 343l-223 319c7 12 20 20 47 20z" />
    <glyph glyph-name="Y" unicode="Y" horiz-adv-x="591" 
d="M342 233v-224c-7 -5 -22 -9 -43 -9c-22 0 -34 8 -34 29v201c-97 139 -182 303 -229 458c11 7 26 12 44 12c21 0 31 -6 38 -26c40 -131 104 -264 188 -387c83 125 170 319 186 408c8 4 21 5 37 5c15 0 26 -12 26 -27c-2 -83 -132 -330 -213 -440z" />
    <glyph glyph-name="Yacute" unicode="&#xdd;" horiz-adv-x="591" 
d="M342 233v-224c-7 -5 -22 -9 -43 -9c-22 0 -34 8 -34 29v201c-97 139 -182 303 -229 458c11 7 26 12 44 12c21 0 31 -6 38 -26c40 -131 104 -264 188 -387c83 125 170 319 186 408c8 4 21 5 37 5c15 0 26 -12 26 -27c-2 -83 -132 -330 -213 -440zM197 797
c34 19 117 112 158 112c28 0 38 -15 38 -34c-50 -27 -127 -106 -161 -106c-19 0 -31 10 -35 28z" />
    <glyph glyph-name="Ycircumflex" unicode="&#x176;" horiz-adv-x="591" 
d="M342 233v-224c-7 -5 -22 -9 -43 -9c-22 0 -34 8 -34 29v201c-97 139 -182 303 -229 458c11 7 26 12 44 12c21 0 31 -6 38 -26c40 -131 104 -264 188 -387c83 125 170 319 186 408c8 4 21 5 37 5c15 0 26 -12 26 -27c-2 -83 -132 -330 -213 -440zM454 798
c-3 -14 -11 -24 -24 -26c-5 -2 -12 -2 -19 0c-29 8 -75 49 -116 77c-41 -28 -88 -69 -117 -77c-6 -2 -13 -2 -18 0c-13 2 -21 12 -24 26c34 18 115 112 157 112c41 0 122 -92 161 -112z" />
    <glyph glyph-name="Ydieresis" unicode="&#x178;" horiz-adv-x="591" 
d="M342 233v-224c-7 -5 -22 -9 -43 -9c-22 0 -34 8 -34 29v201c-97 139 -182 303 -229 458c11 7 26 12 44 12c21 0 31 -6 38 -26c40 -131 104 -264 188 -387c83 125 170 319 186 408c8 4 21 5 37 5c15 0 26 -12 26 -27c-2 -83 -132 -330 -213 -440zM145 833
c0 31 15 46 46 46c29 0 46 -15 46 -46s-17 -45 -46 -45c-31 0 -46 15 -46 45zM355 833c0 31 14 46 45 46c30 0 46 -15 46 -46s-16 -45 -46 -45s-45 15 -45 45z" />
    <glyph glyph-name="Ygrave" unicode="&#x1ef2;" horiz-adv-x="591" 
d="M342 233v-224c-7 -5 -22 -9 -43 -9c-22 0 -34 8 -34 29v201c-97 139 -182 303 -229 458c11 7 26 12 44 12c21 0 31 -6 38 -26c40 -131 104 -264 188 -387c83 125 170 319 186 408c8 4 21 5 37 5c15 0 26 -12 26 -27c-2 -83 -132 -330 -213 -440zM393 796
c-4 -18 -16 -28 -34 -28c-34 0 -112 79 -162 106c1 19 11 34 39 34c40 0 123 -93 157 -112z" />
    <glyph glyph-name="Z" unicode="Z" horiz-adv-x="639" 
d="M559 632l-418 -563h459c3 -7 7 -17 7 -33c0 -19 -9 -36 -38 -36h-531c-4 9 -6 16 -6 28c0 16 5 29 14 40l418 560h-397c-5 9 -9 16 -9 34c0 20 9 38 35 38h475c5 -5 6 -15 6 -27c0 -14 -4 -27 -15 -41z" />
    <glyph glyph-name="Zacute" unicode="&#x179;" horiz-adv-x="639" 
d="M559 632l-418 -563h459c3 -7 7 -17 7 -33c0 -19 -9 -36 -38 -36h-531c-4 9 -6 16 -6 28c0 16 5 29 14 40l418 560h-397c-5 9 -9 16 -9 34c0 20 9 38 35 38h475c5 -5 6 -15 6 -27c0 -14 -4 -27 -15 -41zM221 797c34 19 117 112 158 112c28 0 38 -15 38 -34
c-50 -27 -127 -106 -161 -106c-19 0 -31 10 -35 28z" />
    <glyph glyph-name="Zcaron" unicode="&#x17d;" horiz-adv-x="639" 
d="M559 632l-418 -563h459c3 -7 7 -17 7 -33c0 -19 -9 -36 -38 -36h-531c-4 9 -6 16 -6 28c0 16 5 29 14 40l418 560h-397c-5 9 -9 16 -9 34c0 20 9 38 35 38h475c5 -5 6 -15 6 -27c0 -14 -4 -27 -15 -41zM318 770c-8 0 -13 2 -17 5c-38 17 -101 78 -144 101
c1 19 17 34 39 34c29 0 83 -50 123 -84c41 34 95 84 124 84c21 0 38 -15 39 -34c-43 -23 -105 -83 -144 -101c-4 -2 -9 -5 -20 -5z" />
    <glyph glyph-name="Zdotaccent" unicode="&#x17b;" horiz-adv-x="639" 
d="M559 632l-418 -563h459c3 -7 7 -17 7 -33c0 -19 -9 -36 -38 -36h-531c-4 9 -6 16 -6 28c0 16 5 29 14 40l418 560h-397c-5 9 -9 16 -9 34c0 20 9 38 35 38h475c5 -5 6 -15 6 -27c0 -14 -4 -27 -15 -41zM269 830c0 32 15 47 45 47s46 -15 46 -47c0 -30 -16 -45 -46 -45
s-45 15 -45 45z" />
    <glyph glyph-name="a" unicode="a" horiz-adv-x="493" 
d="M85 387c-8 7 -14 19 -14 32c0 48 95 73 165 73c90 0 168 -37 168 -145v-257c0 -25 9 -35 25 -35h28c3 -4 6 -13 6 -26c0 -19 -20 -29 -64 -29c-38 0 -62 28 -62 69v4c-49 -48 -110 -83 -173 -83c-89 0 -132 62 -132 149c0 78 45 130 136 135l169 10v43
c0 74 -49 95 -104 95c-60 0 -122 -18 -148 -35zM175 56c56 0 106 26 162 78v94l-165 -16c-51 -5 -71 -31 -71 -74c0 -44 24 -82 74 -82z" />
    <glyph glyph-name="a.sc" unicode="&#xf761;" horiz-adv-x="561" 
d="M60 0c-19 0 -30 3 -37 10l216 535c10 7 20 12 44 12c22 0 34 -11 41 -26l214 -514c-7 -14 -23 -17 -37 -17c-20 0 -36 7 -43 29l-43 100h-271l-43 -105c-6 -18 -18 -24 -41 -24zM277 456l-108 -265h220z" />
    <glyph glyph-name="aacute" unicode="&#xe1;" horiz-adv-x="493" 
d="M85 387c-8 7 -14 19 -14 32c0 48 95 73 165 73c90 0 168 -37 168 -145v-257c0 -25 9 -35 25 -35h28c3 -4 6 -13 6 -26c0 -19 -20 -29 -64 -29c-38 0 -62 28 -62 69v4c-49 -48 -110 -83 -173 -83c-89 0 -132 62 -132 149c0 78 45 130 136 135l169 10v43
c0 74 -49 95 -104 95c-60 0 -122 -18 -148 -35zM175 56c56 0 106 26 162 78v94l-165 -16c-51 -5 -71 -31 -71 -74c0 -44 24 -82 74 -82zM165 579c34 19 117 112 158 112c28 0 38 -15 38 -34c-50 -27 -127 -106 -161 -106c-19 0 -31 10 -35 28z" />
    <glyph glyph-name="aacute.sc" horiz-adv-x="561" 
d="M60 0c-19 0 -30 3 -37 10l216 535c10 7 20 12 44 12c22 0 34 -11 41 -26l214 -514c-7 -14 -23 -17 -37 -17c-20 0 -36 7 -43 29l-43 100h-271l-43 -105c-6 -18 -18 -24 -41 -24zM277 456l-108 -265h220zM182 655c34 19 117 112 158 112c28 0 38 -15 38 -34
c-50 -27 -127 -106 -161 -106c-19 0 -31 10 -35 28z" />
    <glyph glyph-name="abreve" unicode="&#x103;" horiz-adv-x="493" 
d="M85 387c-8 7 -14 19 -14 32c0 48 95 73 165 73c90 0 168 -37 168 -145v-257c0 -25 9 -35 25 -35h28c3 -4 6 -13 6 -26c0 -19 -20 -29 -64 -29c-38 0 -62 28 -62 69v4c-49 -48 -110 -83 -173 -83c-89 0 -132 62 -132 149c0 78 45 130 136 135l169 10v43
c0 74 -49 95 -104 95c-60 0 -122 -18 -148 -35zM175 56c56 0 106 26 162 78v94l-165 -16c-51 -5 -71 -31 -71 -74c0 -44 24 -82 74 -82zM145 675c1 -18 9 -38 22 -50c15 -14 37 -20 66 -20c25 0 48 5 63 19c16 14 22 35 24 50c6 5 16 7 29 6c19 0 26 -12 24 -24
c-4 -26 -15 -51 -39 -73c-23 -20 -58 -30 -101 -30s-77 10 -101 29c-25 20 -39 48 -41 76c-1 14 6 22 23 23c13 1 23 -2 31 -6z" />
    <glyph glyph-name="abreve.sc" horiz-adv-x="561" 
d="M60 0c-19 0 -30 3 -37 10l216 535c10 7 20 12 44 12c22 0 34 -11 41 -26l214 -514c-7 -14 -23 -17 -37 -17c-20 0 -36 7 -43 29l-43 100h-271l-43 -105c-6 -18 -18 -24 -41 -24zM277 456l-108 -265h220zM193 751c1 -18 9 -38 22 -50c15 -14 37 -20 66 -20
c25 0 48 5 63 19c16 14 22 35 24 50c6 5 16 7 29 6c19 0 26 -12 24 -24c-4 -26 -15 -51 -39 -73c-23 -20 -58 -30 -101 -30s-77 10 -101 29c-25 20 -39 48 -41 76c-1 14 6 22 23 23c13 1 23 -2 31 -6z" />
    <glyph glyph-name="acircumflex" unicode="&#xe2;" horiz-adv-x="493" 
d="M85 387c-8 7 -14 19 -14 32c0 48 95 73 165 73c90 0 168 -37 168 -145v-257c0 -25 9 -35 25 -35h28c3 -4 6 -13 6 -26c0 -19 -20 -29 -64 -29c-38 0 -62 28 -62 69v4c-49 -48 -110 -83 -173 -83c-89 0 -132 62 -132 149c0 78 45 130 136 135l169 10v43
c0 74 -49 95 -104 95c-60 0 -122 -18 -148 -35zM175 56c56 0 106 26 162 78v94l-165 -16c-51 -5 -71 -31 -71 -74c0 -44 24 -82 74 -82zM393 580c-3 -14 -11 -24 -24 -26c-5 -2 -12 -2 -19 0c-29 8 -75 49 -116 77c-41 -28 -88 -69 -117 -77c-6 -2 -13 -2 -18 0
c-13 2 -21 12 -24 26c34 18 115 112 157 112c41 0 122 -92 161 -112z" />
    <glyph glyph-name="acircumflex.sc" horiz-adv-x="561" 
d="M60 0c-19 0 -30 3 -37 10l216 535c10 7 20 12 44 12c22 0 34 -11 41 -26l214 -514c-7 -14 -23 -17 -37 -17c-20 0 -36 7 -43 29l-43 100h-271l-43 -105c-6 -18 -18 -24 -41 -24zM277 456l-108 -265h220zM439 656c-3 -14 -11 -24 -24 -26c-5 -2 -12 -2 -19 0
c-29 8 -75 49 -116 77c-41 -28 -88 -69 -117 -77c-6 -2 -13 -2 -18 0c-13 2 -21 12 -24 26c34 18 115 112 157 112c41 0 122 -92 161 -112z" />
    <glyph glyph-name="acute" unicode="&#xb4;" horiz-adv-x="519" 
d="M143 579c34 19 117 112 158 112c28 0 38 -15 38 -34c-50 -27 -127 -106 -161 -106c-19 0 -31 10 -35 28z" />
    <glyph glyph-name="adieresis" unicode="&#xe4;" horiz-adv-x="493" 
d="M85 387c-8 7 -14 19 -14 32c0 48 95 73 165 73c90 0 168 -37 168 -145v-257c0 -25 9 -35 25 -35h28c3 -4 6 -13 6 -26c0 -19 -20 -29 -64 -29c-38 0 -62 28 -62 69v4c-49 -48 -110 -83 -173 -83c-89 0 -132 62 -132 149c0 78 45 130 136 135l169 10v43
c0 74 -49 95 -104 95c-60 0 -122 -18 -148 -35zM175 56c56 0 106 26 162 78v94l-165 -16c-51 -5 -71 -31 -71 -74c0 -44 24 -82 74 -82zM85 615c0 31 15 46 46 46c29 0 46 -15 46 -46s-17 -45 -46 -45c-31 0 -46 15 -46 45zM295 615c0 31 14 46 45 46c30 0 46 -15 46 -46
s-16 -45 -46 -45s-45 15 -45 45z" />
    <glyph glyph-name="adieresis.sc" horiz-adv-x="561" 
d="M60 0c-19 0 -30 3 -37 10l216 535c10 7 20 12 44 12c22 0 34 -11 41 -26l214 -514c-7 -14 -23 -17 -37 -17c-20 0 -36 7 -43 29l-43 100h-271l-43 -105c-6 -18 -18 -24 -41 -24zM277 456l-108 -265h220zM128 691c0 31 15 46 46 46c29 0 46 -15 46 -46s-17 -45 -46 -45
c-31 0 -46 15 -46 45zM338 691c0 31 14 46 45 46c30 0 46 -15 46 -46s-16 -45 -46 -45s-45 15 -45 45z" />
    <glyph glyph-name="ae" unicode="&#xe6;" horiz-adv-x="785" 
d="M85 387c-8 7 -14 19 -14 32c0 48 95 73 165 73c65 0 135 -20 152 -88c39 59 101 88 166 88c122 0 181 -91 181 -208c0 -19 -2 -38 -7 -51h-316c4 -98 44 -155 116 -170c15 -2 31 -3 47 -3c66 2 118 29 138 45c9 -6 17 -16 17 -33c0 -34 -57 -82 -179 -82
c-81 0 -145 39 -180 106c-56 -59 -136 -106 -207 -106c-89 0 -132 62 -132 149c0 71 37 119 112 131c58 8 129 11 192 15c-2 114 -28 137 -103 137c-60 0 -122 -18 -148 -35zM175 56c58 0 120 36 173 91c-6 21 -9 43 -10 68v13l-166 -16c-51 -5 -71 -31 -71 -74
s24 -82 74 -82zM553 424c-64 0 -123 -44 -139 -136h252c0 80 -35 136 -113 136z" />
    <glyph glyph-name="ae.sc" horiz-adv-x="840" 
d="M760 0h-344c-16 0 -33 5 -33 34v95h-234l-45 -105c-6 -18 -18 -24 -41 -24c-19 0 -33 3 -40 10l228 535c12 9 30 12 50 12h480c4 -5 8 -13 8 -30c0 -23 -9 -39 -29 -39h-303v-168h275c5 -5 8 -17 8 -34c0 -22 -9 -35 -27 -35h-256v-181h324c4 -5 8 -14 8 -31
c0 -22 -9 -39 -29 -39zM302 488l-127 -295h208v295h-81z" />
    <glyph glyph-name="aeacute" unicode="&#x1fd;" horiz-adv-x="785" 
d="M85 387c-8 7 -14 19 -14 32c0 48 95 73 165 73c65 0 135 -20 152 -88c39 59 101 88 166 88c122 0 181 -91 181 -208c0 -19 -2 -38 -7 -51h-316c4 -98 44 -155 116 -170c15 -2 31 -3 47 -3c66 2 118 29 138 45c9 -6 17 -16 17 -33c0 -34 -57 -82 -179 -82
c-81 0 -145 39 -180 106c-56 -59 -136 -106 -207 -106c-89 0 -132 62 -132 149c0 71 37 119 112 131c58 8 129 11 192 15c-2 114 -28 137 -103 137c-60 0 -122 -18 -148 -35zM175 56c58 0 120 36 173 91c-6 21 -9 43 -10 68v13l-166 -16c-51 -5 -71 -31 -71 -74
s24 -82 74 -82zM553 424c-64 0 -123 -44 -139 -136h252c0 80 -35 136 -113 136zM330 581c34 19 117 112 158 112c28 0 38 -15 38 -34c-50 -27 -127 -106 -161 -106c-19 0 -31 10 -35 28z" />
    <glyph glyph-name="aeacute.sc" horiz-adv-x="840" 
d="M760 0h-344c-16 0 -33 5 -33 34v95h-234l-45 -105c-6 -18 -18 -24 -41 -24c-19 0 -33 3 -40 10l228 535c12 9 30 12 50 12h480c4 -5 8 -13 8 -30c0 -23 -9 -39 -29 -39h-303v-168h275c5 -5 8 -17 8 -34c0 -22 -9 -35 -27 -35h-256v-181h324c4 -5 8 -14 8 -31
c0 -22 -9 -39 -29 -39zM302 488l-127 -295h208v295h-81zM399 655c34 19 117 112 158 112c28 0 38 -15 38 -34c-50 -27 -127 -106 -161 -106c-19 0 -31 10 -35 28z" />
    <glyph glyph-name="agrave" unicode="&#xe0;" horiz-adv-x="493" 
d="M85 387c-8 7 -14 19 -14 32c0 48 95 73 165 73c90 0 168 -37 168 -145v-257c0 -25 9 -35 25 -35h28c3 -4 6 -13 6 -26c0 -19 -20 -29 -64 -29c-38 0 -62 28 -62 69v4c-49 -48 -110 -83 -173 -83c-89 0 -132 62 -132 149c0 78 45 130 136 135l169 10v43
c0 74 -49 95 -104 95c-60 0 -122 -18 -148 -35zM175 56c56 0 106 26 162 78v94l-165 -16c-51 -5 -71 -31 -71 -74c0 -44 24 -82 74 -82zM308 578c-4 -18 -16 -28 -34 -28c-34 0 -112 79 -162 106c1 19 11 34 39 34c40 0 123 -93 157 -112z" />
    <glyph glyph-name="agrave.sc" horiz-adv-x="561" 
d="M60 0c-19 0 -30 3 -37 10l216 535c10 7 20 12 44 12c22 0 34 -11 41 -26l214 -514c-7 -14 -23 -17 -37 -17c-20 0 -36 7 -43 29l-43 100h-271l-43 -105c-6 -18 -18 -24 -41 -24zM277 456l-108 -265h220zM377 654c-4 -18 -16 -28 -34 -28c-34 0 -112 79 -162 106
c1 19 11 34 39 34c40 0 123 -93 157 -112z" />
    <glyph glyph-name="amacron" unicode="&#x101;" horiz-adv-x="493" 
d="M85 387c-8 7 -14 19 -14 32c0 48 95 73 165 73c90 0 168 -37 168 -145v-257c0 -25 9 -35 25 -35h28c3 -4 6 -13 6 -26c0 -19 -20 -29 -64 -29c-38 0 -62 28 -62 69v4c-49 -48 -110 -83 -173 -83c-89 0 -132 62 -132 149c0 78 45 130 136 135l169 10v43
c0 74 -49 95 -104 95c-60 0 -122 -18 -148 -35zM175 56c56 0 106 26 162 78v94l-165 -16c-51 -5 -71 -31 -71 -74c0 -44 24 -82 74 -82zM347 581h-266c-4 8 -8 13 -8 26c0 21 5 34 45 34h274c4 -4 8 -9 8 -24c0 -16 -9 -36 -53 -36z" />
    <glyph glyph-name="amacron.sc" horiz-adv-x="561" 
d="M60 0c-19 0 -30 3 -37 10l216 535c10 7 20 12 44 12c22 0 34 -11 41 -26l214 -514c-7 -14 -23 -17 -37 -17c-20 0 -36 7 -43 29l-43 100h-271l-43 -105c-6 -18 -18 -24 -41 -24zM277 456l-108 -265h220zM391 657h-266c-4 8 -8 13 -8 26c0 21 5 34 45 34h274
c4 -4 8 -9 8 -24c0 -16 -9 -36 -53 -36z" />
    <glyph glyph-name="ampersand" unicode="&#x26;" horiz-adv-x="816" 
d="M700 375h-82c-10 -93 -44 -192 -103 -267c42 -19 87 -29 134 -29h93c5 -9 8 -21 8 -36c0 -28 -18 -43 -94 -43c-67 0 -133 19 -194 54c-48 -40 -107 -64 -177 -64c-149 0 -232 88 -232 222c0 124 72 185 157 214c-3 20 -4 41 -4 62c0 145 72 210 212 210
c91 0 127 -21 127 -49c0 -13 -1 -24 -6 -33h-113c-102 0 -141 -37 -141 -135c0 -144 71 -269 173 -340c57 63 92 152 103 234h-135c-5 10 -8 19 -8 32c0 25 11 40 43 40h263c5 -6 9 -19 9 -35c0 -24 -11 -37 -33 -37zM403 93c-85 67 -152 164 -181 275
c-62 -26 -99 -77 -99 -154c0 -93 61 -156 167 -156c42 0 80 13 113 35z" />
    <glyph glyph-name="ampersand.sc" unicode="&#xf726;" horiz-adv-x="704" 
d="M599 289h-67c-10 -69 -36 -140 -80 -196c32 -12 67 -19 103 -19h80c5 -8 8 -18 8 -33c0 -28 -18 -41 -81 -41c-56 0 -112 15 -162 42c-41 -31 -91 -50 -151 -50c-126 0 -196 73 -196 178c0 98 61 148 131 170c-2 15 -3 30 -3 46c0 117 61 169 180 169
c81 0 113 -17 113 -43c0 -13 -1 -24 -7 -33h-97c-83 0 -114 -27 -114 -100c0 -107 57 -202 140 -257c43 45 72 108 81 167h-108c-5 11 -8 18 -8 31c0 22 10 36 39 36h220c4 -5 8 -17 8 -31c0 -24 -10 -36 -29 -36zM341 80c-68 52 -121 125 -145 207
c-48 -21 -76 -58 -76 -115c0 -68 49 -115 134 -115c31 0 61 8 87 23z" />
    <glyph glyph-name="aogonek" unicode="&#x105;" horiz-adv-x="493" 
d="M85 387c-8 7 -14 19 -14 32c0 48 95 73 165 73c102 0 168 -40 168 -167v-235c0 -25 9 -35 25 -35h28c3 -4 6 -13 6 -26c0 -9 -4 -13 -10 -19c-24 -23 -48 -68 -48 -93c0 -33 22 -43 55 -43c4 -6 5 -12 5 -21c0 -11 -4 -24 -33 -24c-34 0 -77 20 -77 76c0 37 17 71 33 95
c-34 5 -45 30 -49 78c-49 -51 -111 -88 -175 -88c-89 0 -132 62 -132 149c0 73 40 122 119 133c56 7 124 9 185 13c-3 114 -27 137 -103 137c-60 0 -122 -18 -148 -35zM175 56c58 0 111 31 162 83v89l-165 -16c-51 -5 -71 -31 -71 -74s24 -82 74 -82z" />
    <glyph glyph-name="aogonek.sc" horiz-adv-x="561" 
d="M476 11c-10 3 -15 9 -22 26l-39 92h-271l-43 -105c-6 -18 -18 -24 -41 -24c-19 0 -30 3 -37 10l216 535c10 7 20 12 44 12c22 0 34 -11 41 -26l215 -520c-33 -24 -64 -69 -64 -103s23 -42 56 -42c3 -7 5 -13 5 -22c0 -11 -5 -23 -34 -23c-33 0 -77 19 -77 76
c0 47 32 91 51 114zM277 456l-108 -265h220z" />
    <glyph glyph-name="approxequal" unicode="&#x2248;" horiz-adv-x="515" 
d="M159 221c72 0 142 -36 205 -36c53 0 72 19 81 28c10 -4 23 -21 23 -39c0 -28 -31 -54 -88 -54c-68 0 -163 34 -222 34c-34 0 -66 -18 -70 -30c-19 6 -26 18 -26 36c0 23 36 61 97 61zM158 409c72 0 142 -36 205 -36c53 0 72 19 81 28c10 -4 23 -21 23 -39
c0 -28 -31 -54 -88 -54c-68 0 -163 34 -222 34c-34 0 -66 -18 -70 -30c-19 6 -26 18 -26 36c0 23 36 61 97 61z" />
    <glyph glyph-name="aring" unicode="&#xe5;" horiz-adv-x="493" 
d="M85 387c-8 7 -14 19 -14 32c0 48 95 73 165 73c90 0 168 -37 168 -145v-257c0 -25 9 -35 25 -35h28c3 -4 6 -13 6 -26c0 -19 -20 -29 -64 -29c-38 0 -62 28 -62 69v4c-49 -48 -110 -83 -173 -83c-89 0 -132 62 -132 149c0 78 45 130 136 135l169 10v43
c0 74 -49 95 -104 95c-60 0 -122 -18 -148 -35zM175 56c56 0 106 26 162 78v94l-165 -16c-51 -5 -71 -31 -71 -74c0 -44 24 -82 74 -82zM145 633c0 58 29 88 88 88c58 0 88 -32 88 -88c0 -57 -30 -88 -88 -88c-59 0 -88 31 -88 88zM186 633c0 -30 16 -47 47 -47
c30 0 47 17 47 47c0 29 -17 47 -47 47c-32 0 -47 -16 -47 -47z" />
    <glyph glyph-name="aring.sc" horiz-adv-x="561" 
d="M60 0c-19 0 -30 3 -37 10l216 535c10 7 20 12 44 12c22 0 34 -11 41 -26l214 -514c-7 -14 -23 -17 -37 -17c-20 0 -36 7 -43 29l-43 100h-271l-43 -105c-6 -18 -18 -24 -41 -24zM277 456l-108 -265h220zM190 709c0 58 29 88 88 88c58 0 88 -32 88 -88
c0 -57 -30 -88 -88 -88c-59 0 -88 31 -88 88zM231 709c0 -30 16 -47 47 -47c30 0 47 17 47 47c0 29 -17 47 -47 47c-32 0 -47 -16 -47 -47z" />
    <glyph glyph-name="aringacute" unicode="&#x1fb;" horiz-adv-x="528" 
d="M85 387c-8 7 -14 19 -14 32c0 48 95 73 165 73c90 0 168 -37 168 -145v-257c0 -25 9 -35 25 -35h28c3 -4 6 -13 6 -26c0 -19 -20 -29 -64 -29c-38 0 -62 28 -62 69v4c-49 -48 -110 -83 -173 -83c-89 0 -132 62 -132 149c0 78 45 130 136 135l169 10v43
c0 74 -49 95 -104 95c-60 0 -122 -18 -148 -35zM175 56c56 0 106 26 162 78v94l-165 -16c-51 -5 -71 -31 -71 -74c0 -44 24 -82 74 -82zM176 625c0 58 29 88 88 88c58 0 88 -32 88 -88c0 -57 -30 -88 -88 -88c-59 0 -88 31 -88 88zM217 625c0 -30 16 -47 47 -47
c30 0 47 17 47 47c0 29 -17 47 -47 47c-32 0 -47 -16 -47 -47zM175 768c34 19 117 112 158 112c28 0 38 -15 38 -34c-50 -27 -127 -106 -161 -106c-19 0 -31 10 -35 28z" />
    <glyph glyph-name="asciicircum" unicode="^" horiz-adv-x="483" 
d="M391 580c-3 -14 -11 -24 -24 -26c-5 -2 -12 -2 -19 0c-29 8 -75 49 -116 77c-41 -28 -88 -69 -117 -77c-6 -2 -13 -2 -18 0c-13 2 -21 12 -24 26c34 18 115 112 157 112c41 0 122 -92 161 -112z" />
    <glyph glyph-name="asciitilde" unicode="~" horiz-adv-x="515" 
d="M133 657c56 0 111 -31 160 -31c41 0 56 16 63 24c8 -4 18 -18 18 -34c0 -24 -24 -46 -69 -46c-53 0 -127 29 -173 29c-26 0 -51 -15 -54 -26c-15 5 -20 16 -20 31c0 20 28 53 75 53z" />
    <glyph glyph-name="asterisk" unicode="*" horiz-adv-x="524" 
d="M417 471l-112 10l80 -115c-3 -6 -7 -16 -24 -26c-13 -8 -43 -15 -54 16l-46 103l-63 -129c-10 1 -18 1 -32 9c-19 11 -37 27 -14 52l67 91l-143 -10c-5 9 -9 18 -9 33c0 22 6 45 39 39l112 -10l-82 117c6 8 13 16 26 24c19 12 42 18 52 -14l49 -107l60 132
c8 1 19 1 37 -9c12 -8 32 -30 11 -54l-65 -89l143 10c3 -6 8 -14 8 -34c0 -17 -9 -44 -40 -39z" />
    <glyph glyph-name="asuperior" unicode="&#xf6e9;" horiz-adv-x="282" 
d="M50 539c-4 5 -7 12 -7 20c0 29 53 40 92 40c54 0 97 -23 97 -78v-121c0 -11 4 -16 13 -16h15c2 -2 4 -8 4 -16c0 -11 -12 -18 -39 -18c-23 0 -37 15 -37 34c-27 -23 -61 -39 -97 -39c-46 0 -71 31 -71 76c0 42 27 69 79 71l89 4v11c0 35 -25 47 -56 47
c-32 0 -66 -7 -82 -15zM100 387c31 0 57 9 88 32v43l-87 -8c-25 -2 -36 -14 -36 -32c0 -19 12 -35 35 -35z" />
    <glyph glyph-name="at" unicode="@" horiz-adv-x="865" 
d="M651 -63c11 -6 19 -13 19 -27c0 -16 -7 -26 -24 -35c-43 -21 -103 -42 -213 -42c-229 0 -399 151 -399 395c0 236 161 396 399 396c239 0 397 -158 397 -378c0 -155 -87 -246 -194 -246c-69 0 -93 33 -93 73v11c-50 -44 -113 -83 -177 -83c-79 0 -121 55 -121 135
c0 66 44 110 131 115l167 11v36c0 67 -52 83 -101 83c-62 0 -123 -15 -144 -26c-8 5 -13 17 -13 32c0 43 96 62 161 62c63 -1 157 -18 157 -131v-228c0 -31 13 -37 41 -37c64 0 122 69 122 196c0 178 -133 308 -333 308c-198 0 -333 -134 -333 -330
c0 -207 143 -329 334 -329c110 0 162 17 217 39zM382 62c53 0 104 28 161 72v78l-164 -14c-49 -5 -70 -30 -70 -64c0 -40 24 -72 73 -72z" />
    <glyph glyph-name="at.case" horiz-adv-x="865" 
d="M651 -21c11 -6 19 -13 19 -27c0 -16 -7 -26 -24 -35c-43 -21 -103 -42 -213 -42c-229 0 -399 151 -399 395c0 236 161 396 399 396c239 0 397 -158 397 -378c0 -155 -87 -246 -194 -246c-69 0 -93 33 -93 73v11c-50 -44 -113 -83 -177 -83c-79 0 -121 55 -121 135
c0 66 44 110 131 115l167 11v36c0 67 -52 83 -101 83c-62 0 -123 -15 -144 -26c-8 5 -13 17 -13 32c0 43 96 62 161 62c63 -1 157 -18 157 -131v-228c0 -31 13 -37 41 -37c64 0 122 69 122 196c0 178 -133 308 -333 308c-198 0 -333 -134 -333 -330
c0 -207 143 -329 334 -329c110 0 162 17 217 39zM382 104c53 0 104 28 161 72v78l-164 -14c-49 -5 -70 -30 -70 -64c0 -40 24 -72 73 -72z" />
    <glyph glyph-name="atilde" unicode="&#xe3;" horiz-adv-x="493" 
d="M85 387c-8 7 -14 19 -14 32c0 48 95 73 165 73c90 0 168 -37 168 -145v-257c0 -25 9 -35 25 -35h28c3 -4 6 -13 6 -26c0 -19 -20 -29 -64 -29c-38 0 -62 28 -62 69v4c-49 -48 -110 -83 -173 -83c-89 0 -132 62 -132 149c0 78 45 130 136 135l169 10v43
c0 74 -49 95 -104 95c-60 0 -122 -18 -148 -35zM175 56c56 0 106 26 162 78v94l-165 -16c-51 -5 -71 -31 -71 -74c0 -44 24 -82 74 -82zM155 657c56 0 111 -31 160 -31c41 0 56 16 63 24c8 -4 18 -18 18 -34c0 -24 -24 -46 -69 -46c-53 0 -127 29 -173 29
c-26 0 -51 -15 -54 -26c-15 5 -20 16 -20 31c0 20 28 53 75 53z" />
    <glyph glyph-name="atilde.sc" horiz-adv-x="561" 
d="M60 0c-19 0 -30 3 -37 10l216 535c10 7 20 12 44 12c22 0 34 -11 41 -26l214 -514c-7 -14 -23 -17 -37 -17c-20 0 -36 7 -43 29l-43 100h-271l-43 -105c-6 -18 -18 -24 -41 -24zM277 456l-108 -265h220zM197 733c56 0 111 -31 160 -31c41 0 56 16 63 24
c8 -4 18 -18 18 -34c0 -24 -24 -46 -69 -46c-53 0 -127 29 -173 29c-26 0 -51 -15 -54 -26c-15 5 -20 16 -20 31c0 20 28 53 75 53z" />
    <glyph glyph-name="b" unicode="b" horiz-adv-x="516" 
d="M139 670v-241c36 37 85 63 139 63c106 0 182 -79 182 -241c0 -182 -91 -261 -213 -261c-67 0 -118 18 -156 45c-14 11 -25 26 -25 41v614c9 6 22 10 38 10c20 0 35 -8 35 -30zM262 415c-52 0 -91 -21 -123 -59v-260c21 -17 60 -36 111 -36c84 0 138 60 138 184
c0 117 -54 171 -126 171z" />
    <glyph glyph-name="b.sc" unicode="&#xf762;" horiz-adv-x="579" 
d="M131 557h184c92 0 169 -36 169 -150c0 -52 -22 -88 -55 -112c52 -23 90 -65 90 -139c0 -113 -96 -156 -190 -156h-198c-20 0 -37 5 -37 33v518c7 4 18 6 37 6zM302 256h-135v-195h140c75 0 138 20 138 98c0 73 -60 97 -143 97zM301 497h-134v-182h133c65 2 114 23 114 94
c0 67 -44 88 -113 88z" />
    <glyph glyph-name="backslash" unicode="\" horiz-adv-x="298" 
d="M73 712c19 0 27 -3 36 -8l127 -721c6 -32 -18 -37 -35 -37c-19 0 -32 3 -38 8l-128 727c-4 23 17 31 38 31z" />
    <glyph glyph-name="bar" unicode="|" horiz-adv-x="266" 
d="M137 712c22 0 36 -7 36 -27v-789c-10 -5 -24 -8 -45 -8c-19 0 -33 10 -33 34v782c8 5 25 8 42 8z" />
    <glyph glyph-name="braceleft" unicode="{" horiz-adv-x="320" 
d="M204 712c54 0 85 -13 85 -44c0 -11 -2 -19 -7 -27h-69c-31 0 -50 -20 -50 -58v-203c0 -62 -30 -78 -45 -80v-4c15 -1 45 -22 45 -84v-201c0 -41 20 -54 49 -54h71c4 -6 6 -14 6 -25c0 -30 -37 -44 -96 -44c-49 0 -99 28 -99 103v218c0 38 -19 49 -39 52
c-14 3 -22 14 -22 38c0 14 3 26 7 31c29 -1 54 22 54 54v214c0 89 56 114 110 114z" />
    <glyph glyph-name="braceleft.case" horiz-adv-x="320" 
d="M204 765c54 0 85 -13 85 -44c0 -11 -2 -19 -7 -27h-69c-31 0 -50 -20 -50 -58v-203c0 -62 -30 -78 -45 -80v-4c15 -1 45 -22 45 -84v-201c0 -41 20 -54 49 -54h71c4 -6 6 -14 6 -25c0 -30 -37 -44 -96 -44c-49 0 -99 28 -99 103v218c0 38 -19 49 -39 52
c-14 3 -22 14 -22 38c0 14 3 26 7 31c29 -1 54 22 54 54v214c0 89 56 114 110 114z" />
    <glyph glyph-name="braceright" unicode="}" horiz-adv-x="320" 
d="M118 -112c-54 0 -85 13 -85 44c0 11 2 19 7 27h69c31 0 50 20 50 58v203c0 62 30 78 45 80v4c-15 1 -45 22 -45 84v201c0 41 -20 54 -49 54h-71c-4 6 -6 14 -6 25c0 30 37 44 96 44c49 0 99 -28 99 -103v-218c0 -38 19 -49 39 -52c14 -3 22 -14 22 -38
c0 -14 -3 -26 -7 -31c-29 1 -54 -22 -54 -54v-214c0 -89 -56 -114 -110 -114z" />
    <glyph glyph-name="braceright.case" horiz-adv-x="320" 
d="M118 -63c-54 0 -85 13 -85 44c0 11 2 19 7 27h69c31 0 50 20 50 58v203c0 62 30 78 45 80v4c-15 1 -45 22 -45 84v201c0 41 -20 54 -49 54h-71c-4 6 -6 14 -6 25c0 30 37 44 96 44c49 0 99 -28 99 -103v-218c0 -38 19 -49 39 -52c14 -3 22 -14 22 -38
c0 -14 -3 -26 -7 -31c-29 1 -54 -22 -54 -54v-214c0 -89 -56 -114 -110 -114z" />
    <glyph glyph-name="bracketleft" unicode="[" horiz-adv-x="307" 
d="M58 -73v773c13 8 29 12 53 12h158c4 -5 9 -16 9 -33c0 -25 -8 -42 -28 -42h-117v-673h136c4 -6 9 -16 9 -33c0 -25 -10 -42 -30 -42h-180c-6 9 -10 21 -10 38z" />
    <glyph glyph-name="bracketleft.case" horiz-adv-x="307" 
d="M58 -16v773c13 8 29 12 53 12h158c4 -5 9 -16 9 -33c0 -25 -8 -42 -28 -42h-117v-673h136c4 -6 9 -16 9 -33c0 -25 -10 -42 -30 -42h-180c-6 9 -10 21 -10 38z" />
    <glyph glyph-name="bracketright" unicode="]" horiz-adv-x="307" 
d="M278 673v-773c-13 -8 -29 -12 -53 -12h-158c-4 5 -9 16 -9 33c0 25 8 42 28 42h117v673h-136c-4 6 -9 16 -9 33c0 25 10 42 30 42h180c6 -9 10 -21 10 -38z" />
    <glyph glyph-name="bracketright.case" horiz-adv-x="307" 
d="M278 730v-773c-13 -8 -29 -12 -53 -12h-158c-4 5 -9 16 -9 33c0 25 8 42 28 42h117v673h-136c-4 6 -9 16 -9 33c0 25 10 42 30 42h180c6 -9 10 -21 10 -38z" />
    <glyph glyph-name="breve" unicode="&#x2d8;" horiz-adv-x="446" 
d="M127 675c1 -18 9 -38 22 -50c15 -14 37 -20 66 -20c25 0 48 5 63 19c16 14 22 35 24 50c6 5 16 7 29 6c19 0 26 -12 24 -24c-4 -26 -15 -51 -39 -73c-23 -20 -58 -30 -101 -30s-77 10 -101 29c-25 20 -39 48 -41 76c-1 14 6 22 23 23c13 1 23 -2 31 -6z" />
    <glyph glyph-name="brokenbar" unicode="&#xa6;" horiz-adv-x="266" 
d="M131 712c21 0 42 -8 42 -31v-334c-6 -6 -25 -10 -44 -10c-17 0 -34 6 -34 38v329c7 5 17 8 36 8zM131 263c21 0 42 -8 42 -31v-334c-6 -6 -25 -10 -44 -10c-17 0 -34 5 -34 37v330c7 5 17 8 36 8z" />
    <glyph glyph-name="bsuperior" unicode="&#xf6ea;" horiz-adv-x="289" 
d="M84 681v-112c20 18 45 30 73 30c60 0 101 -40 101 -119c0 -94 -52 -135 -120 -135c-38 0 -65 9 -88 24c-7 5 -13 13 -13 21v304c6 3 14 6 24 6c13 0 23 -5 23 -19zM145 550c-25 0 -44 -9 -61 -24v-120c11 -8 30 -16 56 -16c43 0 70 29 70 84c0 50 -26 76 -65 76z" />
    <glyph glyph-name="bullet" unicode="&#x2022;" horiz-adv-x="261" 
d="M56 266c0 57 27 83 80 83s81 -26 81 -83c0 -53 -28 -79 -81 -79s-80 26 -80 79z" />
    <glyph glyph-name="c" unicode="c" horiz-adv-x="472" 
d="M424 424c0 -10 -7 -27 -19 -39c-45 22 -66 31 -132 31c-75 0 -144 -45 -144 -177c0 -113 62 -179 152 -179c62 0 113 22 136 39c8 -7 13 -19 13 -33c0 -19 -11 -35 -30 -46s-60 -30 -123 -30c-135 0 -221 96 -221 250c0 187 112 252 215 252c76 0 104 -16 132 -34
c12 -7 20 -17 21 -34z" />
    <glyph glyph-name="c.sc" unicode="&#xf763;" horiz-adv-x="555" 
d="M485 123c13 0 32 -8 32 -30c0 -18 -8 -31 -25 -43c-18 -16 -71 -58 -181 -58c-147 0 -251 84 -251 287c0 197 101 286 247 286c100 0 147 -27 180 -60c13 -11 20 -21 20 -40c0 -17 -12 -30 -26 -35c-37 41 -90 65 -171 65c-104 0 -177 -66 -177 -218
c0 -161 75 -218 182 -218c71 0 131 24 170 64z" />
    <glyph glyph-name="cacute" unicode="&#x107;" horiz-adv-x="473" 
d="M429 424c0 -10 -7 -27 -19 -39c-45 22 -66 31 -132 31c-75 0 -144 -45 -144 -177c0 -113 62 -179 152 -179c62 0 113 22 136 39c8 -7 13 -19 13 -33c0 -19 -11 -35 -30 -46s-60 -30 -123 -30c-135 0 -221 96 -221 250c0 187 112 252 215 252c76 0 104 -16 132 -34
c12 -7 20 -17 21 -34zM206 579c34 19 117 112 158 112c28 0 38 -15 38 -34c-50 -27 -127 -106 -161 -106c-19 0 -31 10 -35 28z" />
    <glyph glyph-name="cacute.sc" horiz-adv-x="555" 
d="M485 123c13 0 32 -8 32 -30c0 -18 -8 -31 -25 -43c-18 -16 -71 -58 -181 -58c-147 0 -251 84 -251 287c0 197 101 286 247 286c100 0 147 -27 180 -60c13 -11 20 -21 20 -40c0 -17 -12 -30 -26 -35c-37 41 -90 65 -171 65c-104 0 -177 -66 -177 -218
c0 -161 75 -218 182 -218c71 0 131 24 170 64zM211 655c34 19 117 112 158 112c28 0 38 -15 38 -34c-50 -27 -127 -106 -161 -106c-19 0 -31 10 -35 28z" />
    <glyph glyph-name="caron" unicode="&#x2c7;" horiz-adv-x="526" 
d="M256 552c-8 0 -13 2 -17 5c-38 17 -101 78 -144 101c1 19 17 34 39 34c29 0 83 -50 123 -84c41 34 95 84 124 84c21 0 38 -15 39 -34c-43 -23 -105 -83 -144 -101c-4 -2 -9 -5 -20 -5z" />
    <glyph glyph-name="ccaron" unicode="&#x10d;" horiz-adv-x="473" 
d="M429 424c0 -10 -7 -27 -19 -39c-45 22 -66 31 -132 31c-75 0 -144 -45 -144 -177c0 -113 62 -179 152 -179c62 0 113 22 136 39c8 -7 13 -19 13 -33c0 -19 -11 -35 -30 -46s-60 -30 -123 -30c-135 0 -221 96 -221 250c0 187 112 252 215 252c76 0 104 -16 132 -34
c12 -7 20 -17 21 -34zM273 552c-8 0 -13 2 -17 5c-38 17 -101 78 -144 101c1 19 17 34 39 34c29 0 83 -50 123 -84c41 34 95 84 124 84c21 0 38 -15 39 -34c-43 -23 -105 -83 -144 -101c-4 -2 -9 -5 -20 -5z" />
    <glyph glyph-name="ccaron.sc" horiz-adv-x="555" 
d="M485 123c13 0 32 -8 32 -30c0 -18 -8 -31 -25 -43c-18 -16 -71 -58 -181 -58c-147 0 -251 84 -251 287c0 197 101 286 247 286c100 0 147 -27 180 -60c13 -11 20 -21 20 -40c0 -17 -12 -30 -26 -35c-37 41 -90 65 -171 65c-104 0 -177 -66 -177 -218
c0 -161 75 -218 182 -218c71 0 131 24 170 64zM305 628c-8 0 -13 2 -17 5c-38 17 -101 78 -144 101c1 19 17 34 39 34c29 0 83 -50 123 -84c41 34 95 84 124 84c21 0 38 -15 39 -34c-43 -23 -105 -83 -144 -101c-4 -2 -9 -5 -20 -5z" />
    <glyph glyph-name="ccedilla" unicode="&#xe7;" horiz-adv-x="473" 
d="M429 424c0 -10 -7 -27 -19 -39c-45 22 -66 31 -132 31c-75 0 -144 -45 -144 -177c0 -113 62 -179 152 -179c62 0 113 22 136 39c8 -7 13 -19 13 -33c0 -19 -11 -35 -30 -46s-60 -30 -123 -30c-135 0 -221 96 -221 250c0 187 112 252 215 252c76 0 104 -16 132 -34
c12 -7 20 -17 21 -34zM317 -112c0 30 -35 40 -64 41c-3 3 -6 11 -6 20l1 67l49 -1l-4 -51c44 -6 70 -31 70 -80c0 -50 -34 -80 -87 -80s-78 24 -78 44c0 15 11 23 19 27c9 -13 31 -26 56 -26c26 0 44 13 44 39z" />
    <glyph glyph-name="ccedilla.sc" horiz-adv-x="555" 
d="M485 123c13 0 32 -8 32 -30c0 -18 -8 -31 -25 -43c-18 -16 -71 -58 -181 -58c-147 0 -251 84 -251 287c0 197 101 286 247 286c100 0 147 -27 180 -60c13 -11 20 -21 20 -40c0 -17 -12 -30 -26 -35c-37 41 -90 65 -171 65c-104 0 -177 -66 -177 -218
c0 -161 75 -218 182 -218c71 0 131 24 170 64zM358 -112c0 30 -35 40 -64 41c-3 3 -6 11 -6 20l1 67l49 -1l-4 -51c44 -6 70 -31 70 -80c0 -50 -34 -80 -87 -80s-78 24 -78 44c0 15 11 23 19 27c9 -13 31 -26 56 -26c26 0 44 13 44 39z" />
    <glyph glyph-name="ccircumflex" unicode="&#x109;" horiz-adv-x="473" 
d="M429 424c0 -10 -7 -27 -19 -39c-45 22 -66 31 -132 31c-75 0 -144 -45 -144 -177c0 -113 62 -179 152 -179c62 0 113 22 136 39c8 -7 13 -19 13 -33c0 -19 -11 -35 -30 -46s-60 -30 -123 -30c-135 0 -221 96 -221 250c0 187 112 252 215 252c76 0 104 -16 132 -34
c12 -7 20 -17 21 -34zM435 580c-3 -14 -11 -24 -24 -26c-5 -2 -12 -2 -19 0c-29 8 -75 49 -116 77c-41 -28 -88 -69 -117 -77c-6 -2 -13 -2 -18 0c-13 2 -21 12 -24 26c34 18 115 112 157 112c41 0 122 -92 161 -112z" />
    <glyph glyph-name="ccircumflex.sc" horiz-adv-x="555" 
d="M485 123c13 0 32 -8 32 -30c0 -18 -8 -31 -25 -43c-18 -16 -71 -58 -181 -58c-147 0 -251 84 -251 287c0 197 101 286 247 286c100 0 147 -27 180 -60c13 -11 20 -21 20 -40c0 -17 -12 -30 -26 -35c-37 41 -90 65 -171 65c-104 0 -177 -66 -177 -218
c0 -161 75 -218 182 -218c71 0 131 24 170 64zM467 656c-3 -14 -11 -24 -24 -26c-5 -2 -12 -2 -19 0c-29 8 -75 49 -116 77c-41 -28 -88 -69 -117 -77c-6 -2 -13 -2 -18 0c-13 2 -21 12 -24 26c34 18 115 112 157 112c41 0 122 -92 161 -112z" />
    <glyph glyph-name="cdotaccent" unicode="&#x10b;" horiz-adv-x="473" 
d="M429 424c0 -10 -7 -27 -19 -39c-45 22 -66 31 -132 31c-75 0 -144 -45 -144 -177c0 -113 62 -179 152 -179c62 0 113 22 136 39c8 -7 13 -19 13 -33c0 -19 -11 -35 -30 -46s-60 -30 -123 -30c-135 0 -221 96 -221 250c0 187 112 252 215 252c76 0 104 -16 132 -34
c12 -7 20 -17 21 -34zM229 617c0 31 15 46 46 46c30 0 46 -15 46 -46s-16 -46 -46 -46s-46 15 -46 46z" />
    <glyph glyph-name="cdotaccent.sc" horiz-adv-x="555" 
d="M485 123c13 0 32 -8 32 -30c0 -18 -8 -31 -25 -43c-18 -16 -71 -58 -181 -58c-147 0 -251 84 -251 287c0 197 101 286 247 286c100 0 147 -27 180 -60c13 -11 20 -21 20 -40c0 -17 -12 -30 -26 -35c-37 41 -90 65 -171 65c-104 0 -177 -66 -177 -218
c0 -161 75 -218 182 -218c71 0 131 24 170 64zM266 681c0 32 15 47 45 47s46 -15 46 -47c0 -30 -16 -45 -46 -45s-45 15 -45 45z" />
    <glyph glyph-name="cedilla" unicode="&#xb8;" horiz-adv-x="555" 
d="M311 -112c0 30 -35 40 -64 41c-3 3 -6 11 -6 20l1 67l49 -1l-4 -51c44 -6 70 -31 70 -80c0 -50 -34 -80 -87 -80s-78 24 -78 44c0 15 11 23 19 27c9 -13 31 -26 56 -26c26 0 44 13 44 39z" />
    <glyph glyph-name="cent" unicode="&#xa2;" horiz-adv-x="503" 
d="M449 424c1 -10 -7 -27 -19 -39c-36 17 -59 27 -110 29l-2 -353c56 4 105 23 124 38c8 -7 14 -19 14 -33c0 -19 -11 -35 -31 -46c-18 -10 -53 -25 -108 -28l-1 -76c-6 -5 -16 -8 -31 -8s-26 5 -26 27l1 57c-123 14 -200 106 -200 248c0 173 102 242 205 251l1 79
c7 4 15 7 27 7c18 -1 30 -8 30 -27l-1 -61c57 -3 81 -17 106 -31c12 -7 20 -17 21 -34zM128 239c0 -100 52 -163 133 -175l2 350c-74 -7 -135 -56 -135 -175z" />
    <glyph glyph-name="cent.lf" horiz-adv-x="503" 
d="M449 424c1 -10 -7 -27 -19 -39c-36 17 -59 27 -110 29l-2 -353c56 4 105 23 124 38c8 -7 14 -19 14 -33c0 -19 -11 -35 -31 -46c-18 -10 -53 -25 -108 -28l-1 -70c-5 -5 -15 -8 -31 -8c-14 0 -26 5 -26 27l1 51c-123 14 -200 106 -200 248c0 173 102 242 205 251l1 75
c6 4 11 7 27 7c17 -1 30 -8 29 -27v-57c57 -3 81 -17 106 -31c12 -7 20 -17 21 -34zM128 239c0 -100 52 -163 133 -175l2 350c-74 -7 -135 -56 -135 -175z" />
    <glyph glyph-name="cent.osf" unicode="&#xf7a2;" horiz-adv-x="503" 
d="M449 424c1 -10 -7 -27 -19 -39c-36 17 -59 27 -110 29l-2 -353c56 4 105 23 124 38c8 -7 14 -19 14 -33c0 -19 -11 -35 -31 -46c-18 -10 -53 -25 -108 -28l-1 -76c-6 -5 -16 -8 -31 -8s-26 5 -26 27l1 57c-123 14 -200 106 -200 248c0 173 102 242 205 251l1 79
c7 4 15 7 27 7c18 -1 30 -8 30 -27l-1 -61c57 -3 81 -17 106 -31c12 -7 20 -17 21 -34zM128 239c0 -100 52 -163 133 -175l2 350c-74 -7 -135 -56 -135 -175z" />
    <glyph glyph-name="cent.tf" horiz-adv-x="632" 
d="M507 424c1 -10 -7 -27 -19 -39c-36 17 -59 27 -110 29l-2 -353c56 4 105 23 124 38c8 -7 14 -19 14 -33c0 -19 -11 -35 -31 -46c-18 -10 -53 -25 -108 -28l-1 -76c-6 -5 -16 -8 -31 -8s-26 5 -26 27l1 57c-123 14 -200 106 -200 248c0 173 102 242 205 251l1 79
c7 4 15 7 27 7c18 -1 30 -8 30 -27l-1 -61c57 -3 81 -17 106 -31c12 -7 20 -17 21 -34zM186 239c0 -100 52 -163 133 -175l2 350c-74 -7 -135 -56 -135 -175z" />
    <glyph glyph-name="cent.tosf" horiz-adv-x="632" 
d="M507 424c1 -10 -7 -27 -19 -39c-36 17 -59 27 -110 29l-2 -353c56 4 105 23 124 38c8 -7 14 -19 14 -33c0 -19 -11 -35 -31 -46c-18 -10 -53 -25 -108 -28l-1 -76c-6 -5 -16 -8 -31 -8s-26 5 -26 27l1 57c-123 14 -200 106 -200 248c0 173 102 242 205 251l1 79
c7 4 15 7 27 7c18 -1 30 -8 30 -27l-1 -61c57 -3 81 -17 106 -31c12 -7 20 -17 21 -34zM186 239c0 -100 52 -163 133 -175l2 350c-74 -7 -135 -56 -135 -175z" />
    <glyph glyph-name="circumflex" unicode="&#x2c6;" horiz-adv-x="483" 
d="M391 580c-3 -14 -11 -24 -24 -26c-5 -2 -12 -2 -19 0c-29 8 -75 49 -116 77c-41 -28 -88 -69 -117 -77c-6 -2 -13 -2 -18 0c-13 2 -21 12 -24 26c34 18 115 112 157 112c41 0 122 -92 161 -112z" />
    <glyph glyph-name="colon" unicode=":" horiz-adv-x="171" 
d="M40 45c0 32 15 47 45 47s46 -15 46 -47c0 -30 -16 -45 -46 -45s-45 15 -45 45zM40 453c0 32 15 47 45 47s46 -15 46 -47c0 -30 -16 -45 -46 -45s-45 15 -45 45z" />
    <glyph glyph-name="comma" unicode="," horiz-adv-x="175" 
d="M86 0c-29 0 -46 15 -46 45c0 32 17 47 46 47c31 0 49 -16 49 -69c0 -75 -24 -118 -51 -118c-15 0 -23 5 -26 17c19 18 28 59 28 78z" />
    <glyph glyph-name="copyright" unicode="&#xa9;" horiz-adv-x="794" 
d="M37 350c0 220 140 360 360 360c219 0 360 -140 360 -360c0 -219 -141 -360 -360 -360c-220 0 -360 141 -360 360zM103 350c0 -179 114 -294 294 -294s295 115 295 294c0 182 -115 295 -295 295s-294 -113 -294 -295zM518 499c1 -8 -9 -24 -17 -32c-35 18 -51 25 -104 25
c-60 0 -114 -36 -114 -140c0 -90 49 -143 121 -143c48 0 88 18 105 30c6 -4 13 -15 13 -26c0 -15 -8 -28 -23 -36c-14 -9 -48 -25 -99 -25c-107 0 -176 77 -176 200c0 148 89 201 171 201c62 0 85 -13 107 -27c10 -5 16 -14 16 -27z" />
    <glyph glyph-name="currency" unicode="&#xa4;" horiz-adv-x="528" 
d="M79 244c0 35 11 69 31 96l-44 43c-17 13 -28 33 -27 50c3 35 27 47 46 45l78 -84c28 20 61 31 97 31c32 0 62 -9 87 -25l42 51c11 18 29 31 47 31c35 0 49 -22 48 -42l-80 -90c24 -30 38 -66 38 -106c0 -37 -12 -70 -32 -97l55 -53c18 -15 25 -33 24 -51
c-2 -25 -25 -40 -47 -41l-84 91c-28 -20 -61 -31 -98 -31c-29 0 -56 8 -79 22l-45 -56c-14 -18 -31 -28 -49 -28c-26 0 -42 21 -45 43l79 87c-26 31 -42 70 -42 114zM138 244c0 -67 56 -123 122 -123c67 0 123 56 123 123c0 66 -56 122 -123 122c-66 0 -122 -56 -122 -122z
" />
    <glyph glyph-name="d" unicode="d" horiz-adv-x="563" 
d="M469 0c-34 0 -64 15 -77 47c-39 -35 -86 -57 -143 -57c-101 0 -193 70 -193 249c0 180 105 253 203 253c58 0 97 -18 127 -48v227c0 18 11 29 31 29c22 0 34 -5 41 -10v-597c0 -26 13 -34 31 -34h32c4 -8 6 -14 6 -26c0 -18 -18 -33 -58 -33zM260 60c57 0 96 19 126 46
v258c-30 34 -59 50 -118 50c-63 0 -138 -47 -138 -172c0 -127 57 -182 130 -182z" />
    <glyph glyph-name="d.sc" unicode="&#xf764;" horiz-adv-x="603" 
d="M131 557h116c197 0 296 -87 296 -286c0 -200 -106 -271 -276 -271h-136c-20 0 -37 5 -37 33v517c7 4 18 7 37 7zM250 489h-82v-424h97c132 0 204 55 204 205c0 151 -72 219 -219 219z" />
    <glyph glyph-name="dagger" unicode="&#x2020;" horiz-adv-x="480" 
d="M243 712c22 0 36 -7 36 -27v-789c-10 -5 -24 -8 -45 -8c-19 0 -33 10 -33 34v782c8 5 25 8 42 8zM412 435h-372c-4 10 -8 20 -8 39s9 35 32 35h376c5 -8 8 -22 8 -36c0 -19 -7 -38 -36 -38z" />
    <glyph glyph-name="daggerdbl" unicode="&#x2021;" horiz-adv-x="480" 
d="M243 712c22 0 36 -7 36 -27v-789c-10 -5 -24 -8 -45 -8c-19 0 -33 10 -33 34v782c8 5 25 8 42 8zM412 435h-372c-4 10 -8 20 -8 39s9 35 32 35h376c5 -8 8 -22 8 -36c0 -19 -7 -38 -36 -38zM412 82h-372c-4 10 -8 20 -8 39s9 35 32 35h376c5 -8 8 -22 8 -36
c0 -19 -7 -38 -36 -38z" />
    <glyph glyph-name="dcaron" unicode="&#x10f;" horiz-adv-x="575" 
d="M469 0c-34 0 -64 15 -77 47c-39 -35 -86 -57 -143 -57c-101 0 -193 70 -193 249c0 180 105 253 203 253c58 0 97 -18 127 -48v227c0 18 11 29 31 29c22 0 34 -5 41 -10v-597c0 -26 13 -34 31 -34h32c4 -8 6 -14 6 -26c0 -18 -18 -33 -58 -33zM260 60c57 0 96 19 126 46
v258c-30 34 -59 50 -118 50c-63 0 -138 -47 -138 -172c0 -127 57 -182 130 -182zM568 608c-29 0 -46 15 -46 45c0 32 17 47 46 47c31 0 49 -16 49 -69c0 -75 -24 -118 -51 -118c-15 0 -23 5 -26 17c19 18 28 59 28 78z" />
    <glyph glyph-name="dcaron.sc" horiz-adv-x="603" 
d="M131 557h116c197 0 296 -87 296 -286c0 -200 -106 -271 -276 -271h-136c-20 0 -37 5 -37 33v517c7 4 18 7 37 7zM250 489h-82v-424h97c132 0 204 55 204 205c0 151 -72 219 -219 219zM268 628c-8 0 -13 2 -17 5c-38 17 -101 78 -144 101c1 19 17 34 39 34
c29 0 83 -50 123 -84c41 34 95 84 124 84c21 0 38 -15 39 -34c-43 -23 -105 -83 -144 -101c-4 -2 -9 -5 -20 -5z" />
    <glyph glyph-name="dcroat" unicode="&#x111;" horiz-adv-x="563" 
d="M517 559h-59v-466c0 -26 13 -34 31 -34h32c4 -8 6 -14 6 -26c0 -15 -14 -27 -41 -31c-11 -1 -24 -1 -35 0c-26 4 -46 20 -54 49c-35 -34 -82 -58 -135 -60c-10 -1 -21 0 -32 0c-93 8 -174 79 -174 248c0 180 105 253 203 253c59 0 96 -20 127 -50v117h-137
c-4 10 -7 16 -7 31c0 17 8 28 26 28h118v53c0 18 11 29 31 29c22 0 34 -5 41 -10v-72h79c4 -6 6 -16 6 -31c0 -18 -8 -28 -26 -28zM260 60c60 0 100 25 126 52v251c-31 35 -58 51 -118 51c-63 0 -138 -47 -138 -172c0 -127 57 -182 130 -182z" />
    <glyph glyph-name="dcroat.sc" horiz-adv-x="603" 
d="M131 557h116c197 0 296 -87 296 -286c0 -200 -106 -271 -276 -271h-136c-20 0 -37 5 -37 33v208h-72c-4 9 -8 15 -8 31c0 21 9 34 37 34h43v244c7 4 18 7 37 7zM265 241h-97v-176h97c132 0 204 55 204 205c0 151 -72 219 -219 219h-82v-183h129c4 -6 8 -16 8 -31
c0 -22 -10 -34 -40 -34z" />
    <glyph glyph-name="degree" unicode="&#xb0;" horiz-adv-x="331" 
d="M32 567c0 73 59 134 133 134c73 0 134 -61 134 -134c0 -74 -61 -133 -134 -133c-74 0 -133 59 -133 133zM83 567c0 -46 37 -83 83 -83s83 37 83 83s-37 83 -83 83s-83 -37 -83 -83z" />
    <glyph glyph-name="dieresis" unicode="&#xa8;" horiz-adv-x="477" 
d="M76 615c0 31 15 46 46 46c29 0 46 -15 46 -46s-17 -45 -46 -45c-31 0 -46 15 -46 45zM286 615c0 31 14 46 45 46c30 0 46 -15 46 -46s-16 -45 -46 -45s-45 15 -45 45z" />
    <glyph glyph-name="divide" unicode="&#xf7;" horiz-adv-x="524" 
d="M217 61c0 32 15 47 45 47s46 -15 46 -47c0 -30 -16 -45 -46 -45s-45 15 -45 45zM217 439c0 32 15 47 45 47s46 -15 46 -47c0 -30 -16 -45 -46 -45s-45 15 -45 45zM434 216h-372c-4 10 -8 20 -8 39s9 35 32 35h376c5 -8 8 -22 8 -36c0 -19 -7 -38 -36 -38z" />
    <glyph glyph-name="dollar" unicode="$" horiz-adv-x="599" 
d="M312 815c18 0 28 -8 27 -27v-80c85 -5 137 -35 163 -59c11 -11 16 -26 16 -39c0 -15 -11 -29 -22 -37c-27 23 -79 49 -158 54l-1 -240c142 -42 207 -92 209 -204c0 -109 -68 -182 -212 -192l-1 -100c-6 -5 -13 -7 -29 -7c-17 0 -30 6 -29 34v73c-77 2 -138 22 -177 46
c-29 19 -44 39 -44 59c0 19 7 32 14 40c45 -41 125 -66 208 -69l1 256c-151 45 -206 93 -206 202c0 98 62 176 209 184l1 97c7 5 18 9 31 9zM470 180c0 59 -34 93 -134 127l-1 -238c97 8 135 54 135 111zM147 524c0 -56 35 -86 131 -120l1 222c-99 -5 -132 -50 -132 -102z
" />
    <glyph glyph-name="dollar.lf" horiz-adv-x="599" 
d="M312 783c17 0 27 -7 27 -26v-49c85 -5 137 -35 163 -59c11 -11 16 -26 16 -39c0 -15 -11 -29 -22 -37c-27 23 -79 49 -158 54l-1 -240c142 -42 207 -92 209 -204c0 -109 -68 -182 -212 -192l-1 -64c-6 -5 -13 -7 -29 -7c-17 0 -30 5 -29 33v38c-77 2 -138 22 -177 46
c-29 19 -44 39 -44 59c0 19 7 32 14 40c45 -41 125 -66 208 -69l1 256c-151 45 -206 93 -206 202c0 98 62 176 209 184v66c8 5 19 8 32 8zM470 180c0 59 -34 93 -134 127l-1 -238c97 8 135 54 135 111zM147 524c0 -56 35 -86 131 -120l1 222c-99 -5 -132 -50 -132 -102z" />
    <glyph glyph-name="dollar.osf" unicode="&#xf724;" horiz-adv-x="599" 
d="M312 815c18 0 28 -8 27 -27v-80c85 -5 137 -35 163 -59c11 -11 16 -26 16 -39c0 -15 -11 -29 -22 -37c-27 23 -79 49 -158 54l-1 -240c142 -42 207 -92 209 -204c0 -109 -68 -182 -212 -192l-1 -100c-6 -5 -13 -7 -29 -7c-17 0 -30 6 -29 34v73c-77 2 -138 22 -177 46
c-29 19 -44 39 -44 59c0 19 7 32 14 40c45 -41 125 -66 208 -69l1 256c-151 45 -206 93 -206 202c0 98 62 176 209 184l1 97c7 5 18 9 31 9zM470 180c0 59 -34 93 -134 127l-1 -238c97 8 135 54 135 111zM147 524c0 -56 35 -86 131 -120l1 222c-99 -5 -132 -50 -132 -102z
" />
    <glyph glyph-name="dollar.sc" horiz-adv-x="520" 
d="M271 644c15 0 25 -6 25 -22l-1 -59c72 -4 113 -27 135 -46c10 -10 15 -23 15 -35c0 -15 -10 -27 -20 -35c-23 17 -66 36 -130 40l-2 -176c120 -31 174 -70 175 -162c1 -87 -56 -147 -178 -156v-69c-6 -4 -13 -6 -27 -6c-17 0 -28 6 -28 32v43c-65 2 -115 17 -147 37
c-25 15 -37 32 -37 49s7 31 13 37c38 -29 104 -47 172 -50l1 184c-125 33 -173 73 -173 163c0 81 54 143 176 151l1 74c7 4 17 6 30 6zM395 146c0 41 -26 66 -103 90l-1 -169c75 7 104 40 104 79zM138 413c0 -40 27 -62 100 -86l1 158c-74 -4 -101 -35 -101 -72z" />
    <glyph glyph-name="dollar.tf" horiz-adv-x="632" 
d="M328 815c18 0 28 -8 27 -27v-80c85 -5 137 -35 163 -59c11 -11 16 -26 16 -39c0 -15 -11 -29 -22 -37c-27 23 -79 49 -158 54l-1 -240c142 -42 207 -92 209 -204c0 -109 -68 -182 -212 -192l-1 -100c-6 -5 -13 -7 -29 -7c-17 0 -30 6 -29 34v73c-77 2 -138 22 -177 46
c-29 19 -44 39 -44 59c0 19 7 32 14 40c45 -41 125 -66 208 -69l1 256c-151 45 -206 93 -206 202c0 98 62 176 209 184l1 97c7 5 18 9 31 9zM486 180c0 59 -34 93 -134 127l-1 -238c97 8 135 54 135 111zM163 524c0 -56 35 -86 131 -120l1 222c-99 -5 -132 -50 -132 -102z
" />
    <glyph glyph-name="dollar.tosf" horiz-adv-x="632" 
d="M328 815c18 0 28 -8 27 -27v-80c85 -5 137 -35 163 -59c11 -11 16 -26 16 -39c0 -15 -11 -29 -22 -37c-27 23 -79 49 -158 54l-1 -240c142 -42 207 -92 209 -204c0 -109 -68 -182 -212 -192l-1 -100c-6 -5 -13 -7 -29 -7c-17 0 -30 6 -29 34v73c-77 2 -138 22 -177 46
c-29 19 -44 39 -44 59c0 19 7 32 14 40c45 -41 125 -66 208 -69l1 256c-151 45 -206 93 -206 202c0 98 62 176 209 184l1 97c7 5 18 9 31 9zM486 180c0 59 -34 93 -134 127l-1 -238c97 8 135 54 135 111zM163 524c0 -56 35 -86 131 -120l1 222c-99 -5 -132 -50 -132 -102z
" />
    <glyph glyph-name="dotaccent" unicode="&#x2d9;" horiz-adv-x="462" 
d="M186 617c0 31 15 46 46 46c30 0 46 -15 46 -46s-16 -46 -46 -46s-46 15 -46 46z" />
    <glyph glyph-name="dotlessi" unicode="&#x131;" horiz-adv-x="292" 
d="M114 482c44 0 72 -15 72 -78v-316c0 -19 9 -26 23 -26h30c3 -6 5 -13 5 -25c0 -23 -19 -37 -67 -37c-41 0 -67 18 -67 68v315c0 22 -10 28 -25 28h-29c-4 7 -6 17 -6 30c0 29 27 41 64 41z" />
    <glyph glyph-name="dotlessi.sc" horiz-adv-x="262" 
d="M134 557c19 0 34 -7 34 -28v-520c-10 -6 -21 -9 -40 -9c-20 0 -34 7 -34 34v516c8 4 22 7 40 7z" />
    <glyph glyph-name="dotlessj" unicode="&#x237;" horiz-adv-x="284" 
d="M123 482c50 0 71 -20 71 -77v-450c0 -93 -50 -126 -117 -126c-56 0 -95 12 -95 42c0 10 1 19 5 30h73c38 0 62 21 62 69v413c0 21 -9 28 -23 28h-39c-3 8 -5 16 -5 31c0 25 20 40 68 40z" />
    <glyph glyph-name="dotlessj.sc" horiz-adv-x="347" 
d="M220 557c20 0 33 -6 33 -29v-416c0 -79 -44 -112 -117 -112c-77 0 -111 18 -111 43c0 12 1 18 6 27h87c43 0 65 16 65 58v422c9 5 21 7 37 7z" />
    <glyph glyph-name="dsuperior" unicode="&#xf6eb;" horiz-adv-x="309" 
d="M252 350c-18 0 -34 8 -42 23c-21 -18 -45 -28 -76 -28c-53 0 -103 35 -103 125s55 129 108 129c29 0 49 -8 65 -22v105c0 12 7 18 20 18c14 0 22 -3 27 -6v-291c0 -13 6 -17 16 -17h17c2 -4 4 -8 4 -15c0 -12 -11 -21 -36 -21zM143 390c26 0 45 7 61 18v121
c-15 14 -30 20 -58 20c-31 0 -66 -22 -66 -77c0 -56 27 -82 63 -82z" />
    <glyph glyph-name="e" unicode="e" horiz-adv-x="501" 
d="M444 233h-317c2 -114 62 -173 146 -173c71 0 133 27 156 45c10 -6 17 -16 17 -33c0 -18 -7 -28 -17 -35c-27 -20 -75 -47 -162 -47c-129 0 -214 99 -214 249c0 169 106 253 218 253c121 0 180 -91 180 -208c0 -19 -2 -38 -7 -51zM269 424c-64 0 -123 -44 -138 -136h252
c0 80 -35 136 -114 136z" />
    <glyph glyph-name="e.sc" unicode="&#xf765;" 
d="M424 251h-256v-181h324c4 -5 8 -14 8 -31c0 -22 -10 -39 -29 -39h-345c-16 0 -32 5 -32 34v516c7 5 16 7 34 7h364c4 -5 8 -13 8 -30c0 -23 -10 -39 -29 -39h-303v-168h275c4 -5 8 -17 8 -34c0 -22 -9 -35 -27 -35z" />
    <glyph glyph-name="eacute" unicode="&#xe9;" horiz-adv-x="504" 
d="M447 233h-317c2 -114 62 -173 146 -173c71 0 133 27 156 45c10 -6 17 -16 17 -33c0 -18 -7 -28 -17 -35c-27 -20 -75 -47 -162 -47c-129 0 -214 99 -214 249c0 169 106 253 218 253c121 0 180 -91 180 -208c0 -19 -2 -38 -7 -51zM272 424c-64 0 -123 -44 -138 -136h252
c0 80 -35 136 -114 136zM205 579c34 19 117 112 158 112c28 0 38 -15 38 -34c-50 -27 -127 -106 -161 -106c-19 0 -31 10 -35 28z" />
    <glyph glyph-name="eacute.sc" 
d="M424 251h-256v-181h324c4 -5 8 -14 8 -31c0 -22 -10 -39 -29 -39h-345c-16 0 -32 5 -32 34v516c7 5 16 7 34 7h364c4 -5 8 -13 8 -30c0 -23 -10 -39 -29 -39h-303v-168h275c4 -5 8 -17 8 -34c0 -22 -9 -35 -27 -35zM195 655c34 19 117 112 158 112c28 0 38 -15 38 -34
c-50 -27 -127 -106 -161 -106c-19 0 -31 10 -35 28z" />
    <glyph glyph-name="ebreve" unicode="&#x115;" horiz-adv-x="504" 
d="M447 233h-317c2 -114 62 -173 146 -173c71 0 133 27 156 45c10 -6 17 -16 17 -33c0 -18 -7 -28 -17 -35c-27 -20 -75 -47 -162 -47c-129 0 -214 99 -214 249c0 169 106 253 218 253c121 0 180 -91 180 -208c0 -19 -2 -38 -7 -51zM272 424c-64 0 -123 -44 -138 -136h252
c0 80 -35 136 -114 136zM186 675c1 -18 9 -38 22 -50c15 -14 37 -20 66 -20c25 0 48 5 63 19c16 14 22 35 24 50c6 5 16 7 29 6c19 0 26 -12 24 -24c-4 -26 -15 -51 -39 -73c-23 -20 -58 -30 -101 -30s-77 10 -101 29c-25 20 -39 48 -41 76c-1 14 6 22 23 23
c13 1 23 -2 31 -6z" />
    <glyph glyph-name="ebreve.sc" 
d="M424 251h-256v-181h324c4 -5 8 -14 8 -31c0 -22 -10 -39 -29 -39h-345c-16 0 -32 5 -32 34v516c7 5 16 7 34 7h364c4 -5 8 -13 8 -30c0 -23 -10 -39 -29 -39h-303v-168h275c4 -5 8 -17 8 -34c0 -22 -9 -35 -27 -35zM210 751c1 -18 9 -38 22 -50c15 -14 37 -20 66 -20
c25 0 48 5 63 19c16 14 22 35 24 50c6 5 16 7 29 6c19 0 26 -12 24 -24c-4 -26 -15 -51 -39 -73c-23 -20 -58 -30 -101 -30s-77 10 -101 29c-25 20 -39 48 -41 76c-1 14 6 22 23 23c13 1 23 -2 31 -6z" />
    <glyph glyph-name="ecaron" unicode="&#x11b;" horiz-adv-x="504" 
d="M447 233h-317c2 -114 62 -173 146 -173c71 0 133 27 156 45c10 -6 17 -16 17 -33c0 -18 -7 -28 -17 -35c-27 -20 -75 -47 -162 -47c-129 0 -214 99 -214 249c0 169 106 253 218 253c121 0 180 -91 180 -208c0 -19 -2 -38 -7 -51zM272 424c-64 0 -123 -44 -138 -136h252
c0 80 -35 136 -114 136zM272 552c-8 0 -13 2 -17 5c-38 17 -101 78 -144 101c1 19 17 34 39 34c29 0 83 -50 123 -84c41 34 95 84 124 84c21 0 38 -15 39 -34c-43 -23 -105 -83 -144 -101c-4 -2 -9 -5 -20 -5z" />
    <glyph glyph-name="ecaron.sc" 
d="M424 251h-256v-181h324c4 -5 8 -14 8 -31c0 -22 -10 -39 -29 -39h-345c-16 0 -32 5 -32 34v516c7 5 16 7 34 7h364c4 -5 8 -13 8 -30c0 -23 -10 -39 -29 -39h-303v-168h275c4 -5 8 -17 8 -34c0 -22 -9 -35 -27 -35zM298 628c-8 0 -13 2 -17 5c-38 17 -101 78 -144 101
c1 19 17 34 39 34c29 0 83 -50 123 -84c41 34 95 84 124 84c21 0 38 -15 39 -34c-43 -23 -105 -83 -144 -101c-4 -2 -9 -5 -20 -5z" />
    <glyph glyph-name="ecircumflex" unicode="&#xea;" horiz-adv-x="504" 
d="M447 233h-317c2 -114 62 -173 146 -173c71 0 133 27 156 45c10 -6 17 -16 17 -33c0 -18 -7 -28 -17 -35c-27 -20 -75 -47 -162 -47c-129 0 -214 99 -214 249c0 169 106 253 218 253c121 0 180 -91 180 -208c0 -19 -2 -38 -7 -51zM272 424c-64 0 -123 -44 -138 -136h252
c0 80 -35 136 -114 136zM434 580c-3 -14 -11 -24 -24 -26c-5 -2 -12 -2 -19 0c-29 8 -75 49 -116 77c-41 -28 -88 -69 -117 -77c-6 -2 -13 -2 -18 0c-13 2 -21 12 -24 26c34 18 115 112 157 112c41 0 122 -92 161 -112z" />
    <glyph glyph-name="ecircumflex.sc" 
d="M424 251h-256v-181h324c4 -5 8 -14 8 -31c0 -22 -10 -39 -29 -39h-345c-16 0 -32 5 -32 34v516c7 5 16 7 34 7h364c4 -5 8 -13 8 -30c0 -23 -10 -39 -29 -39h-303v-168h275c4 -5 8 -17 8 -34c0 -22 -9 -35 -27 -35zM455 656c-3 -14 -11 -24 -24 -26c-5 -2 -12 -2 -19 0
c-29 8 -75 49 -116 77c-41 -28 -88 -69 -117 -77c-6 -2 -13 -2 -18 0c-13 2 -21 12 -24 26c34 18 115 112 157 112c41 0 122 -92 161 -112z" />
    <glyph glyph-name="edieresis" unicode="&#xeb;" horiz-adv-x="504" 
d="M447 233h-317c2 -114 62 -173 146 -173c71 0 133 27 156 45c10 -6 17 -16 17 -33c0 -18 -7 -28 -17 -35c-27 -20 -75 -47 -162 -47c-129 0 -214 99 -214 249c0 169 106 253 218 253c121 0 180 -91 180 -208c0 -19 -2 -38 -7 -51zM272 424c-64 0 -123 -44 -138 -136h252
c0 80 -35 136 -114 136zM126 615c0 31 15 46 46 46c29 0 46 -15 46 -46s-17 -45 -46 -45c-31 0 -46 15 -46 45zM336 615c0 31 14 46 45 46c30 0 46 -15 46 -46s-16 -45 -46 -45s-45 15 -45 45z" />
    <glyph glyph-name="edieresis.sc" 
d="M424 251h-256v-181h324c4 -5 8 -14 8 -31c0 -22 -10 -39 -29 -39h-345c-16 0 -32 5 -32 34v516c7 5 16 7 34 7h364c4 -5 8 -13 8 -30c0 -23 -10 -39 -29 -39h-303v-168h275c4 -5 8 -17 8 -34c0 -22 -9 -35 -27 -35zM140 691c0 31 15 46 46 46c29 0 46 -15 46 -46
s-17 -45 -46 -45c-31 0 -46 15 -46 45zM350 691c0 31 14 46 45 46c30 0 46 -15 46 -46s-16 -45 -46 -45s-45 15 -45 45z" />
    <glyph glyph-name="edotaccent" unicode="&#x117;" horiz-adv-x="504" 
d="M447 233h-317c2 -114 62 -173 146 -173c71 0 133 27 156 45c10 -6 17 -16 17 -33c0 -18 -7 -28 -17 -35c-27 -20 -75 -47 -162 -47c-129 0 -214 99 -214 249c0 169 106 253 218 253c121 0 180 -91 180 -208c0 -19 -2 -38 -7 -51zM272 424c-64 0 -123 -44 -138 -136h252
c0 80 -35 136 -114 136zM228 617c0 31 15 46 46 46c30 0 46 -15 46 -46s-16 -46 -46 -46s-46 15 -46 46z" />
    <glyph glyph-name="edotaccent.sc" 
d="M424 251h-256v-181h324c4 -5 8 -14 8 -31c0 -22 -10 -39 -29 -39h-345c-16 0 -32 5 -32 34v516c7 5 16 7 34 7h364c4 -5 8 -13 8 -30c0 -23 -10 -39 -29 -39h-303v-168h275c4 -5 8 -17 8 -34c0 -22 -9 -35 -27 -35zM255 689c0 32 15 47 45 47s46 -15 46 -47
c0 -30 -16 -45 -46 -45s-45 15 -45 45z" />
    <glyph glyph-name="egrave" unicode="&#xe8;" horiz-adv-x="504" 
d="M447 233h-317c2 -114 62 -173 146 -173c71 0 133 27 156 45c10 -6 17 -16 17 -33c0 -18 -7 -28 -17 -35c-27 -20 -75 -47 -162 -47c-129 0 -214 99 -214 249c0 169 106 253 218 253c121 0 180 -91 180 -208c0 -19 -2 -38 -7 -51zM272 424c-64 0 -123 -44 -138 -136h252
c0 80 -35 136 -114 136zM348 578c-4 -18 -16 -28 -34 -28c-34 0 -112 79 -162 106c1 19 11 34 39 34c40 0 123 -93 157 -112z" />
    <glyph glyph-name="egrave.sc" 
d="M424 251h-256v-181h324c4 -5 8 -14 8 -31c0 -22 -10 -39 -29 -39h-345c-16 0 -32 5 -32 34v516c7 5 16 7 34 7h364c4 -5 8 -13 8 -30c0 -23 -10 -39 -29 -39h-303v-168h275c4 -5 8 -17 8 -34c0 -22 -9 -35 -27 -35zM390 654c-4 -18 -16 -28 -34 -28
c-34 0 -112 79 -162 106c1 19 11 34 39 34c40 0 123 -93 157 -112z" />
    <glyph glyph-name="egravesuperior" horiz-adv-x="277" 
d="M247 462h-168c3 -49 33 -73 75 -73c36 0 71 12 84 21c5 -4 11 -10 11 -20c0 -11 -6 -18 -13 -22c-15 -11 -39 -23 -87 -23c-72 0 -118 52 -118 127c0 84 58 127 120 127c67 0 100 -45 100 -107c0 -10 -1 -21 -4 -30zM151 555c-30 0 -61 -19 -70 -59h126
c0 36 -17 59 -56 59zM210 655c-3 -13 -12 -21 -25 -21c-25 0 -81 58 -117 77c0 14 8 25 28 25c29 0 89 -68 114 -81z" />
    <glyph glyph-name="eight" unicode="8" horiz-adv-x="544" 
d="M41 190c0 92 52 147 114 174c-52 29 -88 76 -88 156c0 107 72 171 201 171c136 0 209 -61 209 -174c0 -74 -42 -130 -97 -160c70 -27 122 -77 122 -170c0 -108 -66 -197 -231 -197c-160 0 -230 85 -230 200zM266 325l-31 7c-65 -14 -121 -58 -121 -143
c0 -73 50 -131 156 -131c115 0 160 55 160 128c0 84 -76 119 -164 139zM136 520c0 -100 84 -125 168 -142c60 18 105 67 105 139c0 71 -51 113 -136 113c-82 0 -137 -44 -137 -110z" />
    <glyph glyph-name="eight.dnom" horiz-adv-x="353" 
d="M29 116c0 52 30 85 68 102c-30 18 -51 46 -51 92c0 66 45 105 128 105c87 0 133 -37 133 -106c0 -42 -24 -74 -57 -93c43 -16 74 -46 74 -102c0 -64 -42 -120 -147 -120c-102 0 -148 51 -148 122zM168 193l-14 3c-39 -9 -69 -34 -69 -80c0 -41 30 -74 91 -74
c66 0 93 30 93 71c0 48 -46 67 -101 80zM97 310c0 -57 51 -69 99 -79c34 11 61 37 61 77s-31 63 -79 63s-81 -23 -81 -61z" />
    <glyph glyph-name="eight.lf" horiz-adv-x="544" 
d="M41 190c0 92 52 147 114 174c-52 29 -88 76 -88 156c0 107 72 171 201 171c136 0 209 -61 209 -174c0 -74 -42 -130 -97 -160c70 -27 122 -77 122 -170c0 -108 -66 -197 -231 -197c-160 0 -230 85 -230 200zM266 325l-31 7c-65 -14 -121 -58 -121 -143
c0 -73 50 -131 156 -131c115 0 160 55 160 128c0 84 -76 119 -164 139zM136 520c0 -100 84 -125 168 -142c60 18 105 67 105 139c0 71 -51 113 -136 113c-82 0 -137 -44 -137 -110z" />
    <glyph glyph-name="eight.numr" horiz-adv-x="353" 
d="M29 401c0 52 30 85 68 102c-30 18 -51 46 -51 92c0 66 45 105 128 105c87 0 133 -37 133 -106c0 -42 -24 -74 -57 -93c43 -16 74 -46 74 -102c0 -64 -42 -120 -147 -120c-102 0 -148 51 -148 122zM168 478l-14 3c-39 -9 -69 -34 -69 -80c0 -41 30 -74 91 -74
c66 0 93 30 93 71c0 48 -46 67 -101 80zM97 595c0 -57 51 -69 99 -79c34 11 61 37 61 77s-31 63 -79 63s-81 -23 -81 -61z" />
    <glyph glyph-name="eight.sc" horiz-adv-x="479" 
d="M42 153c0 69 40 113 91 136c-41 25 -69 62 -69 123c0 87 61 138 172 138c115 0 178 -48 178 -140c0 -56 -33 -99 -76 -123c56 -22 98 -62 98 -136c0 -85 -57 -159 -196 -159c-138 0 -198 68 -198 161zM230 255c-8 1 -15 3 -22 5c-52 -11 -95 -45 -95 -106
c0 -55 42 -98 126 -98c90 0 126 40 126 95c0 63 -61 88 -135 104zM130 412c0 -75 68 -93 135 -106c47 14 83 49 83 103c0 53 -41 83 -108 83c-65 0 -110 -31 -110 -80z" />
    <glyph glyph-name="eight.tf" horiz-adv-x="582" 
d="M60 190c0 92 52 147 114 174c-52 29 -88 76 -88 156c0 107 72 171 201 171c136 0 209 -61 209 -174c0 -74 -42 -130 -97 -160c70 -27 122 -77 122 -170c0 -108 -66 -197 -231 -197c-160 0 -230 85 -230 200zM285 325l-31 7c-65 -14 -121 -58 -121 -143
c0 -73 50 -131 156 -131c115 0 160 55 160 128c0 84 -76 119 -164 139zM155 520c0 -100 84 -125 168 -142c60 18 105 67 105 139c0 71 -51 113 -136 113c-82 0 -137 -44 -137 -110z" />
    <glyph glyph-name="eight.tosf" horiz-adv-x="582" 
d="M60 190c0 92 52 147 114 174c-52 29 -88 76 -88 156c0 107 72 171 201 171c136 0 209 -61 209 -174c0 -74 -42 -130 -97 -160c70 -27 122 -77 122 -170c0 -108 -66 -197 -231 -197c-160 0 -230 85 -230 200zM285 325l-31 7c-65 -14 -121 -58 -121 -143
c0 -73 50 -131 156 -131c115 0 160 55 160 128c0 84 -76 119 -164 139zM155 520c0 -100 84 -125 168 -142c60 18 105 67 105 139c0 71 -51 113 -136 113c-82 0 -137 -44 -137 -110z" />
    <glyph glyph-name="ellipsis" unicode="&#x2026;" horiz-adv-x="514" 
d="M40 45c0 32 15 47 45 47s46 -15 46 -47c0 -30 -16 -45 -46 -45s-45 15 -45 45zM211 45c0 32 15 47 46 47c30 0 46 -15 46 -47c0 -30 -16 -45 -46 -45s-46 15 -46 45zM383 45c0 32 15 47 45 47s46 -15 46 -47c0 -30 -16 -45 -46 -45s-45 15 -45 45z" />
    <glyph glyph-name="emacron" unicode="&#x113;" horiz-adv-x="504" 
d="M447 233h-317c2 -114 62 -173 146 -173c71 0 133 27 156 45c10 -6 17 -16 17 -33c0 -18 -7 -28 -17 -35c-27 -20 -75 -47 -162 -47c-129 0 -214 99 -214 249c0 169 106 253 218 253c121 0 180 -91 180 -208c0 -19 -2 -38 -7 -51zM272 424c-64 0 -123 -44 -138 -136h252
c0 80 -35 136 -114 136zM387 581h-266c-4 8 -8 13 -8 26c0 21 5 34 45 34h274c4 -4 8 -9 8 -24c0 -16 -9 -36 -53 -36z" />
    <glyph glyph-name="emacron.sc" 
d="M424 251h-256v-181h324c4 -5 8 -14 8 -31c0 -22 -10 -39 -29 -39h-345c-16 0 -32 5 -32 34v516c7 5 16 7 34 7h364c4 -5 8 -13 8 -30c0 -23 -10 -39 -29 -39h-303v-168h275c4 -5 8 -17 8 -34c0 -22 -9 -35 -27 -35zM408 657h-266c-4 8 -8 13 -8 26c0 21 5 34 45 34h274
c4 -4 8 -9 8 -24c0 -16 -9 -36 -53 -36z" />
    <glyph glyph-name="emdash" unicode="&#x2014;" horiz-adv-x="676" 
d="M592 229h-530c-4 10 -8 22 -8 37c0 19 9 37 36 37h525c4 -5 7 -20 7 -34c0 -19 -7 -40 -30 -40z" />
    <glyph glyph-name="emdash.case" horiz-adv-x="676" 
d="M569 307h-506c-4 10 -9 17 -9 33c0 24 6 41 46 41h514c5 -5 8 -12 8 -29c0 -19 -8 -45 -53 -45z" />
    <glyph glyph-name="endash" unicode="&#x2013;" horiz-adv-x="524" 
d="M434 229h-372c-4 10 -8 20 -8 39s9 35 32 35h376c5 -8 8 -22 8 -36c0 -19 -7 -38 -36 -38z" />
    <glyph glyph-name="endash.case" horiz-adv-x="524" 
d="M417 311h-354c-4 10 -9 17 -9 33c0 25 6 41 46 41h362c4 -5 8 -12 8 -29c0 -19 -9 -45 -53 -45z" />
    <glyph glyph-name="eng" unicode="&#x14b;" horiz-adv-x="581" 
d="M424 -30v337c0 71 -33 108 -87 108c-68 0 -113 -43 -152 -100v-306c-9 -6 -23 -9 -42 -9c-20 0 -38 7 -38 39v344c0 21 -10 28 -25 28h-35c-4 10 -7 18 -7 33c0 25 22 38 69 38c48 0 78 -26 78 -78v-16c45 61 102 104 176 104c84 0 138 -53 138 -165v-372
c0 -93 -50 -126 -117 -126c-56 0 -95 12 -95 42c0 10 0 19 5 30h70c38 0 62 21 62 69z" />
    <glyph glyph-name="eng.sc" horiz-adv-x="636" 
d="M473 -21v38l-309 405l4 -414c-6 -5 -25 -8 -42 -8c-16 0 -32 4 -32 33v517c9 4 23 7 39 7s27 -8 34 -18l304 -410l-2 419c8 6 19 10 36 10c19 0 39 -7 39 -28v-561c0 -77 -42 -106 -102 -106c-48 0 -84 9 -84 37c0 10 1 18 5 28h58c33 0 52 15 52 51z" />
    <glyph glyph-name="eogonek" unicode="&#x119;" horiz-adv-x="504" 
d="M447 233h-316c4 -111 57 -173 145 -173c71 0 133 27 156 45c10 -6 17 -16 17 -33s-7 -25 -16 -34c-30 -24 -49 -71 -49 -95c0 -35 22 -43 55 -43c4 -7 5 -13 5 -22c0 -10 -4 -23 -33 -23c-34 0 -77 20 -77 76c0 25 8 49 18 70c-22 -6 -49 -11 -82 -11
c-129 0 -214 99 -214 249c0 169 106 253 218 253c121 0 180 -91 180 -208c0 -19 -2 -38 -7 -51zM272 424c-64 0 -123 -44 -139 -136h253c0 80 -35 136 -114 136z" />
    <glyph glyph-name="eogonek.sc" 
d="M424 251h-256v-181h324c4 -5 8 -14 8 -30c0 -15 -4 -29 -12 -38c-36 -38 -50 -68 -50 -94c0 -34 23 -42 56 -42c4 -7 5 -13 5 -22c0 -11 -5 -23 -34 -23c-33 0 -76 19 -76 76c0 38 21 78 41 103h-304c-16 0 -32 5 -32 34v516c7 5 16 7 34 7h364c4 -5 8 -13 8 -30
c0 -23 -10 -39 -29 -39h-303v-168h275c4 -5 8 -17 8 -34c0 -22 -9 -35 -27 -35z" />
    <glyph glyph-name="equal" unicode="=" horiz-adv-x="524" 
d="M434 123h-372c-4 10 -8 20 -8 39s9 35 32 35h376c5 -8 8 -22 8 -36c0 -19 -7 -38 -36 -38zM434 313h-372c-4 10 -8 20 -8 39s9 35 32 35h376c5 -8 8 -22 8 -36c0 -19 -7 -38 -36 -38z" />
    <glyph glyph-name="esuperior" unicode="&#xf6ec;" horiz-adv-x="277" 
d="M247 462h-168c3 -49 33 -73 75 -73c36 0 71 12 84 21c5 -4 11 -10 11 -20c0 -11 -6 -18 -13 -22c-15 -11 -39 -23 -87 -23c-72 0 -118 52 -118 127c0 84 58 127 120 127c67 0 100 -45 100 -107c0 -10 -1 -21 -4 -30zM151 555c-30 0 -61 -19 -70 -59h126
c0 36 -17 59 -56 59z" />
    <glyph glyph-name="eth" unicode="&#xf0;" horiz-adv-x="550" 
d="M440 592l-33 -9c46 -80 85 -186 85 -307c0 -211 -87 -280 -218 -280s-222 70 -222 252c0 174 93 241 202 241c51 0 94 -14 127 -35c-15 40 -34 76 -54 107l-103 -29c-6 6 -10 12 -13 23c-3 17 -4 31 37 43l44 12c-19 24 -39 43 -55 57c5 13 15 26 23 32c16 11 39 20 55 4
c18 -18 39 -42 59 -71l89 25c7 -3 11 -10 14 -21c3 -13 2 -34 -37 -44zM414 276c0 32 -4 64 -10 94c-40 38 -91 53 -139 53c-76 0 -136 -52 -136 -176c0 -135 59 -181 145 -181c88 0 140 47 140 210z" />
    <glyph glyph-name="eth.sc" horiz-adv-x="603" 
d="M131 557h116c197 0 296 -87 296 -286c0 -200 -106 -271 -276 -271h-136c-20 0 -37 5 -37 33v208h-72c-4 9 -8 15 -8 31c0 21 9 34 37 34h43v244c7 4 18 7 37 7zM265 241h-97v-176h97c132 0 204 55 204 205c0 151 -72 219 -219 219h-82v-183h129c4 -6 8 -16 8 -31
c0 -22 -10 -34 -40 -34z" />
    <glyph glyph-name="exclam" unicode="!" horiz-adv-x="205" 
d="M100 700c20 0 41 -8 41 -31v-511c-6 -6 -21 -11 -39 -11c-22 0 -39 10 -39 42v503c8 5 18 8 37 8zM57 45c0 32 15 47 46 47c30 0 46 -15 46 -47c0 -30 -16 -45 -46 -45c-31 0 -46 15 -46 45z" />
    <glyph glyph-name="exclam.sc" unicode="&#xf721;" horiz-adv-x="172" 
d="M84 558c20 0 39 -7 39 -28v-396c-5 -5 -19 -9 -37 -9c-21 0 -37 9 -37 39v386c7 5 16 8 35 8zM45 41c0 27 14 41 42 41c27 0 42 -14 42 -41c0 -28 -15 -41 -42 -41c-28 0 -42 13 -42 41z" />
    <glyph glyph-name="exclamdown" unicode="&#xa1;" horiz-adv-x="173" 
d="M7 -218c-20 0 -41 8 -41 31v511c6 6 21 11 39 11c22 0 39 -10 39 -42v-503c-8 -5 -18 -8 -37 -8zM50 437c0 -32 -15 -47 -46 -47c-30 0 -46 15 -46 47c0 30 16 45 46 45c31 0 46 -15 46 -45z" />
    <glyph glyph-name="exclamdown.case" horiz-adv-x="173" 
d="M7 0c-20 0 -41 8 -41 31v511c6 6 21 11 39 11c22 0 39 -10 39 -42v-503c-8 -5 -18 -8 -37 -8zM50 655c0 -32 -15 -47 -46 -47c-30 0 -46 15 -46 47c0 30 16 45 46 45c31 0 46 -15 46 -45z" />
    <glyph glyph-name="exclamdown.sc" unicode="&#xf7a1;" horiz-adv-x="172" 
d="M89 0c-20 0 -39 7 -39 28v396c5 5 19 9 37 9c21 0 37 -9 37 -39v-386c-7 -5 -16 -8 -35 -8zM128 517c0 -27 -14 -41 -42 -41c-27 0 -42 14 -42 41c0 28 15 41 42 41c28 0 42 -13 42 -41z" />
    <glyph glyph-name="f" unicode="f" horiz-adv-x="346" 
d="M187 564v-82h121c4 -6 7 -16 7 -27c0 -17 -7 -38 -34 -38h-94v-392c0 -20 -19 -25 -43 -25c-13 0 -27 3 -34 9v408h-59c-4 7 -7 17 -7 28c0 21 8 37 37 37h29v92c0 98 47 132 123 132c89 0 101 -18 101 -41c0 -16 -4 -27 -9 -33h-72c-42 0 -66 -14 -66 -68z" />
    <glyph glyph-name="f.sc" unicode="&#xf766;" horiz-adv-x="540" 
d="M424 241h-256v-234c-6 -4 -24 -7 -42 -7c-16 0 -32 5 -32 34v516c7 5 16 7 34 7h359c4 -5 8 -13 8 -30c0 -23 -9 -39 -29 -39h-298v-178h276c4 -5 9 -13 9 -30c0 -23 -10 -39 -29 -39z" />
    <glyph glyph-name="five" unicode="5" horiz-adv-x="531" 
d="M444 484h-299l-10 -222c34 13 80 25 133 25c132 0 231 -58 231 -210c0 -120 -77 -216 -244 -216c-170 0 -218 92 -218 143c0 24 12 40 36 46c11 -52 60 -122 179 -122c120 0 172 62 172 153c0 99 -71 140 -177 140c-72 0 -118 -22 -156 -22c-17 0 -28 13 -27 36l11 313
c11 7 24 10 46 10h347c4 -6 9 -16 9 -33c0 -24 -11 -41 -33 -41z" />
    <glyph glyph-name="five.dnom" horiz-adv-x="345" 
d="M285 359h-183l-6 -121c21 7 47 13 79 13c81 0 145 -34 145 -126c0 -72 -50 -131 -155 -131c-107 0 -139 53 -139 84c0 15 9 26 25 31c10 -28 41 -67 112 -67c69 0 101 34 101 85c0 55 -43 78 -107 78c-42 0 -69 -11 -96 -11c-12 0 -19 9 -19 25l8 186c8 5 18 6 35 6h215
c4 -3 7 -11 7 -22c0 -18 -8 -30 -22 -30z" />
    <glyph glyph-name="five.lf" horiz-adv-x="531" 
d="M444 613h-299l-10 -222c34 13 80 25 133 25c132 0 231 -58 231 -209c0 -120 -77 -217 -244 -217c-170 0 -218 93 -218 143c0 25 12 40 36 46c11 -52 60 -122 179 -122c120 0 172 62 172 153c0 99 -71 141 -177 141c-72 0 -118 -22 -156 -22c-17 0 -28 13 -27 35l11 313
c11 7 24 10 46 10h347c4 -6 9 -16 9 -32c0 -25 -11 -42 -33 -42z" />
    <glyph glyph-name="five.numr" horiz-adv-x="345" 
d="M285 644h-183l-6 -121c21 7 47 13 79 13c81 0 145 -34 145 -126c0 -72 -50 -131 -155 -131c-107 0 -139 53 -139 84c0 15 9 26 25 31c10 -28 41 -67 112 -67c69 0 101 34 101 85c0 55 -43 78 -107 78c-42 0 -69 -11 -96 -11c-12 0 -19 9 -19 25l8 186c8 5 18 6 35 6h215
c4 -3 7 -11 7 -22c0 -18 -8 -30 -22 -30z" />
    <glyph glyph-name="five.sc" horiz-adv-x="467" 
d="M384 477h-247l-8 -161c28 10 64 18 107 18c110 0 195 -46 195 -168c0 -96 -67 -174 -207 -174c-144 0 -186 70 -186 111c0 21 11 35 33 43c11 -38 54 -91 151 -91c94 0 137 45 137 114c0 73 -58 104 -145 104c-58 0 -95 -15 -129 -15c-16 0 -25 11 -24 32l9 247
c11 7 23 9 45 9h290c3 -5 8 -14 8 -30c0 -23 -10 -39 -29 -39z" />
    <glyph glyph-name="five.tf" horiz-adv-x="582" 
d="M467 613h-299l-10 -222c34 13 80 25 133 25c132 0 231 -58 231 -209c0 -120 -77 -217 -244 -217c-170 0 -218 93 -218 143c0 25 12 40 36 46c11 -52 60 -122 179 -122c120 0 172 62 172 153c0 99 -71 141 -177 141c-72 0 -118 -22 -156 -22c-17 0 -28 13 -27 35l11 313
c11 7 24 10 46 10h347c4 -6 9 -16 9 -32c0 -25 -11 -42 -33 -42z" />
    <glyph glyph-name="five.tosf" horiz-adv-x="582" 
d="M467 484h-299l-10 -222c34 13 80 25 133 25c132 0 231 -58 231 -209c0 -120 -77 -217 -244 -217c-170 0 -218 93 -218 143c0 25 12 40 36 46c11 -52 60 -122 179 -122c120 0 172 62 172 153c0 99 -71 141 -177 141c-72 0 -118 -22 -156 -22c-17 0 -28 13 -27 35l11 313
c11 7 24 10 46 10h347c4 -6 9 -16 9 -32c0 -25 -11 -42 -33 -42z" />
    <glyph glyph-name="fiveeighths" unicode="&#x215d;" horiz-adv-x="908" 
d="M579 700c23 0 35 -11 28 -31l-251 -665c-7 -3 -14 -6 -31 -6c-22 0 -34 10 -22 41l245 656c9 4 16 5 31 5zM285 644h-183l-6 -121c21 7 47 13 79 13c81 0 145 -34 145 -126c0 -72 -50 -131 -155 -131c-107 0 -139 53 -139 84c0 15 9 26 25 31c10 -28 41 -67 112 -67
c69 0 101 34 101 85c0 55 -43 78 -107 78c-42 0 -69 -11 -96 -11c-12 0 -19 9 -19 25l8 186c8 5 18 6 35 6h215c4 -3 7 -11 7 -22c0 -18 -8 -30 -22 -30zM584 116c0 52 30 85 68 102c-30 18 -51 46 -51 92c0 66 45 105 128 105c87 0 133 -37 133 -106c0 -42 -24 -74 -57 -93
c43 -16 74 -46 74 -102c0 -64 -42 -120 -147 -120c-102 0 -148 51 -148 122zM723 193l-14 3c-39 -9 -69 -34 -69 -80c0 -41 30 -74 91 -74c66 0 93 30 93 71c0 48 -46 67 -101 80zM652 310c0 -57 51 -69 99 -79c34 11 61 37 61 77s-31 63 -79 63s-81 -23 -81 -61z" />
    <glyph glyph-name="florin" unicode="&#x192;" horiz-adv-x="502" 
d="M387 332h-118l-54 -385c-14 -101 -66 -135 -157 -135c-64 0 -81 16 -81 39c0 12 3 23 7 32h81c40 0 66 15 75 77l52 372h-114c-4 10 -8 14 -8 36c0 20 8 36 42 36h90l23 165c13 96 65 131 159 131c68 0 87 -19 87 -37c0 -15 -2 -25 -5 -35h-85c-46 0 -73 -17 -81 -73
l-21 -151h148c4 -5 8 -14 8 -33c0 -24 -11 -39 -48 -39z" />
    <glyph glyph-name="florin.lf" horiz-adv-x="502" 
d="M387 332h-118l-54 -385c-14 -101 -66 -135 -157 -135c-64 0 -81 16 -81 39c0 12 3 23 7 32h81c40 0 66 15 75 77l52 372h-114c-4 10 -8 14 -8 36c0 20 8 36 42 36h90l23 165c13 96 65 131 159 131c68 0 87 -19 87 -37c0 -15 -2 -25 -5 -35h-85c-46 0 -73 -17 -81 -73
l-21 -151h148c4 -5 8 -14 8 -33c0 -24 -11 -39 -48 -39z" />
    <glyph glyph-name="florin.tf" horiz-adv-x="502" 
d="M387 332h-118l-54 -385c-14 -101 -66 -135 -157 -135c-64 0 -81 16 -81 39c0 12 3 23 7 32h81c40 0 66 15 75 77l52 372h-114c-4 10 -8 14 -8 36c0 20 8 36 42 36h90l23 165c13 96 65 131 159 131c68 0 87 -19 87 -37c0 -15 -2 -25 -5 -35h-85c-46 0 -73 -17 -81 -73
l-21 -151h148c4 -5 8 -14 8 -33c0 -24 -11 -39 -48 -39z" />
    <glyph glyph-name="florin.tosf" horiz-adv-x="502" 
d="M387 332h-118l-54 -385c-14 -101 -66 -135 -157 -135c-64 0 -81 16 -81 39c0 12 3 23 7 32h81c40 0 66 15 75 77l52 372h-114c-4 10 -8 14 -8 36c0 20 8 36 42 36h90l23 165c13 96 65 131 159 131c68 0 87 -19 87 -37c0 -15 -2 -25 -5 -35h-85c-46 0 -73 -17 -81 -73
l-21 -151h148c4 -5 8 -14 8 -33c0 -24 -11 -39 -48 -39z" />
    <glyph glyph-name="four" unicode="4" horiz-adv-x="573" 
d="M405 338c22 0 35 -8 35 -28v-243h95c4 -6 7 -17 7 -35c0 -20 -8 -32 -26 -32h-76v-137c-7 -4 -23 -6 -41 -6s-32 7 -32 29l-1 114h-329c-4 7 -6 16 -6 27c0 9 3 23 7 36l150 476c8 5 23 8 42 8c23 0 31 -15 25 -34l-139 -446h250v261c9 6 23 10 39 10z" />
    <glyph glyph-name="four.dnom" horiz-adv-x="371" 
d="M258 292c16 0 26 -6 26 -21v-140h60c3 -3 6 -11 6 -24c0 -15 -6 -23 -19 -23h-47l1 -79c-6 -3 -17 -5 -31 -5s-24 6 -24 21l-1 63h-202c-4 5 -5 11 -5 19c0 6 2 17 5 25l92 281c7 3 17 5 32 5c16 0 23 -10 19 -23l-84 -260h143v153c7 4 17 8 29 8z" />
    <glyph glyph-name="four.lf" horiz-adv-x="573" 
d="M405 482c22 0 35 -8 35 -29v-243h95c4 -5 7 -16 7 -34c0 -21 -8 -33 -26 -33h-76v-136c-7 -5 -23 -7 -41 -7s-32 8 -32 30l-1 113h-329c-4 7 -6 16 -6 27c0 10 3 24 7 36l150 477c8 4 23 7 42 7c23 0 31 -15 25 -33l-140 -447h251v261c9 6 23 11 39 11z" />
    <glyph glyph-name="four.numr" horiz-adv-x="372" 
d="M258 577c16 0 26 -6 26 -21v-140h60c3 -3 6 -11 6 -24c0 -15 -6 -23 -19 -23h-47l1 -79c-6 -3 -17 -5 -31 -5s-24 6 -24 21l-1 63h-202c-4 5 -5 11 -5 19c0 6 2 17 5 25l92 281c7 3 17 5 32 5c16 0 23 -10 19 -23l-84 -260h143v153c7 4 17 8 29 8z" />
    <glyph glyph-name="four.sc" horiz-adv-x="503" 
d="M350 387c19 0 33 -7 33 -27v-186h80c4 -5 7 -15 7 -32c0 -20 -8 -30 -24 -30h-63l1 -106c-8 -4 -23 -6 -40 -6c-18 0 -31 7 -31 27l-1 85h-273c-4 6 -6 15 -6 24s3 22 6 35l125 371c7 4 22 7 41 7c20 0 29 -13 23 -30l-113 -345h197v203c9 5 22 10 38 10z" />
    <glyph glyph-name="four.tf" horiz-adv-x="582" 
d="M409 482c22 0 35 -8 35 -29v-243h95c4 -5 7 -16 7 -34c0 -21 -8 -33 -26 -33h-76v-136c-7 -5 -23 -7 -41 -7s-32 8 -32 30l-1 113h-329c-4 7 -6 16 -6 27c0 10 3 24 7 36l150 477c8 4 23 7 42 7c23 0 31 -15 25 -33l-140 -447h251v261c9 6 23 11 39 11z" />
    <glyph glyph-name="four.tosf" horiz-adv-x="582" 
d="M409 339c22 0 35 -8 35 -29v-243h95c4 -5 7 -16 7 -34c0 -21 -8 -33 -26 -33h-76v-136c-7 -5 -23 -7 -41 -7s-32 8 -32 30l-1 113h-329c-4 7 -6 16 -6 27c0 10 3 24 7 36l150 477c8 4 23 7 42 7c23 0 31 -15 25 -33l-140 -447h251v261c9 6 23 11 39 11z" />
    <glyph glyph-name="fraction" unicode="&#x2044;" horiz-adv-x="164" 
d="M203 700c23 0 35 -11 28 -31l-251 -665c-7 -3 -14 -6 -31 -6c-22 0 -34 10 -22 41l245 656c9 4 16 5 31 5z" />
    <glyph glyph-name="g" unicode="g" horiz-adv-x="505" 
d="M426 422h-48c18 -29 28 -68 28 -116c0 -134 -74 -184 -177 -184c-31 0 -59 5 -84 15c-8 -19 -13 -37 -13 -54c0 -34 17 -54 76 -54h153c75 0 111 -42 111 -104c0 -107 -88 -177 -234 -177c-118 0 -196 55 -196 99c0 14 10 31 24 41c33 -41 87 -74 170 -74
c106 0 168 40 168 101c0 27 -15 49 -60 49h-149c-96 0 -131 36 -131 96c0 39 19 78 38 106c-30 29 -47 75 -47 140c0 128 76 186 178 186c41 0 77 -9 105 -29c5 10 17 19 36 19h81c4 -5 7 -14 7 -27c0 -17 -5 -33 -36 -33zM131 304c0 -90 39 -121 99 -121c59 0 99 31 99 121
c0 86 -36 124 -95 124c-62 0 -103 -40 -103 -124z" />
    <glyph glyph-name="g.sc" unicode="&#xf767;" horiz-adv-x="606" 
d="M472 232h-155c-5 8 -8 16 -8 30c0 15 6 29 43 29h132c40 0 49 -15 49 -57v-227c-8 -5 -15 -8 -33 -8c-17 0 -28 5 -28 30v45c-41 -51 -97 -82 -168 -82c-128 0 -244 84 -244 287c0 197 112 286 259 286c127 0 191 -54 191 -83c0 -20 -17 -31 -30 -33
c-33 28 -76 50 -160 50c-103 0 -191 -70 -191 -222c0 -161 90 -223 183 -223c66 0 123 33 160 88v90z" />
    <glyph glyph-name="gbreve" unicode="&#x11f;" horiz-adv-x="505" 
d="M426 422h-48c18 -29 28 -68 28 -116c0 -134 -74 -184 -177 -184c-31 0 -59 5 -84 15c-8 -19 -13 -37 -13 -54c0 -34 17 -54 76 -54h153c75 0 111 -42 111 -104c0 -107 -88 -177 -234 -177c-118 0 -196 55 -196 99c0 14 10 31 24 41c33 -41 87 -74 170 -74
c106 0 168 40 168 101c0 27 -15 49 -60 49h-149c-96 0 -131 36 -131 96c0 39 19 78 38 106c-30 29 -47 75 -47 140c0 128 76 186 178 186c41 0 77 -9 105 -29c5 10 17 19 36 19h81c4 -5 7 -14 7 -27c0 -17 -5 -33 -36 -33zM131 304c0 -90 39 -121 99 -121c59 0 99 31 99 121
c0 86 -36 124 -95 124c-62 0 -103 -40 -103 -124zM147 674c1 -18 9 -38 22 -50c15 -14 37 -20 66 -20c25 0 48 5 63 19c16 14 22 35 24 50c6 5 16 7 29 6c19 0 26 -12 24 -24c-4 -26 -15 -51 -39 -73c-23 -20 -58 -30 -101 -30s-77 10 -101 29c-25 20 -39 48 -41 76
c-1 14 6 22 23 23c13 1 23 -2 31 -6z" />
    <glyph glyph-name="gbreve.sc" horiz-adv-x="606" 
d="M472 232h-155c-5 8 -8 16 -8 30c0 15 6 29 43 29h132c40 0 49 -15 49 -57v-227c-8 -5 -15 -8 -33 -8c-17 0 -28 5 -28 30v45c-41 -51 -97 -82 -168 -82c-128 0 -244 84 -244 287c0 197 112 286 259 286c127 0 191 -54 191 -83c0 -20 -17 -31 -30 -33
c-33 28 -76 50 -160 50c-103 0 -191 -70 -191 -222c0 -161 90 -223 183 -223c66 0 123 33 160 88v90zM222 751c1 -18 9 -38 22 -50c15 -14 37 -20 66 -20c25 0 48 5 63 19c16 14 22 35 24 50c6 5 16 7 29 6c19 0 26 -12 24 -24c-4 -26 -15 -51 -39 -73
c-23 -20 -58 -30 -101 -30s-77 10 -101 29c-25 20 -39 48 -41 76c-1 14 6 22 23 23c13 1 23 -2 31 -6z" />
    <glyph glyph-name="gcircumflex" unicode="&#x11d;" horiz-adv-x="505" 
d="M426 422h-48c18 -29 28 -68 28 -116c0 -134 -74 -184 -177 -184c-31 0 -59 5 -84 15c-8 -19 -13 -37 -13 -54c0 -34 17 -54 76 -54h153c75 0 111 -42 111 -104c0 -107 -88 -177 -234 -177c-118 0 -196 55 -196 99c0 14 10 31 24 41c33 -41 87 -74 170 -74
c106 0 168 40 168 101c0 27 -15 49 -60 49h-149c-96 0 -131 36 -131 96c0 39 19 78 38 106c-30 29 -47 75 -47 140c0 128 76 186 178 186c41 0 77 -9 105 -29c5 10 17 19 36 19h81c4 -5 7 -14 7 -27c0 -17 -5 -33 -36 -33zM131 304c0 -90 39 -121 99 -121c59 0 99 31 99 121
c0 86 -36 124 -95 124c-62 0 -103 -40 -103 -124zM395 579c-3 -14 -11 -24 -24 -26c-5 -2 -12 -2 -19 0c-29 8 -75 49 -116 77c-41 -28 -88 -69 -117 -77c-6 -2 -13 -2 -18 0c-13 2 -21 12 -24 26c34 18 115 112 157 112c41 0 122 -92 161 -112z" />
    <glyph glyph-name="gcircumflex.sc" horiz-adv-x="606" 
d="M472 232h-155c-5 8 -8 16 -8 30c0 15 6 29 43 29h132c40 0 49 -15 49 -57v-227c-8 -5 -15 -8 -33 -8c-17 0 -28 5 -28 30v45c-41 -51 -97 -82 -168 -82c-128 0 -244 84 -244 287c0 197 112 286 259 286c127 0 191 -54 191 -83c0 -20 -17 -31 -30 -33
c-33 28 -76 50 -160 50c-103 0 -191 -70 -191 -222c0 -161 90 -223 183 -223c66 0 123 33 160 88v90zM474 656c-3 -14 -11 -24 -24 -26c-5 -2 -12 -2 -19 0c-29 8 -75 49 -116 77c-41 -28 -88 -69 -117 -77c-6 -2 -13 -2 -18 0c-13 2 -21 12 -24 26c34 18 115 112 157 112
c41 0 122 -92 161 -112z" />
    <glyph glyph-name="gcommaaccent" unicode="&#x123;" horiz-adv-x="505" 
d="M225 646c27 0 43 -14 43 -43s-15 -43 -43 -43c-29 0 -46 15 -46 65c0 71 22 111 48 111c14 0 22 -4 25 -15c-19 -18 -27 -57 -27 -75zM426 422h-48c18 -29 28 -68 28 -116c0 -134 -74 -184 -177 -184c-31 0 -59 5 -84 15c-8 -19 -13 -37 -13 -54c0 -34 17 -54 76 -54h153
c75 0 111 -42 111 -104c0 -107 -88 -177 -234 -177c-118 0 -196 55 -196 99c0 14 10 31 24 41c33 -41 87 -74 170 -74c106 0 168 40 168 101c0 27 -15 49 -60 49h-149c-96 0 -131 36 -131 96c0 39 19 78 38 106c-30 29 -47 75 -47 140c0 128 76 186 178 186
c41 0 77 -9 105 -29c5 10 17 19 36 19h81c4 -5 7 -14 7 -27c0 -17 -5 -33 -36 -33zM131 304c0 -90 39 -121 99 -121c59 0 99 31 99 121c0 86 -36 124 -95 124c-62 0 -103 -40 -103 -124z" />
    <glyph glyph-name="gcommaaccent.sc" horiz-adv-x="606" 
d="M472 232h-155c-5 8 -8 16 -8 30c0 15 6 29 43 29h132c40 0 49 -15 49 -57v-227c-8 -5 -15 -8 -33 -8c-17 0 -28 5 -28 30v45c-41 -51 -97 -82 -168 -82c-128 0 -244 84 -244 287c0 197 112 286 259 286c127 0 191 -54 191 -83c0 -20 -17 -31 -30 -33
c-33 28 -76 50 -160 50c-103 0 -191 -70 -191 -222c0 -161 90 -223 183 -223c66 0 123 33 160 88v90zM314 -156c-29 0 -46 15 -46 45c0 32 17 47 46 47c31 0 49 -16 49 -69c0 -75 -24 -118 -51 -118c-15 0 -23 5 -26 17c19 18 28 59 28 78z" />
    <glyph glyph-name="gdotaccent" unicode="&#x121;" horiz-adv-x="505" 
d="M426 422h-48c18 -29 28 -68 28 -116c0 -134 -74 -184 -177 -184c-31 0 -59 5 -84 15c-8 -19 -13 -37 -13 -54c0 -34 17 -54 76 -54h153c75 0 111 -42 111 -104c0 -107 -88 -177 -234 -177c-118 0 -196 55 -196 99c0 14 10 31 24 41c33 -41 87 -74 170 -74
c106 0 168 40 168 101c0 27 -15 49 -60 49h-149c-96 0 -131 36 -131 96c0 39 19 78 38 106c-30 29 -47 75 -47 140c0 128 76 186 178 186c41 0 77 -9 105 -29c5 10 17 19 36 19h81c4 -5 7 -14 7 -27c0 -17 -5 -33 -36 -33zM131 304c0 -90 39 -121 99 -121c59 0 99 31 99 121
c0 86 -36 124 -95 124c-62 0 -103 -40 -103 -124zM189 616c0 31 15 46 46 46c30 0 46 -15 46 -46s-16 -46 -46 -46s-46 15 -46 46z" />
    <glyph glyph-name="gdotaccent.sc" horiz-adv-x="606" 
d="M472 232h-155c-5 8 -8 16 -8 30c0 15 6 29 43 29h132c40 0 49 -15 49 -57v-227c-8 -5 -15 -8 -33 -8c-17 0 -28 5 -28 30v45c-41 -51 -97 -82 -168 -82c-128 0 -244 84 -244 287c0 197 112 286 259 286c127 0 191 -54 191 -83c0 -20 -17 -31 -30 -33
c-33 28 -76 50 -160 50c-103 0 -191 -70 -191 -222c0 -161 90 -223 183 -223c66 0 123 33 160 88v90zM257 688c0 32 15 47 45 47s46 -15 46 -47c0 -30 -16 -45 -46 -45s-45 15 -45 45z" />
    <glyph glyph-name="germandbls" unicode="&#xdf;" horiz-adv-x="616" 
d="M451 429c-9 1 -28 2 -40 2c-66 0 -101 -27 -101 -70c0 -38 35 -62 112 -80c90 -21 140 -60 141 -149c0 -84 -56 -142 -163 -142c-95 0 -166 48 -166 82c0 21 6 30 15 39c25 -21 84 -51 151 -51s95 35 95 70c0 44 -25 69 -98 85c-97 23 -155 67 -155 147
c0 75 48 128 146 134c2 9 3 29 3 44c0 61 -51 88 -114 88c-68 0 -136 -33 -136 -165v-443c0 -12 -16 -20 -35 -20c-18 0 -33 3 -42 9v468c0 161 103 223 213 223c100 0 185 -46 185 -158c0 -54 -6 -97 -11 -113z" />
    <glyph glyph-name="germandbls.sc" horiz-adv-x="1058" 
d="M261 565c98 0 148 -25 172 -48c11 -10 15 -23 15 -35c0 -14 -9 -26 -18 -35c-28 19 -81 41 -169 41c-84 0 -120 -33 -120 -76c0 -44 35 -70 144 -98c127 -31 186 -69 188 -165c1 -93 -66 -157 -208 -157c-80 0 -137 16 -173 38c-25 15 -37 32 -37 49s6 30 13 37
c43 -32 118 -52 194 -52c102 0 137 38 137 82c0 47 -30 73 -138 99c-140 34 -193 74 -193 169c0 87 62 151 193 151zM790 565c98 0 148 -25 172 -48c11 -10 15 -23 15 -35c0 -14 -9 -26 -18 -35c-28 19 -81 41 -169 41c-84 0 -120 -33 -120 -76c0 -44 35 -70 144 -98
c127 -31 186 -69 188 -165c1 -93 -66 -157 -208 -157c-80 0 -137 16 -173 38c-25 15 -37 32 -37 49s6 30 13 37c43 -32 118 -52 194 -52c102 0 137 38 137 82c0 47 -30 73 -138 99c-140 34 -193 74 -193 169c0 87 62 151 193 151z" />
    <glyph glyph-name="grave" unicode="`" horiz-adv-x="540" 
d="M338 578c-4 -18 -16 -28 -34 -28c-34 0 -112 79 -162 106c1 19 11 34 39 34c40 0 123 -93 157 -112z" />
    <glyph glyph-name="greater" unicode="&#x3e;" horiz-adv-x="356" 
d="M296 207l-214 -202c-6 -3 -12 -4 -19 -4c-14 0 -28 16 -28 31c0 11 7 20 14 28l198 189l-202 191c-3 4 -6 10 -6 21c0 18 18 32 30 32s20 -5 30 -15l207 -195c5 -9 12 -16 12 -34c0 -19 -5 -27 -22 -42z" />
    <glyph glyph-name="greaterequal" unicode="&#x2265;" horiz-adv-x="338" 
d="M276 260l-197 -171c-5 -2 -11 -3 -17 -3c-13 0 -26 14 -26 26c0 9 6 17 13 24l182 159l-186 161c-3 4 -5 9 -5 18c0 15 16 27 27 27s18 -4 28 -12l190 -165c5 -8 11 -14 11 -29c0 -16 -5 -22 -20 -35zM272 -3h-234c-4 9 -8 16 -8 31c0 19 9 33 35 33h237
c4 -6 7 -16 7 -30c0 -20 -9 -34 -37 -34z" />
    <glyph glyph-name="guillemotleft" unicode="&#xab;" horiz-adv-x="495" 
d="M52 280l152 170c6 3 13 4 18 4c18 0 32 -18 32 -33c0 -11 -4 -19 -11 -27l-133 -151l140 -162c1 -4 3 -8 3 -17c0 -17 -19 -29 -33 -29c-11 0 -20 4 -29 15l-143 161c-5 9 -8 18 -8 34c0 14 4 25 12 35zM252 280l152 170c6 3 13 4 18 4c18 0 32 -18 32 -33
c0 -11 -4 -19 -11 -27l-133 -151l140 -162c1 -4 3 -8 3 -17c0 -17 -19 -29 -33 -29c-11 0 -20 4 -29 15l-143 161c-5 9 -8 18 -8 34c0 14 4 25 12 35z" />
    <glyph glyph-name="guillemotleft.case" horiz-adv-x="495" 
d="M49 386l152 170c6 3 13 4 18 4c18 0 32 -18 32 -32c0 -12 -4 -20 -11 -28l-133 -151l140 -161c1 -5 3 -9 3 -18c0 -17 -19 -28 -33 -28c-11 0 -20 4 -29 15l-143 160c-5 9 -8 19 -8 34c0 14 4 26 12 35zM249 386l152 170c6 3 13 4 18 4c18 0 32 -18 32 -32
c0 -12 -4 -20 -11 -28l-133 -151l140 -161c1 -5 3 -9 3 -18c0 -17 -19 -28 -33 -28c-11 0 -20 4 -29 15l-143 160c-5 9 -8 19 -8 34c0 14 4 26 12 35z" />
    <glyph glyph-name="guillemotright" unicode="&#xbb;" horiz-adv-x="495" 
d="M242 209l-152 -170c-6 -3 -13 -4 -18 -4c-18 0 -32 18 -32 33c0 11 4 19 11 27l133 151l-140 162c-1 4 -3 8 -3 17c0 17 19 29 33 29c11 0 20 -4 29 -15l143 -161c5 -9 8 -18 8 -34c0 -14 -4 -25 -12 -35zM443 209l-152 -170c-6 -3 -13 -4 -18 -4c-18 0 -32 18 -32 33
c0 11 4 19 11 27l133 151l-140 162c-1 4 -3 8 -3 17c0 17 19 29 33 29c11 0 20 -4 29 -15l143 -161c5 -9 8 -18 8 -34c0 -14 -4 -25 -12 -35z" />
    <glyph glyph-name="guillemotright.case" horiz-adv-x="495" 
d="M245 314l-152 -170c-6 -3 -13 -4 -18 -4c-18 0 -32 18 -32 32c0 12 4 20 11 28l133 151l-140 161c-1 5 -3 9 -3 18c0 17 19 28 33 28c11 0 20 -4 29 -15l143 -160c5 -9 8 -19 8 -34c0 -14 -4 -26 -12 -35zM446 314l-152 -170c-6 -3 -13 -4 -18 -4c-18 0 -32 18 -32 32
c0 12 4 20 11 28l133 151l-140 161c-1 5 -3 9 -3 18c0 17 19 28 33 28c11 0 20 -4 29 -15l143 -160c5 -9 8 -19 8 -34c0 -14 -4 -26 -12 -35z" />
    <glyph glyph-name="guilsinglleft" unicode="&#x2039;" horiz-adv-x="294" 
d="M52 280l152 170c6 3 13 4 18 4c18 0 32 -18 32 -33c0 -11 -4 -19 -11 -27l-133 -151l140 -162c1 -4 3 -8 3 -17c0 -17 -19 -29 -33 -29c-11 0 -20 4 -29 15l-143 161c-5 9 -8 18 -8 34c0 14 4 25 12 35z" />
    <glyph glyph-name="guilsinglleft.case" horiz-adv-x="294" 
d="M49 386l152 170c6 3 13 4 18 4c18 0 32 -18 32 -32c0 -12 -4 -20 -11 -28l-133 -151l140 -161c1 -5 3 -9 3 -18c0 -17 -19 -28 -33 -28c-11 0 -20 4 -29 15l-143 160c-5 9 -8 19 -8 34c0 14 4 26 12 35z" />
    <glyph glyph-name="guilsinglright" unicode="&#x203a;" horiz-adv-x="294" 
d="M242 209l-152 -170c-6 -3 -13 -4 -18 -4c-18 0 -32 18 -32 33c0 11 4 19 11 27l133 151l-140 162c-1 4 -3 8 -3 17c0 17 19 29 33 29c11 0 20 -4 29 -15l143 -161c5 -9 8 -18 8 -34c0 -14 -4 -25 -12 -35z" />
    <glyph glyph-name="guilsinglright.case" horiz-adv-x="294" 
d="M245 314l-152 -170c-6 -3 -13 -4 -18 -4c-18 0 -32 18 -32 32c0 12 4 20 11 28l133 151l-140 161c-1 5 -3 9 -3 18c0 17 19 28 33 28c11 0 20 -4 29 -15l143 -160c5 -9 8 -19 8 -34c0 -14 -4 -26 -12 -35z" />
    <glyph glyph-name="h" unicode="h" horiz-adv-x="534" 
d="M104 700c20 0 35 -9 35 -31v-273c44 58 106 96 174 96c86 0 135 -52 135 -159v-252c0 -18 8 -25 21 -25h30c3 -5 5 -11 5 -22c0 -20 -24 -34 -70 -34c-38 0 -62 20 -62 74v241c0 69 -27 100 -82 100s-115 -37 -151 -94v-313c-7 -5 -21 -8 -39 -8c-17 0 -36 5 -36 37v654
c8 5 22 9 40 9z" />
    <glyph glyph-name="h.sc" unicode="&#xf768;" horiz-adv-x="634" 
d="M505 557c20 0 35 -7 35 -28v-522c-6 -4 -22 -7 -35 -7c-21 0 -39 5 -39 34v218h-298v-243c-6 -5 -24 -9 -42 -9c-16 0 -32 5 -32 34v516c8 4 23 7 39 7c20 0 35 -7 35 -28v-210h298v231c7 4 24 7 39 7z" />
    <glyph glyph-name="hbar" unicode="&#x127;" horiz-adv-x="534" 
d="M104 700c20 0 35 -9 35 -31v-51h149c5 -6 6 -16 6 -31c0 -18 -7 -28 -26 -28h-129v-166c42 60 106 99 174 99c86 0 135 -52 135 -159v-252c0 -18 8 -25 21 -25h30c3 -5 5 -11 5 -22c0 -20 -24 -34 -70 -34c-38 0 -62 20 -62 74v241c0 69 -27 100 -82 100
c-57 0 -119 -41 -151 -103v-304c-7 -5 -21 -8 -39 -8c-17 0 -36 5 -36 37v522h-64c-4 10 -7 16 -7 31c0 17 8 28 26 28h45v73c8 5 22 9 40 9z" />
    <glyph glyph-name="hbar.sc" horiz-adv-x="634" 
d="M593 397h-53v-390c-6 -4 -22 -7 -35 -7c-21 0 -39 5 -39 34v199h-298v-224c-6 -5 -24 -9 -42 -9c-16 0 -32 5 -32 34v363h-76c-4 10 -8 14 -8 33s9 31 32 31h52v89c8 4 23 7 39 7c20 0 35 -7 35 -28v-68h298v89c7 4 24 7 39 7c20 0 35 -7 35 -28v-68h76c5 -9 8 -17 8 -31
c0 -19 -7 -33 -31 -33zM168 397v-100h298v100h-298z" />
    <glyph glyph-name="hcircumflex" unicode="&#x125;" horiz-adv-x="534" 
d="M104 700c20 0 35 -9 35 -31v-273c44 58 106 96 174 96c86 0 135 -52 135 -159v-252c0 -18 8 -25 21 -25h30c3 -5 5 -11 5 -22c0 -20 -24 -34 -70 -34c-38 0 -62 20 -62 74v241c0 69 -27 100 -82 100s-115 -37 -151 -94v-313c-7 -5 -21 -8 -39 -8c-17 0 -36 5 -36 37v654
c8 5 22 9 40 9zM261 763c-3 -14 -11 -24 -24 -26c-5 -2 -12 -2 -19 0c-29 8 -75 49 -116 77c-41 -28 -88 -69 -117 -77c-6 -2 -13 -2 -18 0c-13 2 -21 12 -24 26c34 18 115 112 157 112c41 0 122 -92 161 -112z" />
    <glyph glyph-name="hcircumflex.sc" horiz-adv-x="634" 
d="M505 557c20 0 35 -7 35 -28v-522c-6 -4 -22 -7 -35 -7c-21 0 -39 5 -39 34v218h-298v-243c-6 -5 -24 -9 -42 -9c-16 0 -32 5 -32 34v516c8 4 23 7 39 7c20 0 35 -7 35 -28v-210h298v231c7 4 24 7 39 7zM476 656c-3 -14 -11 -24 -24 -26c-5 -2 -12 -2 -19 0
c-29 8 -75 49 -116 77c-41 -28 -88 -69 -117 -77c-6 -2 -13 -2 -18 0c-13 2 -21 12 -24 26c34 18 115 112 157 112c41 0 122 -92 161 -112z" />
    <glyph glyph-name="hsuperior" unicode="&#x2b0;" horiz-adv-x="295" 
d="M61 700c13 0 24 -5 24 -19v-127c23 26 53 45 89 45c46 0 74 -26 74 -82v-120c0 -9 3 -13 10 -13h16c2 -3 3 -6 3 -13c0 -12 -15 -21 -44 -21c-22 0 -36 11 -36 41v114c0 30 -13 45 -41 45c-25 0 -52 -14 -71 -37v-158c-5 -3 -15 -5 -26 -5c-12 0 -24 3 -24 23v322
c6 2 15 5 26 5z" />
    <glyph glyph-name="hungarumlaut" unicode="&#x2dd;" horiz-adv-x="498" 
d="M66 579c35 25 102 132 146 132c26 0 36 -11 39 -28c-50 -35 -115 -127 -152 -127c-17 0 -28 8 -33 23zM241 584c34 19 118 112 158 112c28 0 38 -15 39 -34c-51 -27 -128 -106 -162 -106c-18 0 -31 10 -35 28z" />
    <glyph glyph-name="hyphen" unicode="-" horiz-adv-x="427" 
d="M330 229h-267c-5 10 -9 19 -9 36c0 22 10 38 40 38h270c5 -6 8 -18 8 -34c0 -24 -10 -40 -42 -40z" />
    <glyph glyph-name="hyphen.case" horiz-adv-x="427" 
d="M320 311h-256c-4 10 -9 17 -9 33c0 25 6 41 46 41h264c5 -5 8 -12 8 -29c0 -19 -9 -45 -53 -45z" />
    <glyph glyph-name="i" unicode="i" horiz-adv-x="291" 
d="M114 482c44 0 71 -15 71 -78v-316c0 -19 9 -26 23 -26h29c4 -6 6 -13 6 -25c0 -23 -19 -37 -67 -37c-41 0 -66 18 -66 68v315c0 22 -10 28 -25 28h-29c-4 7 -6 17 -6 30c0 29 27 41 64 41zM89 619c0 33 16 50 49 50c32 0 49 -17 49 -50s-17 -48 -49 -48s-49 16 -49 48z
" />
    <glyph glyph-name="i.latn_TRK" horiz-adv-x="291" 
d="M114 482c44 0 71 -15 71 -78v-316c0 -19 9 -26 23 -26h29c4 -6 6 -13 6 -25c0 -23 -19 -37 -67 -37c-41 0 -66 18 -66 68v315c0 22 -10 28 -25 28h-29c-4 7 -6 17 -6 30c0 29 27 41 64 41zM89 619c0 33 16 50 49 50c32 0 49 -17 49 -50s-17 -48 -49 -48s-49 16 -49 48z
" />
    <glyph glyph-name="i.latn_TRK.sc" horiz-adv-x="262" 
d="M134 557c19 0 34 -7 34 -28v-520c-10 -6 -21 -9 -40 -9c-20 0 -34 7 -34 34v516c8 4 22 7 40 7zM85 689c0 32 15 47 45 47s46 -15 46 -47c0 -30 -16 -45 -46 -45s-45 15 -45 45z" />
    <glyph glyph-name="i.sc" unicode="&#xf769;" horiz-adv-x="262" 
d="M134 557c19 0 34 -7 34 -28v-520c-10 -6 -21 -9 -40 -9c-20 0 -34 7 -34 34v516c8 4 22 7 40 7z" />
    <glyph glyph-name="iacute" unicode="&#xed;" horiz-adv-x="292" 
d="M114 482c44 0 72 -15 72 -78v-316c0 -19 9 -26 23 -26h30c3 -6 5 -13 5 -25c0 -23 -19 -37 -67 -37c-41 0 -67 18 -67 68v315c0 22 -10 28 -25 28h-29c-4 7 -6 17 -6 30c0 29 27 41 64 41zM57 579c34 19 117 112 158 112c28 0 38 -15 38 -34c-50 -27 -127 -106 -161 -106
c-19 0 -31 10 -35 28z" />
    <glyph glyph-name="iacute.sc" horiz-adv-x="262" 
d="M134 557c19 0 34 -7 34 -28v-520c-10 -6 -21 -9 -40 -9c-20 0 -34 7 -34 34v516c8 4 22 7 40 7zM33 655c34 19 117 112 158 112c28 0 38 -15 38 -34c-50 -27 -127 -106 -161 -106c-19 0 -31 10 -35 28z" />
    <glyph glyph-name="ibreve" unicode="&#x12d;" horiz-adv-x="292" 
d="M114 482c44 0 72 -15 72 -78v-316c0 -19 9 -26 23 -26h30c3 -6 5 -13 5 -25c0 -23 -19 -37 -67 -37c-41 0 -67 18 -67 68v315c0 22 -10 28 -25 28h-29c-4 7 -6 17 -6 30c0 29 27 41 64 41zM37 675c1 -18 9 -38 22 -50c15 -14 37 -20 66 -20c25 0 48 5 63 19
c16 14 22 35 24 50c6 5 16 7 29 6c19 0 26 -12 24 -24c-4 -26 -15 -51 -39 -73c-23 -20 -58 -30 -101 -30s-77 10 -101 29c-25 20 -39 48 -41 76c-1 14 6 22 23 23c13 1 23 -2 31 -6z" />
    <glyph glyph-name="ibreve.sc" horiz-adv-x="262" 
d="M134 557c19 0 34 -7 34 -28v-520c-10 -6 -21 -9 -40 -9c-20 0 -34 7 -34 34v516c8 4 22 7 40 7zM44 751c1 -18 9 -38 22 -50c15 -14 37 -20 66 -20c25 0 48 5 63 19c16 14 22 35 24 50c6 5 16 7 29 6c19 0 26 -12 24 -24c-4 -26 -15 -51 -39 -73
c-23 -20 -58 -30 -101 -30s-77 10 -101 29c-25 20 -39 48 -41 76c-1 14 6 22 23 23c13 1 23 -2 31 -6z" />
    <glyph glyph-name="icircumflex" unicode="&#xee;" horiz-adv-x="292" 
d="M114 482c44 0 72 -15 72 -78v-316c0 -19 9 -26 23 -26h30c3 -6 5 -13 5 -25c0 -23 -19 -37 -67 -37c-41 0 -67 18 -67 68v315c0 22 -10 28 -25 28h-29c-4 7 -6 17 -6 30c0 29 27 41 64 41zM285 580c-3 -14 -11 -24 -24 -26c-5 -2 -12 -2 -19 0c-29 8 -75 49 -116 77
c-41 -28 -88 -69 -117 -77c-6 -2 -13 -2 -18 0c-13 2 -21 12 -24 26c34 18 115 112 157 112c41 0 122 -92 161 -112z" />
    <glyph glyph-name="icircumflex.sc" horiz-adv-x="262" 
d="M134 557c19 0 34 -7 34 -28v-520c-10 -6 -21 -9 -40 -9c-20 0 -34 7 -34 34v516c8 4 22 7 40 7zM291 656c-3 -14 -11 -24 -24 -26c-5 -2 -12 -2 -19 0c-29 8 -75 49 -116 77c-41 -28 -88 -69 -117 -77c-6 -2 -13 -2 -18 0c-13 2 -21 12 -24 26c34 18 115 112 157 112
c41 0 122 -92 161 -112z" />
    <glyph glyph-name="idieresis" unicode="&#xef;" horiz-adv-x="292" 
d="M114 482c44 0 72 -15 72 -78v-316c0 -19 9 -26 23 -26h30c3 -6 5 -13 5 -25c0 -23 -19 -37 -67 -37c-41 0 -67 18 -67 68v315c0 22 -10 28 -25 28h-29c-4 7 -6 17 -6 30c0 29 27 41 64 41zM-23 615c0 31 15 46 46 46c29 0 46 -15 46 -46s-17 -45 -46 -45
c-31 0 -46 15 -46 45zM187 615c0 31 14 46 45 46c30 0 46 -15 46 -46s-16 -45 -46 -45s-45 15 -45 45z" />
    <glyph glyph-name="idieresis.sc" horiz-adv-x="262" 
d="M134 557c19 0 34 -7 34 -28v-520c-10 -6 -21 -9 -40 -9c-20 0 -34 7 -34 34v516c8 4 22 7 40 7zM-19 691c0 31 15 46 46 46c29 0 46 -15 46 -46s-17 -45 -46 -45c-31 0 -46 15 -46 45zM191 691c0 31 14 46 45 46c30 0 46 -15 46 -46s-16 -45 -46 -45s-45 15 -45 45z" />
    <glyph glyph-name="idotaccent" horiz-adv-x="291" 
d="M114 482c44 0 71 -15 71 -78v-316c0 -19 9 -26 23 -26h29c4 -6 6 -13 6 -25c0 -23 -19 -37 -67 -37c-41 0 -66 18 -66 68v315c0 22 -10 28 -25 28h-29c-4 7 -6 17 -6 30c0 29 27 41 64 41zM89 619c0 33 16 50 49 50c32 0 49 -17 49 -50s-17 -48 -49 -48s-49 16 -49 48z
" />
    <glyph glyph-name="idotaccent.sc" horiz-adv-x="262" 
d="M134 557c19 0 34 -7 34 -28v-520c-10 -6 -21 -9 -40 -9c-20 0 -34 7 -34 34v516c8 4 22 7 40 7zM85 689c0 32 15 47 45 47s46 -15 46 -47c0 -30 -16 -45 -46 -45s-45 15 -45 45z" />
    <glyph glyph-name="igrave" unicode="&#xec;" horiz-adv-x="292" 
d="M114 482c44 0 72 -15 72 -78v-316c0 -19 9 -26 23 -26h30c3 -6 5 -13 5 -25c0 -23 -19 -37 -67 -37c-41 0 -67 18 -67 68v315c0 22 -10 28 -25 28h-29c-4 7 -6 17 -6 30c0 29 27 41 64 41zM200 578c-4 -18 -16 -28 -34 -28c-34 0 -112 79 -162 106c1 19 11 34 39 34
c40 0 123 -93 157 -112z" />
    <glyph glyph-name="igrave.sc" horiz-adv-x="262" 
d="M134 557c19 0 34 -7 34 -28v-520c-10 -6 -21 -9 -40 -9c-20 0 -34 7 -34 34v516c8 4 22 7 40 7zM229 654c-4 -18 -16 -28 -34 -28c-34 0 -112 79 -162 106c1 19 11 34 39 34c40 0 123 -93 157 -112z" />
    <glyph glyph-name="ij" unicode="&#x133;" horiz-adv-x="576" 
d="M114 482c44 0 71 -15 71 -78v-316c0 -19 9 -26 23 -26h29c4 -6 6 -13 6 -25c0 -23 -19 -37 -67 -37c-41 0 -66 18 -66 68v315c0 22 -10 28 -25 28h-29c-4 7 -6 17 -6 30c0 29 27 41 64 41zM89 619c0 33 16 50 49 50c32 0 49 -17 49 -50s-17 -48 -49 -48s-49 16 -49 48z
M415 482c50 0 71 -20 71 -77v-450c0 -93 -50 -126 -117 -126c-56 0 -95 12 -95 42c0 10 1 19 5 30h73c38 0 62 21 62 69v413c0 21 -9 28 -23 28h-39c-3 8 -5 16 -5 31c0 25 20 40 68 40zM393 619c0 33 16 50 49 50c32 0 49 -17 49 -50s-17 -48 -49 -48s-49 16 -49 48z" />
    <glyph glyph-name="ij.sc" horiz-adv-x="609" 
d="M134 557c19 0 34 -7 34 -28v-520c-10 -6 -21 -9 -40 -9c-20 0 -34 7 -34 34v516c8 4 22 7 40 7zM482 557c20 0 33 -6 33 -29v-416c0 -79 -44 -112 -117 -112c-77 0 -111 18 -111 43c0 12 1 18 6 27h87c43 0 65 16 65 58v422c9 5 21 7 37 7z" />
    <glyph glyph-name="imacron" unicode="&#x12b;" horiz-adv-x="292" 
d="M114 482c44 0 72 -15 72 -78v-316c0 -19 9 -26 23 -26h30c3 -6 5 -13 5 -25c0 -23 -19 -37 -67 -37c-41 0 -67 18 -67 68v315c0 22 -10 28 -25 28h-29c-4 7 -6 17 -6 30c0 29 27 41 64 41zM239 581h-266c-4 8 -8 13 -8 26c0 21 5 34 45 34h274c4 -4 8 -9 8 -24
c0 -16 -9 -36 -53 -36z" />
    <glyph glyph-name="imacron.sc" horiz-adv-x="262" 
d="M134 557c19 0 34 -7 34 -28v-520c-10 -6 -21 -9 -40 -9c-20 0 -34 7 -34 34v516c8 4 22 7 40 7zM242 657h-266c-4 8 -8 13 -8 26c0 21 5 34 45 34h274c4 -4 8 -9 8 -24c0 -16 -9 -36 -53 -36z" />
    <glyph glyph-name="integral" unicode="&#x222b;" horiz-adv-x="371" 
d="M190 721c0 -242 58 -502 58 -731c0 -145 -66 -178 -149 -178c-69 0 -89 16 -89 38c0 12 3 21 7 30h81c39 0 74 14 75 101c3 242 -58 507 -58 747c0 121 65 156 150 156c77 0 96 -18 96 -37c0 -15 -2 -22 -6 -33h-85c-45 0 -80 -15 -80 -93z" />
    <glyph glyph-name="iogonek" unicode="&#x12f;" horiz-adv-x="291" 
d="M114 482c60 0 71 -46 71 -129v-265c0 -19 9 -26 23 -26h29c4 -6 6 -13 6 -25s-8 -20 -20 -29c-28 -23 -46 -68 -46 -92c0 -34 23 -43 56 -43c4 -6 5 -12 5 -21c0 -11 -5 -24 -33 -24c-35 0 -77 19 -77 76c0 38 17 72 34 97c-48 5 -52 57 -52 115v267c0 22 -10 28 -25 28
h-29c-4 7 -6 17 -6 30c0 29 27 41 64 41zM89 619c0 33 16 50 49 50c32 0 49 -17 49 -50s-17 -48 -49 -48s-49 16 -49 48z" />
    <glyph glyph-name="iogonek.sc" horiz-adv-x="262" 
d="M110 7c-10 7 -16 16 -16 43v500c8 4 22 7 40 7c19 0 34 -7 34 -28v-521c-40 -37 -57 -74 -57 -100c0 -34 23 -42 56 -42c3 -7 5 -13 5 -22c0 -11 -5 -23 -34 -23c-33 0 -77 19 -77 76c0 40 19 74 49 110z" />
    <glyph glyph-name="isuperior" unicode="&#xf6ed;" horiz-adv-x="164" 
d="M66 594c24 0 42 -8 42 -45v-148c0 -10 4 -13 12 -13h16c2 -4 3 -8 3 -15c0 -14 -11 -23 -40 -23c-26 0 -41 10 -41 41v144c0 12 -5 15 -13 15h-15c-2 4 -3 10 -3 18c0 18 15 26 39 26zM48 661c0 20 9 30 30 30c19 0 30 -10 30 -30s-11 -29 -30 -29c-21 0 -30 10 -30 29z
" />
    <glyph glyph-name="itilde" unicode="&#x129;" horiz-adv-x="292" 
d="M114 482c44 0 72 -15 72 -78v-316c0 -19 9 -26 23 -26h30c3 -6 5 -13 5 -25c0 -23 -19 -37 -67 -37c-41 0 -67 18 -67 68v315c0 22 -10 28 -25 28h-29c-4 7 -6 17 -6 30c0 29 27 41 64 41zM47 657c56 0 111 -31 160 -31c41 0 56 16 63 24c8 -4 18 -18 18 -34
c0 -24 -24 -46 -69 -46c-53 0 -127 29 -173 29c-26 0 -51 -15 -54 -26c-15 5 -20 16 -20 31c0 20 28 53 75 53z" />
    <glyph glyph-name="itilde.sc" horiz-adv-x="262" 
d="M134 557c19 0 34 -7 34 -28v-520c-10 -6 -21 -9 -40 -9c-20 0 -34 7 -34 34v516c8 4 22 7 40 7zM49 733c56 0 111 -31 160 -31c41 0 56 16 63 24c8 -4 18 -18 18 -34c0 -24 -24 -46 -69 -46c-53 0 -127 29 -173 29c-26 0 -51 -15 -54 -26c-15 5 -20 16 -20 31
c0 20 28 53 75 53z" />
    <glyph glyph-name="j" unicode="j" horiz-adv-x="284" 
d="M123 482c50 0 71 -20 71 -77v-450c0 -93 -50 -126 -117 -126c-56 0 -95 12 -95 42c0 10 1 19 5 30h73c38 0 62 21 62 69v413c0 21 -9 28 -23 28h-39c-3 8 -5 16 -5 31c0 25 20 40 68 40zM101 619c0 33 16 50 49 50c32 0 49 -17 49 -50s-17 -48 -49 -48s-49 16 -49 48z
" />
    <glyph glyph-name="j.sc" unicode="&#xf76a;" horiz-adv-x="347" 
d="M220 557c20 0 33 -6 33 -29v-416c0 -79 -44 -112 -117 -112c-77 0 -111 18 -111 43c0 12 1 18 6 27h87c43 0 65 16 65 58v422c9 5 21 7 37 7z" />
    <glyph glyph-name="jcircumflex" unicode="&#x135;" horiz-adv-x="284" 
d="M123 482c50 0 71 -20 71 -77v-450c0 -93 -50 -126 -117 -126c-56 0 -95 12 -95 42c0 10 1 19 5 30h73c38 0 62 21 62 69v413c0 21 -9 28 -23 28h-39c-3 8 -5 16 -5 31c0 25 20 40 68 40zM290 582c-3 -14 -11 -24 -24 -26c-5 -2 -12 -2 -19 0c-29 8 -75 49 -116 77
c-41 -28 -88 -69 -117 -77c-6 -2 -13 -2 -18 0c-13 2 -21 12 -24 26c34 18 115 112 157 112c41 0 122 -92 161 -112z" />
    <glyph glyph-name="jcircumflex.sc" horiz-adv-x="347" 
d="M220 557c20 0 33 -6 33 -29v-416c0 -79 -44 -112 -117 -112c-77 0 -111 18 -111 43c0 12 1 18 6 27h87c43 0 65 16 65 58v422c9 5 21 7 37 7zM376 656c-3 -14 -11 -24 -24 -26c-5 -2 -12 -2 -19 0c-29 8 -75 49 -116 77c-41 -28 -88 -69 -117 -77c-6 -2 -13 -2 -18 0
c-13 2 -21 12 -24 26c34 18 115 112 157 112c41 0 122 -92 161 -112z" />
    <glyph glyph-name="k" unicode="k" horiz-adv-x="454" 
d="M102 700c19 0 41 -8 41 -31v-392c94 45 153 131 157 197c8 5 21 8 33 8c22 0 37 -9 37 -32c0 -66 -82 -163 -161 -194c67 -39 115 -183 191 -183h35c3 -5 6 -16 6 -28c0 -25 -19 -45 -57 -45c-108 0 -160 176 -241 228v-218c-8 -6 -23 -10 -42 -10c-17 0 -35 5 -35 37
v653c8 6 18 10 36 10z" />
    <glyph glyph-name="k.sc" unicode="&#xf76b;" horiz-adv-x="537" 
d="M132 557c21 0 34 -6 34 -27v-236c96 67 181 177 214 258c8 3 18 5 32 5s27 -11 27 -26c0 -9 -5 -25 -12 -39c-32 -58 -81 -128 -158 -193c65 -59 131 -234 196 -234h24c4 -5 6 -13 6 -25c0 -24 -15 -40 -54 -40c-91 0 -150 175 -222 261c-17 -12 -34 -23 -53 -34v-219
c-8 -5 -23 -8 -41 -8c-19 0 -31 7 -31 33v516c8 5 22 8 38 8z" />
    <glyph glyph-name="kcommaaccent" unicode="&#x137;" horiz-adv-x="454" 
d="M102 700c19 0 41 -8 41 -31v-392c94 45 153 131 157 197c8 5 21 8 33 8c22 0 37 -9 37 -32c0 -66 -82 -163 -161 -194c67 -39 115 -183 191 -183h35c3 -5 6 -16 6 -28c0 -25 -19 -45 -57 -45c-108 0 -160 176 -241 228v-218c-8 -6 -23 -10 -42 -10c-17 0 -35 5 -35 37
v653c8 6 18 10 36 10z" />
    <glyph glyph-name="kcommaaccent.sc" horiz-adv-x="537" 
d="M132 557c21 0 34 -6 34 -27v-236c96 67 181 177 214 258c8 3 18 5 32 5s27 -11 27 -26c0 -9 -5 -25 -12 -39c-32 -58 -81 -128 -158 -193c65 -59 131 -234 196 -234h24c4 -5 6 -13 6 -25c0 -24 -15 -40 -54 -40c-91 0 -150 175 -222 261c-17 -12 -34 -23 -53 -34v-219
c-8 -5 -23 -8 -41 -8c-19 0 -31 7 -31 33v516c8 5 22 8 38 8zM271 -156c-29 0 -46 15 -46 45c0 32 17 47 46 47c31 0 49 -16 49 -69c0 -75 -24 -118 -51 -118c-15 0 -23 5 -26 17c19 18 28 59 28 78z" />
    <glyph glyph-name="kgreenlandic" unicode="&#x138;" horiz-adv-x="454" 
d="M102 482c19 0 41 -8 41 -31v-174c94 45 153 131 157 197c8 5 21 8 33 8c22 0 37 -9 37 -32c0 -66 -82 -163 -161 -194c67 -39 120 -183 196 -183h36c3 -5 5 -16 5 -28c0 -25 -19 -45 -57 -45c-107 0 -164 176 -246 228v-218c-8 -6 -23 -10 -42 -10c-17 0 -35 5 -35 37
v434c8 7 18 11 36 11z" />
    <glyph glyph-name="kgreenlandic.sc" horiz-adv-x="537" 
d="M132 557c21 0 34 -6 34 -27v-236c96 67 181 177 214 258c8 3 18 5 32 5s27 -11 27 -26c0 -9 -5 -25 -12 -39c-32 -58 -81 -128 -158 -193c65 -59 131 -234 196 -234h24c4 -5 6 -13 6 -25c0 -24 -15 -40 -54 -40c-91 0 -150 175 -222 261c-17 -12 -34 -23 -53 -34v-219
c-8 -5 -23 -8 -41 -8c-19 0 -31 7 -31 33v516c8 5 22 8 38 8z" />
    <glyph glyph-name="l" unicode="l" horiz-adv-x="299" 
d="M147 667v-526c0 -60 18 -76 67 -76h68c2 -6 3 -12 3 -23c0 -21 -27 -42 -96 -42c-82 0 -117 37 -117 123v567c9 7 17 11 37 11c29 -1 38 -15 38 -34z" />
    <glyph glyph-name="l.sc" unicode="&#xf76c;" horiz-adv-x="473" 
d="M131 557c18 0 37 -6 37 -27v-460h274c3 -5 8 -16 8 -31c0 -22 -10 -39 -42 -39h-282c-19 0 -32 8 -32 33v517c7 5 21 7 37 7z" />
    <glyph glyph-name="lacute" unicode="&#x13a;" horiz-adv-x="299" 
d="M147 667v-526c0 -60 18 -76 67 -76h68c2 -6 3 -12 3 -23c0 -21 -27 -42 -96 -42c-82 0 -117 37 -117 123v567c9 7 17 11 37 11c29 -1 38 -15 38 -34zM41 778c34 19 117 112 158 112c28 0 38 -15 38 -34c-50 -27 -127 -106 -161 -106c-19 0 -31 10 -35 28z" />
    <glyph glyph-name="lacute.sc" horiz-adv-x="473" 
d="M131 557c18 0 37 -6 37 -27v-460h274c3 -5 8 -16 8 -31c0 -22 -10 -39 -42 -39h-282c-19 0 -32 8 -32 33v517c7 5 21 7 37 7zM102 655c34 19 117 112 158 112c28 0 38 -15 38 -34c-50 -27 -127 -106 -161 -106c-19 0 -31 10 -35 28z" />
    <glyph glyph-name="lcaron" unicode="&#x13e;" horiz-adv-x="299" 
d="M231 624c-27 0 -43 14 -43 43s16 43 43 43c29 0 46 -15 46 -65c0 -71 -22 -111 -48 -111c-14 0 -22 4 -25 15c19 18 27 57 27 75zM147 667v-526c0 -60 18 -76 67 -76h68c2 -6 3 -12 3 -23c0 -21 -27 -42 -96 -42c-82 0 -117 37 -117 123v567c9 7 17 11 37 11
c29 -1 38 -15 38 -34z" />
    <glyph glyph-name="lcaron.sc" horiz-adv-x="473" 
d="M131 557c18 0 37 -6 37 -27v-460h274c3 -5 8 -16 8 -31c0 -22 -10 -39 -42 -39h-282c-19 0 -32 8 -32 33v517c7 5 21 7 37 7zM300 466c-29 0 -46 15 -46 45c0 32 17 47 46 47c31 0 49 -16 49 -69c0 -75 -24 -118 -51 -118c-15 0 -23 5 -26 17c19 18 28 59 28 78z" />
    <glyph glyph-name="lcommaaccent" unicode="&#x13c;" horiz-adv-x="299" 
d="M143 -143c-27 0 -43 15 -43 43c0 29 15 43 43 43s46 -15 46 -65c0 -70 -22 -111 -48 -111c-14 0 -22 4 -25 16c19 18 27 56 27 74zM147 667v-526c0 -60 18 -76 67 -76h68c2 -6 3 -12 3 -23c0 -21 -27 -42 -96 -42c-82 0 -117 37 -117 123v567c9 7 17 11 37 11
c29 -1 38 -15 38 -34z" />
    <glyph glyph-name="lcommaaccent.sc" horiz-adv-x="473" 
d="M131 557c18 0 37 -6 37 -27v-460h274c3 -5 8 -16 8 -31c0 -22 -10 -39 -42 -39h-282c-19 0 -32 8 -32 33v517c7 5 21 7 37 7zM274 -156c-29 0 -46 15 -46 45c0 32 17 47 46 47c31 0 49 -16 49 -69c0 -75 -24 -118 -51 -118c-15 0 -23 5 -26 17c19 18 28 59 28 78z" />
    <glyph glyph-name="ldot" unicode="&#x140;" horiz-adv-x="315" 
d="M147 667v-526c0 -60 18 -76 67 -76h68c2 -6 3 -12 3 -23c0 -21 -27 -42 -96 -42c-82 0 -117 37 -117 123v567c9 7 17 11 37 11c29 -1 38 -15 38 -34zM225 346c0 31 15 46 46 46c30 0 46 -15 46 -46s-16 -46 -46 -46s-46 15 -46 46z" />
    <glyph glyph-name="ldot.latn_CAT" horiz-adv-x="315" 
d="M147 667v-526c0 -60 18 -76 67 -76h68c2 -6 3 -12 3 -23c0 -21 -27 -42 -96 -42c-82 0 -117 37 -117 123v567c9 7 17 11 37 11c29 -1 38 -15 38 -34zM225 346c0 31 15 46 46 46c30 0 46 -15 46 -46s-16 -46 -46 -46s-46 15 -46 46z" />
    <glyph glyph-name="ldot.latn_CAT.sc" horiz-adv-x="473" 
d="M131 557c18 0 37 -6 37 -27v-460h274c3 -5 8 -16 8 -31c0 -22 -10 -39 -42 -39h-282c-19 0 -32 8 -32 33v517c7 5 21 7 37 7zM308 301c0 32 15 47 45 47s46 -15 46 -47c0 -30 -16 -45 -46 -45s-45 15 -45 45z" />
    <glyph glyph-name="ldot.sc" horiz-adv-x="473" 
d="M131 557c18 0 37 -6 37 -27v-460h274c3 -5 8 -16 8 -31c0 -22 -10 -39 -42 -39h-282c-19 0 -32 8 -32 33v517c7 5 21 7 37 7zM308 301c0 32 15 47 45 47s46 -15 46 -47c0 -30 -16 -45 -46 -45s-45 15 -45 45z" />
    <glyph glyph-name="less" unicode="&#x3c;" horiz-adv-x="356" 
d="M60 287l214 202c6 3 12 4 19 4c14 0 28 -16 28 -31c0 -11 -7 -20 -14 -28l-198 -189l202 -191c3 -4 6 -10 6 -21c0 -18 -18 -32 -30 -32s-20 5 -30 15l-207 195c-5 9 -12 16 -12 34c0 19 5 27 22 42z" />
    <glyph glyph-name="lessequal" unicode="&#x2264;" horiz-adv-x="338" 
d="M55 327l197 171c6 2 11 3 18 3c13 0 25 -13 25 -26c0 -9 -6 -17 -12 -24l-183 -159l186 -161c3 -4 6 -9 6 -18c0 -15 -17 -27 -28 -27s-18 4 -27 13l-191 164c-5 8 -11 14 -11 29c0 16 5 23 20 35zM272 -3h-234c-4 9 -8 16 -8 31c0 19 9 33 35 33h237c4 -6 7 -16 7 -30
c0 -20 -9 -34 -37 -34z" />
    <glyph glyph-name="lslash" unicode="&#x142;" horiz-adv-x="299" 
d="M147 667v-261l103 70c16 -5 30 -22 30 -39c0 -14 -4 -21 -15 -29l-118 -79v-188c0 -60 18 -76 67 -76h68c2 -6 3 -12 3 -23c0 -21 -27 -42 -96 -42c-82 0 -117 37 -117 123v157l-57 -38c-12 7 -27 21 -27 43c0 11 5 19 17 27l67 45v333c9 7 17 11 37 11
c29 -1 38 -15 38 -34z" />
    <glyph glyph-name="lslash.sc" horiz-adv-x="473" 
d="M270 338l-226 -179c-14 5 -35 22 -35 38c0 11 6 22 21 34l228 180c10 -1 33 -18 33 -38c0 -14 -9 -25 -21 -35zM131 557c18 0 37 -6 37 -27v-460h274c3 -5 8 -16 8 -31c0 -22 -10 -39 -42 -39h-282c-19 0 -32 8 -32 33v517c7 5 21 7 37 7z" />
    <glyph glyph-name="lsuperior" unicode="&#xf6ee;" horiz-adv-x="171" 
d="M88 679v-254c0 -27 10 -34 33 -34h36c1 -5 2 -8 2 -14c0 -14 -14 -27 -59 -27c-41 0 -61 22 -61 63v280c6 5 11 8 24 7c19 0 25 -9 25 -21z" />
    <glyph glyph-name="m" unicode="m" horiz-adv-x="886" 
d="M110 482c46 0 76 -24 76 -78v-17c44 63 95 105 168 105c65 0 109 -35 124 -106c45 61 104 106 177 106c82 0 139 -53 139 -165v-244c0 -16 6 -27 19 -27h38c3 -5 5 -9 5 -21c0 -21 -24 -35 -75 -35c-42 0 -65 19 -65 70v239c0 69 -30 104 -83 104
c-62 0 -110 -38 -150 -93v-237c0 -19 5 -27 18 -27h35c2 -5 4 -11 4 -22c0 -23 -30 -34 -74 -34c-41 0 -62 19 -62 70v241c0 67 -26 102 -78 102c-57 0 -104 -40 -140 -94v-310c-9 -6 -23 -9 -43 -9c-19 0 -37 7 -37 39v344c0 21 -10 28 -25 28h-36c-4 10 -7 18 -7 33
c0 25 25 38 72 38z" />
    <glyph glyph-name="m.sc" unicode="&#xf76d;" horiz-adv-x="773" 
d="M384 29c-23 0 -38 9 -49 39l-155 358l-27 -399c-2 -20 -16 -27 -38 -27c-14 0 -29 2 -36 6l38 501c2 31 19 50 51 50c18 0 27 -2 37 -6l178 -423l151 390c8 29 25 39 49 39s33 -3 45 -9l67 -538c-9 -7 -23 -10 -40 -10c-19 0 -36 5 -39 27l-38 399l-144 -358
c-10 -36 -28 -39 -50 -39z" />
    <glyph glyph-name="macron" unicode="&#xaf;" horiz-adv-x="454" 
d="M332 581h-266c-4 8 -8 13 -8 26c0 21 5 34 45 34h274c4 -4 8 -9 8 -24c0 -16 -9 -36 -53 -36z" />
    <glyph glyph-name="minus" unicode="&#x2212;" horiz-adv-x="524" 
d="M434 229h-372c-4 10 -8 20 -8 39s9 35 32 35h376c5 -8 8 -22 8 -36c0 -19 -7 -38 -36 -38z" />
    <glyph glyph-name="msuperior" unicode="&#xf6ef;" horiz-adv-x="476" 
d="M67 594c24 0 44 -15 45 -44c23 30 49 49 86 49c31 0 55 -16 63 -50c25 29 55 50 92 50c42 0 72 -26 72 -81v-121c0 -8 4 -13 11 -13h19c2 -3 3 -5 3 -12c0 -14 -15 -22 -45 -22c-25 0 -39 10 -39 39v116c0 28 -12 43 -37 43c-29 0 -53 -15 -72 -37v-114
c0 -8 3 -13 10 -13h18c1 -3 2 -6 2 -13c0 -14 -17 -21 -45 -21c-25 0 -37 10 -37 39v117c0 27 -12 42 -36 42c-26 0 -48 -15 -65 -35v-157c-6 -5 -16 -6 -29 -6s-24 4 -24 25v160c0 10 -6 15 -14 15h-18c-3 6 -4 11 -4 20c0 16 16 24 44 24z" />
    <glyph glyph-name="mu" unicode="&#xb5;" horiz-adv-x="603" 
d="M476 31c-14 14 -31 32 -38 65c-47 -62 -108 -102 -179 -105c-36 -1 -63 6 -81 23v-194c-7 -5 -19 -8 -39 -8c-25 0 -35 27 -35 64v509c0 19 -10 27 -25 27h-46c-2 9 -4 18 -4 32c1 26 31 38 78 38c73 0 76 -55 76 -122v-163c0 -81 20 -130 83 -130c69 0 132 39 168 105
v301c11 6 27 9 43 9c26 0 36 -10 36 -30c0 -120 1 -239 1 -359c0 -22 8 -28 23 -28h39c2 -6 3 -12 3 -25c0 -17 -16 -27 -41 -32c-27 -5 -46 0 -62 23z" />
    <glyph glyph-name="multiply" unicode="&#xd7;" horiz-adv-x="471" 
d="M153 403l83 -84l115 115c7 0 14 -3 27 -16s25 -37 -6 -68l-83 -83l114 -115c-4 -10 -5 -17 -17 -29c-17 -18 -33 -25 -61 2l-89 89l-115 -115c-10 4 -18 6 -29 17c-18 18 -25 33 3 62l88 88l-114 115c0 8 3 15 15 27c14 14 38 26 69 -5z" />
    <glyph glyph-name="n" unicode="n" horiz-adv-x="592" 
d="M109 482c47 0 77 -26 77 -78v-15c46 61 102 103 176 103c83 0 138 -53 138 -165v-244c0 -16 6 -27 19 -27h39c2 -5 4 -9 4 -21c0 -21 -23 -35 -74 -35c-43 0 -65 19 -65 70v239c0 69 -33 106 -85 106c-64 0 -112 -41 -152 -99v-307c-9 -6 -23 -9 -43 -9
c-19 0 -37 7 -37 39v344c0 21 -10 28 -25 28h-36c-4 10 -7 18 -7 33c0 25 22 38 71 38z" />
    <glyph glyph-name="n.sc" unicode="&#xf76e;" horiz-adv-x="636" 
d="M470 19l-306 403l4 -414c-6 -5 -25 -8 -42 -8c-16 0 -32 4 -32 33v517c9 4 23 7 39 7s27 -8 34 -18l304 -410l-2 419c8 6 19 10 36 10c19 0 39 -7 39 -28v-523c-6 -4 -19 -7 -38 -7c-16 0 -27 7 -36 19z" />
    <glyph glyph-name="nacute" unicode="&#x144;" horiz-adv-x="592" 
d="M109 482c47 0 77 -26 77 -78v-15c46 61 102 103 176 103c83 0 138 -53 138 -165v-244c0 -16 6 -27 19 -27h39c2 -5 4 -9 4 -21c0 -21 -23 -35 -74 -35c-43 0 -65 19 -65 70v239c0 69 -33 106 -85 106c-64 0 -112 -41 -152 -99v-307c-9 -6 -23 -9 -43 -9
c-19 0 -37 7 -37 39v344c0 21 -10 28 -25 28h-36c-4 10 -7 18 -7 33c0 25 22 38 71 38zM222 578c34 19 117 112 158 112c28 0 38 -15 38 -34c-50 -27 -127 -106 -161 -106c-19 0 -31 10 -35 28z" />
    <glyph glyph-name="nacute.sc" horiz-adv-x="636" 
d="M470 19l-306 403l4 -414c-6 -5 -25 -8 -42 -8c-16 0 -32 4 -32 33v517c9 4 23 7 39 7s27 -8 34 -18l304 -410l-2 419c8 6 19 10 36 10c19 0 39 -7 39 -28v-523c-6 -4 -19 -7 -38 -7c-16 0 -27 7 -36 19zM219 655c34 19 117 112 158 112c28 0 38 -15 38 -34
c-50 -27 -127 -106 -161 -106c-19 0 -31 10 -35 28z" />
    <glyph glyph-name="napostrophe" unicode="&#x149;" horiz-adv-x="649" 
d="M22 592c-26 0 -43 14 -43 42c0 30 16 44 44 44s46 -15 46 -65c0 -71 -23 -111 -48 -111c-15 0 -22 4 -25 15c18 18 26 56 26 75zM167 482c47 0 77 -26 77 -78v-15c46 61 102 103 176 103c83 0 138 -53 138 -165v-244c0 -16 6 -27 19 -27h39c2 -5 4 -9 4 -21
c0 -21 -23 -35 -74 -35c-43 0 -65 19 -65 70v239c0 69 -33 106 -85 106c-64 0 -112 -41 -152 -99v-307c-9 -6 -23 -9 -43 -9c-19 0 -37 7 -37 39v344c0 21 -10 28 -25 28h-36c-4 10 -7 18 -7 33c0 25 22 38 71 38z" />
    <glyph glyph-name="napostrophe.sc" horiz-adv-x="811" 
d="M86 608c-29 0 -46 15 -46 45c0 32 17 47 46 47c31 0 49 -16 49 -69c0 -75 -24 -118 -51 -118c-15 0 -23 5 -26 17c19 18 28 59 28 78zM645 19l-306 403l4 -414c-6 -5 -25 -8 -42 -8c-16 0 -32 4 -32 33v517c9 4 23 7 39 7s27 -8 34 -18l304 -410l-2 419c8 6 19 10 36 10
c19 0 39 -7 39 -28v-523c-6 -4 -19 -7 -38 -7c-16 0 -27 7 -36 19z" />
    <glyph glyph-name="ncaron" unicode="&#x148;" horiz-adv-x="592" 
d="M109 482c47 0 77 -26 77 -78v-15c46 61 102 103 176 103c83 0 138 -53 138 -165v-244c0 -16 6 -27 19 -27h39c2 -5 4 -9 4 -21c0 -21 -23 -35 -74 -35c-43 0 -65 19 -65 70v239c0 69 -33 106 -85 106c-64 0 -112 -41 -152 -99v-307c-9 -6 -23 -9 -43 -9
c-19 0 -37 7 -37 39v344c0 21 -10 28 -25 28h-36c-4 10 -7 18 -7 33c0 25 22 38 71 38zM289 551c-8 0 -13 2 -17 5c-38 17 -101 78 -144 101c1 19 17 34 39 34c29 0 83 -50 123 -84c41 34 95 84 124 84c21 0 38 -15 39 -34c-43 -23 -105 -83 -144 -101c-4 -2 -9 -5 -20 -5z
" />
    <glyph glyph-name="ncaron.sc" horiz-adv-x="636" 
d="M470 19l-306 403l4 -414c-6 -5 -25 -8 -42 -8c-16 0 -32 4 -32 33v517c9 4 23 7 39 7s27 -8 34 -18l304 -410l-2 419c8 6 19 10 36 10c19 0 39 -7 39 -28v-523c-6 -4 -19 -7 -38 -7c-16 0 -27 7 -36 19zM316 628c-8 0 -13 2 -17 5c-38 17 -101 78 -144 101
c1 19 17 34 39 34c29 0 83 -50 123 -84c41 34 95 84 124 84c21 0 38 -15 39 -34c-43 -23 -105 -83 -144 -101c-4 -2 -9 -5 -20 -5z" />
    <glyph glyph-name="ncommaaccent" unicode="&#x146;" horiz-adv-x="592" 
d="M313 -143c-27 0 -43 15 -43 43c0 29 16 43 43 43c29 0 46 -15 46 -65c0 -70 -22 -111 -48 -111c-14 0 -22 4 -25 16c19 18 27 56 27 74zM109 482c47 0 77 -26 77 -78v-15c46 61 102 103 176 103c83 0 138 -53 138 -165v-244c0 -16 6 -27 19 -27h39c2 -5 4 -9 4 -21
c0 -21 -23 -35 -74 -35c-43 0 -65 19 -65 70v239c0 69 -33 106 -85 106c-64 0 -112 -41 -152 -99v-307c-9 -6 -23 -9 -43 -9c-19 0 -37 7 -37 39v344c0 21 -10 28 -25 28h-36c-4 10 -7 18 -7 33c0 25 22 38 71 38z" />
    <glyph glyph-name="ncommaaccent.sc" horiz-adv-x="636" 
d="M470 19l-306 403l4 -414c-6 -5 -25 -8 -42 -8c-16 0 -32 4 -32 33v517c9 4 23 7 39 7s27 -8 34 -18l304 -410l-2 419c8 6 19 10 36 10c19 0 39 -7 39 -28v-523c-6 -4 -19 -7 -38 -7c-16 0 -27 7 -36 19zM316 -156c-29 0 -46 15 -46 45c0 32 17 47 46 47
c31 0 49 -16 49 -69c0 -75 -24 -118 -51 -118c-15 0 -23 5 -26 17c19 18 28 59 28 78z" />
    <glyph glyph-name="nine" unicode="9" 
d="M499 201c0 -229 -82 -343 -249 -343c-126 0 -207 55 -207 93c0 20 9 30 21 39c21 -16 89 -60 174 -60c131 0 180 75 184 249c-47 -31 -102 -48 -179 -48c-108 0 -209 56 -209 195c0 134 66 235 226 235c158 0 239 -86 239 -360zM250 196c75 0 130 19 172 49
c-6 179 -51 247 -157 247c-112 0 -158 -68 -158 -160c0 -90 64 -136 143 -136z" />
    <glyph glyph-name="nine.dnom" horiz-adv-x="357" 
d="M321 200c0 -140 -55 -206 -158 -206c-81 0 -131 31 -131 57c0 13 6 21 14 28c15 -9 58 -33 107 -33c78 0 109 40 112 138c-30 -18 -64 -27 -108 -27c-67 0 -133 32 -133 117c0 80 42 142 144 142c98 0 153 -50 153 -216zM162 202c45 0 78 10 102 27
c-4 99 -31 137 -92 137c-64 0 -93 -36 -93 -88c0 -51 37 -76 83 -76z" />
    <glyph glyph-name="nine.lf" 
d="M499 333c0 -230 -82 -343 -249 -343c-126 0 -207 55 -207 92c0 20 9 31 21 40c21 -16 89 -60 174 -60c131 0 180 75 184 249c-47 -30 -102 -48 -179 -48c-108 0 -209 55 -209 195c0 134 66 234 226 234c158 0 239 -86 239 -359zM250 328c75 0 130 18 172 48
c-6 180 -51 248 -157 248c-112 0 -158 -68 -158 -160c0 -91 64 -136 143 -136z" />
    <glyph glyph-name="nine.numr" horiz-adv-x="357" 
d="M321 485c0 -140 -55 -206 -158 -206c-81 0 -131 31 -131 57c0 13 6 21 14 28c15 -9 58 -33 107 -33c78 0 109 40 112 138c-30 -18 -64 -27 -108 -27c-67 0 -133 32 -133 117c0 80 42 142 144 142c98 0 153 -50 153 -216zM162 487c45 0 78 10 102 27
c-4 99 -31 137 -92 137c-64 0 -93 -36 -93 -88c0 -51 37 -76 83 -76z" />
    <glyph glyph-name="nine.sc" horiz-adv-x="483" 
d="M432 265c0 -185 -72 -273 -211 -273c-108 0 -176 42 -176 76c0 18 8 28 19 36c19 -12 77 -43 144 -43c106 0 147 54 151 183c-39 -23 -85 -36 -146 -36c-90 0 -177 43 -177 155c0 107 56 188 192 188c132 0 204 -65 204 -286zM220 269c62 0 106 13 139 36
c-5 131 -43 181 -126 181c-88 0 -127 -48 -127 -117c0 -68 51 -100 114 -100z" />
    <glyph glyph-name="nine.tf" horiz-adv-x="582" 
d="M523 333c0 -230 -82 -343 -249 -343c-126 0 -207 55 -207 92c0 20 9 31 21 40c21 -16 89 -60 174 -60c131 0 180 75 184 249c-47 -30 -102 -48 -179 -48c-108 0 -209 55 -209 195c0 134 66 234 226 234c158 0 239 -86 239 -359zM274 328c75 0 130 18 172 48
c-6 180 -51 248 -157 248c-112 0 -158 -68 -158 -160c0 -91 64 -136 143 -136z" />
    <glyph glyph-name="nine.tosf" horiz-adv-x="582" 
d="M523 201c0 -230 -82 -343 -249 -343c-126 0 -207 55 -207 92c0 20 9 31 21 40c21 -16 89 -60 174 -60c131 0 180 75 184 249c-47 -30 -102 -48 -179 -48c-108 0 -209 55 -209 195c0 134 66 234 226 234c158 0 239 -86 239 -359zM274 196c75 0 130 18 172 48
c-6 180 -51 248 -157 248c-112 0 -158 -68 -158 -160c0 -91 64 -136 143 -136z" />
    <glyph glyph-name="notequal" unicode="&#x2260;" horiz-adv-x="524" 
d="M362 545c20 0 35 -9 29 -27l-207 -546c-6 -3 -21 -5 -35 -5c-19 0 -29 8 -19 35l202 539c7 3 18 4 30 4zM434 123h-372c-4 10 -8 20 -8 39s9 35 32 35h376c5 -8 8 -22 8 -36c0 -19 -7 -38 -36 -38zM434 313h-372c-4 10 -8 20 -8 39s9 35 32 35h376c5 -8 8 -22 8 -36
c0 -19 -7 -38 -36 -38z" />
    <glyph glyph-name="nsuperior" unicode="&#x207f;" horiz-adv-x="324" 
d="M65 594c26 0 45 -15 47 -41c24 28 52 46 89 46c42 0 72 -26 72 -81v-121c0 -8 4 -13 10 -13h20c2 -3 3 -5 3 -12c0 -14 -15 -22 -46 -22c-25 0 -38 10 -38 39v116c0 28 -14 44 -39 44c-29 0 -52 -16 -71 -38v-155c-6 -5 -16 -6 -29 -6s-24 4 -24 25v160
c0 10 -6 15 -14 15h-18c-3 6 -4 11 -4 20c0 16 13 24 42 24z" />
    <glyph glyph-name="ntilde" unicode="&#xf1;" horiz-adv-x="592" 
d="M109 482c47 0 77 -26 77 -78v-15c46 61 102 103 176 103c83 0 138 -53 138 -165v-244c0 -16 6 -27 19 -27h39c2 -5 4 -9 4 -21c0 -21 -23 -35 -74 -35c-43 0 -65 19 -65 70v239c0 69 -33 106 -85 106c-64 0 -112 -41 -152 -99v-307c-9 -6 -23 -9 -43 -9
c-19 0 -37 7 -37 39v344c0 21 -10 28 -25 28h-36c-4 10 -7 18 -7 33c0 25 22 38 71 38zM213 656c56 0 111 -31 160 -31c41 0 56 16 63 24c8 -4 18 -18 18 -34c0 -24 -24 -46 -69 -46c-53 0 -127 29 -173 29c-26 0 -51 -15 -54 -26c-15 5 -20 16 -20 31c0 20 28 53 75 53z
" />
    <glyph glyph-name="ntilde.sc" horiz-adv-x="636" 
d="M470 19l-306 403l4 -414c-6 -5 -25 -8 -42 -8c-16 0 -32 4 -32 33v517c9 4 23 7 39 7s27 -8 34 -18l304 -410l-2 419c8 6 19 10 36 10c19 0 39 -7 39 -28v-523c-6 -4 -19 -7 -38 -7c-16 0 -27 7 -36 19zM235 733c56 0 111 -31 160 -31c41 0 56 16 63 24
c8 -4 18 -18 18 -34c0 -24 -24 -46 -69 -46c-53 0 -127 29 -173 29c-26 0 -51 -15 -54 -26c-15 5 -20 16 -20 31c0 20 28 53 75 53z" />
    <glyph glyph-name="numbersign" unicode="#" horiz-adv-x="802" 
d="M731 422h-129l-37 -212h167c4 -6 8 -13 8 -30c0 -19 -9 -45 -53 -45h-135l-32 -181c-7 -5 -19 -8 -38 -8c-17 0 -42 5 -35 37l27 152h-211l-32 -181c-6 -5 -19 -8 -38 -8c-17 0 -41 5 -35 37l27 152h-158c-4 10 -9 17 -9 33c0 25 6 42 46 42h134l37 212h-164
c-4 10 -9 17 -9 33c0 25 6 41 46 41h140l37 208c9 5 17 8 36 8c21 0 42 -8 38 -31l-33 -185h211l37 208c8 5 16 8 35 8c21 0 42 -8 39 -31l-33 -185h161c4 -5 8 -12 8 -29c0 -19 -9 -45 -53 -45zM314 422l-38 -212h210l38 212h-210z" />
    <glyph glyph-name="numbersign.lf" horiz-adv-x="802" 
d="M731 422h-129l-37 -212h167c4 -6 8 -13 8 -30c0 -19 -9 -45 -53 -45h-135l-32 -181c-7 -5 -19 -8 -38 -8c-17 0 -42 5 -35 37l27 152h-211l-32 -181c-6 -5 -19 -8 -38 -8c-17 0 -41 5 -35 37l27 152h-158c-4 10 -9 17 -9 33c0 25 6 42 46 42h134l37 212h-164
c-4 10 -9 17 -9 33c0 25 6 41 46 41h140l37 208c9 5 17 8 36 8c21 0 42 -8 38 -31l-33 -185h211l37 208c8 5 16 8 35 8c21 0 42 -8 39 -31l-33 -185h161c4 -5 8 -12 8 -29c0 -19 -9 -45 -53 -45zM313 422l-37 -212h211l37 212h-211z" />
    <glyph glyph-name="numbersign.tf" horiz-adv-x="802" 
d="M731 422h-129l-37 -212h167c4 -6 8 -13 8 -30c0 -19 -9 -45 -53 -45h-135l-32 -181c-7 -5 -19 -8 -38 -8c-17 0 -42 5 -35 37l27 152h-211l-32 -181c-6 -5 -19 -8 -38 -8c-17 0 -41 5 -35 37l27 152h-158c-4 10 -9 17 -9 33c0 25 6 42 46 42h134l37 212h-164
c-4 10 -9 17 -9 33c0 25 6 41 46 41h140l37 208c9 5 17 8 36 8c21 0 42 -8 38 -31l-33 -185h211l37 208c8 5 16 8 35 8c21 0 42 -8 39 -31l-33 -185h161c4 -5 8 -12 8 -29c0 -19 -9 -45 -53 -45zM314 422l-38 -212h210l38 212h-210z" />
    <glyph glyph-name="numbersign.tosf" horiz-adv-x="802" 
d="M731 422h-129l-37 -212h167c4 -6 8 -13 8 -30c0 -19 -9 -45 -53 -45h-135l-32 -181c-7 -5 -19 -8 -38 -8c-17 0 -42 5 -35 37l27 152h-211l-32 -181c-6 -5 -19 -8 -38 -8c-17 0 -41 5 -35 37l27 152h-158c-4 10 -9 17 -9 33c0 25 6 42 46 42h134l37 212h-164
c-4 10 -9 17 -9 33c0 25 6 41 46 41h140l37 208c9 5 17 8 36 8c21 0 42 -8 38 -31l-33 -185h211l37 208c8 5 16 8 35 8c21 0 42 -8 39 -31l-33 -185h161c4 -5 8 -12 8 -29c0 -19 -9 -45 -53 -45zM314 422l-38 -212h210l38 212h-210z" />
    <glyph glyph-name="o" unicode="o" 
d="M56 240c0 172 94 252 223 252c130 0 215 -80 215 -252c0 -182 -91 -250 -220 -250c-128 0 -218 71 -218 250zM135 239c0 -133 57 -179 139 -179c85 0 141 46 141 179c0 124 -52 182 -136 182c-85 0 -144 -59 -144 -182z" />
    <glyph glyph-name="o.sc" unicode="&#xf76f;" horiz-adv-x="615" 
d="M60 279c0 197 104 286 250 286s245 -89 245 -286c0 -206 -101 -287 -245 -287c-146 0 -250 84 -250 287zM132 277c0 -161 76 -222 179 -222s171 61 171 222c0 153 -70 223 -172 223c-105 0 -178 -71 -178 -223z" />
    <glyph glyph-name="oacute" unicode="&#xf3;" 
d="M56 240c0 172 94 252 223 252c130 0 215 -80 215 -252c0 -182 -91 -250 -220 -250c-128 0 -218 71 -218 250zM135 239c0 -133 57 -179 139 -179c85 0 141 46 141 179c0 124 -52 182 -136 182c-85 0 -144 -59 -144 -182zM211 578c34 19 117 112 158 112
c28 0 38 -15 38 -34c-50 -27 -127 -106 -161 -106c-19 0 -31 10 -35 28z" />
    <glyph glyph-name="oacute.sc" horiz-adv-x="615" 
d="M60 279c0 197 104 286 250 286s245 -89 245 -286c0 -206 -101 -287 -245 -287c-146 0 -250 84 -250 287zM132 277c0 -161 76 -222 179 -222s171 61 171 222c0 153 -70 223 -172 223c-105 0 -178 -71 -178 -223zM209 655c34 19 117 112 158 112c28 0 38 -15 38 -34
c-50 -27 -127 -106 -161 -106c-19 0 -31 10 -35 28z" />
    <glyph glyph-name="obreve" unicode="&#x14f;" 
d="M56 240c0 172 94 252 223 252c130 0 215 -80 215 -252c0 -182 -91 -250 -220 -250c-128 0 -218 71 -218 250zM135 239c0 -133 57 -179 139 -179c85 0 141 46 141 179c0 124 -52 182 -136 182c-85 0 -144 -59 -144 -182zM191 674c1 -18 9 -38 22 -50c15 -14 37 -20 66 -20
c25 0 48 5 63 19c16 14 22 35 24 50c6 5 16 7 29 6c19 0 26 -12 24 -24c-4 -26 -15 -51 -39 -73c-23 -20 -58 -30 -101 -30s-77 10 -101 29c-25 20 -39 48 -41 76c-1 14 6 22 23 23c13 1 23 -2 31 -6z" />
    <glyph glyph-name="obreve.sc" horiz-adv-x="615" 
d="M60 279c0 197 104 286 250 286s245 -89 245 -286c0 -206 -101 -287 -245 -287c-146 0 -250 84 -250 287zM132 277c0 -161 76 -222 179 -222s171 61 171 222c0 153 -70 223 -172 223c-105 0 -178 -71 -178 -223zM220 751c1 -18 9 -38 22 -50c15 -14 37 -20 66 -20
c25 0 48 5 63 19c16 14 22 35 24 50c6 5 16 7 29 6c19 0 26 -12 24 -24c-4 -26 -15 -51 -39 -73c-23 -20 -58 -30 -101 -30s-77 10 -101 29c-25 20 -39 48 -41 76c-1 14 6 22 23 23c13 1 23 -2 31 -6z" />
    <glyph glyph-name="ocircumflex" unicode="&#xf4;" 
d="M56 240c0 172 94 252 223 252c130 0 215 -80 215 -252c0 -182 -91 -250 -220 -250c-128 0 -218 71 -218 250zM135 239c0 -133 57 -179 139 -179c85 0 141 46 141 179c0 124 -52 182 -136 182c-85 0 -144 -59 -144 -182zM439 579c-3 -14 -11 -24 -24 -26
c-5 -2 -12 -2 -19 0c-29 8 -75 49 -116 77c-41 -28 -88 -69 -117 -77c-6 -2 -13 -2 -18 0c-13 2 -21 12 -24 26c34 18 115 112 157 112c41 0 122 -92 161 -112z" />
    <glyph glyph-name="ocircumflex.sc" horiz-adv-x="615" 
d="M60 279c0 197 104 286 250 286s245 -89 245 -286c0 -206 -101 -287 -245 -287c-146 0 -250 84 -250 287zM132 277c0 -161 76 -222 179 -222s171 61 171 222c0 153 -70 223 -172 223c-105 0 -178 -71 -178 -223zM466 656c-3 -14 -11 -24 -24 -26c-5 -2 -12 -2 -19 0
c-29 8 -75 49 -116 77c-41 -28 -88 -69 -117 -77c-6 -2 -13 -2 -18 0c-13 2 -21 12 -24 26c34 18 115 112 157 112c41 0 122 -92 161 -112z" />
    <glyph glyph-name="odieresis" unicode="&#xf6;" 
d="M56 240c0 172 94 252 223 252c130 0 215 -80 215 -252c0 -182 -91 -250 -220 -250c-128 0 -218 71 -218 250zM135 239c0 -133 57 -179 139 -179c85 0 141 46 141 179c0 124 -52 182 -136 182c-85 0 -144 -59 -144 -182zM131 614c0 31 15 46 46 46c29 0 46 -15 46 -46
s-17 -45 -46 -45c-31 0 -46 15 -46 45zM341 614c0 31 14 46 45 46c30 0 46 -15 46 -46s-16 -45 -46 -45s-45 15 -45 45z" />
    <glyph glyph-name="odieresis.sc" horiz-adv-x="615" 
d="M60 279c0 197 104 286 250 286s245 -89 245 -286c0 -206 -101 -287 -245 -287c-146 0 -250 84 -250 287zM132 277c0 -161 76 -222 179 -222s171 61 171 222c0 153 -70 223 -172 223c-105 0 -178 -71 -178 -223zM156 691c0 31 15 46 46 46c29 0 46 -15 46 -46
s-17 -45 -46 -45c-31 0 -46 15 -46 45zM366 691c0 31 14 46 45 46c30 0 46 -15 46 -46s-16 -45 -46 -45s-45 15 -45 45z" />
    <glyph glyph-name="oe" unicode="&#x153;" horiz-adv-x="864" 
d="M56 240c0 172 94 252 223 252c84 0 148 -37 181 -110c38 74 107 110 179 110c121 0 180 -91 180 -208c0 -19 -2 -38 -7 -51h-316c4 -111 57 -173 145 -173c71 0 133 27 156 45c10 -6 17 -16 17 -33c0 -34 -57 -82 -179 -82c-79 0 -142 39 -176 105
c-35 -75 -101 -105 -185 -105c-128 0 -218 71 -218 250zM135 239c0 -133 57 -179 139 -179c83 0 138 44 141 172c0 128 -49 189 -136 189c-85 0 -144 -59 -144 -182zM639 423c-64 0 -125 -43 -141 -135h253c0 80 -33 135 -112 135z" />
    <glyph glyph-name="oe.sc" horiz-adv-x="881" 
d="M801 0h-345c-7 0 -14 1 -19 3c-42 -8 -77 -11 -120 -11c-153 0 -257 84 -257 287c0 197 104 286 258 286c38 0 76 -4 112 -12c7 3 15 4 28 4h364c4 -5 8 -13 8 -30c0 -23 -10 -39 -29 -39h-303v-168h275c3 -5 8 -17 8 -34c0 -22 -10 -35 -28 -35h-255v-181h324
c4 -5 8 -14 8 -31c0 -22 -10 -39 -29 -39zM132 277c0 -161 76 -222 185 -222c36 0 73 3 106 13v414c-36 14 -67 18 -106 18c-112 0 -185 -71 -185 -223z" />
    <glyph glyph-name="ogonek" unicode="&#x2db;" horiz-adv-x="525" 
d="M395 29l40 -22c-24 -28 -53 -73 -53 -99c0 -34 23 -42 56 -42c3 -7 5 -13 5 -22c0 -11 -5 -23 -34 -23c-33 0 -77 19 -77 76c0 58 43 109 63 132z" />
    <glyph glyph-name="ograve" unicode="&#xf2;" 
d="M56 240c0 172 94 252 223 252c130 0 215 -80 215 -252c0 -182 -91 -250 -220 -250c-128 0 -218 71 -218 250zM135 239c0 -133 57 -179 139 -179c85 0 141 46 141 179c0 124 -52 182 -136 182c-85 0 -144 -59 -144 -182zM354 577c-4 -18 -16 -28 -34 -28
c-34 0 -112 79 -162 106c1 19 11 34 39 34c40 0 123 -93 157 -112z" />
    <glyph glyph-name="ograve.sc" horiz-adv-x="615" 
d="M60 279c0 197 104 286 250 286s245 -89 245 -286c0 -206 -101 -287 -245 -287c-146 0 -250 84 -250 287zM132 277c0 -161 76 -222 179 -222s171 61 171 222c0 153 -70 223 -172 223c-105 0 -178 -71 -178 -223zM405 654c-4 -18 -16 -28 -34 -28c-34 0 -112 79 -162 106
c1 19 11 34 39 34c40 0 123 -93 157 -112z" />
    <glyph glyph-name="ohungarumlaut" unicode="&#x151;" 
d="M56 240c0 172 94 252 223 252c130 0 215 -80 215 -252c0 -182 -91 -250 -220 -250c-128 0 -218 71 -218 250zM135 239c0 -133 57 -179 139 -179c85 0 141 46 141 179c0 124 -52 182 -136 182c-85 0 -144 -59 -144 -182zM137 578c35 25 102 132 146 132
c26 0 36 -11 39 -28c-50 -35 -115 -127 -152 -127c-17 0 -28 8 -33 23zM312 583c34 19 118 112 158 112c28 0 38 -15 39 -34c-51 -27 -128 -106 -162 -106c-18 0 -31 10 -35 28z" />
    <glyph glyph-name="ohungarumlaut.sc" horiz-adv-x="615" 
d="M60 279c0 197 104 286 250 286s245 -89 245 -286c0 -206 -101 -287 -245 -287c-146 0 -250 84 -250 287zM132 277c0 -161 76 -222 179 -222s171 61 171 222c0 153 -70 223 -172 223c-105 0 -178 -71 -178 -223zM132 655c35 25 102 132 146 132c26 0 36 -11 39 -28
c-50 -35 -115 -127 -152 -127c-17 0 -28 8 -33 23zM307 660c34 19 118 112 158 112c28 0 38 -15 39 -34c-51 -27 -128 -106 -162 -106c-18 0 -31 10 -35 28z" />
    <glyph glyph-name="omacron" unicode="&#x14d;" 
d="M56 240c0 172 94 252 223 252c130 0 215 -80 215 -252c0 -182 -91 -250 -220 -250c-128 0 -218 71 -218 250zM135 239c0 -133 57 -179 139 -179c85 0 141 46 141 179c0 124 -52 182 -136 182c-85 0 -144 -59 -144 -182zM388 580h-266c-4 8 -8 13 -8 26c0 21 5 34 45 34
h274c4 -4 8 -9 8 -24c0 -16 -9 -36 -53 -36z" />
    <glyph glyph-name="omacron.sc" horiz-adv-x="615" 
d="M60 279c0 197 104 286 250 286s245 -89 245 -286c0 -206 -101 -287 -245 -287c-146 0 -250 84 -250 287zM132 277c0 -161 76 -222 179 -222s171 61 171 222c0 153 -70 223 -172 223c-105 0 -178 -71 -178 -223zM418 657h-266c-4 8 -8 13 -8 26c0 21 5 34 45 34h274
c4 -4 8 -9 8 -24c0 -16 -9 -36 -53 -36z" />
    <glyph glyph-name="one" unicode="1" horiz-adv-x="479" 
d="M227 550c9 6 18 10 36 10c19 0 41 -8 41 -31l-1 -456h142c4 -6 9 -15 9 -31c0 -25 -11 -42 -33 -42h-339c-5 10 -9 19 -9 34c0 24 6 39 46 39h108v369c-49 -30 -110 -45 -147 -45c-15 0 -33 9 -33 33c0 13 4 22 10 32c72 11 141 36 170 88z" />
    <glyph glyph-name="one.dnom" horiz-adv-x="318" 
d="M278 0h-228c-4 7 -7 14 -7 24c0 17 4 28 33 28h72v286c-28 -23 -65 -34 -90 -34c-15 0 -24 9 -24 27c0 9 1 15 6 22c48 4 94 26 108 58c6 3 18 5 29 5c17 0 28 -7 28 -22v-342h89c3 -3 7 -11 7 -22c0 -18 -8 -30 -23 -30z" />
    <glyph glyph-name="one.lf" horiz-adv-x="479" 
d="M422 0h-350c-4 10 -8 19 -8 34c0 24 5 40 46 40h117v508c-45 -41 -106 -60 -148 -60c-20 0 -33 13 -33 36c0 14 2 22 8 32c79 6 151 42 173 97c9 3 23 6 39 6c23 0 38 -10 38 -31v-588h141c4 -6 9 -16 9 -32c0 -25 -10 -42 -32 -42z" />
    <glyph glyph-name="one.numr" horiz-adv-x="318" 
d="M278 285h-228c-4 7 -7 14 -7 24c0 17 4 28 33 28h72v286c-28 -23 -65 -34 -90 -34c-15 0 -24 9 -24 27c0 9 1 15 6 22c48 4 94 26 108 58c6 3 18 5 29 5c17 0 28 -7 28 -22v-342h89c3 -3 7 -11 7 -22c0 -18 -8 -30 -23 -30z" />
    <glyph glyph-name="one.sc" horiz-adv-x="430" 
d="M372 0h-303c-4 10 -8 18 -8 32c0 23 5 38 43 38h97v380c-38 -31 -87 -46 -121 -46c-20 0 -32 12 -32 34c0 14 2 21 8 31c65 4 126 34 145 77c8 3 22 6 37 6c22 0 36 -10 36 -29v-453h119c4 -5 9 -15 9 -31c0 -23 -10 -39 -30 -39z" />
    <glyph glyph-name="one.tf" horiz-adv-x="582" 
d="M463 0h-350c-4 10 -8 19 -8 34c0 24 5 40 46 40h117v508c-45 -41 -106 -60 -148 -60c-20 0 -33 13 -33 36c0 14 2 22 8 32c79 6 151 42 173 97c9 3 23 6 39 6c23 0 38 -10 38 -31v-588h141c4 -6 9 -16 9 -32c0 -25 -10 -42 -32 -42z" />
    <glyph glyph-name="one.tosf" horiz-adv-x="582" 
d="M268 550c9 6 18 10 36 10c19 0 41 -8 41 -31l-1 -456h142c4 -6 9 -15 9 -31c0 -25 -11 -42 -33 -42h-339c-5 10 -9 19 -9 34c0 24 6 39 46 39h108v369c-49 -30 -110 -45 -147 -45c-15 0 -33 9 -33 33c0 13 4 22 10 32c72 11 141 36 170 88z" />
    <glyph glyph-name="oneeighth" unicode="&#x215b;" horiz-adv-x="884" 
d="M555 700c23 0 35 -11 28 -31l-251 -665c-7 -3 -14 -6 -31 -6c-22 0 -34 10 -22 41l245 656c9 4 16 5 31 5zM278 285h-228c-4 7 -7 14 -7 24c0 17 4 28 33 28h72v286c-28 -23 -65 -34 -90 -34c-15 0 -24 9 -24 27c0 9 1 15 6 22c48 4 94 26 108 58c6 3 18 5 29 5
c17 0 28 -7 28 -22v-342h89c3 -3 7 -11 7 -22c0 -18 -8 -30 -23 -30zM560 116c0 52 30 85 68 102c-30 18 -51 46 -51 92c0 66 45 105 128 105c87 0 133 -37 133 -106c0 -42 -24 -74 -57 -93c43 -16 74 -46 74 -102c0 -64 -42 -120 -147 -120c-102 0 -148 51 -148 122z
M699 193l-14 3c-39 -9 -69 -34 -69 -80c0 -41 30 -74 91 -74c66 0 93 30 93 71c0 48 -46 67 -101 80zM628 310c0 -57 51 -69 99 -79c34 11 61 37 61 77s-31 63 -79 63s-81 -23 -81 -61z" />
    <glyph glyph-name="onehalf" unicode="&#xbd;" horiz-adv-x="883" 
d="M555 700c23 0 35 -11 28 -31l-251 -665c-7 -3 -14 -6 -31 -6c-22 0 -34 10 -22 41l245 656c9 4 16 5 31 5zM278 285h-228c-4 7 -7 14 -7 24c0 17 4 28 33 28h72v286c-28 -23 -65 -34 -90 -34c-15 0 -24 9 -24 27c0 9 1 15 6 22c48 4 94 26 108 58c6 3 18 5 29 5
c17 0 28 -7 28 -22v-342h89c3 -3 7 -11 7 -22c0 -18 -8 -30 -23 -30zM564 345c0 27 47 69 132 69c96 0 146 -47 146 -119c0 -106 -130 -200 -203 -242v-4l217 3c3 -6 5 -16 5 -27c0 -17 -6 -25 -21 -25h-274c-3 7 -5 13 -5 30c0 14 3 26 17 37c70 49 205 138 205 220
c0 48 -35 72 -89 72c-47 0 -93 -22 -109 -47c-12 6 -21 15 -21 33z" />
    <glyph glyph-name="onequarter" unicode="&#xbc;" horiz-adv-x="850" 
d="M555 700c23 0 35 -11 28 -31l-251 -665c-7 -3 -14 -6 -31 -6c-22 0 -34 10 -22 41l245 656c9 4 16 5 31 5zM278 285h-228c-4 7 -7 14 -7 24c0 17 4 28 33 28h72v286c-28 -23 -65 -34 -90 -34c-15 0 -24 9 -24 27c0 9 1 15 6 22c48 4 94 26 108 58c6 3 18 5 29 5
c17 0 28 -7 28 -22v-342h89c3 -3 7 -11 7 -22c0 -18 -8 -30 -23 -30zM736 292c16 0 26 -6 26 -21v-140h60c3 -3 6 -11 6 -24c0 -15 -6 -23 -19 -23h-47l1 -79c-6 -3 -17 -5 -31 -5s-24 6 -24 21l-1 63h-202c-4 5 -5 11 -5 19c0 6 2 17 5 25l92 281c7 3 17 5 32 5
c16 0 23 -10 19 -23l-84 -260h143v153c7 4 17 8 29 8z" />
    <glyph glyph-name="onesuperior" unicode="&#xb9;" horiz-adv-x="318" 
d="M278 285h-228c-4 7 -7 14 -7 24c0 17 4 28 33 28h72v286c-28 -23 -65 -34 -90 -34c-15 0 -24 9 -24 27c0 9 1 15 6 22c48 4 94 26 108 58c6 3 18 5 29 5c17 0 28 -7 28 -22v-342h89c3 -3 7 -11 7 -22c0 -18 -8 -30 -23 -30z" />
    <glyph glyph-name="onethird" unicode="&#x2153;" horiz-adv-x="877" 
d="M555 700c23 0 35 -11 28 -31l-251 -665c-7 -3 -14 -6 -31 -6c-22 0 -34 10 -22 41l245 656c9 4 16 5 31 5zM278 285h-228c-4 7 -7 14 -7 24c0 17 4 28 33 28h72v286c-28 -23 -65 -34 -90 -34c-15 0 -24 9 -24 27c0 9 1 15 6 22c48 4 94 26 108 58c6 3 18 5 29 5
c17 0 28 -7 28 -22v-342h89c3 -3 7 -11 7 -22c0 -18 -8 -30 -23 -30zM775 294c0 37 -29 63 -85 63c-47 0 -86 -18 -102 -42c-12 6 -20 13 -20 31c0 27 39 68 126 68c94 0 139 -49 139 -111c0 -43 -28 -83 -68 -93v-1c41 -6 79 -38 79 -96c0 -61 -43 -117 -149 -117
c-104 0 -135 49 -135 79c0 19 8 28 23 33c12 -28 42 -60 109 -60c66 0 95 31 95 70c0 41 -30 64 -80 64h-21c-10 0 -15 10 -15 23c0 12 2 17 4 23c64 0 100 26 100 66z" />
    <glyph glyph-name="ordfeminine" unicode="&#xaa;" horiz-adv-x="271" 
d="M50 538c-5 3 -10 8 -10 25c0 25 56 37 92 37c37 0 93 -10 93 -78v-119c0 -13 6 -18 16 -18c4 0 7 1 10 2c2 -2 5 -9 5 -15c0 -17 -11 -22 -30 -22c-33 0 -43 15 -43 36c-26 -22 -55 -37 -93 -37c-49 0 -74 31 -74 77c0 38 27 63 79 66l88 6v10c0 36 -26 46 -54 46
c-36 0 -66 -10 -79 -16zM99 391c27 0 53 9 84 30v43l-85 -9c-26 -2 -36 -13 -36 -30c0 -19 12 -34 37 -34z" />
    <glyph glyph-name="ordmasculine" unicode="&#xba;" horiz-adv-x="293" 
d="M29 475c0 88 51 127 119 127c69 0 116 -39 116 -127c0 -92 -50 -127 -118 -127c-69 0 -117 36 -117 127zM80 474c0 -61 28 -83 66 -83c40 0 67 22 67 83c0 58 -26 84 -65 84s-68 -27 -68 -84z" />
    <glyph glyph-name="oslash" unicode="&#xf8;" 
d="M56 240c0 172 94 252 223 252c18 0 36 -2 52 -5l40 127c7 2 15 4 24 4c12 0 19 -4 20 -14c0 -5 -1 -11 -3 -16l-36 -115c75 -32 118 -109 118 -233c0 -182 -91 -250 -220 -250c-17 0 -35 2 -51 5l-30 -99c-8 -4 -14 -6 -27 -6c-8 0 -16 4 -18 11c-1 6 1 13 3 21l27 85
c-75 30 -122 102 -122 233zM135 239c0 -88 25 -136 68 -158l105 337c-10 2 -19 3 -29 3c-85 0 -144 -59 -144 -182zM415 239c0 79 -24 131 -65 156l-104 -334c9 -1 18 -1 28 -1c85 0 141 46 141 179z" />
    <glyph glyph-name="oslash.sc" horiz-adv-x="615" 
d="M60 279c0 197 104 286 250 286c29 0 56 -3 81 -11l47 121c9 4 15 6 30 6c19 0 29 -16 21 -36l-44 -116c69 -41 110 -124 110 -250c0 -206 -101 -287 -245 -287c-25 0 -50 3 -72 8l-48 -124c-8 -4 -15 -5 -30 -5c-17 0 -30 14 -20 38l43 113c-76 38 -123 120 -123 257z
M132 277c0 -99 31 -157 82 -185l150 399c-16 6 -34 9 -54 9c-105 0 -178 -71 -178 -223zM482 277c0 87 -25 146 -70 179l-149 -396c15 -4 31 -5 48 -5c103 0 171 61 171 222z" />
    <glyph glyph-name="oslashacute" unicode="&#x1ff;" 
d="M56 240c0 172 94 252 223 252c18 0 36 -2 52 -5l40 127c7 2 15 4 24 4c12 0 19 -4 20 -14c0 -5 -1 -11 -3 -16l-36 -115c75 -32 118 -109 118 -233c0 -182 -91 -250 -220 -250c-17 0 -35 2 -51 5l-30 -99c-8 -4 -14 -6 -27 -6c-8 0 -16 4 -18 11c-1 6 1 13 3 21l27 85
c-75 30 -122 102 -122 233zM135 239c0 -88 25 -136 68 -158l105 337c-10 2 -19 3 -29 3c-85 0 -144 -59 -144 -182zM415 239c0 79 -24 131 -65 156l-104 -334c9 -1 18 -1 28 -1c85 0 141 46 141 179zM177 579c34 19 117 112 158 112c28 0 38 -15 38 -34
c-50 -27 -127 -106 -161 -106c-19 0 -31 10 -35 28z" />
    <glyph glyph-name="oslashacute.sc" horiz-adv-x="615" 
d="M60 279c0 197 104 286 250 286c29 0 56 -3 81 -11l47 121c9 4 15 6 30 6c19 0 29 -16 21 -36l-44 -116c69 -41 110 -124 110 -250c0 -206 -101 -287 -245 -287c-25 0 -50 3 -72 8l-48 -124c-8 -4 -15 -5 -30 -5c-17 0 -30 14 -20 38l43 113c-76 38 -123 120 -123 257z
M132 277c0 -99 31 -157 82 -185l150 399c-16 6 -34 9 -54 9c-105 0 -178 -71 -178 -223zM482 277c0 87 -25 146 -70 179l-149 -396c15 -4 31 -5 48 -5c103 0 171 61 171 222zM209 655c34 19 117 112 158 112c28 0 38 -15 38 -34c-50 -27 -127 -106 -161 -106
c-19 0 -31 10 -35 28z" />
    <glyph glyph-name="osuperior" unicode="&#xf6f0;" horiz-adv-x="301" 
d="M31 471c0 88 52 128 121 128c70 0 118 -40 118 -128c0 -91 -51 -126 -120 -126s-119 37 -119 126zM83 471c0 -61 29 -82 67 -82c40 0 67 21 67 82c0 57 -25 83 -65 83c-39 0 -69 -26 -69 -83z" />
    <glyph glyph-name="otilde" unicode="&#xf5;" 
d="M56 240c0 172 94 252 223 252c130 0 215 -80 215 -252c0 -182 -91 -250 -220 -250c-128 0 -218 71 -218 250zM135 239c0 -133 57 -179 139 -179c85 0 141 46 141 179c0 124 -52 182 -136 182c-85 0 -144 -59 -144 -182zM201 656c56 0 111 -31 160 -31c41 0 56 16 63 24
c8 -4 18 -18 18 -34c0 -24 -24 -46 -69 -46c-53 0 -127 29 -173 29c-26 0 -51 -15 -54 -26c-15 5 -20 16 -20 31c0 20 28 53 75 53z" />
    <glyph glyph-name="otilde.sc" horiz-adv-x="615" 
d="M60 279c0 197 104 286 250 286s245 -89 245 -286c0 -206 -101 -287 -245 -287c-146 0 -250 84 -250 287zM132 277c0 -161 76 -222 179 -222s171 61 171 222c0 153 -70 223 -172 223c-105 0 -178 -71 -178 -223zM224 733c56 0 111 -31 160 -31c41 0 56 16 63 24
c8 -4 18 -18 18 -34c0 -24 -24 -46 -69 -46c-53 0 -127 29 -173 29c-26 0 -51 -15 -54 -26c-15 5 -20 16 -20 31c0 20 28 53 75 53z" />
    <glyph glyph-name="p" unicode="p" horiz-adv-x="562" 
d="M101 482c46 0 71 -26 73 -73c40 49 95 83 154 83c91 0 177 -52 178 -243c0 -176 -93 -259 -194 -259c-62 0 -107 27 -138 59v-236c-10 -6 -20 -8 -40 -8c-19 0 -37 7 -37 39v539c0 21 -10 28 -24 28h-36c-4 10 -7 18 -7 33c0 25 22 38 71 38zM307 413
c-53 0 -96 -27 -133 -74v-209c22 -28 65 -68 124 -68c75 0 133 56 133 179c0 144 -63 172 -124 172z" />
    <glyph glyph-name="p.sc" unicode="&#xf770;" horiz-adv-x="543" 
d="M131 557h184c92 0 169 -49 169 -165c0 -140 -97 -175 -189 -175h-127v-210c-8 -4 -23 -7 -41 -7s-33 7 -33 33v518c9 4 18 6 37 6zM304 497h-136v-219h113c79 0 133 26 133 109c0 75 -44 110 -110 110z" />
    <glyph glyph-name="paragraph" unicode="&#xb6;" horiz-adv-x="683" 
d="M602 626h-63v-768c-6 -5 -20 -9 -34 -9c-21 0 -41 6 -41 38v739h-105l-1 -645c0 -73 -48 -97 -95 -97c-23 0 -40 19 -40 42c34 7 61 22 61 64v251c-127 0 -232 102 -232 229s99 230 232 230h342c4 -6 8 -17 8 -32c0 -25 -10 -42 -32 -42z" />
    <glyph glyph-name="parenleft" unicode="(" horiz-adv-x="235" 
d="M28 304c0 260 74 408 142 408c20 0 39 -11 43 -35c-54 -40 -108 -156 -108 -373c0 -207 50 -334 112 -378c-4 -25 -18 -38 -43 -38c-72 0 -146 169 -146 416z" />
    <glyph glyph-name="parenleft.case" horiz-adv-x="235" 
d="M28 352c0 260 74 408 142 408c20 0 39 -11 43 -35c-54 -40 -108 -156 -108 -373c0 -207 50 -334 112 -378c-4 -25 -18 -38 -43 -38c-72 0 -146 169 -146 416z" />
    <glyph glyph-name="parenright" unicode=")" horiz-adv-x="235" 
d="M217 296c0 -260 -74 -408 -142 -408c-20 0 -39 11 -43 35c54 40 108 156 108 373c0 207 -50 334 -112 378c4 25 18 38 43 38c72 0 146 -169 146 -416z" />
    <glyph glyph-name="parenright.case" horiz-adv-x="235" 
d="M217 348c0 -260 -74 -408 -142 -408c-20 0 -39 11 -43 35c54 40 108 156 108 373c0 207 -50 334 -112 378c4 25 18 38 43 38c72 0 146 -169 146 -416z" />
    <glyph glyph-name="percent" unicode="%" horiz-adv-x="871" 
d="M556 700c23 0 35 -11 28 -31l-251 -665c-7 -3 -14 -6 -31 -6c-22 0 -34 10 -22 41l245 656c9 4 16 5 31 5zM507 205c0 145 69 210 158 210c92 0 156 -65 156 -210c0 -151 -67 -208 -157 -208s-157 59 -157 208zM565 203c0 -116 44 -157 99 -157c57 0 98 40 98 157
c0 112 -40 161 -97 161c-55 0 -100 -50 -100 -161zM35 491c0 145 69 210 158 210c92 0 156 -65 156 -210c0 -151 -67 -208 -157 -208s-157 59 -157 208zM93 489c0 -116 44 -157 99 -157c57 0 98 40 98 157c0 112 -40 161 -97 161c-55 0 -100 -50 -100 -161z" />
    <glyph glyph-name="period" unicode="." horiz-adv-x="171" 
d="M40 45c0 32 15 47 45 47s46 -15 46 -47c0 -30 -16 -45 -46 -45s-45 15 -45 45z" />
    <glyph glyph-name="periodcentered" unicode="&#xb7;" horiz-adv-x="171" 
d="M40 262c0 32 15 47 45 47s46 -15 46 -47c0 -30 -16 -45 -46 -45s-45 15 -45 45z" />
    <glyph glyph-name="periodcentered.case" horiz-adv-x="171" 
d="M40 351c0 32 15 47 45 47s46 -15 46 -47c0 -30 -16 -45 -46 -45s-45 15 -45 45z" />
    <glyph glyph-name="perthousand" unicode="&#x2030;" horiz-adv-x="1206" 
d="M553 700c23 0 35 -11 28 -31l-251 -665c-7 -3 -14 -6 -31 -6c-22 0 -34 10 -22 41l245 656c9 4 16 5 31 5zM503 205c0 145 69 210 158 210c92 0 156 -65 156 -210c0 -151 -67 -208 -157 -208s-157 59 -157 208zM561 203c0 -116 44 -157 99 -157c57 0 98 40 98 157
c0 112 -40 161 -97 161c-55 0 -100 -50 -100 -161zM863 205c0 145 69 210 158 210c92 0 156 -65 156 -210c0 -151 -67 -208 -157 -208s-157 59 -157 208zM921 203c0 -116 44 -157 99 -157c57 0 98 40 98 157c0 112 -40 161 -97 161c-55 0 -100 -50 -100 -161zM35 491
c0 145 69 210 158 210c92 0 156 -65 156 -210c0 -151 -67 -208 -157 -208s-157 59 -157 208zM93 489c0 -116 44 -157 99 -157c57 0 98 40 98 157c0 112 -40 161 -97 161c-55 0 -100 -50 -100 -161z" />
    <glyph glyph-name="pi" unicode="&#x3c0;" horiz-adv-x="601" 
d="M113 102v306h-91c-4 10 -9 16 -9 33c0 24 6 41 47 41h519c4 -5 9 -14 9 -33c0 -24 -11 -41 -33 -41h-67v-399c-7 -5 -23 -9 -38 -9c-21 0 -41 5 -41 37v371h-218v-310c0 -81 -45 -102 -99 -102c-23 0 -40 12 -40 42c36 4 61 22 61 64z" />
    <glyph glyph-name="plus" unicode="+" horiz-adv-x="524" 
d="M299 437v-134h163c4 -5 8 -17 8 -36c0 -21 -9 -38 -35 -38h-136v-163c-9 -5 -22 -8 -36 -8c-25 0 -38 9 -38 41v130h-163c-5 10 -8 17 -8 36c0 20 8 38 30 38h141v163c6 5 20 8 38 8c20 0 36 -9 36 -37z" />
    <glyph glyph-name="plusminus" unicode="&#xb1;" horiz-adv-x="524" 
d="M299 472v-134h163c4 -5 8 -17 8 -36c0 -21 -9 -38 -35 -38h-136v-163c-9 -5 -22 -8 -36 -8c-25 0 -38 9 -38 41v130h-163c-5 10 -8 17 -8 36c0 20 8 38 30 38h141v163c6 5 20 8 38 8c20 0 36 -9 36 -37zM434 -10h-372c-4 9 -8 18 -8 36c0 17 9 32 32 32h376
c5 -7 8 -20 8 -33c0 -18 -7 -35 -36 -35z" />
    <glyph glyph-name="product" unicode="&#x220f;" horiz-adv-x="766" 
d="M708 626h-90v-829c-7 -5 -23 -9 -38 -9c-21 0 -41 6 -41 38v800h-312v-828c-6 -6 -25 -10 -44 -10c-17 0 -34 6 -34 38v800h-114c-5 10 -9 16 -9 33c0 24 6 41 46 41h659c5 -5 9 -14 9 -32c0 -25 -11 -42 -32 -42z" />
    <glyph glyph-name="q" unicode="q" horiz-adv-x="558" 
d="M390 -157v200c-38 -33 -83 -53 -144 -53c-107 0 -190 80 -190 251s91 251 199 251c64 0 109 -24 141 -58c12 31 41 48 77 48c38 0 55 -14 55 -36c0 -15 -2 -24 -5 -32h-35c-16 0 -26 -9 -26 -31v-563c-8 -4 -19 -8 -39 -8c-21 0 -33 10 -33 31zM261 60c61 0 99 20 129 47
v249c-28 38 -70 59 -133 59c-62 0 -128 -51 -128 -174c0 -121 60 -181 132 -181z" />
    <glyph glyph-name="q.sc" horiz-adv-x="615" 
d="M60 279c0 197 104 286 250 286s245 -89 245 -286c0 -145 -49 -227 -130 -262c29 -49 64 -75 103 -75h42c2 -5 5 -14 5 -27c0 -26 -21 -46 -61 -46c-68 0 -119 52 -154 127c-16 -2 -33 -4 -50 -4c-146 0 -250 84 -250 287zM132 277c0 -161 76 -222 179 -222
s171 61 171 222c0 153 -70 223 -172 223c-105 0 -178 -71 -178 -223z" />
    <glyph glyph-name="question" unicode="?" horiz-adv-x="493" 
d="M375 472c0 100 -62 141 -148 141c-80 0 -143 -37 -162 -80c-19 7 -32 20 -32 45c0 42 61 112 198 112c135 0 220 -77 220 -202c0 -129 -87 -196 -201 -208l6 -132c-8 -7 -19 -10 -38 -10c-20 0 -30 12 -31 31l-4 130c0 13 2 24 8 31c87 2 184 42 184 142zM181 45
c0 32 15 47 46 47c29 0 46 -15 46 -47c0 -30 -17 -45 -46 -45c-31 0 -46 15 -46 45z" />
    <glyph glyph-name="question.sc" unicode="&#xf73f;" horiz-adv-x="434" 
d="M319 374c0 72 -49 102 -119 102c-65 0 -117 -28 -136 -60c-16 7 -28 20 -28 42c0 37 53 91 169 91c117 0 187 -63 187 -159c0 -97 -69 -154 -169 -164l5 -99c-7 -7 -17 -10 -35 -10c-19 0 -29 11 -30 28l-4 98c0 11 2 22 8 29c69 1 152 29 152 102zM158 41
c0 27 14 41 42 41s42 -14 42 -41c0 -28 -14 -41 -42 -41s-42 13 -42 41z" />
    <glyph glyph-name="questiondown" unicode="&#xbf;" horiz-adv-x="493" 
d="M109 10c0 -100 62 -141 148 -141c80 0 143 37 162 80c19 -7 32 -20 32 -45c0 -42 -61 -112 -198 -112c-135 0 -220 77 -220 202c0 129 87 196 201 208l-6 132c8 7 19 10 38 10c20 0 30 -12 31 -31l4 -130c0 -13 -2 -24 -8 -31c-87 -2 -184 -42 -184 -142zM303 437
c0 -32 -15 -47 -46 -47c-29 0 -46 15 -46 47c0 30 17 45 46 45c31 0 46 -15 46 -45z" />
    <glyph glyph-name="questiondown.case" horiz-adv-x="493" 
d="M109 228c0 -100 62 -141 148 -141c80 0 143 37 162 80c19 -7 32 -20 32 -45c0 -42 -61 -112 -198 -112c-135 0 -220 77 -220 202c0 129 87 196 201 208l-6 132c8 7 19 10 38 10c20 0 30 -12 31 -31l4 -130c0 -13 -2 -24 -8 -31c-87 -2 -184 -42 -184 -142zM303 655
c0 -32 -15 -47 -46 -47c-29 0 -46 15 -46 47c0 30 17 45 46 45c31 0 46 -15 46 -45z" />
    <glyph glyph-name="questiondown.sc" unicode="&#xf7bf;" horiz-adv-x="434" 
d="M115 175c0 -72 49 -102 119 -102c65 0 117 28 136 60c16 -7 28 -20 28 -42c0 -37 -53 -91 -169 -91c-117 0 -187 63 -187 159c0 97 69 154 169 164l-5 99c7 7 17 10 35 10c19 0 29 -11 30 -28l4 -98c0 -11 -2 -22 -8 -29c-69 -1 -152 -29 -152 -102zM276 508
c0 -27 -14 -41 -42 -41s-42 14 -42 41c0 28 14 41 42 41s42 -13 42 -41z" />
    <glyph glyph-name="quotedbl" unicode="&#x22;" horiz-adv-x="293" 
d="M168 528v149c0 18 11 24 35 24c31 0 41 -13 41 -56c0 -85 -17 -127 -43 -127c-17 0 -26 4 -33 10zM49 528v149c0 18 11 24 35 24c31 0 41 -13 41 -56c0 -85 -17 -127 -43 -127c-17 0 -26 4 -33 10z" />
    <glyph glyph-name="quotedblbase" unicode="&#x201e;" horiz-adv-x="298" 
d="M86 0c-29 0 -46 15 -46 45c0 32 17 47 46 47c31 0 49 -16 49 -69c0 -75 -24 -118 -51 -118c-15 0 -23 5 -26 17c19 18 28 59 28 78zM209 0c-29 0 -46 15 -46 45c0 32 17 47 46 47c31 0 49 -16 49 -69c0 -75 -24 -118 -51 -118c-15 0 -23 5 -26 17c19 18 28 59 28 78z" />
    <glyph glyph-name="quotedblleft" unicode="&#x201c;" horiz-adv-x="298" 
d="M89 606c29 0 46 -15 46 -45c0 -32 -17 -47 -46 -47c-31 0 -49 16 -49 69c0 75 24 118 51 118c15 0 23 -5 26 -17c-19 -18 -28 -59 -28 -78zM212 606c29 0 46 -15 46 -45c0 -32 -17 -47 -46 -47c-31 0 -49 16 -49 69c0 75 24 118 51 118c15 0 23 -5 26 -17
c-19 -18 -28 -59 -28 -78z" />
    <glyph glyph-name="quotedblright" unicode="&#x201d;" horiz-adv-x="298" 
d="M86 609c-29 0 -46 15 -46 45c0 32 17 47 46 47c31 0 49 -16 49 -69c0 -75 -24 -118 -51 -118c-15 0 -23 5 -26 17c19 18 28 59 28 78zM209 609c-29 0 -46 15 -46 45c0 32 17 47 46 47c31 0 49 -16 49 -69c0 -75 -24 -118 -51 -118c-15 0 -23 5 -26 17c19 18 28 59 28 78z
" />
    <glyph glyph-name="quoteleft" unicode="&#x2018;" horiz-adv-x="175" 
d="M89 605c29 0 46 -15 46 -45c0 -32 -17 -47 -46 -47c-31 0 -49 16 -49 69c0 75 24 118 51 118c15 0 23 -5 26 -17c-19 -18 -28 -59 -28 -78z" />
    <glyph glyph-name="quoteright" unicode="&#x2019;" horiz-adv-x="175" 
d="M86 608c-29 0 -46 15 -46 45c0 32 17 47 46 47c31 0 49 -16 49 -69c0 -75 -24 -118 -51 -118c-15 0 -23 5 -26 17c19 18 28 59 28 78z" />
    <glyph glyph-name="quotesinglbase" unicode="&#x201a;" horiz-adv-x="175" 
d="M86 0c-29 0 -46 15 -46 45c0 32 17 47 46 47c31 0 49 -16 49 -69c0 -75 -24 -118 -51 -118c-15 0 -23 5 -26 17c19 18 28 59 28 78z" />
    <glyph glyph-name="quotesingle" unicode="'" horiz-adv-x="174" 
d="M49 528v149c0 18 11 24 35 24c31 0 41 -13 41 -56c0 -85 -17 -127 -43 -127c-17 0 -26 4 -33 10z" />
    <glyph glyph-name="r" unicode="r" horiz-adv-x="426" 
d="M99 482c48 0 77 -20 77 -83v-5c41 53 100 98 156 98c54 0 86 -27 86 -84c0 -41 -18 -55 -44 -55c-12 0 -23 6 -29 12c0 26 -11 44 -44 44c-43 0 -90 -35 -125 -87v-313c-7 -6 -23 -9 -42 -9s-36 5 -36 36v344c0 21 -9 31 -25 31h-37c-4 11 -6 20 -6 33c0 21 26 38 69 38z
" />
    <glyph glyph-name="r.sc" unicode="&#xf772;" horiz-adv-x="584" 
d="M131 557h184c92 0 172 -41 172 -155c0 -87 -63 -140 -133 -157c52 -65 91 -180 148 -180h25c3 -5 6 -13 6 -25c0 -24 -16 -40 -55 -40c-90 0 -125 155 -196 239h-114v-231c-7 -5 -22 -8 -37 -8c-20 0 -37 5 -37 33v518c8 4 20 6 37 6zM301 499h-133v-202h122
c70 0 126 33 126 103c0 71 -46 99 -115 99z" />
    <glyph glyph-name="racute" unicode="&#x155;" horiz-adv-x="426" 
d="M99 482c48 0 77 -20 77 -83v-5c41 53 100 98 156 98c54 0 86 -27 86 -84c0 -41 -18 -55 -44 -55c-12 0 -23 6 -29 12c0 26 -11 44 -44 44c-43 0 -90 -35 -125 -87v-313c-7 -6 -23 -9 -42 -9s-36 5 -36 36v344c0 21 -9 31 -25 31h-37c-4 11 -6 20 -6 33c0 21 26 38 69 38z
M159 578c34 19 117 112 158 112c28 0 38 -15 38 -34c-50 -27 -127 -106 -161 -106c-19 0 -31 10 -35 28z" />
    <glyph glyph-name="racute.sc" horiz-adv-x="584" 
d="M131 557h184c92 0 172 -41 172 -155c0 -87 -63 -140 -133 -157c52 -65 91 -180 148 -180h25c3 -5 6 -13 6 -25c0 -24 -16 -40 -55 -40c-90 0 -125 155 -196 239h-114v-231c-7 -5 -22 -8 -37 -8c-20 0 -37 5 -37 33v518c8 4 20 6 37 6zM301 499h-133v-202h122
c70 0 126 33 126 103c0 71 -46 99 -115 99zM193 655c34 19 117 112 158 112c28 0 38 -15 38 -34c-50 -27 -127 -106 -161 -106c-19 0 -31 10 -35 28z" />
    <glyph glyph-name="radical" unicode="&#x221a;" horiz-adv-x="602" 
d="M34 358h178l101 -287l184 605c5 16 17 24 40 24c20 0 30 -4 43 -12l-215 -679c-12 -5 -31 -9 -59 -9c-30 0 -46 13 -54 38l-97 254h-105c-14 0 -24 13 -24 33c0 11 4 22 8 33z" />
    <glyph glyph-name="rcaron" unicode="&#x159;" horiz-adv-x="426" 
d="M99 482c48 0 77 -20 77 -83v-5c41 53 100 98 156 98c54 0 86 -27 86 -84c0 -41 -18 -55 -44 -55c-12 0 -23 6 -29 12c0 26 -11 44 -44 44c-43 0 -90 -35 -125 -87v-313c-7 -6 -23 -9 -42 -9s-36 5 -36 36v344c0 21 -9 31 -25 31h-37c-4 11 -6 20 -6 33c0 21 26 38 69 38z
M226 551c-8 0 -13 2 -17 5c-38 17 -101 78 -144 101c1 19 17 34 39 34c29 0 83 -50 123 -84c41 34 95 84 124 84c21 0 38 -15 39 -34c-43 -23 -105 -83 -144 -101c-4 -2 -9 -5 -20 -5z" />
    <glyph glyph-name="rcaron.sc" horiz-adv-x="584" 
d="M131 557h184c92 0 172 -41 172 -155c0 -87 -63 -140 -133 -157c52 -65 91 -180 148 -180h25c3 -5 6 -13 6 -25c0 -24 -16 -40 -55 -40c-90 0 -125 155 -196 239h-114v-231c-7 -5 -22 -8 -37 -8c-20 0 -37 5 -37 33v518c8 4 20 6 37 6zM301 499h-133v-202h122
c70 0 126 33 126 103c0 71 -46 99 -115 99zM269 628c-8 0 -13 2 -17 5c-38 17 -101 78 -144 101c1 19 17 34 39 34c29 0 83 -50 123 -84c41 34 95 84 124 84c21 0 38 -15 39 -34c-43 -23 -105 -83 -144 -101c-4 -2 -9 -5 -20 -5z" />
    <glyph glyph-name="rcommaaccent" unicode="&#x157;" horiz-adv-x="426" 
d="M142 -143c-26 0 -43 15 -43 43c0 29 16 43 43 43c29 0 47 -15 47 -65c0 -70 -23 -111 -48 -111c-15 0 -22 4 -25 16c18 18 26 56 26 74zM99 482c48 0 77 -20 77 -83v-5c41 53 100 98 156 98c54 0 86 -27 86 -84c0 -41 -18 -55 -44 -55c-12 0 -23 6 -29 12
c0 26 -11 44 -44 44c-43 0 -90 -35 -125 -87v-313c-7 -6 -23 -9 -42 -9s-36 5 -36 36v344c0 21 -9 31 -25 31h-37c-4 11 -6 20 -6 33c0 21 26 38 69 38z" />
    <glyph glyph-name="rcommaaccent.sc" horiz-adv-x="584" 
d="M131 557h184c92 0 172 -41 172 -155c0 -87 -63 -140 -133 -157c52 -65 91 -180 148 -180h25c3 -5 6 -13 6 -25c0 -24 -16 -40 -55 -40c-90 0 -125 155 -196 239h-114v-231c-7 -5 -22 -8 -37 -8c-20 0 -37 5 -37 33v518c8 4 20 6 37 6zM301 499h-133v-202h122
c70 0 126 33 126 103c0 71 -46 99 -115 99zM287 -156c-29 0 -46 15 -46 45c0 32 17 47 46 47c31 0 49 -16 49 -69c0 -75 -24 -118 -51 -118c-15 0 -23 5 -26 17c19 18 28 59 28 78z" />
    <glyph glyph-name="registered" unicode="&#xae;" horiz-adv-x="583" 
d="M37 447c0 156 99 255 254 255s255 -99 255 -255c0 -155 -100 -254 -255 -254s-254 99 -254 254zM86 448c0 -126 79 -207 205 -207c127 0 206 81 206 207c0 127 -79 205 -206 205c-126 0 -205 -78 -205 -205zM223 577h84c42 0 83 -20 83 -76c0 -40 -27 -64 -57 -74
c21 -27 37 -71 61 -71h13c3 -3 4 -8 4 -16c0 -16 -10 -27 -33 -27c-46 0 -57 66 -90 109h-41v-104c-3 -3 -15 -5 -25 -5c-12 0 -24 3 -24 23v237c5 3 14 4 25 4zM300 538h-53v-79h47c30 0 50 15 50 41s-19 38 -44 38z" />
    <glyph glyph-name="ring" unicode="&#x2da;" horiz-adv-x="464" 
d="M144 633c0 58 29 88 88 88c58 0 88 -32 88 -88c0 -57 -30 -88 -88 -88c-59 0 -88 31 -88 88zM185 633c0 -30 16 -47 47 -47c30 0 47 17 47 47c0 29 -17 47 -47 47c-32 0 -47 -16 -47 -47z" />
    <glyph glyph-name="rsuperior" unicode="&#xf6f1;" horiz-adv-x="238" 
d="M60 594c24 0 42 -8 45 -38c22 24 51 43 78 43c30 0 46 -15 46 -46c0 -28 -12 -37 -30 -37c-7 0 -15 3 -19 7c0 13 -5 22 -20 22c-19 0 -39 -11 -54 -31v-158c-4 -4 -16 -6 -28 -6s-24 3 -24 23v161c0 11 -5 16 -12 16h-20c-2 7 -4 12 -4 20c0 13 16 24 42 24z" />
    <glyph glyph-name="s" unicode="s" horiz-adv-x="456" 
d="M225 492c110 0 165 -43 165 -76c0 -19 -7 -34 -18 -40c-22 20 -80 39 -149 39c-70 0 -96 -29 -96 -63c0 -42 35 -60 115 -75c117 -20 165 -62 165 -147c0 -88 -59 -140 -178 -140c-108 0 -182 41 -182 77c0 21 5 32 16 42c29 -22 102 -50 161 -50c84 0 113 32 113 70
c0 45 -31 65 -113 80c-121 21 -166 58 -166 147c0 77 56 136 167 136z" />
    <glyph glyph-name="s.sc" unicode="&#xf773;" horiz-adv-x="529" 
d="M261 565c98 0 148 -25 172 -48c11 -10 15 -23 15 -35c0 -14 -9 -26 -18 -35c-28 19 -81 41 -169 41c-84 0 -120 -33 -120 -76c0 -44 35 -70 144 -98c127 -31 186 -69 188 -165c1 -93 -66 -157 -208 -157c-80 0 -137 16 -173 38c-25 15 -37 32 -37 49s6 30 13 37
c43 -32 118 -52 194 -52c102 0 137 38 137 82c0 47 -30 73 -138 99c-140 34 -193 74 -193 169c0 87 62 151 193 151z" />
    <glyph glyph-name="sacute" unicode="&#x15b;" horiz-adv-x="456" 
d="M227 492c110 0 165 -43 165 -76c0 -19 -7 -34 -18 -40c-22 20 -80 39 -149 39c-70 0 -96 -29 -96 -63c0 -42 35 -60 115 -75c117 -20 165 -62 165 -147c0 -88 -59 -140 -178 -140c-108 0 -182 41 -182 77c0 21 5 32 16 42c29 -22 102 -50 161 -50c84 0 113 32 113 70
c0 45 -31 65 -113 80c-121 21 -166 58 -166 147c0 77 56 136 167 136zM157 578c34 19 117 112 158 112c28 0 38 -15 38 -34c-50 -27 -127 -106 -161 -106c-19 0 -31 10 -35 28z" />
    </font>
</defs>
</svg>
