<?xml version="1.0" standalone="no"?>
<!DOCTYPE svg PUBLIC "-//W3C//DTD SVG 1.1//EN" "http://www.w3.org/Graphics/SVG/1.1/DTD/svg11.dtd" >
<svg xmlns="http://www.w3.org/2000/svg" xmlns:xlink="http://www.w3.org/1999/xlink" version="1.1">
<metadata>
Created by FontForge 20190801 at Sat Jun 23 15:54:00 2012
 By Jimmy Wärting
Copyright (c) 2012 by Samuel Carnoky / CarnokyType. All rights reserved.
</metadata>
<defs>
<font id="SamoSansPro-Regular" horiz-adv-x="550" >
  <font-face 
    font-family="Samo Sans Pro Rg"
    font-weight="400"
    font-stretch="normal"
    units-per-em="1000"
    panose-1="2 0 5 3 7 0 0 2 0 4"
    ascent="737"
    descent="-263"
    x-height="466"
    cap-height="655"
    bbox="-180 -294 1297 947"
    underline-thickness="60"
    underline-position="-140"
    stemh="69"
    stemv="80"
    unicode-range="U+0020-FB06"
  />
<missing-glyph horiz-adv-x="500" 
d="M0 -263v1000h500v-1000h-500zM321 200c-11 -9 -36 -17 -55 -17c-54 0 -76 35 -76 86c0 41 23 76 69 76c30 0 48 -11 63 -18l7 25c-13 13 -40 24 -69 24c-66 0 -107 -41 -107 -113c0 -56 31 -111 103 -111c27 0 55 9 73 31zM249 459c-107 0 -195 -88 -195 -195
c0 -108 88 -196 195 -196c108 0 195 88 195 196c0 107 -87 195 -195 195zM249 102c-89 0 -161 72 -161 162c0 89 72 163 161 163c90 0 164 -74 164 -163c0 -90 -74 -162 -164 -162zM248 530l-41 42l-13 -9l46 -71h16l46 71l-13 9z" />
    <glyph glyph-name="ellipsis" unicode="&#x2e;&#x2e;&#x2e;" horiz-adv-x="831" 
d="M85 41c0 32 25 58 57 58s58 -26 58 -58s-26 -57 -58 -57s-57 25 -57 57zM358 41c0 32 25 58 57 58s58 -26 58 -58s-26 -57 -58 -57s-57 25 -57 57zM631 41c0 32 25 58 57 58s58 -26 58 -58s-26 -57 -58 -57s-57 25 -57 57z" />
    <glyph glyph-name="ff" unicode="ff" horiz-adv-x="636" 
d="M392 397h-211v-397h-80v397h-76v44l76 19v85c0 122 64 199 171 199c20 0 43 -3 63 -12l-15 -58c-13 3 -26 5 -38 5c-74 0 -101 -44 -101 -150v-63h211v84c0 122 61 203 173 203c53 0 94 -14 121 -33l-15 -58c-26 12 -63 22 -96 22c-69 0 -103 -44 -103 -150v-68h154v-69
h-154v-397h-80v397z" />
    <glyph glyph-name="fi" unicode="fi" horiz-adv-x="546" 
d="M25 441l76 19v85c0 122 84 208 211 208c78 0 128 -24 147 -38l-15 -58c-31 14 -80 27 -132 27c-95 0 -131 -64 -131 -150v-68h290v-466h-80v397h-210v-397h-80v397h-76v44z" />
    <glyph glyph-name="ffi" unicode="ffi" horiz-adv-x="837" 
d="M762 0h-80v397h-210v-397h-80v397h-211v-397h-80v397h-76v44l76 19v85c0 122 64 199 171 199c20 0 43 -3 63 -12l-15 -58c-13 3 -26 5 -38 5c-74 0 -101 -44 -101 -150v-63h211v79c0 122 84 208 211 208c78 0 128 -24 147 -38l-15 -58c-31 14 -80 27 -132 27
c-95 0 -131 -64 -131 -150v-68h290v-466z" />
    <glyph glyph-name="f_iacute" unicode="f&#xed;" horiz-adv-x="581" 
d="M25 441l76 19v85c0 131 57 208 162 208c38 0 77 -11 112 -33l-15 -58c-29 14 -57 22 -84 22c-68 0 -95 -44 -95 -150v-68h300v-466h-80v397h-220v-397h-80v397h-76v44zM569 686l-149 -146l-32 21l111 170z" />
    <glyph glyph-name="fl" unicode="fl" horiz-adv-x="556" 
d="M481 0h-80v676c-24 5 -61 8 -89 8c-95 0 -131 -64 -131 -150v-68h154v-69h-154v-397h-80v397h-76v44l76 19v85c0 122 84 208 211 208c53 0 115 -10 169 -16v-737z" />
    <glyph glyph-name="ffl" unicode="ffl" horiz-adv-x="847" 
d="M772 0h-80v676c-24 5 -61 8 -89 8c-95 0 -131 -64 -131 -150v-68h162v-69h-162v-397h-80v397h-211v-397h-80v397h-76v44l76 19v85c0 122 64 199 171 199c20 0 43 -3 63 -12l-15 -58c-13 3 -26 5 -38 5c-74 0 -101 -44 -101 -150v-63h211v79c0 122 84 208 211 208
c53 0 115 -10 169 -16v-737z" />
    <glyph glyph-name="f_lcaron" unicode="f&#x13e;" horiz-adv-x="556" 
d="M481 0h-80v676c-24 5 -61 8 -89 8c-95 0 -131 -64 -131 -150v-68h154v-69h-154v-397h-80v397h-76v44l76 19v85c0 122 84 208 211 208c53 0 115 -10 169 -16v-737zM624 737l-43 -194h-40v194h83z" />
    <glyph glyph-name="f_j" unicode="fj" horiz-adv-x="546" 
d="M25 441l76 19v85c0 122 84 208 211 208c78 0 128 -24 147 -38l-15 -58c-31 14 -80 27 -132 27c-95 0 -131 -64 -131 -150v-68h290v-579c0 -107 -65 -145 -129 -145c-36 0 -71 12 -96 34l20 36c20 -7 38 -11 53 -11c48 0 72 37 72 104v492h-210v-397h-80v397h-76v44z" />
    <glyph glyph-name="f_f_j" unicode="ffj" horiz-adv-x="837" 
d="M392 545c0 122 84 208 211 208c78 0 128 -24 147 -38l-15 -58c-31 14 -80 27 -132 27c-95 0 -131 -64 -131 -150v-68h290v-579c0 -107 -65 -145 -129 -145c-36 0 -71 12 -96 34l20 36c20 -7 38 -11 53 -11c48 0 72 37 72 104v492h-210v-397h-80v397h-211v-397h-80v397
h-76v44l76 19v85c0 122 64 199 171 199c20 0 43 -3 63 -12l-15 -58c-13 3 -26 5 -38 5c-74 0 -101 -44 -101 -150v-63h211v79z" />
    <glyph glyph-name="f_b" unicode="fb" horiz-adv-x="873" 
d="M25 441l76 19v85c0 122 84 208 211 208c53 0 115 -10 169 -16v-305c38 32 86 50 137 50c132 0 210 -113 210 -245c0 -160 -96 -253 -211 -253c-52 0 -106 21 -147 71l-25 -55h-44v676c-24 5 -61 8 -89 8c-95 0 -131 -64 -131 -150v-68h154v-69h-154v-397h-80v397h-76v44z
M601 411c-46 0 -94 -19 -120 -47v-243c26 -46 71 -66 123 -66c88 0 141 73 141 165c0 95 -39 191 -144 191z" />
    <glyph glyph-name="f_f_b" unicode="ffb" horiz-adv-x="1164" 
d="M392 545c0 122 84 208 211 208c53 0 115 -10 169 -16v-305c38 32 86 50 137 50c132 0 210 -113 210 -245c0 -160 -96 -253 -211 -253c-52 0 -106 21 -147 71l-25 -55h-44v676c-24 5 -61 8 -89 8c-95 0 -131 -64 -131 -150v-68h154v-69h-154v-397h-80v397h-211v-397h-80
v397h-76v44l76 19v85c0 122 64 199 171 199c20 0 43 -3 63 -12l-15 -58c-13 3 -26 5 -38 5c-74 0 -101 -44 -101 -150v-63h211v79zM892 411c-46 0 -94 -19 -120 -47v-243c26 -46 71 -66 123 -66c88 0 141 73 141 165c0 95 -39 191 -144 191z" />
    <glyph glyph-name="f_h" unicode="fh" horiz-adv-x="864" 
d="M481 351v-351h-80v676c-24 5 -61 8 -89 8c-95 0 -131 -64 -131 -150v-68h154v-69h-154v-397h-80v397h-76v44l76 19v85c0 122 84 208 211 208c53 0 115 -10 169 -16v-315c41 33 101 60 166 60c85 0 144 -45 144 -160v-322h-80v293c0 72 -18 118 -102 118
c-45 0 -106 -34 -128 -60z" />
    <glyph glyph-name="f_f_h" unicode="ffh" horiz-adv-x="1155" 
d="M772 351v-351h-80v676c-24 5 -61 8 -89 8c-95 0 -131 -64 -131 -150v-68h154v-69h-154v-397h-80v397h-211v-397h-80v397h-76v44l76 19v85c0 122 64 199 171 199c20 0 43 -3 63 -12l-15 -58c-13 3 -26 5 -38 5c-74 0 -101 -44 -101 -150v-63h211v79c0 122 84 208 211 208
c53 0 115 -10 169 -16v-315c41 33 101 60 166 60c85 0 144 -45 144 -160v-322h-80v293c0 72 -18 118 -102 118c-45 0 -106 -34 -128 -60z" />
    <glyph glyph-name="f_k" unicode="fk" horiz-adv-x="813" 
d="M481 0h-80v676c-24 5 -61 8 -89 8c-95 0 -131 -64 -131 -150v-68h154v-69h-154v-397h-80v397h-76v44l76 19v85c0 122 84 208 211 208c53 0 115 -10 169 -16v-463h50l160 192h97l-180 -210l180 -256h-95l-144 205h-68v-205z" />
    <glyph glyph-name="f_f_k" unicode="ffk" horiz-adv-x="1104" 
d="M392 545c0 122 84 208 211 208c53 0 115 -10 169 -16v-463h50l160 192h97l-180 -210l180 -256h-95l-144 205h-68v-205h-80v676c-24 5 -61 8 -89 8c-95 0 -131 -64 -131 -150v-68h154v-69h-154v-397h-80v397h-211v-397h-80v397h-76v44l76 19v85c0 122 64 199 171 199
c20 0 43 -3 63 -12l-15 -58c-13 3 -26 5 -38 5c-74 0 -101 -44 -101 -150v-63h211v79z" />
    <glyph glyph-name="f_t" unicode="ft" horiz-adv-x="676" 
d="M25 441l76 19v90c0 122 61 203 173 203c53 0 94 -14 121 -33l-15 -58c-26 12 -63 22 -96 22c-69 0 -103 -44 -103 -150v-68h220l35 119h40v-119h165v-69h-165v-245c0 -71 27 -102 83 -102c24 0 39 3 62 12l20 -36c-23 -22 -68 -37 -110 -37c-89 0 -135 44 -135 145v263
h-215v-397h-80v397h-76v44z" />
    <glyph glyph-name="a_j" unicode="&#x105;j" horiz-adv-x="725" 
d="M74 428c47 33 115 54 166 54c142 0 180 -80 180 -205v-277c-68 -21 -117 -71 -117 -131c0 -32 24 -55 66 -55c96 0 186 86 186 171v481h80v-469c0 -142 -141 -242 -294 -242c-65 0 -121 29 -121 90c0 85 75 143 147 173l-16 37c-30 -38 -84 -71 -155 -71
c-87 0 -149 52 -149 138c0 126 130 149 225 149h68v20c0 84 -34 120 -114 120c-50 0 -109 -23 -137 -41zM340 109v106h-51c-67 0 -161 -9 -161 -84c0 -45 31 -81 95 -81c54 0 101 29 117 59zM541 616c0 30 24 55 54 55s55 -25 55 -55s-25 -54 -55 -54s-54 24 -54 54z" />
    <glyph glyph-name="longs_i" unicode="&#x17f;i" horiz-adv-x="526" 
d="M25 441l76 19v85c0 122 64 208 191 208c78 0 118 -24 137 -38l-15 -58c-31 14 -70 27 -122 27c-85 0 -111 -54 -111 -150v-534h-80v397h-76v44zM441 0h-80v466h80v-466z" />
    <glyph glyph-name="longs_l" unicode="&#x17f;l" horiz-adv-x="526" 
d="M451 0h-80v676c-24 5 -51 8 -79 8c-95 0 -111 -64 -111 -150v-534h-80v397h-76v44l76 19v85c0 122 64 208 191 208c53 0 105 -10 159 -16v-737z" />
    <glyph glyph-name="longs_longs" unicode="&#x17f;&#x17f;" horiz-adv-x="551" 
d="M286 441l76 19v90c0 43 8 82 23 113c-22 10 -52 19 -93 19c-85 0 -111 -52 -111 -148v-534h-80v397h-76v44l76 19v85c0 122 64 203 191 203c62 0 107 -18 132 -33c28 24 65 38 111 38c53 0 94 -14 121 -33l-15 -58c-26 12 -63 22 -96 22c-69 0 -103 -44 -103 -150v-534
h-80v397h-76v44z" />
    <glyph glyph-name="longs_h" unicode="&#x17f;h" horiz-adv-x="834" 
d="M451 351v-351h-80v676c-24 5 -51 8 -79 8c-95 0 -111 -64 -111 -150v-534h-80v397h-76v44l76 19v85c0 122 64 208 191 208c53 0 105 -10 159 -16v-315c41 33 101 60 166 60c85 0 144 -45 144 -160v-322h-80v293c0 72 -18 118 -102 118c-45 0 -106 -34 -128 -60z" />
    <glyph glyph-name="longs_t" unicode="&#x17f;t" horiz-adv-x="626" 
d="M270 441l80 20l36 124h40v-119h165v-69h-165v-245c0 -71 27 -102 83 -102c24 0 39 3 62 12l20 -36c-23 -22 -68 -37 -110 -37c-89 0 -135 44 -135 145v263h-76v44zM25 441l76 19v90c0 122 61 203 173 203c53 0 94 -14 121 -33l-15 -58c-26 12 -63 22 -96 22
c-69 0 -103 -44 -103 -150v-534h-80v397h-76v44z" />
    <glyph glyph-name=".notdef" horiz-adv-x="500" 
d="M0 -263v1000h500v-1000h-500zM321 200c-11 -9 -36 -17 -55 -17c-54 0 -76 35 -76 86c0 41 23 76 69 76c30 0 48 -11 63 -18l7 25c-13 13 -40 24 -69 24c-66 0 -107 -41 -107 -113c0 -56 31 -111 103 -111c27 0 55 9 73 31zM249 459c-107 0 -195 -88 -195 -195
c0 -108 88 -196 195 -196c108 0 195 88 195 196c0 107 -87 195 -195 195zM249 102c-89 0 -161 72 -161 162c0 89 72 163 161 163c90 0 164 -74 164 -163c0 -90 -74 -162 -164 -162zM248 530l-41 42l-13 -9l46 -71h16l46 71l-13 9z" />
    <glyph glyph-name="space" unicode=" " horiz-adv-x="250" 
 />
    <glyph glyph-name="exclam" unicode="!" horiz-adv-x="325" 
d="M137 215l-22 440h96l-22 -440h-52zM105 41c0 32 25 58 57 58s58 -26 58 -58s-26 -57 -58 -57s-57 25 -57 57z" />
    <glyph glyph-name="quotedbl" unicode="&#x22;" horiz-adv-x="315" 
d="M126 737l-29 -223h-40l-27 223h96zM285 737l-29 -223h-40l-27 223h96z" />
    <glyph glyph-name="numbersign" unicode="#" horiz-adv-x="528" 
d="M35 213h68l40 226h-60v59h70l28 157h69l-28 -157h143l28 157h70l-28 -157h58v-59h-68l-40 -226h59v-59h-70l-27 -154h-69l27 154h-144l-27 -154h-69l27 154h-57v59zM212 439l-40 -226h143l40 226h-143z" />
    <glyph glyph-name="dollar" unicode="$" horiz-adv-x="521" 
d="M246 60c62 0 142 26 142 101c0 146 -334 125 -334 329c0 107 76 168 178 179v88h59v-87c70 -6 135 -37 166 -62l-17 -66c-55 34 -121 53 -175 53c-67 0 -123 -35 -123 -100c0 -132 334 -120 334 -321c0 -129 -97 -178 -185 -188v-88h-59v88c-71 5 -139 31 -191 81l29 52
c43 -33 111 -59 176 -59z" />
    <glyph glyph-name="percent" unicode="%" horiz-adv-x="778" 
d="M353 474c0 -99 -64 -165 -151 -165c-100 0 -152 81 -152 179c0 109 66 168 152 168c100 0 151 -73 151 -182zM291 469c0 66 -22 132 -93 132c-55 0 -85 -54 -85 -108c0 -65 26 -128 94 -128c58 0 84 51 84 104zM728 155c0 -99 -64 -165 -151 -165
c-100 0 -152 81 -152 179c0 109 66 168 152 168c100 0 151 -73 151 -182zM666 150c0 66 -22 132 -93 132c-55 0 -85 -54 -85 -108c0 -65 26 -128 94 -128c58 0 84 51 84 104zM593 639l-354 -639h-59l354 639h59z" />
    <glyph glyph-name="ampersand" unicode="&#x26;" horiz-adv-x="644" 
d="M277 55c48 0 101 22 134 60l-168 171c-48 -32 -100 -58 -100 -126c0 -77 68 -105 134 -105zM386 508c0 45 -40 97 -108 97c-59 0 -97 -47 -97 -84c0 -67 41 -100 82 -143c74 39 123 71 123 130zM581 -55l-119 119c-54 -50 -119 -80 -198 -80c-94 0 -209 56 -209 175
c0 97 81 149 136 180c-45 45 -91 89 -91 162c0 111 88 170 178 170c109 0 188 -75 188 -175c0 -83 -86 -135 -150 -170l144 -147c29 41 49 100 53 188h79c-6 -100 -39 -183 -80 -241l127 -126z" />
    <glyph glyph-name="quotesingle" unicode="'" horiz-adv-x="156" 
d="M126 737l-29 -223h-40l-27 223h96z" />
    <glyph glyph-name="parenleft" unicode="(" horiz-adv-x="351" 
d="M302 -209c-168 125 -247 299 -247 462c0 162 87 353 243 479l28 -50c-122 -107 -185 -278 -185 -421c0 -142 62 -315 185 -427z" />
    <glyph glyph-name="parenright" unicode=")" horiz-adv-x="361" 
d="M59 -209l-24 43c123 112 185 285 185 427c0 143 -63 314 -185 421l28 50c156 -126 243 -317 243 -479c0 -163 -79 -337 -247 -462z" />
    <glyph glyph-name="asterisk" unicode="*" horiz-adv-x="476" 
d="M282 737v-132l121 31l18 -30l-114 -66l87 -89l-17 -30l-114 66l-34 -121h-35v131l-121 -30l-18 30l114 65l-87 90l17 30l114 -66l34 121h35z" />
    <glyph glyph-name="plus" unicode="+" horiz-adv-x="526" 
d="M297 493v-193h194v-69h-194v-194h-69v194h-193v69h193v193h69z" />
    <glyph glyph-name="comma" unicode="," horiz-adv-x="250" 
d="M179 83l-57 -239h-39v239h96z" />
    <glyph glyph-name="hyphen" unicode="-" horiz-adv-x="330" 
d="M285 205h-240v69h240v-69z" />
    <glyph glyph-name="period" unicode="." horiz-adv-x="245" 
d="M65 41c0 32 25 58 57 58s58 -26 58 -58s-26 -57 -58 -57s-57 25 -57 57z" />
    <glyph glyph-name="slash" unicode="/" horiz-adv-x="436" 
d="M361 655l-231 -794h-75l231 794h75z" />
    <glyph glyph-name="zero" unicode="0" horiz-adv-x="520" 
d="M480 303c0 -150 -58 -319 -220 -319c-173 0 -220 192 -220 340c0 169 60 331 220 331c172 0 220 -184 220 -352zM392 290c0 98 -8 289 -140 289c-101 0 -124 -142 -124 -240c0 -97 14 -279 140 -279c96 0 124 133 124 230z" />
    <glyph glyph-name="one" unicode="1" horiz-adv-x="383" 
d="M35 588l233 67v-655h-85v544h-148v44z" />
    <glyph glyph-name="two" unicode="2" horiz-adv-x="500" 
d="M63 526l-17 66c34 28 98 63 177 63c112 0 207 -73 207 -200c0 -132 -126 -286 -257 -381h284v-74h-415v59c111 76 300 242 300 393c0 72 -42 127 -137 127c-50 0 -105 -26 -142 -53z" />
    <glyph glyph-name="three" unicode="3" horiz-adv-x="495" 
d="M357 192c0 99 -107 108 -211 108v69c95 4 176 39 176 115c0 58 -55 95 -115 95c-55 0 -100 -21 -140 -53l-17 66c34 31 97 63 171 63c103 0 189 -63 189 -159c0 -74 -64 -134 -139 -152c73 -8 174 -35 174 -159c0 -123 -122 -196 -280 -196c-64 0 -114 12 -114 12l17 66
s43 -6 86 -6c117 0 203 44 203 131z" />
    <glyph glyph-name="four" unicode="4" horiz-adv-x="520" 
d="M485 158h-100v-158h-85v158h-265v59l269 422h81v-412h100v-69zM300 227v297l-181 -297h181z" />
    <glyph glyph-name="five" unicode="5" horiz-adv-x="500" 
d="M455 205c0 -123 -101 -216 -279 -216c-64 0 -114 12 -114 12l17 66s43 -6 86 -6c117 0 202 43 202 130c0 91 -65 128 -135 128c-42 0 -85 -15 -119 -35l-36 20v335h336v-74h-257v-198c29 12 67 23 105 23c128 0 194 -87 194 -185z" />
    <glyph glyph-name="six" unicode="6" horiz-adv-x="510" 
d="M125 315c45 61 106 78 147 78c130 0 197 -92 197 -196c0 -106 -70 -213 -210 -213c-128 0 -219 106 -219 291c0 199 94 375 290 375c67 0 95 -14 95 -14l-17 -66s-34 8 -67 8c-153 0 -216 -150 -216 -263zM260 318c-56 0 -104 -28 -130 -70c1 -99 43 -189 141 -189
c74 0 111 62 111 127c0 70 -43 132 -122 132z" />
    <glyph glyph-name="seven" unicode="7" horiz-adv-x="450" 
d="M420 565l-215 -565h-90l224 565h-319v74h400v-74z" />
    <glyph glyph-name="eight" unicode="8" horiz-adv-x="510" 
d="M61 486c0 112 93 169 189 169c95 0 189 -57 189 -167c0 -76 -57 -123 -108 -151c71 -35 136 -80 136 -166c0 -123 -105 -187 -213 -187c-107 0 -211 58 -211 184c0 83 62 135 117 166c-55 33 -99 77 -99 152zM129 176c0 -82 68 -121 134 -121c61 0 118 38 118 114
c0 71 -84 99 -166 137c-40 -23 -86 -65 -86 -130zM353 476c0 62 -38 108 -105 108c-55 0 -101 -37 -101 -98c0 -60 59 -92 126 -123c42 26 80 62 80 113z" />
    <glyph glyph-name="nine" unicode="9" horiz-adv-x="510" 
d="M240 241c-132 0 -200 113 -200 210c0 114 76 204 206 204c157 0 224 -138 224 -299c0 -168 -54 -367 -285 -367c-64 0 -94 12 -94 12l17 66s23 -6 66 -6c174 0 210 128 211 250c-32 -49 -96 -70 -145 -70zM244 580c-66 0 -116 -47 -116 -118c0 -95 59 -145 134 -145
c59 0 106 32 122 61c0 126 -56 202 -140 202z" />
    <glyph glyph-name="colon" unicode=":" horiz-adv-x="325" 
d="M105 424c0 32 25 58 57 58s58 -26 58 -58s-26 -57 -58 -57s-57 25 -57 57zM105 41c0 32 25 58 57 58s58 -26 58 -58s-26 -57 -58 -57s-57 25 -57 57z" />
    <glyph glyph-name="semicolon" unicode=";" horiz-adv-x="330" 
d="M214 83l-57 -239h-39v239h96zM105 424c0 32 25 58 57 58s58 -26 58 -58s-26 -57 -58 -57s-57 25 -57 57z" />
    <glyph glyph-name="less" unicode="&#x3c;" horiz-adv-x="526" 
d="M491 35l-456 201v64l456 201v-79l-361 -154l361 -154v-79z" />
    <glyph glyph-name="equal" unicode="=" horiz-adv-x="526" 
d="M491 320h-456v69h456v-69zM491 142h-456v69h456v-69z" />
    <glyph glyph-name="greater" unicode="&#x3e;" horiz-adv-x="526" 
d="M481 236l-456 -201v79l361 154l-361 154v79l456 -201v-64z" />
    <glyph glyph-name="question" unicode="?" horiz-adv-x="438" 
d="M216 310v-95h-44l-35 152h24c101 2 140 48 140 99c0 85 -78 127 -162 127c-18 0 -36 -2 -54 -5l-17 66c33 6 57 8 83 8c145 0 237 -92 237 -197c0 -69 -53 -145 -172 -155zM128 41c0 32 25 58 57 58s58 -26 58 -58s-26 -57 -58 -57s-57 25 -57 57z" />
    <glyph glyph-name="at" unicode="@" horiz-adv-x="670" 
d="M515 323c0 84 -61 120 -146 120c-128 0 -231 -94 -231 -250c0 -154 64 -295 264 -295c65 0 130 30 164 57l22 -42s-68 -86 -208 -86c-254 0 -325 192 -325 344c0 184 102 343 328 343c147 0 212 -80 212 -205v-277h-39l-30 55c-30 -38 -84 -71 -155 -71
c-87 0 -149 52 -149 138c0 126 130 149 225 149h68v20zM515 141v106h-51c-67 0 -161 -9 -161 -84c0 -45 31 -81 95 -81c54 0 101 29 117 59z" />
    <glyph glyph-name="A" unicode="A" horiz-adv-x="632" 
d="M512 0l-61 170h-273l-60 -170h-93l247 655h90l245 -655h-95zM314 555l-110 -311h221z" />
    <glyph glyph-name="B" unicode="B" horiz-adv-x="591" 
d="M546 186c0 -117 -92 -186 -243 -186h-218v655h224c124 0 199 -64 199 -170c0 -87 -66 -132 -123 -146c64 -7 161 -44 161 -153zM458 183c0 94 -89 111 -172 111h-119v-220h121c98 0 170 23 170 109zM420 473c0 65 -28 108 -137 108h-116v-213h110c89 0 143 40 143 105z
" />
    <glyph glyph-name="C" unicode="C" horiz-adv-x="611" 
d="M358 -16c-234 0 -310 192 -310 344c0 184 102 343 318 343c89 0 156 -35 190 -63l-17 -66c-61 34 -114 53 -184 53c-118 0 -219 -99 -219 -245c0 -144 64 -289 254 -289c65 0 128 30 152 57l24 -43s-68 -91 -208 -91z" />
    <glyph glyph-name="D" unicode="D" horiz-adv-x="656" 
d="M608 314c0 -153 -97 -314 -320 -314h-203v655h209c234 0 314 -163 314 -341zM520 318c0 130 -49 263 -240 263h-110v-507h96c179 0 254 84 254 244z" />
    <glyph glyph-name="E" unicode="E" horiz-adv-x="548" 
d="M482 581h-312v-213h244v-74h-244v-220h333v-74h-418v655h397v-74z" />
    <glyph glyph-name="F" unicode="F" horiz-adv-x="507" 
d="M482 581h-312v-213h244v-74h-244v-294h-85v655h397v-74z" />
    <glyph glyph-name="G" unicode="G" horiz-adv-x="675" 
d="M366 264v74h234v-338h-44l-25 55c-32 -35 -100 -71 -183 -71c-219 0 -300 188 -300 340c0 174 102 347 338 347c99 0 176 -35 210 -63l-17 -66c-61 34 -124 53 -204 53c-138 0 -239 -113 -239 -249c0 -144 69 -285 251 -285c59 0 106 23 128 47v156h-149z" />
    <glyph glyph-name="H" unicode="H" horiz-adv-x="674" 
d="M504 0v294h-334v-294h-85v655h85v-287h334v287h85v-655h-85z" />
    <glyph glyph-name="I" unicode="I" horiz-adv-x="255" 
d="M170 655v-655h-85v655h85z" />
    <glyph glyph-name="J" unicode="J" horiz-adv-x="278" 
d="M198 655v-649c0 -107 -70 -145 -134 -145c-36 0 -71 12 -96 34l20 36c20 -7 38 -11 53 -11c48 0 72 37 72 104v631h85z" />
    <glyph glyph-name="K" unicode="K" horiz-adv-x="592" 
d="M170 0h-85v655h85v-287h74l211 287h96l-230 -312l256 -343h-106l-213 294h-88v-294z" />
    <glyph glyph-name="L" unicode="L" horiz-adv-x="499" 
d="M170 655v-581h304v-74h-389v655h85z" />
    <glyph glyph-name="M" unicode="M" horiz-adv-x="862" 
d="M218 655l216 -538l212 538h131v-655h-82v581l-228 -581h-72l-228 581v-581h-82v655h133z" />
    <glyph glyph-name="N" unicode="N" horiz-adv-x="684" 
d="M167 568v-568h-82v655h119l313 -513v513h82v-655h-85z" />
    <glyph glyph-name="O" unicode="O" horiz-adv-x="705" 
d="M136 350c0 -164 59 -291 228 -291c128 0 205 120 205 246c0 164 -59 290 -228 290c-128 0 -205 -119 -205 -245zM48 328c0 174 92 343 318 343c205 0 291 -181 291 -344c0 -174 -92 -343 -318 -343c-205 0 -291 181 -291 344z" />
    <glyph glyph-name="P" unicode="P" horiz-adv-x="553" 
d="M528 462c0 -146 -108 -212 -234 -212h-124v-250h-85v655h218c124 0 225 -56 225 -193zM440 451c0 100 -64 130 -173 130h-97v-257h92c112 0 178 32 178 127z" />
    <glyph glyph-name="Q" unicode="Q" horiz-adv-x="705" 
d="M48 328c0 174 92 343 318 343c205 0 291 -181 291 -344c0 -125 -47 -247 -157 -306l137 -125l-81 -53l-103 158c-33 -11 -71 -17 -114 -17c-205 0 -291 181 -291 344zM136 350c0 -164 59 -291 228 -291c128 0 205 120 205 246c0 164 -59 290 -228 290
c-128 0 -205 -119 -205 -245z" />
    <glyph glyph-name="R" unicode="R" horiz-adv-x="596" 
d="M528 467c0 -115 -73 -177 -160 -198l203 -269h-102l-192 260h-107v-260h-85v655h218c114 0 225 -51 225 -188zM440 456c0 100 -74 125 -173 125h-97v-249h92c102 0 178 24 178 124z" />
    <glyph glyph-name="S" unicode="S" horiz-adv-x="521" 
d="M246 60c62 0 142 26 142 101c0 146 -334 125 -334 329c0 119 94 181 213 181c79 0 156 -35 190 -63l-17 -66c-55 35 -121 53 -175 53c-67 0 -123 -35 -123 -100c0 -132 334 -120 334 -321c0 -144 -122 -190 -216 -190c-81 0 -160 27 -219 83l29 52
c43 -33 111 -59 176 -59z" />
    <glyph glyph-name="T" unicode="T" horiz-adv-x="555" 
d="M540 581h-220v-581h-85v581h-220v74h525v-74z" />
    <glyph glyph-name="U" unicode="U" horiz-adv-x="662" 
d="M502 655h85v-410c0 -153 -87 -261 -256 -261s-256 108 -256 261v410h85v-413c0 -113 63 -182 171 -182s171 69 171 182v413z" />
    <glyph glyph-name="V" unicode="V" horiz-adv-x="612" 
d="M310 100l195 555h92l-245 -655h-90l-247 655h93z" />
    <glyph glyph-name="W" unicode="W" horiz-adv-x="1020" 
d="M564 655l173 -554l177 554h91l-226 -655h-91l-179 549l-177 -549h-91l-226 655h94l181 -554l169 554h105z" />
    <glyph glyph-name="X" unicode="X" horiz-adv-x="574" 
d="M15 0l220 327l-220 328h99l173 -265l173 265h99l-220 -328l220 -327h-99l-173 264l-173 -264h-99z" />
    <glyph glyph-name="Y" unicode="Y" horiz-adv-x="592" 
d="M110 655l188 -310l188 310h91l-239 -377v-278h-85v277l-238 378h95z" />
    <glyph glyph-name="Z" unicode="Z" horiz-adv-x="549" 
d="M393 581h-337v74h436v-75l-350 -506h362v-74h-459v77z" />
    <glyph glyph-name="a" unicode="a" horiz-adv-x="490" 
d="M74 428c47 33 115 54 166 54c142 0 180 -80 180 -205v-277h-44l-25 55c-30 -38 -84 -71 -155 -71c-87 0 -149 52 -149 138c0 126 130 149 225 149h68v20c0 84 -34 120 -114 120c-50 0 -109 -23 -137 -41zM340 109v106h-51c-67 0 -161 -9 -161 -84c0 -45 31 -81 95 -81
c54 0 101 29 117 59z" />
    <glyph glyph-name="b" unicode="b" horiz-adv-x="547" 
d="M155 737v-305c38 32 86 50 137 50c132 0 210 -113 210 -245c0 -160 -96 -253 -211 -253c-52 0 -106 21 -147 71l-25 -55h-44v737h80zM275 411c-46 0 -94 -19 -120 -47v-243c26 -46 71 -66 123 -66c88 0 141 73 141 165c0 95 -39 191 -144 191z" />
    <glyph glyph-name="c" unicode="c" horiz-adv-x="467" 
d="M298 55c39 0 89 16 114 36l20 -36c-41 -49 -108 -71 -166 -71c-143 0 -221 123 -221 247c0 158 104 251 221 251c63 0 120 -25 153 -54l-15 -58c-30 18 -68 41 -135 41c-86 0 -141 -76 -141 -168c0 -112 58 -188 170 -188z" />
    <glyph glyph-name="d" unicode="d" horiz-adv-x="546" 
d="M256 -16c-132 0 -211 113 -211 245c0 149 94 253 212 253c54 0 95 -15 134 -46v301h80v-737h-44l-25 55c-35 -50 -88 -71 -146 -71zM273 55c62 0 100 29 118 66v243c-33 28 -64 47 -121 47c-88 0 -142 -73 -142 -165c0 -95 40 -191 145 -191z" />
    <glyph glyph-name="e" unicode="e" horiz-adv-x="498" 
d="M303 53c39 0 89 18 114 38l20 -36c-41 -49 -108 -71 -166 -71c-153 0 -226 123 -226 247c0 155 92 251 208 251c115 0 199 -76 200 -212l-25 -55h-303c10 -98 65 -162 178 -162zM126 273h252c0 97 -57 143 -121 143c-80 0 -125 -64 -131 -143z" />
    <glyph glyph-name="f" unicode="f" horiz-adv-x="345" 
d="M25 441l76 19v90c0 122 61 203 173 203c53 0 94 -14 121 -33l-15 -58c-26 12 -63 22 -96 22c-69 0 -103 -44 -103 -150v-68h154v-69h-154v-397h-80v397h-76v44z" />
    <glyph glyph-name="g" unicode="g" horiz-adv-x="513" 
d="M250 50c103 0 233 -7 233 -136c0 -115 -108 -177 -244 -177c-126 0 -202 57 -202 142c0 51 40 102 91 123c-40 22 -58 58 -58 93c0 31 13 63 36 89c-31 30 -50 72 -50 123c0 117 91 175 178 175c32 0 61 -6 86 -16h158v-56l-105 15c34 -34 55 -76 55 -130
c0 -90 -77 -164 -187 -164c-37 0 -73 9 -103 28c-7 -12 -12 -25 -12 -37c0 -51 33 -72 124 -72zM109 -101c0 -66 56 -99 142 -99c84 0 157 39 157 114c0 86 -126 57 -236 74c-32 -16 -63 -49 -63 -89zM359 304c0 75 -54 115 -121 115c-63 0 -110 -44 -110 -107
c0 -79 59 -117 119 -117c69 0 112 50 112 109z" />
    <glyph glyph-name="h" unicode="h" horiz-adv-x="538" 
d="M155 351v-351h-80v737h80v-315c41 33 101 60 166 60c85 0 144 -45 144 -160v-322h-80v293c0 72 -18 118 -102 118c-45 0 -106 -34 -128 -60z" />
    <glyph glyph-name="i" unicode="i" horiz-adv-x="257" 
d="M168 0h-80v466h80v-466zM75 617c0 30 23 54 53 54s54 -24 54 -54s-24 -53 -54 -53s-53 23 -53 53z" />
    <glyph glyph-name="j" unicode="j" horiz-adv-x="254" 
d="M175 -113v579h-80v-561c0 -67 -24 -104 -72 -104c-15 0 -33 4 -53 11l-20 -36c25 -22 60 -34 96 -34c64 0 129 38 129 145zM82 617c0 30 23 54 53 54s54 -24 54 -54s-24 -53 -54 -53s-53 23 -53 53z" />
    <glyph glyph-name="k" unicode="k" horiz-adv-x="487" 
d="M155 0h-80v737h80v-463h50l160 192h97l-180 -210l180 -256h-95l-144 205h-68v-205z" />
    <glyph glyph-name="l" unicode="l" horiz-adv-x="230" 
d="M155 0h-80v737h80v-737z" />
    <glyph glyph-name="m" unicode="m" horiz-adv-x="828" 
d="M273 411c-45 0 -96 -34 -118 -60v-351h-80v466h44l25 -55c50 44 104 71 167 71c59 0 105 -23 129 -75c48 45 107 75 171 75c85 0 144 -45 144 -160v-322h-80v293c0 72 -18 118 -102 118c-45 0 -96 -34 -118 -60v-351h-80v293c0 72 -18 118 -102 118z" />
    <glyph glyph-name="n" unicode="n" horiz-adv-x="538" 
d="M144 411c50 44 114 71 177 71c85 0 144 -45 144 -160v-322h-80v293c0 72 -18 118 -102 118c-45 0 -106 -34 -128 -60v-351h-80v466h44z" />
    <glyph glyph-name="o" unicode="o" horiz-adv-x="532" 
d="M487 237c0 -158 -94 -253 -232 -253c-132 0 -210 113 -210 245c0 158 94 253 232 253c132 0 210 -113 210 -245zM404 220c0 95 -39 196 -144 196c-88 0 -132 -88 -132 -170c0 -95 39 -196 144 -196c88 0 132 88 132 170z" />
    <glyph glyph-name="p" unicode="p" horiz-adv-x="547" 
d="M275 411c-43 0 -102 -28 -120 -67v-233c36 -46 91 -56 123 -56c88 0 141 73 141 165c0 95 -39 191 -144 191zM281 -16c-40 0 -91 16 -126 50v-279h-80v711h44l25 -55c53 54 101 71 148 71c132 0 210 -113 210 -245c0 -160 -96 -253 -221 -253z" />
    <glyph glyph-name="q" unicode="q" horiz-adv-x="546" 
d="M256 -16c-132 0 -211 113 -211 245c0 149 94 253 205 253c62 0 120 -33 152 -71l25 55h44v-711h-80v281c-25 -30 -78 -52 -135 -52zM278 55c50 0 98 25 113 56v234c-15 28 -60 66 -121 66c-88 0 -142 -73 -142 -165c0 -95 40 -191 150 -191z" />
    <glyph glyph-name="r" unicode="r" horiz-adv-x="370" 
d="M360 451l-17 -65c-25 9 -50 15 -74 15c-45 0 -85 -17 -114 -50v-351h-80v466h44l25 -55c39 46 98 65 143 65c24 0 54 -7 73 -25z" />
    <glyph glyph-name="s" unicode="s" horiz-adv-x="436" 
d="M369 428l-15 -58c-25 17 -75 46 -132 46c-54 0 -88 -21 -88 -62c0 -89 255 -76 255 -228c0 -79 -59 -142 -177 -142c-58 0 -128 24 -167 67l25 45c35 -31 92 -46 131 -46c62 0 109 23 109 69c0 94 -254 84 -254 229c0 82 69 134 163 134c58 0 117 -25 150 -54z" />
    <glyph glyph-name="t" unicode="t" horiz-adv-x="376" 
d="M20 441l80 20l36 124h40v-119h165v-69h-165v-245c0 -71 27 -102 83 -102c24 0 39 3 62 12l20 -36c-23 -22 -68 -37 -110 -37c-89 0 -135 44 -135 145v263h-76v44z" />
    <glyph glyph-name="u" unicode="u" horiz-adv-x="537" 
d="M393 55c-50 -44 -114 -71 -177 -71c-85 0 -144 45 -144 160v322h80v-293c0 -72 18 -118 102 -118c45 0 106 34 128 60v351h80v-466h-44z" />
    <glyph glyph-name="v" unicode="v" horiz-adv-x="477" 
d="M203 0l-188 466h88l139 -373l135 373h85l-188 -466h-71z" />
    <glyph glyph-name="w" unicode="w" horiz-adv-x="771" 
d="M517 0l-133 379l-130 -379h-71l-168 466h88l119 -373l123 373h84l126 -373l116 373h85l-168 -466h-71z" />
    <glyph glyph-name="x" unicode="x" horiz-adv-x="482" 
d="M15 0l177 232l-174 234h96l127 -181l127 181h96l-177 -231l180 -235h-102l-128 181l-130 -181h-92z" />
    <glyph glyph-name="y" unicode="y" horiz-adv-x="482" 
d="M181 -245h-83l108 250l-186 461h88l139 -373l135 373h85z" />
    <glyph glyph-name="z" unicode="z" horiz-adv-x="458" 
d="M408 0h-360v71l260 326h-255v69h349v-69l-257 -328h263v-69z" />
    <glyph glyph-name="Aacute" unicode="&#xc1;" horiz-adv-x="632" 
d="M512 0l-61 170h-273l-60 -170h-93l247 655h90l245 -655h-95zM314 555l-110 -311h221zM241 695l-26 29l160 143l54 -61z" />
    <glyph glyph-name="Abreve" unicode="&#x102;" horiz-adv-x="632" 
d="M512 0l-61 170h-273l-60 -170h-93l247 655h90l245 -655h-95zM314 555l-110 -311h221zM314 695c-77 0 -132 66 -132 133h44c8 -39 37 -70 88 -70s80 31 88 70h44c0 -67 -55 -133 -132 -133z" />
    <glyph glyph-name="Acircumflex" unicode="&#xc2;" horiz-adv-x="632" 
d="M512 0l-61 170h-273l-60 -170h-93l247 655h90l245 -655h-95zM314 555l-110 -311h221zM449 695l-132 100l-132 -100l-26 29l141 143h34l141 -143z" />
    <glyph glyph-name="Adieresis" unicode="&#xc4;" horiz-adv-x="632" 
d="M512 0l-61 170h-273l-60 -170h-93l247 655h90l245 -655h-95zM314 555l-110 -311h221zM157 771c0 30 23 54 53 54s54 -24 54 -54s-24 -53 -54 -53s-53 23 -53 53zM370 771c0 30 23 54 53 54s54 -24 54 -54s-24 -53 -54 -53s-53 23 -53 53z" />
    <glyph glyph-name="Agrave" unicode="&#xc0;" horiz-adv-x="632" 
d="M512 0l-61 170h-273l-60 -170h-93l247 655h90l245 -655h-95zM314 555l-110 -311h221zM409 724l-26 -29l-188 111l54 61z" />
    <glyph glyph-name="Amacron" unicode="&#x100;" horiz-adv-x="632" 
d="M512 0l-61 170h-273l-60 -170h-93l247 655h90l245 -655h-95zM314 555l-110 -311h221zM466 737h-299v59h299v-59z" />
    <glyph glyph-name="Aogonek" unicode="&#x104;" horiz-adv-x="632" 
d="M617 -222c-25 -21 -64 -33 -99 -33c-78 0 -113 52 -113 105c0 55 43 116 105 154l-59 166h-273l-60 -170h-93l247 655h90l245 -655c-73 -27 -126 -77 -126 -135c0 -43 34 -62 65 -62c16 0 37 4 51 11zM314 555l-110 -311h221z" />
    <glyph glyph-name="Aring" unicode="&#xc5;" horiz-adv-x="632" 
d="M415 739c0 -40 -21 -70 -53 -86l245 -653h-95l-61 170h-273l-60 -170h-93l246 652c-33 14 -56 46 -56 87c0 56 45 95 100 95s100 -39 100 -95zM314 555l-110 -311h221zM369 739c0 33 -20 57 -54 57s-55 -25 -55 -57c0 -34 22 -58 55 -58c34 0 54 24 54 58z" />
    <glyph glyph-name="Atilde" unicode="&#xc3;" horiz-adv-x="632" 
d="M512 0l-61 170h-273l-60 -170h-93l247 655h90l245 -655h-95zM314 555l-110 -311h221zM446 840l32 -21l-49 -76s-15 -28 -54 -28c-36 0 -76 39 -111 39c-21 0 -42 -25 -72 -61l-32 21l50 76s15 28 54 28c36 0 76 -39 111 -39c21 0 42 26 71 61z" />
    <glyph glyph-name="AE" unicode="&#xc6;" horiz-adv-x="833" 
d="M365 0v170h-182l-84 -170h-94l343 655h414v-74h-312v-213h244v-74h-244v-220h333v-74h-418zM365 535l-145 -291h145v291z" />
    <glyph glyph-name="AEacute" unicode="&#x1fc;" horiz-adv-x="833" 
d="M365 0v170h-182l-84 -170h-94l343 655h414v-74h-312v-213h244v-74h-244v-220h333v-74h-418zM365 535l-145 -291h145v291zM371 695l-26 29l160 143l54 -61z" />
    <glyph glyph-name="Cacute" unicode="&#x106;" horiz-adv-x="611" 
d="M358 -16c-234 0 -310 192 -310 344c0 184 102 343 318 343c89 0 156 -35 190 -63l-17 -66c-61 34 -114 53 -184 53c-118 0 -219 -99 -219 -245c0 -144 64 -289 254 -289c65 0 128 30 152 57l24 -43s-68 -91 -208 -91zM284 695l-26 29l160 143l54 -61z" />
    <glyph glyph-name="Ccaron" unicode="&#x10c;" horiz-adv-x="611" 
d="M358 -16c-234 0 -310 192 -310 344c0 184 102 343 318 343c89 0 156 -35 190 -63l-17 -66c-61 34 -114 53 -184 53c-118 0 -219 -99 -219 -245c0 -144 64 -289 254 -289c65 0 128 30 152 57l24 -43s-68 -91 -208 -91zM343 767l132 100l26 -29l-141 -143h-34l-141 143
l26 29z" />
    <glyph glyph-name="Ccedilla" unicode="&#xc7;" horiz-adv-x="611" 
d="M357 -77c56 -9 82 -38 82 -70c0 -44 -49 -94 -136 -108l-20 36c46 10 81 41 81 66c0 18 -19 33 -66 36l17 104c-201 21 -267 198 -267 341c0 184 102 343 318 343c89 0 156 -35 190 -63l-17 -66c-61 34 -114 53 -184 53c-118 0 -219 -99 -219 -245
c0 -144 64 -289 254 -289c65 0 128 30 152 57l24 -43s-65 -87 -199 -91z" />
    <glyph glyph-name="Ccircumflex" unicode="&#x108;" horiz-adv-x="611" 
d="M358 -16c-234 0 -310 192 -310 344c0 184 102 343 318 343c89 0 156 -35 190 -63l-17 -66c-61 34 -114 53 -184 53c-118 0 -219 -99 -219 -245c0 -144 64 -289 254 -289c65 0 128 30 152 57l24 -43s-68 -91 -208 -91zM479 695l-132 100l-132 -100l-26 29l141 143h34
l141 -143z" />
    <glyph glyph-name="Cdotaccent" unicode="&#x10a;" horiz-adv-x="611" 
d="M358 -16c-234 0 -310 192 -310 344c0 184 102 343 318 343c89 0 156 -35 190 -63l-17 -66c-61 34 -114 53 -184 53c-118 0 -219 -99 -219 -245c0 -144 64 -289 254 -289c65 0 128 30 152 57l24 -43s-68 -91 -208 -91zM290 771c0 30 23 54 53 54s54 -24 54 -54
s-24 -53 -54 -53s-53 23 -53 53z" />
    <glyph glyph-name="Dcaron" unicode="&#x10e;" horiz-adv-x="656" 
d="M608 314c0 -153 -97 -314 -320 -314h-203v655h209c234 0 314 -163 314 -341zM520 318c0 130 -49 263 -240 263h-110v-507h96c179 0 254 84 254 244zM290 767l132 100l26 -29l-141 -143h-34l-141 143l26 29z" />
    <glyph glyph-name="Dcroat" unicode="&#x110;" horiz-adv-x="656" 
d="M608 314c0 -153 -97 -314 -320 -314h-203v300h-70v59h70v296h209c234 0 314 -163 314 -341zM520 318c0 130 -49 263 -240 263h-110v-222h168v-59h-168v-226h96c179 0 254 84 254 244z" />
    <glyph glyph-name="Eacute" unicode="&#xc9;" horiz-adv-x="548" 
d="M482 581h-312v-213h244v-74h-244v-220h333v-74h-418v655h397v-74zM221 695l-26 29l160 143l54 -61z" />
    <glyph glyph-name="Ebreve" unicode="&#x114;" horiz-adv-x="548" 
d="M482 581h-312v-213h244v-74h-244v-220h333v-74h-418v655h397v-74zM294 695c-77 0 -132 66 -132 133h44c8 -39 37 -70 88 -70s80 31 88 70h44c0 -67 -55 -133 -132 -133z" />
    <glyph glyph-name="Ecaron" unicode="&#x11a;" horiz-adv-x="548" 
d="M482 581h-312v-213h244v-74h-244v-220h333v-74h-418v655h397v-74zM290 767l132 100l26 -29l-141 -143h-34l-141 143l26 29z" />
    <glyph glyph-name="Ecircumflex" unicode="&#xca;" horiz-adv-x="548" 
d="M482 581h-312v-213h244v-74h-244v-220h333v-74h-418v655h397v-74zM422 695l-132 100l-132 -100l-26 29l141 143h34l141 -143z" />
    <glyph glyph-name="Edieresis" unicode="&#xcb;" horiz-adv-x="548" 
d="M482 581h-312v-213h244v-74h-244v-220h333v-74h-418v655h397v-74zM131 771c0 30 23 54 53 54s54 -24 54 -54s-24 -53 -54 -53s-53 23 -53 53zM344 771c0 30 23 54 53 54s54 -24 54 -54s-24 -53 -54 -53s-53 23 -53 53z" />
    <glyph glyph-name="Edotaccent" unicode="&#x116;" horiz-adv-x="548" 
d="M482 581h-312v-213h244v-74h-244v-220h333v-74h-418v655h397v-74zM241 771c0 30 23 54 53 54s54 -24 54 -54s-24 -53 -54 -53s-53 23 -53 53z" />
    <glyph glyph-name="Egrave" unicode="&#xc8;" horiz-adv-x="548" 
d="M482 581h-312v-213h244v-74h-244v-220h333v-74h-418v655h397v-74zM379 724l-26 -29l-188 111l54 61z" />
    <glyph glyph-name="Emacron" unicode="&#x112;" horiz-adv-x="548" 
d="M482 581h-312v-213h244v-74h-244v-220h333v-74h-418v655h397v-74zM434 737h-299v59h299v-59z" />
    <glyph glyph-name="Eogonek" unicode="&#x118;" horiz-adv-x="548" 
d="M482 581h-312v-213h244v-74h-244v-220h333v-74c-73 -27 -136 -82 -136 -140c0 -41 29 -57 60 -57c16 0 32 4 46 11l20 -36c-25 -21 -60 -33 -95 -33c-54 0 -105 29 -105 96c0 55 45 115 127 159h-335v655h397v-74z" />
    <glyph glyph-name="Gbreve" unicode="&#x11e;" horiz-adv-x="675" 
d="M366 264v74h234v-338h-44l-25 55c-32 -35 -100 -71 -183 -71c-219 0 -300 188 -300 340c0 174 102 347 338 347c99 0 176 -35 210 -63l-17 -66c-61 34 -124 53 -204 53c-138 0 -239 -113 -239 -249c0 -144 69 -285 251 -285c59 0 106 23 128 47v156h-149zM357 695
c-77 0 -132 66 -132 133h44c8 -39 37 -70 88 -70s80 31 88 70h44c0 -67 -55 -133 -132 -133z" />
    <glyph glyph-name="Gcircumflex" unicode="&#x11c;" horiz-adv-x="675" 
d="M366 264v74h234v-338h-44l-25 55c-32 -35 -100 -71 -183 -71c-219 0 -300 188 -300 340c0 174 102 347 338 347c99 0 176 -35 210 -63l-17 -66c-61 34 -124 53 -204 53c-138 0 -239 -113 -239 -249c0 -144 69 -285 251 -285c59 0 106 23 128 47v156h-149zM500 695
l-132 100l-132 -100l-26 29l141 143h34l141 -143z" />
    <glyph glyph-name="Gcommaaccent" unicode="&#x122;" horiz-adv-x="675" 
d="M366 264v74h234v-338h-44l-25 55c-32 -35 -100 -71 -183 -71c-219 0 -300 188 -300 340c0 174 102 347 338 347c99 0 176 -35 210 -63l-17 -66c-61 34 -124 53 -204 53c-138 0 -239 -113 -239 -249c0 -144 69 -285 251 -285c59 0 106 23 128 47v156h-149zM323 -83h85
l-46 -180h-39v180z" />
    <glyph glyph-name="Gdotaccent" unicode="&#x120;" horiz-adv-x="675" 
d="M366 264v74h234v-338h-44l-25 55c-32 -35 -100 -71 -183 -71c-219 0 -300 188 -300 340c0 174 102 347 338 347c99 0 176 -35 210 -63l-17 -66c-61 34 -124 53 -204 53c-138 0 -239 -113 -239 -249c0 -144 69 -285 251 -285c59 0 106 23 128 47v156h-149zM313 771
c0 30 23 54 53 54s54 -24 54 -54s-24 -53 -54 -53s-53 23 -53 53z" />
    <glyph glyph-name="Hbar" unicode="&#x126;" horiz-adv-x="674" 
d="M504 0v294h-334v-294h-85v482h-74v54h74v119h85v-119h334v119h85v-119h74v-54h-74v-482h-85zM170 368h334v114h-334v-114z" />
    <glyph glyph-name="Hcircumflex" unicode="&#x124;" horiz-adv-x="674" 
d="M504 0v294h-334v-294h-85v655h85v-287h334v287h85v-655h-85zM466 695l-132 100l-132 -100l-26 29l141 143h34l141 -143z" />
    <glyph glyph-name="Iacute" unicode="&#xcd;" horiz-adv-x="255" 
d="M170 655v-655h-85v655h85zM62 695l-26 29l160 143l54 -61z" />
    <glyph glyph-name="Ibreve" unicode="&#x12c;" horiz-adv-x="255" 
d="M170 655v-655h-85v655h85zM129 695c-77 0 -132 66 -132 133h44c8 -39 37 -70 88 -70s80 31 88 70h44c0 -67 -55 -133 -132 -133z" />
    <glyph glyph-name="Icircumflex" unicode="&#xce;" horiz-adv-x="255" 
d="M170 655v-655h-85v655h85zM259 695l-132 100l-132 -100l-26 29l141 143h34l141 -143z" />
    <glyph glyph-name="Idieresis" unicode="&#xcf;" horiz-adv-x="255" 
d="M268 771c0 -29 -25 -53 -55 -53s-53 24 -53 53c0 30 24 54 53 54c30 0 55 -25 55 -54zM95 771c0 -29 -24 -53 -54 -53s-54 24 -54 53c0 30 25 54 54 54c30 0 54 -25 54 -54zM170 655v-655h-85v655h85z" />
    <glyph glyph-name="Idotaccent" unicode="&#x130;" horiz-adv-x="255" 
d="M170 655v-655h-85v655h85zM74 771c0 30 23 54 53 54s54 -24 54 -54s-24 -53 -54 -53s-53 23 -53 53z" />
    <glyph glyph-name="Igrave" unicode="&#xcc;" horiz-adv-x="255" 
d="M170 655v-655h-85v655h85zM219 724l-26 -29l-188 111l54 61z" />
    <glyph glyph-name="Imacron" unicode="&#x12a;" horiz-adv-x="255" 
d="M170 655v-655h-85v655h85zM277 737h-299v59h299v-59z" />
    <glyph glyph-name="Iogonek" unicode="&#x12e;" horiz-adv-x="255" 
d="M210 -222c-25 -21 -60 -33 -95 -33c-54 0 -105 29 -105 96c0 49 26 103 75 145v669h85v-655c-43 -27 -86 -82 -86 -140c0 -41 29 -57 60 -57c16 0 32 4 46 11z" />
    <glyph glyph-name="Itilde" unicode="&#x128;" horiz-adv-x="255" 
d="M170 655v-655h-85v655h85zM253 840l32 -21l-49 -76s-15 -28 -54 -28c-36 0 -76 39 -111 39c-21 0 -42 -25 -72 -61l-32 21l50 76s15 28 54 28c36 0 76 -39 111 -39c21 0 42 26 71 61z" />
    <glyph glyph-name="IJ" unicode="&#x132;" horiz-adv-x="519" 
d="M170 655v-655h-85v655h85zM434 6v649h-85v-631c0 -67 -24 -104 -72 -104c-15 0 -33 4 -53 11l-20 -36c25 -22 60 -34 96 -34c64 0 134 38 134 145z" />
    <glyph glyph-name="Jcircumflex" unicode="&#x134;" horiz-adv-x="278" 
d="M198 6v649h-85v-631c0 -67 -24 -104 -72 -104c-15 0 -33 4 -53 11l-20 -36c25 -22 60 -34 96 -34c64 0 134 38 134 145zM284 695l-132 100l-132 -100l-26 29l141 143h34l141 -143z" />
    <glyph glyph-name="Kcommaaccent" unicode="&#x136;" horiz-adv-x="592" 
d="M170 0h-85v655h85v-287h74l211 287h96l-230 -312l256 -343h-106l-213 294h-88v-294zM233 -83h85l-46 -180h-39v180z" />
    <glyph glyph-name="Lacute" unicode="&#x139;" horiz-adv-x="499" 
d="M170 655v-581h304v-74h-389v655h85zM71 695l-26 29l160 143l54 -61z" />
    <glyph glyph-name="Lcaron" unicode="&#x13d;" horiz-adv-x="499" 
d="M331 737l-49 -194h-39v194h88zM170 655v-581h304v-74h-389v655h85z" />
    <glyph glyph-name="Lcommaaccent" unicode="&#x13b;" horiz-adv-x="499" 
d="M170 655v-581h304v-74h-389v655h85zM224 -83h85l-46 -180h-39v180z" />
    <glyph glyph-name="Ldot" unicode="&#x13f;" horiz-adv-x="499" 
d="M170 655v-581h304v-74h-389v655h85zM258 358c0 28 25 54 53 54s54 -26 54 -54s-26 -53 -54 -53s-53 25 -53 53z" />
    <glyph glyph-name="Lslash" unicode="&#x141;" horiz-adv-x="504" 
d="M170 655v-264l169 100v-65l-169 -99v-253h304v-74h-389v277l-70 -41v64l70 41v314h85z" />
    <glyph glyph-name="Nacute" unicode="&#x143;" horiz-adv-x="684" 
d="M167 568v-568h-82v655h119l313 -513v513h82v-655h-85zM286 695l-26 29l160 143l54 -61z" />
    <glyph glyph-name="Ncaron" unicode="&#x147;" horiz-adv-x="684" 
d="M167 568v-568h-82v655h119l313 -513v513h82v-655h-85zM350 767l132 100l26 -29l-141 -143h-34l-141 143l26 29z" />
    <glyph glyph-name="Ncommaaccent" unicode="&#x145;" horiz-adv-x="684" 
d="M167 568v-568h-82v655h119l313 -513v513h82v-655h-85zM297 -83h85l-46 -180h-39v180z" />
    <glyph glyph-name="Ntilde" unicode="&#xd1;" horiz-adv-x="684" 
d="M167 568v-568h-82v655h119l313 -513v513h82v-655h-85zM486 840l32 -21l-49 -76s-15 -28 -54 -28c-36 0 -76 39 -111 39c-21 0 -42 -25 -72 -61l-32 21l50 76s15 28 54 28c36 0 76 -39 111 -39c21 0 42 26 71 61z" />
    <glyph glyph-name="Oacute" unicode="&#xd3;" horiz-adv-x="705" 
d="M136 350c0 -164 59 -291 228 -291c128 0 205 120 205 246c0 164 -59 290 -228 290c-128 0 -205 -119 -205 -245zM48 328c0 174 92 343 318 343c205 0 291 -181 291 -344c0 -174 -92 -343 -318 -343c-205 0 -291 181 -291 344zM274 695l-26 29l160 143l54 -61z" />
    <glyph glyph-name="Obreve" unicode="&#x14e;" horiz-adv-x="705" 
d="M136 350c0 -164 59 -291 228 -291c128 0 205 120 205 246c0 164 -59 290 -228 290c-128 0 -205 -119 -205 -245zM48 328c0 174 92 343 318 343c205 0 291 -181 291 -344c0 -174 -92 -343 -318 -343c-205 0 -291 181 -291 344zM352 695c-77 0 -132 66 -132 133h44
c8 -39 37 -70 88 -70s80 31 88 70h44c0 -67 -55 -133 -132 -133z" />
    <glyph glyph-name="Ocircumflex" unicode="&#xd4;" horiz-adv-x="705" 
d="M136 350c0 -164 59 -291 228 -291c128 0 205 120 205 246c0 164 -59 290 -228 290c-128 0 -205 -119 -205 -245zM48 328c0 174 92 343 318 343c205 0 291 -181 291 -344c0 -174 -92 -343 -318 -343c-205 0 -291 181 -291 344zM484 695l-132 100l-132 -100l-26 29l141 143
h34l141 -143z" />
    <glyph glyph-name="Odieresis" unicode="&#xd6;" horiz-adv-x="705" 
d="M136 350c0 -164 59 -291 228 -291c128 0 205 120 205 246c0 164 -59 290 -228 290c-128 0 -205 -119 -205 -245zM48 328c0 174 92 343 318 343c205 0 291 -181 291 -344c0 -174 -92 -343 -318 -343c-205 0 -291 181 -291 344zM192 771c0 30 23 54 53 54s54 -24 54 -54
s-24 -53 -54 -53s-53 23 -53 53zM405 771c0 30 23 54 53 54s54 -24 54 -54s-24 -53 -54 -53s-53 23 -53 53z" />
    <glyph glyph-name="Ograve" unicode="&#xd2;" horiz-adv-x="705" 
d="M136 350c0 -164 59 -291 228 -291c128 0 205 120 205 246c0 164 -59 290 -228 290c-128 0 -205 -119 -205 -245zM48 328c0 174 92 343 318 343c205 0 291 -181 291 -344c0 -174 -92 -343 -318 -343c-205 0 -291 181 -291 344zM457 724l-26 -29l-188 111l54 61z" />
    <glyph glyph-name="Ohungarumlaut" unicode="&#x150;" horiz-adv-x="705" 
d="M136 350c0 -164 59 -291 228 -291c128 0 205 120 205 246c0 164 -59 290 -228 290c-128 0 -205 -119 -205 -245zM48 328c0 174 92 343 318 343c205 0 291 -181 291 -344c0 -174 -92 -343 -318 -343c-205 0 -291 181 -291 344zM187 695l-26 29l160 143l54 -61zM370 695
l-26 29l160 143l54 -61z" />
    <glyph glyph-name="Omacron" unicode="&#x14c;" horiz-adv-x="705" 
d="M136 350c0 -164 59 -291 228 -291c128 0 205 120 205 246c0 164 -59 290 -228 290c-128 0 -205 -119 -205 -245zM48 328c0 174 92 343 318 343c205 0 291 -181 291 -344c0 -174 -92 -343 -318 -343c-205 0 -291 181 -291 344zM502 737h-299v59h299v-59z" />
    <glyph glyph-name="Otilde" unicode="&#xd5;" horiz-adv-x="705" 
d="M136 350c0 -164 59 -291 228 -291c128 0 205 120 205 246c0 164 -59 290 -228 290c-128 0 -205 -119 -205 -245zM48 328c0 174 92 343 318 343c205 0 291 -181 291 -344c0 -174 -92 -343 -318 -343c-205 0 -291 181 -291 344zM489 840l32 -21l-49 -76s-15 -28 -54 -28
c-36 0 -76 39 -111 39c-21 0 -42 -25 -72 -61l-32 21l50 76s15 28 54 28c36 0 76 -39 111 -39c21 0 42 26 71 61z" />
    <glyph glyph-name="Oslash" unicode="&#xd8;" horiz-adv-x="705" 
d="M48 328c0 174 92 343 318 343c64 0 117 -18 159 -48l39 56l46 -32l-43 -61c62 -68 90 -166 90 -259c0 -174 -92 -343 -318 -343c-65 0 -119 18 -161 48l-38 -55l-46 32l43 61c-62 67 -89 165 -89 258zM569 305c0 83 -16 157 -53 209l-290 -414c34 -26 80 -41 138 -41
c128 0 205 120 205 246zM136 350c0 -83 15 -156 51 -208l290 413c-34 25 -79 40 -136 40c-128 0 -205 -119 -205 -245z" />
    <glyph glyph-name="Oslashacute" unicode="&#x1fe;" horiz-adv-x="705" 
d="M48 328c0 174 92 343 318 343c64 0 117 -18 159 -48l39 56l46 -32l-43 -61c62 -68 90 -166 90 -259c0 -174 -92 -343 -318 -343c-65 0 -119 18 -161 48l-38 -55l-46 32l43 61c-62 67 -89 165 -89 258zM569 305c0 83 -16 157 -53 209l-290 -414c34 -26 80 -41 138 -41
c128 0 205 120 205 246zM136 350c0 -83 15 -156 51 -208l290 413c-34 25 -79 40 -136 40c-128 0 -205 -119 -205 -245zM274 695l-26 29l160 143l54 -61z" />
    <glyph glyph-name="OE" unicode="&#x152;" horiz-adv-x="933" 
d="M867 581h-312v-213h244v-74h-244v-220h333v-74h-443c-30 -10 -65 -16 -107 -16c-204 0 -290 192 -290 344c0 174 92 343 318 343c30 0 64 -6 94 -16h407v-74zM365 60c41 0 76 8 105 26v483c-38 18 -73 26 -129 26c-128 0 -205 -124 -205 -245c0 -159 60 -290 229 -290z
" />
    <glyph glyph-name="Racute" unicode="&#x154;" horiz-adv-x="596" 
d="M528 467c0 -115 -73 -177 -160 -198l203 -269h-102l-192 260h-107v-260h-85v655h218c114 0 225 -51 225 -188zM440 456c0 100 -74 125 -173 125h-97v-249h92c102 0 178 24 178 124zM231 695l-26 29l160 143l54 -61z" />
    <glyph glyph-name="Rcaron" unicode="&#x158;" horiz-adv-x="596" 
d="M528 467c0 -115 -73 -177 -160 -198l203 -269h-102l-192 260h-107v-260h-85v655h218c114 0 225 -51 225 -188zM440 456c0 100 -74 125 -173 125h-97v-249h92c102 0 178 24 178 124zM290 767l132 100l26 -29l-141 -143h-34l-141 143l26 29z" />
    <glyph glyph-name="Rcommaaccent" unicode="&#x156;" horiz-adv-x="596" 
d="M528 467c0 -115 -73 -177 -160 -198l203 -269h-102l-192 260h-107v-260h-85v655h218c114 0 225 -51 225 -188zM440 456c0 100 -74 125 -173 125h-97v-249h92c102 0 178 24 178 124zM233 -83h85l-46 -180h-39v180z" />
    <glyph glyph-name="Sacute" unicode="&#x15a;" horiz-adv-x="521" 
d="M246 60c62 0 142 26 142 101c0 146 -334 125 -334 329c0 119 94 181 213 181c79 0 156 -35 190 -63l-17 -66c-55 35 -121 53 -175 53c-67 0 -123 -35 -123 -100c0 -132 334 -120 334 -321c0 -144 -122 -190 -216 -190c-81 0 -160 27 -219 83l29 52
c43 -33 111 -59 176 -59zM181 695l-26 29l160 143l54 -61z" />
    <glyph glyph-name="Scaron" unicode="&#x160;" horiz-adv-x="521" 
d="M246 60c62 0 142 26 142 101c0 146 -334 125 -334 329c0 119 94 181 213 181c79 0 156 -35 190 -63l-17 -66c-55 35 -121 53 -175 53c-67 0 -123 -35 -123 -100c0 -132 334 -120 334 -321c0 -144 -122 -190 -216 -190c-81 0 -160 27 -219 83l29 52
c43 -33 111 -59 176 -59zM260 767l132 100l26 -29l-141 -143h-34l-141 143l26 29z" />
    <glyph glyph-name="Scedilla" unicode="&#x15e;" horiz-adv-x="521" 
d="M268 -77c56 -9 82 -38 82 -70c0 -44 -49 -94 -136 -108l-20 36c46 10 81 41 81 66c0 18 -19 33 -66 36l17 103c-69 6 -134 32 -185 81l29 52c43 -33 111 -59 176 -59c62 0 142 26 142 101c0 146 -334 125 -334 329c0 119 94 181 213 181c79 0 156 -35 190 -63l-17 -66
c-55 35 -121 53 -175 53c-67 0 -123 -35 -123 -100c0 -132 334 -120 334 -321c0 -135 -107 -183 -198 -189z" />
    <glyph glyph-name="Scircumflex" unicode="&#x15c;" horiz-adv-x="521" 
d="M246 60c62 0 142 26 142 101c0 146 -334 125 -334 329c0 119 94 181 213 181c79 0 156 -35 190 -63l-17 -66c-55 35 -121 53 -175 53c-67 0 -123 -35 -123 -100c0 -132 334 -120 334 -321c0 -144 -122 -190 -216 -190c-81 0 -160 27 -219 83l29 52
c43 -33 111 -59 176 -59zM392 695l-132 100l-132 -100l-26 29l141 143h34l141 -143z" />
    <glyph glyph-name="Scommaaccent" unicode="&#x218;" horiz-adv-x="521" 
d="M246 60c62 0 142 26 142 101c0 146 -334 125 -334 329c0 119 94 181 213 181c79 0 156 -35 190 -63l-17 -66c-55 35 -121 53 -175 53c-67 0 -123 -35 -123 -100c0 -132 334 -120 334 -321c0 -144 -122 -190 -216 -190c-81 0 -160 27 -219 83l29 52
c43 -33 111 -59 176 -59zM224 -83h85l-46 -180h-39v180z" />
    <glyph glyph-name="Tcaron" unicode="&#x164;" horiz-adv-x="555" 
d="M540 581h-220v-581h-85v581h-220v74h525v-74zM280 767l132 100l26 -29l-141 -143h-34l-141 143l26 29z" />
    <glyph glyph-name="Tbar" unicode="&#x166;" horiz-adv-x="555" 
d="M540 581h-220v-222h150v-59h-150v-300h-85v300h-151v59h151v222h-220v74h525v-74z" />
    <glyph glyph-name="Tcommaaccent" unicode="&#x162;" horiz-adv-x="555" 
d="M540 581h-220v-581h-85v581h-220v74h525v-74zM235 -83h85l-46 -180h-39v180z" />
    <glyph glyph-name="uni021A" unicode="&#x21a;" horiz-adv-x="555" 
d="M540 581h-220v-581h-85v581h-220v74h525v-74zM235 -83h85l-46 -180h-39v180z" />
    <glyph glyph-name="Uacute" unicode="&#xda;" horiz-adv-x="662" 
d="M502 655h85v-410c0 -153 -87 -261 -256 -261s-256 108 -256 261v410h85v-413c0 -113 63 -182 171 -182s171 69 171 182v413zM271 695l-26 29l160 143l54 -61z" />
    <glyph glyph-name="Ubreve" unicode="&#x16c;" horiz-adv-x="662" 
d="M502 655h85v-410c0 -153 -87 -261 -256 -261s-256 108 -256 261v410h85v-413c0 -113 63 -182 171 -182s171 69 171 182v413zM334 695c-77 0 -132 66 -132 133h44c8 -39 37 -70 88 -70s80 31 88 70h44c0 -67 -55 -133 -132 -133z" />
    <glyph glyph-name="Ucircumflex" unicode="&#xdb;" horiz-adv-x="662" 
d="M502 655h85v-410c0 -153 -87 -261 -256 -261s-256 108 -256 261v410h85v-413c0 -113 63 -182 171 -182s171 69 171 182v413zM465 695l-132 100l-132 -100l-26 29l141 143h34l141 -143z" />
    <glyph glyph-name="Udieresis" unicode="&#xdc;" horiz-adv-x="662" 
d="M502 655h85v-410c0 -153 -87 -261 -256 -261s-256 108 -256 261v410h85v-413c0 -113 63 -182 171 -182s171 69 171 182v413zM171 771c0 30 23 54 53 54s54 -24 54 -54s-24 -53 -54 -53s-53 23 -53 53zM384 771c0 30 23 54 53 54s54 -24 54 -54s-24 -53 -54 -53
s-53 23 -53 53z" />
    <glyph glyph-name="Uhungarumlaut" unicode="&#x170;" horiz-adv-x="662" 
d="M502 655h85v-410c0 -153 -87 -261 -256 -261s-256 108 -256 261v410h85v-413c0 -113 63 -182 171 -182s171 69 171 182v413zM174 695l-26 29l160 143l54 -61zM357 695l-26 29l160 143l54 -61z" />
    <glyph glyph-name="Ugrave" unicode="&#xd9;" horiz-adv-x="662" 
d="M502 655h85v-410c0 -153 -87 -261 -256 -261s-256 108 -256 261v410h85v-413c0 -113 63 -182 171 -182s171 69 171 182v413zM419 724l-26 -29l-188 111l54 61z" />
    <glyph glyph-name="Umacron" unicode="&#x16a;" horiz-adv-x="662" 
d="M502 655h85v-410c0 -153 -87 -261 -256 -261s-256 108 -256 261v410h85v-413c0 -113 63 -182 171 -182s171 69 171 182v413zM484 737h-299v59h299v-59z" />
    <glyph glyph-name="Uogonek" unicode="&#x172;" horiz-adv-x="662" 
d="M453 -222c-25 -21 -60 -33 -95 -33c-54 0 -105 29 -105 96c0 49 30 101 85 143h-7c-169 0 -256 108 -256 261v410h85v-413c0 -113 63 -182 171 -182s171 69 171 182v413h85v-410c0 -119 -53 -211 -156 -246c-53 -27 -104 -81 -104 -139c0 -41 29 -57 60 -57
c16 0 32 4 46 11z" />
    <glyph glyph-name="Uring" unicode="&#x16e;" horiz-adv-x="662" 
d="M502 655h85v-410c0 -153 -87 -261 -256 -261s-256 108 -256 261v410h85v-413c0 -113 63 -182 171 -182s171 69 171 182v413zM431 739c0 -57 -45 -96 -100 -96s-100 39 -100 96c0 56 45 95 100 95s100 -39 100 -95zM385 739c0 33 -20 57 -54 57s-55 -25 -55 -57
c0 -34 22 -58 55 -58c34 0 54 24 54 58z" />
    <glyph glyph-name="Utilde" unicode="&#x168;" horiz-adv-x="662" 
d="M502 655h85v-410c0 -153 -87 -261 -256 -261s-256 108 -256 261v410h85v-413c0 -113 63 -182 171 -182s171 69 171 182v413zM470 840l32 -21l-49 -76s-15 -28 -54 -28c-36 0 -76 39 -111 39c-21 0 -42 -25 -72 -61l-32 21l50 76s15 28 54 28c36 0 76 -39 111 -39
c21 0 42 26 71 61z" />
    <glyph glyph-name="Wacute" unicode="&#x1e82;" horiz-adv-x="1020" 
d="M564 655l173 -554l177 554h91l-226 -655h-91l-179 549l-177 -549h-91l-226 655h94l181 -554l169 554h105zM441 695l-26 29l160 143l54 -61z" />
    <glyph glyph-name="Wcircumflex" unicode="&#x174;" horiz-adv-x="1020" 
d="M564 655l173 -554l177 554h91l-226 -655h-91l-179 549l-177 -549h-91l-226 655h94l181 -554l169 554h105zM642 695l-132 100l-132 -100l-26 29l141 143h34l141 -143z" />
    <glyph glyph-name="Wdieresis" unicode="&#x1e84;" horiz-adv-x="1020" 
d="M564 655l173 -554l177 554h91l-226 -655h-91l-179 549l-177 -549h-91l-226 655h94l181 -554l169 554h105zM353 771c0 30 23 54 53 54s54 -24 54 -54s-24 -53 -54 -53s-53 23 -53 53zM566 771c0 30 23 54 53 54s54 -24 54 -54s-24 -53 -54 -53s-53 23 -53 53z" />
    <glyph glyph-name="Wgrave" unicode="&#x1e80;" horiz-adv-x="1020" 
d="M564 655l173 -554l177 554h91l-226 -655h-91l-179 549l-177 -549h-91l-226 655h94l181 -554l169 554h105zM609 724l-26 -29l-188 111l54 61z" />
    <glyph glyph-name="Ygrave" unicode="&#x1ef2;" horiz-adv-x="592" 
d="M110 655l188 -310l188 310h91l-239 -377v-278h-85v277l-238 378h95zM378 724l-26 -29l-188 111l54 61z" />
    <glyph glyph-name="Ycircumflex" unicode="&#x176;" horiz-adv-x="592" 
d="M298 345l-188 310h-95l238 -378v-277h85v278l239 377h-91zM430 695l-132 100l-132 -100l-26 29l141 143h34l141 -143z" />
    <glyph glyph-name="Ydieresis" unicode="&#x178;" horiz-adv-x="592" 
d="M298 345l-188 310h-95l238 -378v-277h85v278l239 377h-91zM136 771c0 30 23 54 53 54s54 -24 54 -54s-24 -53 -54 -53s-53 23 -53 53zM349 771c0 30 23 54 53 54s54 -24 54 -54s-24 -53 -54 -53s-53 23 -53 53z" />
    <glyph glyph-name="Yacute" unicode="&#xdd;" horiz-adv-x="592" 
d="M298 345l-188 310h-95l238 -378v-277h85v278l239 377h-91zM251 695l-26 29l160 143l54 -61z" />
    <glyph glyph-name="Zacute" unicode="&#x179;" horiz-adv-x="549" 
d="M393 581h-337v74h436v-75l-350 -506h362v-74h-459v77zM190 695l-26 29l160 143l54 -61z" />
    <glyph glyph-name="Zcaron" unicode="&#x17d;" horiz-adv-x="549" 
d="M393 581h-337v74h436v-75l-350 -506h362v-74h-459v77zM279 767l132 100l26 -29l-141 -143h-34l-141 143l26 29z" />
    <glyph glyph-name="Zdotaccent" unicode="&#x17b;" horiz-adv-x="549" 
d="M393 581h-337v74h436v-75l-350 -506h362v-74h-459v77zM226 771c0 30 23 54 53 54s54 -24 54 -54s-24 -53 -54 -53s-53 23 -53 53z" />
    <glyph glyph-name="Eth" unicode="&#xd0;" horiz-adv-x="656" 
d="M608 314c0 -153 -97 -314 -320 -314h-203v300h-70v59h70v296h209c234 0 314 -163 314 -341zM520 318c0 130 -49 263 -240 263h-110v-222h168v-59h-168v-226h96c179 0 254 84 254 244z" />
    <glyph glyph-name="Thorn" unicode="&#xde;" horiz-adv-x="568" 
d="M85 0v655h85v-141h122c114 0 236 -36 236 -173c0 -156 -139 -195 -245 -195h-113v-146h-85zM440 330c0 95 -85 110 -184 110h-86v-220h81c92 0 189 10 189 110z" />
    <glyph glyph-name="Eng" unicode="&#x14a;" horiz-adv-x="684" 
d="M517 -95v92l-350 571v-568h-82v655h119l313 -513v513h82v-768c0 -107 -67 -145 -131 -145c-36 0 -71 12 -96 34l20 36c20 -7 38 -11 53 -11c48 0 72 37 72 104z" />
    <glyph glyph-name="K.alt" horiz-adv-x="590" 
d="M537 49c57 -81 114 -123 169 -123c24 0 50 6 69 15l20 -36c-20 -29 -66 -45 -117 -45c-79 0 -146 53 -208 140l-212 294h-88v-294h-85v655h85v-287h74l211 287h96l-230 -312z" />
    <glyph glyph-name="Kcommaaccent.alt" horiz-adv-x="590" 
d="M537 49c57 -81 114 -123 169 -123c24 0 50 6 69 15l20 -36c-20 -29 -66 -45 -117 -45c-79 0 -146 53 -208 140l-212 294h-88v-294h-85v655h85v-287h74l211 287h96l-230 -312zM233 -83h85l-46 -180h-39v180z" />
    <glyph glyph-name="Q.alt" horiz-adv-x="705" 
d="M48 328c0 174 92 343 318 343c205 0 291 -181 291 -344c0 -143 -63 -283 -211 -328l45 -107c27 -63 73 -91 129 -91c19 0 34 4 57 16l20 -36c-25 -29 -64 -44 -105 -44c-105 0 -154 76 -183 149l-39 99c-10 0 -21 -1 -31 -1c-205 0 -291 181 -291 344zM136 350
c0 -164 59 -291 228 -291c128 0 205 120 205 246c0 164 -59 290 -228 290c-128 0 -205 -119 -205 -245z" />
    <glyph glyph-name="R.alt" horiz-adv-x="609" 
d="M528 467c0 -114 -72 -176 -158 -198l161 -220c59 -81 114 -123 169 -123c24 0 50 6 69 15l20 -36c-20 -29 -66 -45 -117 -45c-79 0 -146 53 -208 140l-187 260h-107v-260h-85v655h218c114 0 225 -51 225 -188zM440 456c0 100 -74 125 -173 125h-97v-249h92
c102 0 178 24 178 124z" />
    <glyph glyph-name="Racute.alt" horiz-adv-x="609" 
d="M528 467c0 -114 -72 -176 -158 -198l161 -220c59 -81 114 -123 169 -123c24 0 50 6 69 15l20 -36c-20 -29 -66 -45 -117 -45c-79 0 -146 53 -208 140l-187 260h-107v-260h-85v655h218c114 0 225 -51 225 -188zM440 456c0 100 -74 125 -173 125h-97v-249h92
c102 0 178 24 178 124zM231 695l-26 29l160 143l54 -61z" />
    <glyph glyph-name="Rcaron.alt" horiz-adv-x="609" 
d="M528 467c0 -114 -72 -176 -158 -198l161 -220c59 -81 114 -123 169 -123c24 0 50 6 69 15l20 -36c-20 -29 -66 -45 -117 -45c-79 0 -146 53 -208 140l-187 260h-107v-260h-85v655h218c114 0 225 -51 225 -188zM440 456c0 100 -74 125 -173 125h-97v-249h92
c102 0 178 24 178 124zM290 767l132 100l26 -29l-141 -143h-34l-141 143l26 29z" />
    <glyph glyph-name="Rcommaaccent.alt" horiz-adv-x="609" 
d="M528 467c0 -114 -72 -176 -158 -198l161 -220c59 -81 114 -123 169 -123c24 0 50 6 69 15l20 -36c-20 -29 -66 -45 -117 -45c-79 0 -146 53 -208 140l-187 260h-107v-260h-85v655h218c114 0 225 -51 225 -188zM440 456c0 100 -74 125 -173 125h-97v-249h92
c102 0 178 24 178 124zM233 -83h85l-46 -180h-39v180z" />
    <glyph glyph-name="aacute" unicode="&#xe1;" horiz-adv-x="490" 
d="M74 428c47 33 115 54 166 54c142 0 180 -80 180 -205v-277h-44l-25 55c-30 -38 -84 -71 -155 -71c-87 0 -149 52 -149 138c0 126 130 149 225 149h68v20c0 84 -34 120 -114 120c-50 0 -109 -23 -137 -41zM340 109v106h-51c-67 0 -161 -9 -161 -84c0 -45 31 -81 95 -81
c54 0 101 29 117 59zM370 686l-149 -146l-32 21l111 170z" />
    <glyph glyph-name="abreve" unicode="&#x103;" horiz-adv-x="490" 
d="M74 428c47 33 115 54 166 54c142 0 180 -80 180 -205v-277h-44l-25 55c-30 -38 -84 -71 -155 -71c-87 0 -149 52 -149 138c0 126 130 149 225 149h68v20c0 84 -34 120 -114 120c-50 0 -109 -23 -137 -41zM340 109v106h-51c-67 0 -161 -9 -161 -84c0 -45 31 -81 95 -81
c54 0 101 29 117 59zM376 690c0 -72 -50 -140 -127 -140c-82 0 -127 73 -127 140h44c8 -49 37 -77 83 -77s75 28 83 77h44z" />
    <glyph glyph-name="acircumflex" unicode="&#xe2;" horiz-adv-x="490" 
d="M74 428c47 33 115 54 166 54c142 0 180 -80 180 -205v-277h-44l-25 55c-30 -38 -84 -71 -155 -71c-87 0 -149 52 -149 138c0 126 130 149 225 149h68v20c0 84 -34 120 -114 120c-50 0 -109 -23 -137 -41zM340 109v106h-51c-67 0 -161 -9 -161 -84c0 -45 31 -81 95 -81
c54 0 101 29 117 59zM250 647l-96 -107l-32 21l111 170h35l111 -170l-32 -21z" />
    <glyph glyph-name="adieresis" unicode="&#xe4;" horiz-adv-x="490" 
d="M74 428c47 33 115 54 166 54c142 0 180 -80 180 -205v-277h-44l-25 55c-30 -38 -84 -71 -155 -71c-87 0 -149 52 -149 138c0 126 130 149 225 149h68v20c0 84 -34 120 -114 120c-50 0 -109 -23 -137 -41zM340 109v106h-51c-67 0 -161 -9 -161 -84c0 -45 31 -81 95 -81
c54 0 101 29 117 59zM98 617c0 28 25 54 53 54s54 -26 54 -54s-26 -53 -54 -53s-53 25 -53 53zM297 617c0 28 25 54 53 54s54 -26 54 -54s-26 -53 -54 -53s-53 25 -53 53z" />
    <glyph glyph-name="agrave" unicode="&#xe0;" horiz-adv-x="490" 
d="M74 428c47 33 115 54 166 54c142 0 180 -80 180 -205v-277h-44l-25 55c-30 -38 -84 -71 -155 -71c-87 0 -149 52 -149 138c0 126 130 149 225 149h68v20c0 84 -34 120 -114 120c-50 0 -109 -23 -137 -41zM340 109v106h-51c-67 0 -161 -9 -161 -84c0 -45 31 -81 95 -81
c54 0 101 29 117 59zM281 540l-149 146l70 45l111 -170z" />
    <glyph glyph-name="amacron" unicode="&#x101;" horiz-adv-x="490" 
d="M74 428c47 33 115 54 166 54c142 0 180 -80 180 -205v-277h-44l-25 55c-30 -38 -84 -71 -155 -71c-87 0 -149 52 -149 138c0 126 130 149 225 149h68v20c0 84 -34 120 -114 120c-50 0 -109 -23 -137 -41zM340 109v106h-51c-67 0 -161 -9 -161 -84c0 -45 31 -81 95 -81
c54 0 101 29 117 59zM389 596h-279v59h279v-59z" />
    <glyph glyph-name="aogonek" unicode="&#x105;" horiz-adv-x="490" 
d="M440 -222c-25 -21 -60 -33 -95 -33c-54 0 -105 29 -105 96c0 61 47 127 130 172l-19 42c-30 -38 -84 -71 -155 -71c-87 0 -149 52 -149 138c0 126 130 149 225 149h68v20c0 84 -34 120 -114 120c-50 0 -109 -23 -137 -41l-15 58c47 33 115 54 166 54
c142 0 180 -80 180 -205v-277c-53 -27 -106 -82 -106 -140c0 -41 29 -57 60 -57c16 0 32 4 46 11zM340 109v106h-51c-67 0 -161 -9 -161 -84c0 -45 31 -81 95 -81c54 0 101 29 117 59z" />
    <glyph glyph-name="aring" unicode="&#xe5;" horiz-adv-x="490" 
d="M74 428c47 33 115 54 166 54c142 0 180 -80 180 -205v-277h-44l-25 55c-30 -38 -84 -71 -155 -71c-87 0 -149 52 -149 138c0 126 130 149 225 149h68v20c0 84 -34 120 -114 120c-50 0 -109 -23 -137 -41zM340 109v106h-51c-67 0 -161 -9 -161 -84c0 -45 31 -81 95 -81
c54 0 101 29 117 59zM350 623c0 -57 -45 -96 -100 -96s-100 39 -100 96c0 56 45 95 100 95s100 -39 100 -95zM304 623c0 33 -20 57 -54 57s-55 -25 -55 -57c0 -34 22 -58 55 -58c34 0 54 24 54 58z" />
    <glyph glyph-name="atilde" unicode="&#xe3;" horiz-adv-x="490" 
d="M74 428c47 33 115 54 166 54c142 0 180 -80 180 -205v-277h-44l-25 55c-30 -38 -84 -71 -155 -71c-87 0 -149 52 -149 138c0 126 130 149 225 149h68v20c0 84 -34 120 -114 120c-50 0 -109 -23 -137 -41zM340 109v106h-51c-67 0 -161 -9 -161 -84c0 -45 31 -81 95 -81
c54 0 101 29 117 59zM380 717l32 -21l-54 -83s-18 -31 -54 -31s-53 26 -88 26c-21 0 -49 -32 -80 -68l-32 21l54 83s18 31 54 31s53 -26 88 -26c21 0 49 32 80 68z" />
    <glyph glyph-name="ae" unicode="&#xe6;" horiz-adv-x="786" 
d="M240 482c84 0 128 -29 150 -78c36 50 88 78 151 78c115 0 199 -76 200 -212l-25 -55h-303c10 -98 65 -162 178 -162c39 0 89 18 114 38l20 -36c-41 -49 -108 -71 -166 -71c-88 0 -147 41 -180 99c-20 -40 -68 -99 -183 -99c-87 0 -149 52 -149 138c0 126 130 149 225 149
h68v20c0 84 -34 120 -114 120c-50 0 -109 -23 -137 -41l-15 58c47 33 115 54 166 54zM340 109v106h-51c-67 0 -161 -9 -161 -84c0 -45 31 -81 95 -81c54 0 101 29 117 59zM414 273h252c0 97 -57 143 -121 143c-80 0 -125 -64 -131 -143z" />
    <glyph glyph-name="aeacute" unicode="&#x1fd;" horiz-adv-x="786" 
d="M240 482c84 0 128 -29 150 -78c36 50 88 78 151 78c115 0 199 -76 200 -212l-25 -55h-303c10 -98 65 -162 178 -162c39 0 89 18 114 38l20 -36c-41 -49 -108 -71 -166 -71c-88 0 -147 41 -180 99c-20 -40 -68 -99 -183 -99c-87 0 -149 52 -149 138c0 126 130 149 225 149
h68v20c0 84 -34 120 -114 120c-50 0 -109 -23 -137 -41l-15 58c47 33 115 54 166 54zM340 109v106h-51c-67 0 -161 -9 -161 -84c0 -45 31 -81 95 -81c54 0 101 29 117 59zM414 273h252c0 97 -57 143 -121 143c-80 0 -125 -64 -131 -143zM517 686l-149 -146l-32 21l111 170z
" />
    <glyph glyph-name="cacute" unicode="&#x107;" horiz-adv-x="467" 
d="M298 55c39 0 89 16 114 36l20 -36c-41 -49 -108 -71 -166 -71c-143 0 -221 123 -221 247c0 158 104 251 221 251c63 0 120 -25 153 -54l-15 -58c-30 18 -68 41 -135 41c-86 0 -141 -76 -141 -168c0 -112 58 -188 170 -188zM368 686l-149 -146l-32 21l111 170z" />
    <glyph glyph-name="ccaron" unicode="&#x10d;" horiz-adv-x="467" 
d="M298 55c39 0 89 16 114 36l20 -36c-41 -49 -108 -71 -166 -71c-143 0 -221 123 -221 247c0 158 104 251 221 251c63 0 120 -25 153 -54l-15 -58c-30 18 -68 41 -135 41c-86 0 -141 -76 -141 -168c0 -112 58 -188 170 -188zM165 731l96 -107l97 107l32 -21l-111 -170h-35
l-111 170z" />
    <glyph glyph-name="ccedilla" unicode="&#xe7;" horiz-adv-x="467" 
d="M268 -77c56 -9 82 -38 82 -70c0 -44 -49 -94 -136 -108l-20 36c46 10 81 41 81 66c0 18 -19 33 -66 36l18 104c-118 20 -182 132 -182 244c0 158 104 251 221 251c63 0 120 -25 153 -54l-15 -58c-30 18 -68 41 -135 41c-86 0 -141 -76 -141 -168c0 -112 58 -188 170 -188
c39 0 89 16 114 36l20 -36c-38 -46 -99 -68 -154 -71z" />
    <glyph glyph-name="ccircumflex" unicode="&#x109;" horiz-adv-x="467" 
d="M298 55c39 0 89 16 114 36l20 -36c-41 -49 -108 -71 -166 -71c-143 0 -221 123 -221 247c0 158 104 251 221 251c63 0 120 -25 153 -54l-15 -58c-30 18 -68 41 -135 41c-86 0 -141 -76 -141 -168c0 -112 58 -188 170 -188zM266 647l-96 -107l-32 21l111 170h35l111 -170
l-32 -21z" />
    <glyph glyph-name="cdotaccent" unicode="&#x10b;" horiz-adv-x="467" 
d="M298 55c39 0 89 16 114 36l20 -36c-41 -49 -108 -71 -166 -71c-143 0 -221 123 -221 247c0 158 104 251 221 251c63 0 120 -25 153 -54l-15 -58c-30 18 -68 41 -135 41c-86 0 -141 -76 -141 -168c0 -112 58 -188 170 -188zM212 617c0 28 25 54 53 54s54 -26 54 -54
s-26 -53 -54 -53s-53 25 -53 53z" />
    <glyph glyph-name="dcaron" unicode="&#x10f;" horiz-adv-x="553" 
d="M621 737l-44 -194h-39v194h83zM254 -16c-132 0 -211 113 -211 245c0 149 94 253 212 253c54 0 95 -15 134 -46v301h80v-737h-44l-25 55c-35 -50 -88 -71 -146 -71zM271 55c62 0 100 29 118 66v243c-33 28 -64 47 -121 47c-88 0 -142 -73 -142 -165
c0 -95 40 -191 145 -191z" />
    <glyph glyph-name="dcroat" unicode="&#x111;" horiz-adv-x="546" 
d="M254 -16c-132 0 -211 113 -211 245c0 149 94 253 212 253c54 0 95 -15 134 -46v139h-163v49h163v113h80v-113h70v-49h-70v-575h-44l-25 55c-35 -50 -88 -71 -146 -71zM271 55c62 0 100 29 118 66v243c-33 28 -64 47 -121 47c-88 0 -142 -73 -142 -165
c0 -95 40 -191 145 -191z" />
    <glyph glyph-name="eacute" unicode="&#xe9;" horiz-adv-x="498" 
d="M303 53c39 0 89 18 114 38l20 -36c-41 -49 -108 -71 -166 -71c-153 0 -226 123 -226 247c0 155 92 251 208 251c115 0 199 -76 200 -212l-25 -55h-303c10 -98 65 -162 178 -162zM126 273h252c0 97 -57 143 -121 143c-80 0 -125 -64 -131 -143zM369 686l-149 -146l-32 21
l111 170z" />
    <glyph glyph-name="ebreve" unicode="&#x115;" horiz-adv-x="498" 
d="M303 53c39 0 89 18 114 38l20 -36c-41 -49 -108 -71 -166 -71c-153 0 -226 123 -226 247c0 155 92 251 208 251c115 0 199 -76 200 -212l-25 -55h-303c10 -98 65 -162 178 -162zM126 273h252c0 97 -57 143 -121 143c-80 0 -125 -64 -131 -143zM391 690
c0 -72 -50 -140 -127 -140c-82 0 -127 73 -127 140h44c8 -49 37 -77 83 -77s75 28 83 77h44z" />
    <glyph glyph-name="ecaron" unicode="&#x11b;" horiz-adv-x="498" 
d="M303 53c39 0 89 18 114 38l20 -36c-41 -49 -108 -71 -166 -71c-153 0 -226 123 -226 247c0 155 92 251 208 251c115 0 199 -76 200 -212l-25 -55h-303c10 -98 65 -162 178 -162zM126 273h252c0 97 -57 143 -121 143c-80 0 -125 -64 -131 -143zM166 731l96 -107l97 107
l32 -21l-111 -170h-35l-111 170z" />
    <glyph glyph-name="ecircumflex" unicode="&#xea;" horiz-adv-x="498" 
d="M303 53c39 0 89 18 114 38l20 -36c-41 -49 -108 -71 -166 -71c-153 0 -226 123 -226 247c0 155 92 251 208 251c115 0 199 -76 200 -212l-25 -55h-303c10 -98 65 -162 178 -162zM126 273h252c0 97 -57 143 -121 143c-80 0 -125 -64 -131 -143zM259 647l-96 -107l-32 21
l111 170h35l111 -170l-32 -21z" />
    <glyph glyph-name="edieresis" unicode="&#xeb;" horiz-adv-x="498" 
d="M303 53c39 0 89 18 114 38l20 -36c-41 -49 -108 -71 -166 -71c-153 0 -226 123 -226 247c0 155 92 251 208 251c115 0 199 -76 200 -212l-25 -55h-303c10 -98 65 -162 178 -162zM126 273h252c0 97 -57 143 -121 143c-80 0 -125 -64 -131 -143zM99 617c0 28 25 54 53 54
s54 -26 54 -54s-26 -53 -54 -53s-53 25 -53 53zM298 617c0 28 25 54 53 54s54 -26 54 -54s-26 -53 -54 -53s-53 25 -53 53z" />
    <glyph glyph-name="edotaccent" unicode="&#x117;" horiz-adv-x="498" 
d="M303 53c39 0 89 18 114 38l20 -36c-41 -49 -108 -71 -166 -71c-153 0 -226 123 -226 247c0 155 92 251 208 251c115 0 199 -76 200 -212l-25 -55h-303c10 -98 65 -162 178 -162zM126 273h252c0 97 -57 143 -121 143c-80 0 -125 -64 -131 -143zM205 617c0 28 25 54 53 54
s54 -26 54 -54s-26 -53 -54 -53s-53 25 -53 53z" />
    <glyph glyph-name="egrave" unicode="&#xe8;" horiz-adv-x="498" 
d="M303 53c39 0 89 18 114 38l20 -36c-41 -49 -108 -71 -166 -71c-153 0 -226 123 -226 247c0 155 92 251 208 251c115 0 199 -76 200 -212l-25 -55h-303c10 -98 65 -162 178 -162zM126 273h252c0 97 -57 143 -121 143c-80 0 -125 -64 -131 -143zM288 540l-149 146l70 45
l111 -170z" />
    <glyph glyph-name="emacron" unicode="&#x113;" horiz-adv-x="498" 
d="M303 53c39 0 89 18 114 38l20 -36c-41 -49 -108 -71 -166 -71c-153 0 -226 123 -226 247c0 155 92 251 208 251c115 0 199 -76 200 -212l-25 -55h-303c10 -98 65 -162 178 -162zM126 273h252c0 97 -57 143 -121 143c-80 0 -125 -64 -131 -143zM395 596h-279v59h279v-59z
" />
    <glyph glyph-name="eogonek" unicode="&#x119;" horiz-adv-x="498" 
d="M378 -222c-25 -21 -60 -33 -95 -33c-54 0 -105 29 -105 96c0 49 30 101 85 143c-148 4 -218 125 -218 247c0 155 92 251 208 251c115 0 199 -76 200 -212l-25 -55h-303c10 -98 65 -162 178 -162c39 0 89 18 114 38l20 -36c-53 -63 -185 -83 -185 -195
c0 -41 29 -57 60 -57c16 0 32 4 46 11zM126 273h252c0 97 -57 143 -121 143c-80 0 -125 -64 -131 -143z" />
    <glyph glyph-name="gbreve" unicode="&#x11f;" horiz-adv-x="513" 
d="M250 50c103 0 233 -7 233 -136c0 -115 -108 -177 -244 -177c-126 0 -202 57 -202 142c0 51 40 102 91 123c-40 22 -58 58 -58 93c0 31 13 63 36 89c-31 30 -50 72 -50 123c0 117 91 175 178 175c32 0 61 -6 86 -16h158v-56l-105 15c34 -34 55 -76 55 -130
c0 -90 -77 -164 -187 -164c-37 0 -73 9 -103 28c-7 -12 -12 -25 -12 -37c0 -51 33 -72 124 -72zM109 -101c0 -66 56 -99 142 -99c84 0 157 39 157 114c0 86 -126 57 -236 74c-32 -16 -63 -49 -63 -89zM359 304c0 75 -54 115 -121 115c-63 0 -110 -44 -110 -107
c0 -79 59 -117 119 -117c69 0 112 50 112 109zM373 690c0 -72 -50 -140 -127 -140c-82 0 -127 73 -127 140h44c8 -49 37 -77 83 -77s75 28 83 77h44z" />
    <glyph glyph-name="gcircumflex" unicode="&#x11d;" horiz-adv-x="513" 
d="M250 50c103 0 233 -7 233 -136c0 -115 -108 -177 -244 -177c-126 0 -202 57 -202 142c0 51 40 102 91 123c-40 22 -58 58 -58 93c0 31 13 63 36 89c-31 30 -50 72 -50 123c0 117 91 175 178 175c32 0 61 -6 86 -16h158v-56l-105 15c34 -34 55 -76 55 -130
c0 -90 -77 -164 -187 -164c-37 0 -73 9 -103 28c-7 -12 -12 -25 -12 -37c0 -51 33 -72 124 -72zM109 -101c0 -66 56 -99 142 -99c84 0 157 39 157 114c0 86 -126 57 -236 74c-32 -16 -63 -49 -63 -89zM359 304c0 75 -54 115 -121 115c-63 0 -110 -44 -110 -107
c0 -79 59 -117 119 -117c69 0 112 50 112 109zM241 647l-96 -107l-32 21l111 170h35l111 -170l-32 -21z" />
    <glyph glyph-name="gcommaaccent" unicode="&#x123;" horiz-adv-x="513" 
d="M250 50c103 0 233 -7 233 -136c0 -115 -108 -177 -244 -177c-126 0 -202 57 -202 142c0 51 40 102 91 123c-40 22 -58 58 -58 93c0 31 13 63 36 89c-31 30 -50 72 -50 123c0 117 91 175 178 175c32 0 61 -6 86 -16h158v-56l-105 15c34 -34 55 -76 55 -130
c0 -90 -77 -164 -187 -164c-37 0 -73 9 -103 28c-7 -12 -12 -25 -12 -37c0 -51 33 -72 124 -72zM109 -101c0 -66 56 -99 142 -99c84 0 157 39 157 114c0 86 -126 57 -236 74c-32 -16 -63 -49 -63 -89zM359 304c0 75 -54 115 -121 115c-63 0 -110 -44 -110 -107
c0 -79 59 -117 119 -117c69 0 112 50 112 109zM266 557h-85l46 180h39v-180z" />
    <glyph glyph-name="gdotaccent" unicode="&#x121;" horiz-adv-x="513" 
d="M250 50c103 0 233 -7 233 -136c0 -115 -108 -177 -244 -177c-126 0 -202 57 -202 142c0 51 40 102 91 123c-40 22 -58 58 -58 93c0 31 13 63 36 89c-31 30 -50 72 -50 123c0 117 91 175 178 175c32 0 61 -6 86 -16h158v-56l-105 15c34 -34 55 -76 55 -130
c0 -90 -77 -164 -187 -164c-37 0 -73 9 -103 28c-7 -12 -12 -25 -12 -37c0 -51 33 -72 124 -72zM109 -101c0 -66 56 -99 142 -99c84 0 157 39 157 114c0 86 -126 57 -236 74c-32 -16 -63 -49 -63 -89zM359 304c0 75 -54 115 -121 115c-63 0 -110 -44 -110 -107
c0 -79 59 -117 119 -117c69 0 112 50 112 109zM187 617c0 28 25 54 53 54s54 -26 54 -54s-26 -53 -54 -53s-53 25 -53 53z" />
    <glyph glyph-name="hbar" unicode="&#x127;" horiz-adv-x="538" 
d="M155 351v-351h-80v575h-60v49h60v113h80v-113h173v-49h-173v-153c41 33 101 60 166 60c85 0 144 -45 144 -160v-322h-80v293c0 72 -18 118 -102 118c-45 0 -106 -34 -128 -60z" />
    <glyph glyph-name="hcircumflex" unicode="&#x125;" horiz-adv-x="538" 
d="M155 351v-351h-80v737h80v-315c41 33 101 60 166 60c85 0 144 -45 144 -160v-322h-80v293c0 72 -18 118 -102 118c-45 0 -106 -34 -128 -60zM248 740l-132 100l-132 -100l-26 29l141 143h34l141 -143z" />
    <glyph glyph-name="iacute" unicode="&#xed;" horiz-adv-x="257" 
d="M243 686l-149 -146l-32 21l111 170zM168 0h-80v466h80v-466z" />
    <glyph glyph-name="ibreve" unicode="&#x12d;" horiz-adv-x="257" 
d="M255 690c0 -72 -50 -140 -127 -140c-82 0 -127 73 -127 140h44c8 -49 37 -77 83 -77s75 28 83 77h44zM168 0h-80v466h80v-466z" />
    <glyph glyph-name="icircumflex" unicode="&#xee;" horiz-adv-x="257" 
d="M129 647l-96 -107l-32 21l111 170h35l111 -170l-32 -21zM169 0h-80v466h80v-466z" />
    <glyph glyph-name="idieresis" unicode="&#xef;" horiz-adv-x="257" 
d="M267 617c0 -29 -24 -53 -54 -53s-53 24 -53 53c0 30 24 54 53 54c30 0 54 -25 54 -54zM97 617c0 -29 -24 -53 -54 -53s-53 24 -53 53c0 30 24 54 53 54c30 0 54 -25 54 -54zM169 0h-80v466h80v-466z" />
    <glyph glyph-name="dotlessi" unicode="&#x131;" horiz-adv-x="257" 
d="M168 0h-80v466h80v-466z" />
    <glyph glyph-name="igrave" unicode="&#xec;" horiz-adv-x="257" 
d="M167 540l-149 146l70 45l111 -170zM168 0h-80v466h80v-466z" />
    <glyph glyph-name="imacron" unicode="&#x12b;" horiz-adv-x="257" 
d="M250 596h-235v59h235v-59zM168 0h-80v466h80v-466z" />
    <glyph glyph-name="iogonek" unicode="&#x12f;" horiz-adv-x="257" 
d="M208 -222c-25 -21 -60 -33 -95 -33c-54 0 -105 29 -105 96c0 51 28 106 80 149v476h80v-466c-43 -27 -86 -82 -86 -140c0 -41 29 -57 60 -57c16 0 32 4 46 11zM75 617c0 30 23 54 53 54s54 -24 54 -54s-24 -53 -54 -53s-53 23 -53 53z" />
    <glyph glyph-name="itilde" unicode="&#x129;" horiz-adv-x="257" 
d="M261 717l32 -21l-54 -83s-18 -31 -54 -31s-53 26 -88 26c-21 0 -49 -32 -80 -68l-32 21l54 83s18 31 54 31s53 -26 88 -26c21 0 49 32 80 68zM168 0h-80v466h80v-466z" />
    <glyph glyph-name="ij" unicode="&#x133;" horiz-adv-x="491" 
d="M168 0h-80v466h80v-466zM75 617c0 30 23 54 53 54s54 -24 54 -54s-24 -53 -54 -53s-53 23 -53 53zM412 -113v579h-80v-561c0 -67 -24 -104 -72 -104c-15 0 -33 4 -53 11l-20 -36c25 -22 60 -34 96 -34c64 0 129 38 129 145zM319 617c0 30 23 54 53 54s54 -24 54 -54
s-24 -53 -54 -53s-53 23 -53 53z" />
    <glyph glyph-name="jcircumflex" unicode="&#x135;" horiz-adv-x="254" 
d="M136 647l-96 -107l-32 21l111 170h35l111 -170l-32 -21zM175 466v-579c0 -107 -65 -145 -129 -145c-36 0 -71 12 -96 34l20 36c20 -7 38 -11 53 -11c48 0 72 37 72 104v561h80z" />
    <glyph glyph-name="dotlessj" unicode="&#x237;" horiz-adv-x="250" 
d="M175 466v-579c0 -107 -65 -145 -129 -145c-36 0 -71 12 -96 34l20 36c20 -7 38 -11 53 -11c48 0 72 37 72 104v561h80z" />
    <glyph glyph-name="kcommaaccent" unicode="&#x137;" horiz-adv-x="487" 
d="M155 0h-80v737h80v-463h50l160 192h97l-180 -210l180 -256h-95l-144 205h-68v-205zM188 -83h85l-46 -180h-39v180z" />
    <glyph glyph-name="kgreenlandic" unicode="&#x138;" horiz-adv-x="487" 
d="M155 0h-80v466h80v-192h50l160 192h97l-180 -210l180 -256h-95l-144 205h-68v-205z" />
    <glyph glyph-name="lacute" unicode="&#x13a;" horiz-adv-x="230" 
d="M155 0h-80v737h80v-737zM67 775l-26 29l160 143l54 -61z" />
    <glyph glyph-name="lcaron" unicode="&#x13e;" horiz-adv-x="240" 
d="M308 737l-44 -194h-39v194h83zM155 0h-80v737h80v-737z" />
    <glyph glyph-name="lcommaaccent" unicode="&#x13c;" horiz-adv-x="230" 
d="M155 0h-80v737h80v-737zM75 -83h85l-46 -180h-39v180z" />
    <glyph glyph-name="ldot" unicode="&#x140;" horiz-adv-x="323" 
d="M155 0h-80v737h80v-737zM211 358c0 28 25 54 53 54s54 -26 54 -54s-26 -53 -54 -53s-53 25 -53 53z" />
    <glyph glyph-name="lslash" unicode="&#x142;" horiz-adv-x="290" 
d="M185 0h-80v291l-70 -55v64l70 55v382h80v-318l90 72v-65l-90 -71v-355z" />
    <glyph glyph-name="nacute" unicode="&#x144;" horiz-adv-x="538" 
d="M144 411c50 44 114 71 177 71c85 0 144 -45 144 -160v-322h-80v293c0 72 -18 118 -102 118c-45 0 -106 -34 -128 -60v-351h-80v466h44zM382 686l-149 -146l-32 21l111 170z" />
    <glyph glyph-name="ncaron" unicode="&#x148;" horiz-adv-x="538" 
d="M144 411c50 44 114 71 177 71c85 0 144 -45 144 -160v-322h-80v293c0 72 -18 118 -102 118c-45 0 -106 -34 -128 -60v-351h-80v466h44zM169 731l96 -107l97 107l32 -21l-111 -170h-35l-111 170z" />
    <glyph glyph-name="ncommaaccent" unicode="&#x146;" horiz-adv-x="538" 
d="M144 411c50 44 114 71 177 71c85 0 144 -45 144 -160v-322h-80v293c0 72 -18 118 -102 118c-45 0 -106 -34 -128 -60v-351h-80v466h44zM230 -83h85l-46 -180h-39v180z" />
    <glyph glyph-name="ntilde" unicode="&#xf1;" horiz-adv-x="538" 
d="M144 411c50 44 114 71 177 71c85 0 144 -45 144 -160v-322h-80v293c0 72 -18 118 -102 118c-45 0 -106 -34 -128 -60v-351h-80v466h44zM396 717l32 -21l-54 -83s-18 -31 -54 -31s-53 26 -88 26c-21 0 -49 -32 -80 -68l-32 21l54 83s18 31 54 31s53 -26 88 -26
c21 0 49 32 80 68z" />
    <glyph glyph-name="napostrophe" unicode="&#x149;" horiz-adv-x="573" 
d="M179 411c50 44 114 71 177 71c85 0 144 -45 144 -160v-322h-80v293c0 72 -18 118 -102 118c-45 0 -106 -34 -128 -60v-351h-80v466h44zM101 737l-57 -239h-39v239h96z" />
    <glyph glyph-name="oacute" unicode="&#xf3;" horiz-adv-x="532" 
d="M487 237c0 -158 -94 -253 -232 -253c-132 0 -210 113 -210 245c0 158 94 253 232 253c132 0 210 -113 210 -245zM404 220c0 95 -39 196 -144 196c-88 0 -132 -88 -132 -170c0 -95 39 -196 144 -196c88 0 132 88 132 170zM376 686l-149 -146l-32 21l111 170z" />
    <glyph glyph-name="obreve" unicode="&#x14f;" horiz-adv-x="532" 
d="M487 237c0 -158 -94 -253 -232 -253c-132 0 -210 113 -210 245c0 158 94 253 232 253c132 0 210 -113 210 -245zM404 220c0 95 -39 196 -144 196c-88 0 -132 -88 -132 -170c0 -95 39 -196 144 -196c88 0 132 88 132 170zM393 690c0 -72 -50 -140 -127 -140
c-82 0 -127 73 -127 140h44c8 -49 37 -77 83 -77s75 28 83 77h44z" />
    <glyph glyph-name="ocircumflex" unicode="&#xf4;" horiz-adv-x="532" 
d="M487 237c0 -158 -94 -253 -232 -253c-132 0 -210 113 -210 245c0 158 94 253 232 253c132 0 210 -113 210 -245zM404 220c0 95 -39 196 -144 196c-88 0 -132 -88 -132 -170c0 -95 39 -196 144 -196c88 0 132 88 132 170zM266 647l-96 -107l-32 21l111 170h35l111 -170
l-32 -21z" />
    <glyph glyph-name="odieresis" unicode="&#xf6;" horiz-adv-x="532" 
d="M487 237c0 -158 -94 -253 -232 -253c-132 0 -210 113 -210 245c0 158 94 253 232 253c132 0 210 -113 210 -245zM404 220c0 95 -39 196 -144 196c-88 0 -132 -88 -132 -170c0 -95 39 -196 144 -196c88 0 132 88 132 170zM113 617c0 28 25 54 53 54s54 -26 54 -54
s-26 -53 -54 -53s-53 25 -53 53zM312 617c0 28 25 54 53 54s54 -26 54 -54s-26 -53 -54 -53s-53 25 -53 53z" />
    <glyph glyph-name="ograve" unicode="&#xf2;" horiz-adv-x="532" 
d="M487 237c0 -158 -94 -253 -232 -253c-132 0 -210 113 -210 245c0 158 94 253 232 253c132 0 210 -113 210 -245zM404 220c0 95 -39 196 -144 196c-88 0 -132 -88 -132 -170c0 -95 39 -196 144 -196c88 0 132 88 132 170zM315 540l-149 146l70 45l111 -170z" />
    <glyph glyph-name="ohungarumlaut" unicode="&#x151;" horiz-adv-x="532" 
d="M487 237c0 -158 -94 -253 -232 -253c-132 0 -210 113 -210 245c0 158 94 253 232 253c132 0 210 -113 210 -245zM404 220c0 95 -39 196 -144 196c-88 0 -132 -88 -132 -170c0 -95 39 -196 144 -196c88 0 132 88 132 170zM297 686l-149 -146l-32 21l111 170zM455 686
l-149 -146l-32 21l111 170z" />
    <glyph glyph-name="omacron" unicode="&#x14d;" horiz-adv-x="532" 
d="M487 237c0 -158 -94 -253 -232 -253c-132 0 -210 113 -210 245c0 158 94 253 232 253c132 0 210 -113 210 -245zM404 220c0 95 -39 196 -144 196c-88 0 -132 -88 -132 -170c0 -95 39 -196 144 -196c88 0 132 88 132 170zM405 596h-279v59h279v-59z" />
    <glyph glyph-name="otilde" unicode="&#xf5;" horiz-adv-x="532" 
d="M487 237c0 -158 -94 -253 -232 -253c-132 0 -210 113 -210 245c0 158 94 253 232 253c132 0 210 -113 210 -245zM404 220c0 95 -39 196 -144 196c-88 0 -132 -88 -132 -170c0 -95 39 -196 144 -196c88 0 132 88 132 170zM392 717l32 -21l-54 -83s-18 -31 -54 -31
s-53 26 -88 26c-21 0 -49 -32 -80 -68l-32 21l54 83s18 31 54 31s53 -26 88 -26c21 0 49 32 80 68z" />
    <glyph glyph-name="oslash" unicode="&#xf8;" horiz-adv-x="532" 
d="M487 237c0 -158 -94 -253 -232 -253c-41 0 -76 11 -106 29l-27 -39l-38 26l29 42c-44 46 -68 113 -68 187c0 158 94 253 232 253c46 0 86 -14 118 -38l31 45l38 -26l-36 -51c38 -45 59 -107 59 -175zM128 246c0 -48 10 -98 33 -135l189 269c-22 22 -52 36 -90 36
c-88 0 -132 -88 -132 -170zM404 220c0 42 -8 85 -26 121l-185 -266c20 -16 47 -25 79 -25c88 0 132 88 132 170z" />
    <glyph glyph-name="oslashacute" unicode="&#x1ff;" horiz-adv-x="532" 
d="M487 237c0 -158 -94 -253 -232 -253c-41 0 -76 11 -106 29l-27 -39l-38 26l29 42c-44 46 -68 113 -68 187c0 158 94 253 232 253c46 0 86 -14 118 -38l31 45l38 -26l-36 -51c38 -45 59 -107 59 -175zM128 246c0 -48 10 -98 33 -135l189 269c-22 22 -52 36 -90 36
c-88 0 -132 -88 -132 -170zM404 220c0 42 -8 85 -26 121l-185 -266c20 -16 47 -25 79 -25c88 0 132 88 132 170zM376 686l-149 -146l-32 21l111 170z" />
    <glyph glyph-name="oe" unicode="&#x153;" horiz-adv-x="858" 
d="M663 53c39 0 89 18 114 38l20 -36c-41 -49 -108 -71 -166 -71c-93 0 -153 45 -185 108c-36 -69 -101 -108 -189 -108c-132 0 -212 113 -212 245c0 158 92 253 230 253c81 0 138 -43 171 -106c34 67 94 106 167 106c115 0 199 -76 200 -212l-25 -55h-303
c10 -98 65 -162 178 -162zM404 220c0 95 -41 196 -146 196c-88 0 -130 -88 -130 -170c0 -95 41 -196 146 -196c88 0 130 88 130 170zM486 273h252c0 97 -57 143 -121 143c-80 0 -125 -64 -131 -143z" />
    <glyph glyph-name="racute" unicode="&#x155;" horiz-adv-x="370" 
d="M360 451l-17 -65c-25 9 -50 15 -74 15c-45 0 -85 -17 -114 -50v-351h-80v466h44l25 -55c39 46 98 65 143 65c24 0 54 -7 73 -25zM308 686l-149 -146l-32 21l111 170z" />
    <glyph glyph-name="rcaron" unicode="&#x159;" horiz-adv-x="370" 
d="M360 451l-17 -65c-25 9 -50 15 -74 15c-45 0 -85 -17 -114 -50v-351h-80v466h44l25 -55c39 46 98 65 143 65c24 0 54 -7 73 -25zM112 731l96 -107l97 107l32 -21l-111 -170h-35l-111 170z" />
    <glyph glyph-name="rcommaaccent" unicode="&#x157;" horiz-adv-x="370" 
d="M360 451l-17 -65c-25 9 -50 15 -74 15c-45 0 -85 -17 -114 -50v-351h-80v466h44l25 -55c39 46 98 65 143 65c24 0 54 -7 73 -25zM75 -83h85l-46 -180h-39v180z" />
    <glyph glyph-name="sacute" unicode="&#x15b;" horiz-adv-x="436" 
d="M369 428l-15 -58c-25 17 -75 46 -132 46c-54 0 -88 -21 -88 -62c0 -89 255 -76 255 -228c0 -79 -59 -142 -177 -142c-58 0 -128 24 -167 67l25 45c35 -31 92 -46 131 -46c62 0 109 23 109 69c0 94 -254 84 -254 229c0 82 69 134 163 134c58 0 117 -25 150 -54zM324 686
l-149 -146l-32 21l111 170z" />
    <glyph glyph-name="scaron" unicode="&#x161;" horiz-adv-x="436" 
d="M369 428l-15 -58c-25 17 -75 46 -132 46c-54 0 -88 -21 -88 -62c0 -89 255 -76 255 -228c0 -79 -59 -142 -177 -142c-58 0 -128 24 -167 67l25 45c35 -31 92 -46 131 -46c62 0 109 23 109 69c0 94 -254 84 -254 229c0 82 69 134 163 134c58 0 117 -25 150 -54zM112 731
l96 -107l97 107l32 -21l-111 -170h-35l-111 170z" />
    <glyph glyph-name="scedilla" unicode="&#x15f;" horiz-adv-x="436" 
d="M224 -77c56 -9 82 -38 82 -70c0 -44 -49 -94 -136 -108l-20 36c46 10 81 41 81 66c0 18 -19 33 -66 36l17 103c-51 7 -105 29 -137 65l25 45c35 -31 92 -46 131 -46c62 0 109 23 109 69c0 94 -254 84 -254 229c0 82 69 134 163 134c58 0 117 -25 150 -54l-15 -58
c-25 17 -75 46 -132 46c-54 0 -88 -21 -88 -62c0 -89 255 -76 255 -228c0 -74 -52 -133 -155 -141z" />
    <glyph glyph-name="scircumflex" unicode="&#x15d;" horiz-adv-x="436" 
d="M369 428l-15 -58c-25 17 -75 46 -132 46c-54 0 -88 -21 -88 -62c0 -89 255 -76 255 -228c0 -79 -59 -142 -177 -142c-58 0 -128 24 -167 67l25 45c35 -31 92 -46 131 -46c62 0 109 23 109 69c0 94 -254 84 -254 229c0 82 69 134 163 134c58 0 117 -25 150 -54zM215 647
l-96 -107l-32 21l111 170h35l111 -170l-32 -21z" />
    <glyph glyph-name="scommaaccent" unicode="&#x219;" horiz-adv-x="436" 
d="M369 428l-15 -58c-25 17 -75 46 -132 46c-54 0 -88 -21 -88 -62c0 -89 255 -76 255 -228c0 -79 -59 -142 -177 -142c-58 0 -128 24 -167 67l25 45c35 -31 92 -46 131 -46c62 0 109 23 109 69c0 94 -254 84 -254 229c0 82 69 134 163 134c58 0 117 -25 150 -54zM177 -83
h85l-46 -180h-39v180z" />
    <glyph glyph-name="tcaron" unicode="&#x165;" horiz-adv-x="376" 
d="M327 737l-44 -194h-38v194h82zM20 441l80 20l36 124h40v-119h165v-69h-165v-245c0 -71 27 -102 83 -102c24 0 39 3 62 12l20 -36c-23 -22 -68 -37 -110 -37c-89 0 -135 44 -135 145v263h-76v44z" />
    <glyph glyph-name="tbar" unicode="&#x167;" horiz-adv-x="376" 
d="M20 441l80 20l36 124h40v-119h165v-69h-165v-115h124v-49h-124v-81c0 -71 27 -102 83 -102c24 0 39 3 62 12l20 -36c-23 -22 -68 -37 -110 -37c-89 0 -135 44 -135 145v99h-64v49h64v115h-76v44z" />
    <glyph glyph-name="tcommaaccent" unicode="&#x163;" horiz-adv-x="376" 
d="M20 441l80 20l36 124h40v-119h165v-69h-165v-245c0 -71 27 -102 83 -102c24 0 39 3 62 12l20 -36c-23 -22 -68 -37 -110 -37c-89 0 -135 44 -135 145v263h-76v44zM143 -83h85l-46 -180h-39v180z" />
    <glyph glyph-name="uni021B" unicode="&#x21b;" horiz-adv-x="376" 
d="M20 441l80 20l36 124h40v-119h165v-69h-165v-245c0 -71 27 -102 83 -102c24 0 39 3 62 12l20 -36c-23 -22 -68 -37 -110 -37c-89 0 -135 44 -135 145v263h-76v44zM143 -83h85l-46 -180h-39v180z" />
    <glyph glyph-name="uacute" unicode="&#xfa;" horiz-adv-x="537" 
d="M393 55c-50 -44 -114 -71 -177 -71c-85 0 -144 45 -144 160v322h80v-293c0 -72 18 -118 102 -118c45 0 106 34 128 60v351h80v-466h-44zM387 686l-149 -146l-32 21l111 170z" />
    <glyph glyph-name="ubreve" unicode="&#x16d;" horiz-adv-x="537" 
d="M393 55c-50 -44 -114 -71 -177 -71c-85 0 -144 45 -144 160v322h80v-293c0 -72 18 -118 102 -118c45 0 106 34 128 60v351h80v-466h-44zM398 690c0 -72 -50 -140 -127 -140c-82 0 -127 73 -127 140h44c8 -49 37 -77 83 -77s75 28 83 77h44z" />
    <glyph glyph-name="ucircumflex" unicode="&#xfb;" horiz-adv-x="537" 
d="M393 55c-50 -44 -114 -71 -177 -71c-85 0 -144 45 -144 160v322h80v-293c0 -72 18 -118 102 -118c45 0 106 34 128 60v351h80v-466h-44zM268 647l-96 -107l-32 21l111 170h35l111 -170l-32 -21z" />
    <glyph glyph-name="udieresis" unicode="&#xfc;" horiz-adv-x="537" 
d="M393 55c-50 -44 -114 -71 -177 -71c-85 0 -144 45 -144 160v322h80v-293c0 -72 18 -118 102 -118c45 0 106 34 128 60v351h80v-466h-44zM119 617c0 28 25 54 53 54s54 -26 54 -54s-26 -53 -54 -53s-53 25 -53 53zM318 617c0 28 25 54 53 54s54 -26 54 -54
s-26 -53 -54 -53s-53 25 -53 53z" />
    <glyph glyph-name="uhungarumlaut" unicode="&#x171;" horiz-adv-x="551" 
d="M393 55c-50 -44 -114 -71 -177 -71c-85 0 -144 45 -144 160v322h80v-293c0 -72 18 -118 102 -118c45 0 106 34 128 60v351h80v-466h-44zM318 686l-149 -146l-32 21l111 170zM476 686l-149 -146l-32 21l111 170z" />
    <glyph glyph-name="ugrave" unicode="&#xf9;" horiz-adv-x="537" 
d="M393 55c-50 -44 -114 -71 -177 -71c-85 0 -144 45 -144 160v322h80v-293c0 -72 18 -118 102 -118c45 0 106 34 128 60v351h80v-466h-44zM299 540l-149 146l70 45l111 -170z" />
    <glyph glyph-name="umacron" unicode="&#x16b;" horiz-adv-x="537" 
d="M393 55c-50 -44 -114 -71 -177 -71c-85 0 -144 45 -144 160v322h80v-293c0 -72 18 -118 102 -118c45 0 106 34 128 60v351h80v-466h-44zM407 596h-279v59h279v-59z" />
    <glyph glyph-name="uogonek" unicode="&#x173;" horiz-adv-x="537" 
d="M393 55c-50 -44 -114 -71 -177 -71c-85 0 -144 45 -144 160v322h80v-293c0 -72 18 -118 102 -118c45 0 106 34 128 60v351h80v-466c-53 -27 -106 -82 -106 -140c0 -41 29 -57 60 -57c16 0 32 4 46 11l20 -36c-25 -21 -60 -33 -95 -33c-54 0 -105 29 -105 96
c0 61 47 127 130 172z" />
    <glyph glyph-name="uring" unicode="&#x16f;" horiz-adv-x="537" 
d="M393 55c-50 -44 -114 -71 -177 -71c-85 0 -144 45 -144 160v322h80v-293c0 -72 18 -118 102 -118c45 0 106 34 128 60v351h80v-466h-44zM369 623c0 -57 -45 -96 -100 -96s-100 39 -100 96c0 56 45 95 100 95s100 -39 100 -95zM323 623c0 33 -20 57 -54 57
s-55 -25 -55 -57c0 -34 22 -58 55 -58c34 0 54 24 54 58z" />
    <glyph glyph-name="utilde" unicode="&#x169;" horiz-adv-x="537" 
d="M393 55c-50 -44 -114 -71 -177 -71c-85 0 -144 45 -144 160v322h80v-293c0 -72 18 -118 102 -118c45 0 106 34 128 60v351h80v-466h-44zM394 717l32 -21l-54 -83s-18 -31 -54 -31s-53 26 -88 26c-21 0 -49 -32 -80 -68l-32 21l54 83s18 31 54 31s53 -26 88 -26
c21 0 49 32 80 68z" />
    <glyph glyph-name="wacute" unicode="&#x1e83;" horiz-adv-x="771" 
d="M517 0l-133 379l-130 -379h-71l-168 466h88l119 -373l123 373h84l126 -373l116 373h85l-168 -466h-71zM480 686l-149 -146l-32 21l111 170z" />
    <glyph glyph-name="wcircumflex" unicode="&#x175;" horiz-adv-x="771" 
d="M517 0l-133 379l-130 -379h-71l-168 466h88l119 -373l123 373h84l126 -373l116 373h85l-168 -466h-71zM387 647l-96 -107l-32 21l111 170h35l111 -170l-32 -21z" />
    <glyph glyph-name="wdieresis" unicode="&#x1e85;" horiz-adv-x="771" 
d="M517 0l-133 379l-130 -379h-71l-168 466h88l119 -373l123 373h84l126 -373l116 373h85l-168 -466h-71zM233 617c0 28 25 54 53 54s54 -26 54 -54s-26 -53 -54 -53s-53 25 -53 53zM432 617c0 28 25 54 53 54s54 -26 54 -54s-26 -53 -54 -53s-53 25 -53 53z" />
    <glyph glyph-name="wgrave" unicode="&#x1e81;" horiz-adv-x="771" 
d="M517 0l-133 379l-130 -379h-71l-168 466h88l119 -373l123 373h84l126 -373l116 373h85l-168 -466h-71zM449 540l-149 146l70 45l111 -170z" />
    <glyph glyph-name="yacute" unicode="&#xfd;" horiz-adv-x="482" 
d="M181 -245h-83l108 250l-186 461h88l139 -373l135 373h85zM357 686l-149 -146l-32 21l111 170z" />
    <glyph glyph-name="ycircumflex" unicode="&#x177;" horiz-adv-x="482" 
d="M181 -245h-83l108 250l-186 461h88l139 -373l135 373h85zM244 647l-96 -107l-32 21l111 170h35l111 -170l-32 -21z" />
    <glyph glyph-name="ydieresis" unicode="&#xff;" horiz-adv-x="482" 
d="M181 -245h-83l108 250l-186 461h88l139 -373l135 373h85zM91 617c0 28 25 54 53 54s54 -26 54 -54s-26 -53 -54 -53s-53 25 -53 53zM290 617c0 28 25 54 53 54s54 -26 54 -54s-26 -53 -54 -53s-53 25 -53 53z" />
    <glyph glyph-name="ygrave" unicode="&#x1ef3;" horiz-adv-x="482" 
d="M181 -245h-83l108 250l-186 461h88l139 -373l135 373h85zM283 540l-149 146l70 45l111 -170z" />
    <glyph glyph-name="zacute" unicode="&#x17a;" horiz-adv-x="458" 
d="M408 0h-360v71l260 326h-255v69h349v-69l-257 -328h263v-69zM331 686l-149 -146l-32 21l111 170z" />
    <glyph glyph-name="zcaron" unicode="&#x17e;" horiz-adv-x="458" 
d="M408 0h-360v71l260 326h-255v69h349v-69l-257 -328h263v-69zM135 731l96 -107l97 107l32 -21l-111 -170h-35l-111 170z" />
    <glyph glyph-name="zdotaccent" unicode="&#x17c;" horiz-adv-x="458" 
d="M408 0h-360v71l260 326h-255v69h349v-69l-257 -328h263v-69zM177 617c0 28 25 54 53 54s54 -26 54 -54s-26 -53 -54 -53s-53 25 -53 53z" />
    <glyph glyph-name="germandbls" unicode="&#xdf;" horiz-adv-x="556" 
d="M25 441l76 19v85c0 122 57 208 184 208c121 0 182 -82 182 -172c0 -92 -44 -162 -122 -197c92 -32 166 -99 166 -202c0 -112 -64 -198 -173 -198c-34 0 -86 15 -112 45l23 41c18 -11 48 -16 67 -16c73 0 112 48 112 121c0 89 -66 164 -180 164v69c88 0 135 63 135 159
c0 61 -28 120 -98 120c-99 0 -104 -99 -104 -186v-501h-80v397h-76v44z" />
    <glyph glyph-name="eth" unicode="&#xf0;" 
d="M273 462c53 0 102 -22 139 -58c-17 85 -55 167 -108 222l-111 -85l-30 37l105 79c-32 23 -68 36 -108 36c-35 0 -62 -5 -95 -18l-20 36c43 23 88 35 137 35c54 0 103 -16 144 -45l98 74l27 -36l-88 -68c92 -86 142 -238 142 -391c0 -162 -60 -296 -230 -296
c-132 0 -212 108 -212 240c0 148 92 238 210 238zM422 263c0 20 -1 41 -3 62c-35 46 -91 71 -143 71c-88 0 -130 -73 -130 -155c0 -128 69 -191 137 -191c72 0 139 52 139 213z" />
    <glyph glyph-name="thorn" unicode="&#xfe;" horiz-adv-x="547" 
d="M502 237c0 -160 -96 -253 -221 -253c-40 0 -91 16 -126 50v-279h-80v982h80v-305c38 32 86 50 137 50c132 0 210 -113 210 -245zM278 55c88 0 141 73 141 165c0 95 -39 191 -144 191c-46 0 -94 -19 -120 -47v-253c36 -46 91 -56 123 -56z" />
    <glyph glyph-name="eng" unicode="&#x14b;" horiz-adv-x="538" 
d="M385 -95v388c0 72 -18 118 -102 118c-45 0 -106 -34 -128 -60v-351h-80v466h44l25 -55c50 44 114 71 177 71c85 0 144 -45 144 -160v-435c0 -107 -65 -145 -129 -145c-36 0 -71 12 -96 34l20 36c20 -7 38 -11 53 -11c48 0 72 37 72 104z" />
    <glyph glyph-name="g.alt" horiz-adv-x="546" 
d="M256 -16c-132 0 -211 113 -211 245c0 149 94 253 205 253c62 0 120 -33 152 -71l25 55h44v-521c0 -122 -76 -208 -213 -208c-63 0 -128 23 -169 62l25 45c35 -20 75 -41 134 -41c105 0 143 67 143 153v74c-26 -28 -78 -46 -135 -46zM278 55c50 0 98 25 113 56v234
c-15 28 -60 66 -121 66c-88 0 -142 -73 -142 -165c0 -95 40 -191 150 -191z" />
    <glyph glyph-name="gbreve.alt" horiz-adv-x="546" 
d="M256 -16c-132 0 -211 113 -211 245c0 149 94 253 205 253c62 0 120 -33 152 -71l25 55h44v-521c0 -122 -76 -208 -213 -208c-63 0 -128 23 -169 62l25 45c35 -20 75 -41 134 -41c105 0 143 67 143 153v74c-26 -28 -78 -46 -135 -46zM278 55c50 0 98 25 113 56v234
c-15 28 -60 66 -121 66c-88 0 -142 -73 -142 -165c0 -95 40 -191 150 -191zM403 690c0 -72 -50 -140 -127 -140c-82 0 -127 73 -127 140h44c8 -49 37 -77 83 -77s75 28 83 77h44z" />
    <glyph glyph-name="gcircumflex.alt" horiz-adv-x="546" 
d="M256 -16c-132 0 -211 113 -211 245c0 149 94 253 205 253c62 0 120 -33 152 -71l25 55h44v-521c0 -122 -76 -208 -213 -208c-63 0 -128 23 -169 62l25 45c35 -20 75 -41 134 -41c105 0 143 67 143 153v74c-26 -28 -78 -46 -135 -46zM278 55c50 0 98 25 113 56v234
c-15 28 -60 66 -121 66c-88 0 -142 -73 -142 -165c0 -95 40 -191 150 -191zM276 647l-96 -107l-32 21l111 170h35l111 -170l-32 -21z" />
    <glyph glyph-name="gcommaaccent.alt" horiz-adv-x="546" 
d="M256 -16c-132 0 -211 113 -211 245c0 149 94 253 205 253c62 0 120 -33 152 -71l25 55h44v-521c0 -122 -76 -208 -213 -208c-63 0 -128 23 -169 62l25 45c35 -20 75 -41 134 -41c105 0 143 67 143 153v74c-26 -28 -78 -46 -135 -46zM278 55c50 0 98 25 113 56v234
c-15 28 -60 66 -121 66c-88 0 -142 -73 -142 -165c0 -95 40 -191 150 -191zM299 557h-85l46 180h39v-180z" />
    <glyph glyph-name="gdotaccent.alt" horiz-adv-x="546" 
d="M256 -16c-132 0 -211 113 -211 245c0 149 94 253 205 253c62 0 120 -33 152 -71l25 55h44v-521c0 -122 -76 -208 -213 -208c-63 0 -128 23 -169 62l25 45c35 -20 75 -41 134 -41c105 0 143 67 143 153v74c-26 -28 -78 -46 -135 -46zM278 55c50 0 98 25 113 56v234
c-15 28 -60 66 -121 66c-88 0 -142 -73 -142 -165c0 -95 40 -191 150 -191zM218 617c0 28 25 54 53 54s54 -26 54 -54s-26 -53 -54 -53s-53 25 -53 53z" />
    <glyph glyph-name="k.alt" horiz-adv-x="490" 
d="M563 -140c-71 0 -138 43 -197 132l-143 213h-68v-205h-80v737h80v-463h50l160 192h97l-180 -210l146 -215c57 -84 105 -115 160 -115c25 0 52 5 72 15l20 -36c-20 -29 -66 -45 -117 -45z" />
    <glyph glyph-name="kcommaaccent.alt" horiz-adv-x="490" 
d="M208 -83h85l-46 -180h-39v180zM563 -140c-71 0 -138 43 -197 132l-143 213h-68v-205h-80v737h80v-463h50l160 192h97l-180 -210l146 -215c57 -84 105 -115 160 -115c25 0 52 5 72 15l20 -36c-20 -29 -66 -45 -117 -45z" />
    <glyph glyph-name="y.alt" horiz-adv-x="472" 
d="M229 -113c-29 -73 -68 -150 -163 -150c-41 0 -80 15 -105 44l20 36c23 -12 38 -16 57 -16c46 0 89 28 115 91l48 113l-186 461h88l139 -373l135 373h85z" />
    <glyph glyph-name="yacute.alt" horiz-adv-x="467" 
d="M229 -113c-29 -73 -68 -150 -163 -150c-41 0 -80 15 -105 44l20 36c23 -12 38 -16 57 -16c46 0 89 28 115 91l48 113l-186 461h88l139 -373l135 373h85zM352 686l-149 -146l-32 21l111 170z" />
    <glyph glyph-name="ycircumflex.alt" horiz-adv-x="467" 
d="M229 -113c-29 -73 -68 -150 -163 -150c-41 0 -80 15 -105 44l20 36c23 -12 38 -16 57 -16c46 0 89 28 115 91l48 113l-186 461h88l139 -373l135 373h85zM239 647l-96 -107l-32 21l111 170h35l111 -170l-32 -21z" />
    <glyph glyph-name="ydieresis.alt" horiz-adv-x="467" 
d="M229 -113c-29 -73 -68 -150 -163 -150c-41 0 -80 15 -105 44l20 36c23 -12 38 -16 57 -16c46 0 89 28 115 91l48 113l-186 461h88l139 -373l135 373h85zM86 617c0 28 25 54 53 54s54 -26 54 -54s-26 -53 -54 -53s-53 25 -53 53zM285 617c0 28 25 54 53 54s54 -26 54 -54
s-26 -53 -54 -53s-53 25 -53 53z" />
    <glyph glyph-name="ygrave.alt" horiz-adv-x="467" 
d="M229 -113c-29 -73 -68 -150 -163 -150c-41 0 -80 15 -105 44l20 36c23 -12 38 -16 57 -16c46 0 89 28 115 91l48 113l-186 461h88l139 -373l135 373h85zM278 540l-149 146l70 45l111 -170z" />
    <glyph glyph-name="longs" unicode="&#x17f;" horiz-adv-x="290" 
d="M25 441l76 19v90c0 122 61 203 173 203c53 0 94 -14 121 -33l-15 -58c-26 12 -63 22 -96 22c-69 0 -103 -44 -103 -150v-534h-80v397h-76v44z" />
    <glyph glyph-name="underscore" unicode="_" horiz-adv-x="480" 
d="M475 -138h-470v69h470v-69z" />
    <glyph glyph-name="backslash" unicode="\" horiz-adv-x="436" 
d="M306 -139l-231 794h75l231 -794h-75z" />
    <glyph glyph-name="questiondown" unicode="&#xbf;" horiz-adv-x="438" 
d="M212 156c-119 -10 -172 -86 -172 -155c0 -105 92 -197 237 -197c26 0 50 2 83 8l-17 66c-18 -3 -36 -5 -54 -5c-84 0 -162 42 -162 127c0 51 39 97 140 99h24l-35 152h-44v-95zM300 425c0 -32 -25 -58 -57 -58s-58 26 -58 58s26 57 58 57s57 -25 57 -57z" />
    <glyph glyph-name="exclamdown" unicode="&#xa1;" horiz-adv-x="325" 
d="M115 -189l22 440h52l22 -440h-96zM105 425c0 32 25 57 57 57s58 -25 58 -57s-26 -58 -58 -58s-57 26 -57 58z" />
    <glyph glyph-name="bracketleft" unicode="[" horiz-adv-x="324" 
d="M289 -199h-214v916h214v-56h-136v-804h136v-56z" />
    <glyph glyph-name="bracketright" unicode="]" horiz-adv-x="334" 
d="M259 -199h-214v56h136v804h-136v56h214v-916z" />
    <glyph glyph-name="braceleft" unicode="{" horiz-adv-x="352" 
d="M181 574v-210c0 -50 -24 -85 -60 -107c36 -23 60 -61 60 -111v-202c0 -71 39 -97 95 -97v-54c-89 0 -173 42 -173 133v202c0 68 -30 104 -82 104h-6v54h6c52 2 82 28 82 96v210c0 91 84 133 173 133v-54c-56 0 -95 -26 -95 -97z" />
    <glyph glyph-name="braceright" unicode="}" horiz-adv-x="362" 
d="M181 -56v202c0 50 23 88 59 111c-36 22 -59 57 -59 107v210c0 71 -39 97 -95 97v54c89 0 173 -42 173 -133v-210c0 -71 32 -96 88 -96v-54c-60 0 -88 -36 -88 -104v-202c0 -91 -84 -133 -173 -133v54c56 0 95 26 95 97z" />
    <glyph glyph-name="guillemotleft" unicode="&#xab;" horiz-adv-x="464" 
d="M242 391l-81 -150l82 -150l-25 -23l-173 173l173 174zM414 391l-81 -150l82 -150l-25 -23l-173 173l173 174z" />
    <glyph glyph-name="guillemotright" unicode="&#xbb;" horiz-adv-x="464" 
d="M293 241l-81 150l24 24l173 -174l-173 -173l-25 23zM121 241l-81 150l24 24l173 -174l-173 -173l-25 23z" />
    <glyph glyph-name="guilsinglleft" unicode="&#x2039;" horiz-adv-x="293" 
d="M242 391l-81 -150l82 -150l-25 -23l-173 173l173 174z" />
    <glyph glyph-name="guilsinglright" unicode="&#x203a;" horiz-adv-x="292" 
d="M121 241l-81 150l24 24l173 -174l-173 -173l-25 23z" />
    <glyph glyph-name="endash" unicode="&#x2013;" horiz-adv-x="560" 
d="M515 205h-470v69h470v-69z" />
    <glyph glyph-name="emdash" unicode="&#x2014;" horiz-adv-x="1010" 
d="M965 205h-920v69h920v-69z" />
    <glyph glyph-name="periodcentered" unicode="&#xb7;" horiz-adv-x="205" 
d="M45 251c0 32 25 58 57 58s58 -26 58 -58s-26 -57 -58 -57s-57 25 -57 57z" />
    <glyph glyph-name="exclamdown.cap" horiz-adv-x="325" 
d="M178 440l22 -440h-96l22 440h52zM210 614c0 -32 -25 -58 -57 -58s-58 26 -58 58s26 57 58 57s57 -25 57 -57z" />
    <glyph glyph-name="questiondown.cap" horiz-adv-x="438" 
d="M212 345c-119 -10 -172 -86 -172 -155c0 -105 92 -197 237 -197c26 0 50 2 83 8l-17 66c-18 -3 -36 -5 -54 -5c-84 0 -162 42 -162 127c0 51 39 97 140 99h24l-35 152h-44v-95zM300 614c0 -32 -25 -58 -57 -58s-58 26 -58 58s26 57 58 57s57 -25 57 -57z" />
    <glyph glyph-name="at.cap" horiz-adv-x="690" 
d="M525 480c0 84 -61 120 -146 120c-128 0 -231 -94 -231 -250c0 -154 64 -295 264 -295c65 0 130 30 164 57l22 -42s-68 -86 -208 -86c-254 0 -325 192 -325 344c0 184 102 343 328 343c147 0 212 -80 212 -205v-277h-39l-30 55c-30 -38 -84 -71 -155 -71
c-87 0 -149 52 -149 138c0 126 130 149 225 149h68v20zM525 298v106h-51c-67 0 -161 -9 -161 -84c0 -45 31 -81 95 -81c54 0 101 29 117 59z" />
    <glyph glyph-name="parenleft.cap" horiz-adv-x="351" 
d="M302 -147c-168 125 -247 299 -247 462c0 162 87 353 243 479l28 -50c-122 -107 -185 -278 -185 -421c0 -142 62 -315 185 -427z" />
    <glyph glyph-name="parenright.cap" horiz-adv-x="361" 
d="M59 -147l-24 43c123 112 185 285 185 427c0 143 -63 314 -185 421l28 50c156 -126 243 -317 243 -479c0 -163 -79 -337 -247 -462z" />
    <glyph glyph-name="bracketleft.cap" horiz-adv-x="324" 
d="M289 -137h-214v916h214v-56h-136v-804h136v-56z" />
    <glyph glyph-name="bracketright.cap" horiz-adv-x="334" 
d="M259 -137h-214v56h136v804h-136v56h214v-916z" />
    <glyph glyph-name="braceleft.cap" horiz-adv-x="352" 
d="M181 636v-210c0 -50 -24 -85 -60 -107c36 -23 60 -61 60 -111v-202c0 -71 39 -97 95 -97v-54c-89 0 -173 42 -173 133v202c0 68 -30 104 -82 104h-6v54h6c52 0 82 28 82 96v210c0 91 84 133 173 133v-54c-56 0 -95 -26 -95 -97z" />
    <glyph glyph-name="braceright.cap" horiz-adv-x="362" 
d="M181 6v202c0 50 23 88 59 111c-36 22 -59 57 -59 107v210c0 71 -39 97 -95 97v54c89 0 173 -42 173 -133v-210c0 -71 32 -96 88 -96v-54c-60 0 -88 -36 -88 -104v-202c0 -91 -84 -133 -173 -133v54c56 0 95 26 95 97z" />
    <glyph glyph-name="guillemotleft.cap" horiz-adv-x="464" 
d="M242 476l-81 -150l82 -150l-25 -23l-173 173l173 174zM414 476l-81 -150l82 -150l-25 -23l-173 173l173 174z" />
    <glyph glyph-name="guillemotright.cap" horiz-adv-x="464" 
d="M293 327l-81 150l24 24l173 -174l-173 -173l-25 23zM121 327l-81 150l24 24l173 -174l-173 -173l-25 23z" />
    <glyph glyph-name="guilsinglleft.cap" horiz-adv-x="293" 
d="M242 476l-81 -150l82 -150l-25 -23l-173 173l173 174z" />
    <glyph glyph-name="guilsinglright.cap" horiz-adv-x="292" 
d="M121 326l-81 150l24 24l173 -174l-173 -173l-25 23z" />
    <glyph glyph-name="hyphen.cap" horiz-adv-x="330" 
d="M285 290h-240v69h240v-69z" />
    <glyph glyph-name="endash.cap" horiz-adv-x="560" 
d="M515 290h-470v69h470v-69z" />
    <glyph glyph-name="emdash.cap" horiz-adv-x="1010" 
d="M965 290h-920v69h920v-69z" />
    <glyph glyph-name="periodcentered.cap" horiz-adv-x="205" 
d="M45 325c0 32 25 58 57 58s58 -26 58 -58s-26 -57 -58 -57s-57 25 -57 57z" />
    <glyph glyph-name="apostrophe" unicode="&#x2bc;" horiz-adv-x="180" 
d="M154 737l-57 -239h-39v239h96z" />
    <glyph glyph-name="quoteleft" unicode="&#x2018;" horiz-adv-x="175" 
d="M16 498l57 239h39v-239h-96z" />
    <glyph glyph-name="quoteright" unicode="&#x2019;" horiz-adv-x="180" 
d="M154 737l-57 -239h-39v239h96z" />
    <glyph glyph-name="quotesinglbase" unicode="&#x201a;" horiz-adv-x="210" 
d="M164 83l-57 -239h-39v239h96z" />
    <glyph glyph-name="quotedblleft" unicode="&#x201c;" horiz-adv-x="355" 
d="M16 498l57 239h39v-239h-96zM196 498l57 239h39v-239h-96z" />
    <glyph glyph-name="quotedblright" unicode="&#x201d;" horiz-adv-x="360" 
d="M154 737l-57 -239h-39v239h96zM334 737l-57 -239h-39v239h96z" />
    <glyph glyph-name="quotedblbase" unicode="&#x201e;" horiz-adv-x="390" 
d="M164 83l-57 -239h-39v239h96zM344 83l-57 -239h-39v239h96z" />
    <glyph glyph-name="section" unicode="&#xa7;" horiz-adv-x="526" 
d="M426 208l-37 18c7 20 11 38 11 53c0 112 -322 53 -322 250c0 86 74 142 175 142c68 0 139 -23 175 -54l-15 -59c-45 25 -107 42 -157 42c-44 0 -102 -18 -102 -72c0 -107 305 -60 305 -226c0 -36 -11 -69 -33 -94zM67 291c0 36 12 71 34 96l36 -20
c-7 -20 -11 -38 -11 -53c-1 -105 339 -86 339 -241c0 -106 -98 -155 -198 -155c-74 0 -142 25 -190 71l26 47c40 -27 92 -47 151 -47c71 0 125 25 125 71c0 86 -312 64 -312 231z" />
    <glyph glyph-name="ampersand.alt" horiz-adv-x="713" 
d="M455 466h233v-69h-95c0 -113 -36 -207 -81 -271l127 -126l-58 -55l-119 119c-54 -50 -114 -80 -193 -80c-125 0 -214 79 -214 186c0 69 40 139 120 185c-41 43 -75 87 -75 146c0 111 81 170 173 170c104 0 182 -66 182 -205zM381 456c0 73 -31 145 -110 145
c-59 0 -90 -43 -90 -80c0 -72 38 -97 279 -342c32 45 54 113 54 218h-133v59zM222 307c-55 -31 -84 -79 -84 -125c0 -78 59 -127 144 -127c48 0 96 22 129 60z" />
    <glyph glyph-name="currency" unicode="&#xa4;" horiz-adv-x="533" 
d="M28 491l49 49l64 -65c38 29 87 39 135 39c35 0 83 -19 114 -40l66 66l49 -49l-67 -67c25 -36 39 -78 39 -121c0 -45 -15 -88 -40 -123l68 -68l-49 -49l-68 67c-37 -29 -87 -39 -134 -39c-34 0 -80 17 -110 39l-67 -67l-49 49l66 66c-26 37 -40 79 -40 125
c0 43 13 87 39 123zM404 303c0 76 -63 138 -139 138s-138 -62 -138 -138s62 -138 138 -138s139 62 139 138z" />
    <glyph glyph-name="cent" unicode="&#xa2;" horiz-adv-x="482" 
d="M231 0v76c-121 19 -186 131 -186 245c0 141 86 230 186 247v87h59v-84c54 -5 103 -28 132 -53l-15 -58c-30 18 -70 41 -137 41c-83 0 -142 -76 -142 -168c0 -112 58 -188 170 -188c39 0 89 16 114 36l20 -36c-36 -43 -91 -65 -142 -70v-75h-59z" />
    <glyph glyph-name="Euro" unicode="&#x20ac;" horiz-adv-x="602" 
d="M456 241h-277c24 -101 85 -181 217 -181c65 0 114 30 148 57l22 -42s-62 -91 -192 -91c-182 0 -264 127 -287 257h-47v59h416v-59zM456 359h-416v59h47c27 142 120 253 290 253c83 0 145 -35 179 -63l-17 -66c-61 34 -103 53 -173 53c-90 0 -168 -70 -192 -177h282v-59z
" />
    <glyph glyph-name="sterling" unicode="&#xa3;" horiz-adv-x="562" 
d="M50 359h73v94c0 142 75 218 202 218c78 0 131 -35 159 -63l-17 -66c-42 32 -92 53 -142 53c-89 0 -117 -54 -117 -141v-95h190v-59h-190v-226h304v-74h-465v44l76 19v237h-73v59z" />
    <glyph glyph-name="yen" unicode="&#xa5;" horiz-adv-x="592" 
d="M501 301h-410v59h117l-193 295h94l178 -295h22l176 295h92l-192 -295h116v-59zM91 242h410v-59h-162v-183h-85v183h-163v59z" />
    <glyph glyph-name="florin" unicode="&#x192;" horiz-adv-x="490" 
d="M-145 -219l20 36c39 -14 61 -16 93 -16c84 0 126 49 141 155l48 345h-94v69h104l13 93c17 122 83 208 210 208c38 0 89 -12 125 -36l-15 -59c-39 14 -78 24 -120 24c-85 0 -110 -62 -122 -148l-12 -82h152v-69h-161l-50 -356c-17 -122 -83 -208 -209 -208
c-48 0 -101 20 -123 44z" />
    <glyph glyph-name="afii61352" unicode="&#x2116;" horiz-adv-x="1058" 
d="M157 568v-568h-82v655h119l313 -513v513h82v-655h-85zM993 184h-270v59h270v-59zM1004 450c0 -104 -62 -166 -153 -166c-87 0 -139 74 -139 160c0 104 62 166 153 166c87 0 139 -74 139 -160zM941 439c0 58 -24 120 -87 120c-53 0 -79 -53 -79 -104
c0 -58 25 -120 87 -120c53 0 79 53 79 104z" />
    <glyph glyph-name="litre" unicode="&#x2113;" horiz-adv-x="449" 
d="M295 55c49 0 94 26 109 46l20 -36c-36 -49 -83 -81 -161 -81c-136 0 -167 145 -172 256h-66v60h66c0 188 41 458 190 458c100 0 127 -118 127 -186c0 -212 -117 -331 -234 -331c0 -86 23 -186 121 -186zM325 552c0 27 -2 135 -57 135c-67 0 -94 -265 -94 -387
c95 0 151 130 151 252z" />
    <glyph glyph-name="estimated" unicode="&#x212e;" horiz-adv-x="696" 
d="M651 274c0 -7 -1 -14 -2 -20h-506v-131c53 -69 144 -99 227 -99c70 0 157 43 199 98l29 -28c-60 -76 -154 -110 -248 -110c-180 0 -305 140 -305 318c0 155 138 288 312 288c177 0 294 -152 294 -316zM552 301v149c0 6 -37 39 -44 44c-50 40 -107 55 -170 55
c-71 0 -153 -42 -195 -98v-150h409z" />
    <glyph glyph-name="copyright" unicode="&#xa9;" horiz-adv-x="686" 
d="M40 287c0 167 136 303 303 303s303 -136 303 -303s-136 -303 -303 -303s-303 136 -303 303zM100 287c0 -134 109 -243 243 -243s244 109 244 243s-110 244 -244 244s-243 -110 -243 -244zM458 383c-23 13 -52 30 -104 30c-73 0 -118 -52 -118 -122
c0 -72 34 -138 140 -138c30 0 61 11 80 26l18 -31c-31 -38 -79 -54 -123 -54c-123 0 -183 93 -183 187c0 121 83 191 188 191c48 0 95 -19 118 -41z" />
    <glyph glyph-name="registered" unicode="&#xae;" horiz-adv-x="418" 
d="M35 497c0 96 78 174 174 174s174 -78 174 -174s-78 -174 -174 -174s-174 78 -174 174zM67 497c0 -78 64 -142 142 -142s141 64 141 142s-63 141 -141 141s-142 -63 -142 -141zM290 402h-37l-53 76h-30v-76h-30v196h63c41 0 75 -24 75 -58c0 -27 -19 -49 -47 -58zM246 537
c0 23 -18 36 -52 36h-24v-70h27c31 0 49 15 49 34z" />
    <glyph glyph-name="trademark" unicode="&#x2122;" horiz-adv-x="770" 
d="M653 349v274l-98 -274h-43l-98 274v-274h-52v322h87l85 -249l84 249h87v-322h-52zM303 671v-48h-102v-274h-54v274h-102v48h258z" />
    <glyph glyph-name="degree" unicode="&#xb0;" horiz-adv-x="316" 
d="M281 553c0 -70 -55 -118 -123 -118s-123 48 -123 118s55 118 123 118s123 -48 123 -118zM222 551c0 37 -22 71 -66 71c-42 0 -61 -33 -61 -67c0 -37 21 -71 65 -71c42 0 62 33 62 67z" />
    <glyph glyph-name="ordfeminine" unicode="&#xaa;" horiz-adv-x="381" 
d="M326 184h-270v59h270v-59zM90 525l-12 48c30 22 79 37 112 37c94 0 119 -54 119 -135v-182h-33l-18 37c-21 -32 -55 -47 -96 -47c-58 0 -100 34 -100 92c0 84 86 99 148 99h39v9c0 49 -20 72 -68 72c-30 0 -69 -16 -91 -30zM249 368v61h-28c-41 0 -97 -5 -97 -48
c0 -26 18 -46 55 -46c31 0 60 15 70 33z" />
    <glyph glyph-name="ordmasculine" unicode="&#xba;" horiz-adv-x="400" 
d="M335 184h-270v59h270v-59zM346 450c0 -104 -62 -166 -153 -166c-87 0 -139 74 -139 160c0 104 62 166 153 166c87 0 139 -74 139 -160zM283 439c0 58 -24 120 -87 120c-53 0 -79 -53 -79 -104c0 -58 25 -120 87 -120c53 0 79 53 79 104z" />
    <glyph glyph-name="paragraph" unicode="&#xb6;" horiz-adv-x="495" 
d="M345 655h85v-782h-85v782zM243 279c-108 0 -188 93 -188 188c0 104 84 188 188 188v-376z" />
    <glyph glyph-name="a101" unicode="&#x2761;" horiz-adv-x="653" 
d="M55 319c0 185 150 336 335 336v-671c-185 0 -335 150 -335 335zM578 -113v768h-85v-750c0 -67 -24 -104 -72 -104c-15 0 -33 4 -53 11l-20 -36c25 -22 60 -34 96 -34c64 0 134 38 134 145z" />
    <glyph glyph-name="bullet" unicode="&#x2022;" horiz-adv-x="421" 
d="M336 258c0 -70 -56 -126 -126 -126c-69 0 -125 57 -125 126s56 125 126 125c69 0 125 -56 125 -125z" />
    <glyph glyph-name="dagger" unicode="&#x2020;" horiz-adv-x="411" 
d="M35 429v69h133v157h75v-157h133v-69h-133v-511h-75v511h-133z" />
    <glyph glyph-name="daggerdbl" unicode="&#x2021;" horiz-adv-x="411" 
d="M35 429v69h133v157h75v-157h133v-69h-133v-283h133v-69h-133v-159h-75v159h-133v69h133v283h-133z" />
    <glyph glyph-name="bar" unicode="|" horiz-adv-x="285" 
d="M180 -139h-75v876h75v-876z" />
    <glyph glyph-name="brokenbar" unicode="&#xa6;" horiz-adv-x="285" 
d="M180 347h-75v390h75v-390zM180 -139h-75v387h75v-387z" />
    <glyph glyph-name="minus" unicode="&#x2212;" horiz-adv-x="526" 
d="M491 231h-456v69h456v-69z" />
    <glyph glyph-name="multiply" unicode="&#xd7;" horiz-adv-x="455" 
d="M91 455l136 -136l137 137l49 -49l-137 -137l137 -137l-49 -49l-137 137l-136 -136l-49 49l136 136l-136 136z" />
    <glyph glyph-name="plusminus" unicode="&#xb1;" horiz-adv-x="526" 
d="M297 592v-193h194v-69h-194v-194h-69v194h-193v69h193v193h69zM491 0h-456v69h456v-69z" />
    <glyph glyph-name="lessequal" unicode="&#x2264;" horiz-adv-x="526" 
d="M491 104l-456 201v64l456 201v-79l-361 -154l361 -154v-79zM491 0h-456v69h456v-69z" />
    <glyph glyph-name="greaterequal" unicode="&#x2265;" horiz-adv-x="526" 
d="M481 306l-456 -201v79l361 154l-361 154v79l456 -201v-64zM491 0h-456v69h456v-69z" />
    <glyph glyph-name="divide" unicode="&#xf7;" horiz-adv-x="526" 
d="M491 231h-456v69h456v-69zM206 83c0 32 25 58 57 58s58 -26 58 -58s-26 -57 -58 -57s-57 25 -57 57zM206 456c0 32 25 58 57 58s58 -26 58 -58s-26 -57 -58 -57s-57 25 -57 57z" />
    <glyph glyph-name="asciitilde" unicode="~" horiz-adv-x="538" 
d="M474 335l29 -18l-56 -86s-18 -31 -54 -31c-66 0 -193 56 -248 56c-21 0 -44 -26 -81 -62l-29 18l56 86s18 31 54 31c66 0 193 -56 248 -56c21 0 44 26 81 62z" />
    <glyph glyph-name="approxequal" unicode="&#x2248;" horiz-adv-x="538" 
d="M474 253l29 -18l-56 -86s-18 -31 -54 -31c-66 0 -193 56 -248 56c-21 0 -44 -26 -81 -62l-29 18l56 86s18 31 54 31c66 0 193 -56 248 -56c21 0 44 26 81 62zM474 416l29 -18l-56 -86s-18 -31 -54 -31c-66 0 -193 56 -248 56c-21 0 -44 -26 -81 -62l-29 18l56 86
s18 31 54 31c66 0 193 -56 248 -56c21 0 44 26 81 62z" />
    <glyph glyph-name="notequal" unicode="&#x2260;" horiz-adv-x="526" 
d="M491 142h-270l-77 -115h-69l77 115h-117v69h164l73 109h-237v69h284l70 104h69l-70 -104h103v-69h-150l-73 -109h223v-69z" />
    <glyph glyph-name="logicalnot" unicode="&#xac;" horiz-adv-x="526" 
d="M491 301v-233h-74v164h-382v69h456z" />
    <glyph glyph-name="asciicircum" unicode="^" horiz-adv-x="536" 
d="M35 281l201 456h64l201 -456h-79l-154 361l-154 -361h-79z" />
    <glyph glyph-name="mu" unicode="&#xb5;" horiz-adv-x="540" 
d="M396 55c-50 -44 -114 -71 -177 -71c-24 0 -45 5 -64 17v-246h-80v711h80v-293c0 -72 18 -118 102 -118c45 0 106 34 128 60v351h80v-466h-44z" />
    <glyph glyph-name="partialdiff" unicode="&#x2202;" horiz-adv-x="514" 
d="M265 411c-118 0 -147 -96 -147 -168c0 -74 39 -188 143 -188c105 0 135 119 135 238c0 18 -1 36 -2 53c-18 37 -70 65 -129 65zM76 658l-15 58c45 30 107 37 146 37c229 0 272 -277 272 -445c0 -198 -68 -324 -230 -324c-143 0 -214 133 -214 247c0 168 94 251 222 251
c45 0 109 -18 131 -46c-8 131 -74 246 -193 246c-25 0 -76 -3 -119 -24z" />
    <glyph glyph-name="uni2206" unicode="&#x2206;" horiz-adv-x="632" 
d="M25 0l247 655h90l245 -655h-582zM314 555l-170 -481h341z" />
    <glyph glyph-name="product" unicode="&#x220f;" horiz-adv-x="705" 
d="M588 -82h-85v663h-301v-663h-85v663h-82v74h635v-74h-82v-663z" />
    <glyph glyph-name="summation" unicode="&#x2211;" horiz-adv-x="521" 
d="M253 289l-218 292v74h451v-74h-353l217 -292l-217 -297h353v-74h-451v74z" />
    <glyph glyph-name="radical" unicode="&#x221a;" horiz-adv-x="573" 
d="M628 880l-279 -880h-74l-177 392h-73v74h136l148 -347l234 761h85z" />
    <glyph glyph-name="infinity" unicode="&#x221e;" horiz-adv-x="905" 
d="M870 278c0 -104 -83 -188 -187 -188c-93 0 -166 74 -230 138c-65 -64 -141 -138 -230 -138c-104 0 -188 85 -188 188c0 104 84 189 188 189c88 0 166 -75 230 -138c62 64 141 138 229 138c104 0 188 -85 188 -189zM404 278c-42 44 -112 113 -175 113
c-61 0 -112 -51 -112 -113c0 -61 50 -112 112 -112c60 0 135 69 175 112zM500 278c40 -43 116 -112 176 -112c62 0 112 51 112 112c0 62 -51 113 -112 113c-63 0 -134 -69 -176 -113z" />
    <glyph glyph-name="integral" unicode="&#x222b;" horiz-adv-x="418" 
d="M-75 -143l16 58c41 -14 75 -25 117 -25c85 0 101 62 101 148v507c0 122 54 208 181 208c38 0 94 -14 133 -38l-15 -59c-39 15 -76 26 -118 26c-85 0 -101 -62 -101 -148v-507c0 -122 -54 -208 -181 -208c-38 0 -94 14 -133 38z" />
    <glyph glyph-name="lozenge" unicode="&#x25ca;" horiz-adv-x="536" 
d="M300 655l211 -370l-211 -371h-64l-211 371l211 370h64zM268 560l-156 -275l156 -276l156 276z" />
    <glyph glyph-name="Asmall" horiz-adv-x="537" 
d="M432 0l-45 109h-241l-44 -109h-87l215 498h77l215 -498h-90zM266 404l-92 -226h185z" />
    <glyph glyph-name="Bsmall" horiz-adv-x="519" 
d="M474 143c0 -84 -57 -143 -208 -143h-186v498h196c124 0 160 -49 160 -125c0 -62 -58 -103 -93 -109c34 -7 131 -27 131 -121zM391 144c0 58 -54 74 -137 74h-97v-149h89c88 0 145 21 145 75zM353 366c0 35 -19 63 -88 63h-108v-142h78c89 0 118 34 118 79z" />
    <glyph glyph-name="Csmall" horiz-adv-x="521" 
d="M328 55c54 0 108 18 133 36l20 -36c-41 -49 -102 -71 -180 -71c-163 0 -256 118 -256 267c0 162 108 263 254 263c58 0 123 -17 175 -57l-15 -59c-47 27 -103 45 -160 45c-128 0 -171 -98 -171 -180c0 -94 44 -208 200 -208z" />
    <glyph glyph-name="Dsmall" horiz-adv-x="558" 
d="M257 0h-177v498h183c172 0 250 -102 250 -239c0 -134 -56 -259 -256 -259zM237 429h-77v-360h93c156 0 177 107 177 178c0 75 -28 182 -193 182z" />
    <glyph glyph-name="Esmall" horiz-adv-x="498" 
d="M427 429h-267v-142h189v-69h-189v-149h288v-69h-368v498h347v-69z" />
    <glyph glyph-name="Fsmall" horiz-adv-x="457" 
d="M427 429h-267v-142h189v-69h-189v-218h-80v498h347v-69z" />
    <glyph glyph-name="Gsmall" horiz-adv-x="567" 
d="M310 198v69h189v-267h-44l-25 55c-36 -49 -93 -71 -156 -71c-143 0 -229 133 -229 267c0 162 119 263 265 263c58 0 123 -17 175 -57l-15 -59c-47 27 -103 45 -150 45c-143 0 -192 -98 -192 -180c0 -116 57 -208 174 -208c47 0 93 19 117 56v87h-109z" />
    <glyph glyph-name="Hsmall" horiz-adv-x="576" 
d="M416 0v218h-256v-218h-80v498h80v-211h256v211h80v-498h-80z" />
    <glyph glyph-name="Ismall" horiz-adv-x="250" 
d="M165 498v-498h-80v498h80z" />
    <glyph glyph-name="Jsmall" horiz-adv-x="256" 
d="M176 498v-492c0 -107 -65 -145 -129 -145c-36 0 -71 12 -96 34l20 36c20 -7 38 -11 53 -11c48 0 72 37 72 104v474h80z" />
    <glyph glyph-name="Ksmall" horiz-adv-x="517" 
d="M160 0h-80v498h80v-211h49l191 211h97l-215 -228l215 -270h-95l-176 218h-66v-218z" />
    <glyph glyph-name="Lsmall" horiz-adv-x="443" 
d="M80 498h80v-429h268v-69h-348v498z" />
    <glyph glyph-name="Msmall" horiz-adv-x="732" 
d="M197 498l171 -399l168 399h116v-498h-75v421l-175 -421h-70l-177 422v-422h-75v498h117z" />
    <glyph glyph-name="Nsmall" horiz-adv-x="587" 
d="M155 413v-413h-75v498h104l249 -376v376h74v-498h-77z" />
    <glyph glyph-name="Osmall" horiz-adv-x="592" 
d="M547 259c0 -134 -71 -275 -251 -275c-183 0 -251 153 -251 267c0 168 104 263 262 263c152 0 240 -118 240 -255zM464 247c0 75 -31 196 -176 196c-123 0 -160 -108 -160 -180c0 -74 31 -208 177 -208c121 0 159 121 159 192z" />
    <glyph glyph-name="Psmall" horiz-adv-x="486" 
d="M160 182v-182h-80v498h188c132 0 188 -50 188 -152c0 -97 -54 -164 -224 -164h-72zM257 429h-97v-178h93c106 0 120 48 120 92c0 50 -21 86 -116 86z" />
    <glyph glyph-name="Qsmall" horiz-adv-x="592" 
d="M547 259c0 -102 -42 -208 -141 -253l121 -110l-81 -53l-95 146c-17 -3 -35 -5 -55 -5c-183 0 -251 153 -251 267c0 168 104 263 262 263c152 0 240 -118 240 -255zM464 247c0 75 -31 196 -176 196c-123 0 -160 -108 -160 -180c0 -74 31 -208 177 -208
c121 0 159 121 159 192z" />
    <glyph glyph-name="Rsmall" horiz-adv-x="527" 
d="M160 192v-192h-80v498h188c132 0 188 -51 188 -148c0 -72 -32 -127 -124 -148l170 -202h-95l-162 192h-85zM257 429h-97v-170h93c106 0 120 42 120 88c0 45 -21 82 -116 82z" />
    <glyph glyph-name="Ssmall" horiz-adv-x="460" 
d="M215 55c73 0 117 30 117 71c0 111 -280 72 -280 244c0 86 81 144 177 144c68 0 130 -23 166 -54l-15 -59c-45 25 -98 42 -148 42c-61 0 -99 -26 -99 -65c0 -112 282 -79 282 -238c0 -94 -75 -156 -188 -156c-74 0 -136 25 -184 71l26 47c40 -27 87 -47 146 -47z" />
    <glyph glyph-name="Tsmall" horiz-adv-x="501" 
d="M25 498h451v-69h-186v-429h-80v429h-185v69z" />
    <glyph glyph-name="Usmall" horiz-adv-x="558" 
d="M413 498h80v-290c0 -153 -85 -224 -214 -224s-214 71 -214 224v290h80v-293c0 -98 56 -150 134 -150s134 52 134 150v293z" />
    <glyph glyph-name="Vsmall" horiz-adv-x="537" 
d="M105 498l167 -406l163 406h87l-215 -498h-77l-215 498h90z" />
    <glyph glyph-name="Wsmall" horiz-adv-x="849" 
d="M834 498l-185 -498h-77l-148 415l-147 -415h-77l-185 498h90l137 -406l137 406h94l141 -406l133 406h87z" />
    <glyph glyph-name="Xsmall" horiz-adv-x="524" 
d="M115 0h-100l197 249l-197 249h100l147 -196l147 196h100l-197 -249l197 -249h-100l-147 196z" />
    <glyph glyph-name="Ysmall" horiz-adv-x="517" 
d="M262 269l153 229h87l-203 -289v-209h-80v208l-204 290h90z" />
    <glyph glyph-name="Zsmall" horiz-adv-x="480" 
d="M435 0h-395v71l290 358h-285v69h379v-69l-289 -360h300v-69z" />
    <glyph glyph-name="Aacutesmall" horiz-adv-x="537" 
d="M432 0l-45 109h-241l-44 -109h-87l215 498h77l215 -498h-90zM266 404l-92 -226h185zM366 706l-149 -146l-32 21l111 170z" />
    <glyph glyph-name="Abreve.small" horiz-adv-x="537" 
d="M432 0l-45 109h-241l-44 -109h-87l215 498h77l215 -498h-90zM266 404l-92 -226h185zM395 710c0 -72 -50 -140 -127 -140c-82 0 -127 73 -127 140h44c8 -49 37 -77 83 -77s75 28 83 77h44z" />
    <glyph glyph-name="Acircumflexsmall" horiz-adv-x="537" 
d="M432 0l-45 109h-241l-44 -109h-87l215 498h77l215 -498h-90zM266 404l-92 -226h185zM268 667l-96 -107l-32 21l111 170h35l111 -170l-32 -21z" />
    <glyph glyph-name="Adieresissmall" horiz-adv-x="537" 
d="M432 0l-45 109h-241l-44 -109h-87l215 498h77l215 -498h-90zM266 404l-92 -226h185zM116 637c0 28 25 54 53 54s54 -26 54 -54s-26 -53 -54 -53s-53 25 -53 53zM315 637c0 28 25 54 53 54s54 -26 54 -54s-26 -53 -54 -53s-53 25 -53 53z" />
    <glyph glyph-name="Agravesmall" horiz-adv-x="537" 
d="M432 0l-45 109h-241l-44 -109h-87l215 498h77l215 -498h-90zM266 404l-92 -226h185zM315 560l-149 146l70 45l111 -170z" />
    <glyph glyph-name="Amacron.small" horiz-adv-x="537" 
d="M432 0l-45 109h-241l-44 -109h-87l215 498h77l215 -498h-90zM266 404l-92 -226h185zM409 612h-279v59h279v-59z" />
    <glyph glyph-name="Aogonek.small" horiz-adv-x="537" 
d="M532 -222c-25 -21 -64 -33 -99 -33c-78 0 -113 52 -113 105c0 56 45 118 109 156l-42 103h-241l-44 -109h-87l215 498h77l215 -498c-73 -27 -126 -77 -126 -135c0 -43 34 -62 65 -62c16 0 37 4 51 11zM266 404l-92 -226h185z" />
    <glyph glyph-name="Aringsmall" horiz-adv-x="537" 
d="M432 0l-45 109h-241l-44 -109h-87l215 498h77l215 -498h-90zM368 633c0 -57 -45 -96 -100 -96s-100 39 -100 96c0 56 45 95 100 95s100 -39 100 -95zM266 404l-92 -226h185zM322 633c0 33 -20 57 -54 57s-55 -25 -55 -57c0 -34 22 -58 55 -58c34 0 54 24 54 58z" />
    <glyph glyph-name="Atildesmall" horiz-adv-x="537" 
d="M432 0l-45 109h-241l-44 -109h-87l215 498h77l215 -498h-90zM266 404l-92 -226h185zM400 737l32 -21l-54 -83s-18 -31 -54 -31s-53 26 -88 26c-21 0 -49 -32 -80 -68l-32 21l54 83s18 31 54 31s53 -26 88 -26c21 0 49 32 80 68z" />
    <glyph glyph-name="AEsmall" horiz-adv-x="724" 
d="M658 429h-267v-142h189v-69h-189v-149h288v-69h-368v109h-163l-58 -109h-85l279 498h374v-69zM311 411l-126 -233h126v233z" />
    <glyph glyph-name="AEacute.small" horiz-adv-x="724" 
d="M658 429h-267v-142h189v-69h-189v-149h288v-69h-368v109h-163l-58 -109h-85l279 498h374v-69zM311 411l-126 -233h126v233zM488 706l-149 -146l-32 21l111 170z" />
    <glyph glyph-name="Cacute.small" horiz-adv-x="521" 
d="M328 55c54 0 108 18 133 36l20 -36c-41 -49 -102 -71 -180 -71c-163 0 -256 118 -256 267c0 162 108 263 254 263c58 0 123 -17 175 -57l-15 -59c-47 27 -103 45 -160 45c-128 0 -171 -98 -171 -180c0 -94 44 -208 200 -208zM398 706l-149 -146l-32 21l111 170z" />
    <glyph glyph-name="Ccaron.small" horiz-adv-x="521" 
d="M328 55c54 0 108 18 133 36l20 -36c-41 -49 -102 -71 -180 -71c-163 0 -256 118 -256 267c0 162 108 263 254 263c58 0 123 -17 175 -57l-15 -59c-47 27 -103 45 -160 45c-128 0 -171 -98 -171 -180c0 -94 44 -208 200 -208zM195 751l96 -107l97 107l32 -21l-111 -170
h-35l-111 170z" />
    <glyph glyph-name="Ccedillasmall" horiz-adv-x="521" 
d="M292 -77c56 -9 82 -38 82 -70c0 -44 -49 -94 -136 -108l-20 36c46 10 81 41 81 66c0 18 -19 33 -66 36l18 105c-132 21 -206 130 -206 263c0 162 108 263 254 263c58 0 123 -17 175 -57l-15 -59c-47 27 -103 45 -160 45c-128 0 -171 -98 -171 -180
c0 -94 44 -208 200 -208c54 0 108 18 133 36l20 -36c-41 -49 -101 -70 -179 -71z" />
    <glyph glyph-name="Ccircumflex.small" horiz-adv-x="521" 
d="M328 55c54 0 108 18 133 36l20 -36c-41 -49 -102 -71 -180 -71c-163 0 -256 118 -256 267c0 162 108 263 254 263c58 0 123 -17 175 -57l-15 -59c-47 27 -103 45 -160 45c-128 0 -171 -98 -171 -180c0 -94 44 -208 200 -208zM295 667l-96 -107l-32 21l111 170h35
l111 -170l-32 -21z" />
    <glyph glyph-name="Cdotaccent.small" horiz-adv-x="521" 
d="M328 55c54 0 108 18 133 36l20 -36c-41 -49 -102 -71 -180 -71c-163 0 -256 118 -256 267c0 162 108 263 254 263c58 0 123 -17 175 -57l-15 -59c-47 27 -103 45 -160 45c-128 0 -171 -98 -171 -180c0 -94 44 -208 200 -208zM247 637c0 28 25 54 53 54s54 -26 54 -54
s-26 -53 -54 -53s-53 25 -53 53z" />
    <glyph glyph-name="Dcaron.small" horiz-adv-x="558" 
d="M257 0h-177v498h183c172 0 250 -102 250 -239c0 -134 -56 -259 -256 -259zM237 429h-77v-360h93c156 0 177 107 177 178c0 75 -28 182 -193 182zM166 751l96 -107l97 107l32 -21l-111 -170h-35l-111 170z" />
    <glyph glyph-name="Dcroat.small" horiz-adv-x="558" 
d="M257 0h-177v228h-70v54h70v216h183c172 0 250 -102 250 -239c0 -134 -56 -259 -256 -259zM237 429h-77v-147h133v-54h-133v-159h93c156 0 177 107 177 178c0 75 -28 182 -193 182z" />
    <glyph glyph-name="Eacutesmall" horiz-adv-x="498" 
d="M427 429h-267v-142h189v-69h-189v-149h288v-69h-368v498h347v-69zM364 706l-149 -146l-32 21l111 170z" />
    <glyph glyph-name="Ebreve.small" horiz-adv-x="498" 
d="M427 429h-267v-142h189v-69h-189v-149h288v-69h-368v498h347v-69zM387 710c0 -72 -50 -140 -127 -140c-82 0 -127 73 -127 140h44c8 -49 37 -77 83 -77s75 28 83 77h44z" />
    <glyph glyph-name="Ecaron.small" horiz-adv-x="498" 
d="M427 429h-267v-142h189v-69h-189v-149h288v-69h-368v498h347v-69zM166 751l96 -107l97 107l32 -21l-111 -170h-35l-111 170z" />
    <glyph glyph-name="Ecircumflexsmall" horiz-adv-x="498" 
d="M427 429h-267v-142h189v-69h-189v-149h288v-69h-368v498h347v-69zM259 667l-96 -107l-32 21l111 170h35l111 -170l-32 -21z" />
    <glyph glyph-name="Edieresissmall" horiz-adv-x="498" 
d="M427 429h-267v-142h189v-69h-189v-149h288v-69h-368v498h347v-69zM104 637c0 28 25 54 53 54s54 -26 54 -54s-26 -53 -54 -53s-53 25 -53 53zM303 637c0 28 25 54 53 54s54 -26 54 -54s-26 -53 -54 -53s-53 25 -53 53z" />
    <glyph glyph-name="Edotaccent.small" horiz-adv-x="498" 
d="M427 429h-267v-142h189v-69h-189v-149h288v-69h-368v498h347v-69zM215 637c0 28 25 54 53 54s54 -26 54 -54s-26 -53 -54 -53s-53 25 -53 53z" />
    <glyph glyph-name="Egravesmall" horiz-adv-x="498" 
d="M427 429h-267v-142h189v-69h-189v-149h288v-69h-368v498h347v-69zM290 560l-149 146l70 45l111 -170z" />
    <glyph glyph-name="Emacron.small" horiz-adv-x="498" 
d="M427 429h-267v-142h189v-69h-189v-149h288v-69h-368v498h347v-69zM400 612h-279v59h279v-59z" />
    <glyph glyph-name="Eogonek.small" horiz-adv-x="498" 
d="M427 429h-267v-142h189v-69h-189v-149h288v-69c-63 -27 -126 -82 -126 -140c0 -41 29 -57 60 -57c16 0 32 4 46 11l20 -36c-25 -21 -60 -33 -95 -33c-54 0 -105 29 -105 96c0 55 45 115 122 159h-290v498h347v-69z" />
    <glyph glyph-name="Gbreve.small" horiz-adv-x="567" 
d="M310 198v69h189v-267h-44l-25 55c-36 -49 -93 -71 -156 -71c-143 0 -229 133 -229 267c0 162 119 263 265 263c58 0 123 -17 175 -57l-15 -59c-47 27 -103 45 -150 45c-143 0 -192 -98 -192 -180c0 -116 57 -208 174 -208c47 0 93 19 117 56v87h-109zM425 710
c0 -72 -50 -140 -127 -140c-82 0 -127 73 -127 140h44c8 -49 37 -77 83 -77s75 28 83 77h44z" />
    <glyph glyph-name="Gcircumflex.small" horiz-adv-x="567" 
d="M310 198v69h189v-267h-44l-25 55c-36 -49 -93 -71 -156 -71c-143 0 -229 133 -229 267c0 162 119 263 265 263c58 0 123 -17 175 -57l-15 -59c-47 27 -103 45 -150 45c-143 0 -192 -98 -192 -180c0 -116 57 -208 174 -208c47 0 93 19 117 56v87h-109zM303 667l-96 -107
l-32 21l111 170h35l111 -170l-32 -21z" />
    <glyph glyph-name="Gcommaaccent.small" horiz-adv-x="567" 
d="M310 198v69h189v-267h-44l-25 55c-36 -49 -93 -71 -156 -71c-143 0 -229 133 -229 267c0 162 119 263 265 263c58 0 123 -17 175 -57l-15 -59c-47 27 -103 45 -150 45c-143 0 -192 -98 -192 -180c0 -116 57 -208 174 -208c47 0 93 19 117 56v87h-109zM267 -83h85
l-46 -180h-39v180z" />
    <glyph glyph-name="Gdotaccent.small" horiz-adv-x="567" 
d="M310 198v69h189v-267h-44l-25 55c-36 -49 -93 -71 -156 -71c-143 0 -229 133 -229 267c0 162 119 263 265 263c58 0 123 -17 175 -57l-15 -59c-47 27 -103 45 -150 45c-143 0 -192 -98 -192 -180c0 -116 57 -208 174 -208c47 0 93 19 117 56v87h-109zM255 637
c0 28 25 54 53 54s54 -26 54 -54s-26 -53 -54 -53s-53 25 -53 53z" />
    <glyph glyph-name="Hbar.small" horiz-adv-x="576" 
d="M416 0v218h-256v-218h-80v360h-70v49h70v89h80v-89h256v89h80v-89h70v-49h-70v-360h-80zM160 287h256v73h-256v-73z" />
    <glyph glyph-name="Hcircumflex.small" horiz-adv-x="576" 
d="M416 0v218h-256v-218h-80v498h80v-211h256v211h80v-498h-80zM288 667l-96 -107l-32 21l111 170h35l111 -170l-32 -21z" />
    <glyph glyph-name="Iacutesmall" horiz-adv-x="250" 
d="M165 498v-498h-80v498h80zM242 706l-149 -146l-32 21l111 170z" />
    <glyph glyph-name="Ibreve.small" horiz-adv-x="250" 
d="M165 498v-498h-80v498h80zM254 710c0 -72 -50 -140 -127 -140c-82 0 -127 73 -127 140h44c8 -49 37 -77 83 -77s75 28 83 77h44z" />
    <glyph glyph-name="Icircumflexsmall" horiz-adv-x="250" 
d="M165 498v-498h-80v498h80zM127 667l-96 -107l-32 21l111 170h35l111 -170l-32 -21z" />
    <glyph glyph-name="Idieresissmall" horiz-adv-x="250" 
d="M265 637c0 -29 -25 -53 -55 -53s-53 24 -53 53c0 30 24 54 53 54c30 0 55 -25 55 -54zM94 637c0 -29 -24 -53 -54 -53s-54 24 -54 53c0 30 25 54 54 54c30 0 54 -25 54 -54zM165 498v-498h-80v498h80z" />
    <glyph glyph-name="Idotaccent.small" horiz-adv-x="250" 
d="M165 498v-498h-80v498h80zM72 637c0 28 25 54 53 54s54 -26 54 -54s-26 -53 -54 -53s-53 25 -53 53z" />
    <glyph glyph-name="Igravesmall" horiz-adv-x="250" 
d="M165 498v-498h-80v498h80zM157 560l-149 146l70 45l111 -170z" />
    <glyph glyph-name="Imacron.small" horiz-adv-x="250" 
d="M246 622h-241v49h241v-49zM165 498v-498h-80v498h80z" />
    <glyph glyph-name="Iogonek.small" horiz-adv-x="250" 
d="M205 -222c-25 -21 -60 -33 -95 -33c-54 0 -105 29 -105 96c0 51 28 106 80 149v508h80v-498c-43 -27 -86 -82 -86 -140c0 -41 29 -57 60 -57c16 0 32 4 46 11z" />
    <glyph glyph-name="Itilde.small" horiz-adv-x="250" 
d="M165 498v-498h-80v498h80zM251 737l32 -21l-54 -83s-18 -31 -54 -31s-53 26 -88 26c-21 0 -49 -32 -80 -68l-32 21l54 83s18 31 54 31s53 -26 88 -26c21 0 49 32 80 68z" />
    <glyph glyph-name="IJ.small" horiz-adv-x="501" 
d="M421 498v-492c0 -107 -65 -145 -129 -145c-36 0 -71 12 -96 34l20 36c20 -7 38 -11 53 -11c48 0 72 37 72 104v474h80zM165 498v-498h-80v498h80z" />
    <glyph glyph-name="Jcircumflex.small" horiz-adv-x="256" 
d="M176 498v-492c0 -107 -65 -145 -129 -145c-36 0 -71 12 -96 34l20 36c20 -7 38 -11 53 -11c48 0 72 37 72 104v474h80zM135 667l-96 -107l-32 21l111 170h35l111 -170l-32 -21z" />
    <glyph glyph-name="Kcommaaccent.small" horiz-adv-x="517" 
d="M160 0h-80v498h80v-211h49l191 211h97l-215 -228l215 -270h-95l-176 218h-66v-218zM203 -83h85l-46 -180h-39v180z" />
    <glyph glyph-name="Lacute.small" horiz-adv-x="443" 
d="M80 498h80v-429h268v-69h-348v498zM273 706l-149 -146l-32 21l111 170z" />
    <glyph glyph-name="Lcaron.small" horiz-adv-x="443" 
d="M318 580l-49 -194h-39v194h88zM80 498h80v-429h268v-69h-348v498z" />
    <glyph glyph-name="Lcommaaccent.small" horiz-adv-x="443" 
d="M80 498h80v-429h268v-69h-348v498zM191 -83h85l-46 -180h-39v180z" />
    <glyph glyph-name="Ldot.small" horiz-adv-x="443" 
d="M80 498h80v-429h268v-69h-348v498zM239 301c0 28 25 54 53 54s54 -26 54 -54s-26 -53 -54 -53s-53 25 -53 53z" />
    <glyph glyph-name="Lslashsmall" horiz-adv-x="443" 
d="M80 498h80v-196l153 99v-65l-153 -99v-168h268v-69h-348v185l-70 -45v65l70 45v248z" />
    <glyph glyph-name="Nacute.small" horiz-adv-x="587" 
d="M155 413v-413h-75v498h104l249 -376v376h74v-498h-77zM417 706l-149 -146l-32 21l111 170z" />
    <glyph glyph-name="Ncaron.small" horiz-adv-x="587" 
d="M155 413v-413h-75v498h104l249 -376v376h74v-498h-77zM211 751l96 -107l97 107l32 -21l-111 -170h-35l-111 170z" />
    <glyph glyph-name="Ncommaaccent.small" horiz-adv-x="587" 
d="M155 413v-413h-75v498h104l249 -376v376h74v-498h-77zM249 -83h85l-46 -180h-39v180z" />
    <glyph glyph-name="Ntildesmall" horiz-adv-x="587" 
d="M155 413v-413h-75v498h104l249 -376v376h74v-498h-77zM435 737l32 -21l-54 -83s-18 -31 -54 -31s-53 26 -88 26c-21 0 -49 -32 -80 -68l-32 21l54 83s18 31 54 31s53 -26 88 -26c21 0 49 32 80 68z" />
    <glyph glyph-name="Napostrophe.small" horiz-adv-x="627" 
d="M195 413v-413h-75v498h104l249 -376v376h74v-498h-77zM111 737l-57 -239h-39v239h96z" />
    <glyph glyph-name="Oacutesmall" horiz-adv-x="592" 
d="M547 259c0 -134 -71 -275 -251 -275c-183 0 -251 153 -251 267c0 168 104 263 262 263c152 0 240 -118 240 -255zM464 247c0 75 -31 196 -176 196c-123 0 -160 -108 -160 -180c0 -74 31 -208 177 -208c121 0 159 121 159 192zM396 706l-149 -146l-32 21l111 170z" />
    <glyph glyph-name="Obreve.small" horiz-adv-x="592" 
d="M547 259c0 -134 -71 -275 -251 -275c-183 0 -251 153 -251 267c0 168 104 263 262 263c152 0 240 -118 240 -255zM464 247c0 75 -31 196 -176 196c-123 0 -160 -108 -160 -180c0 -74 31 -208 177 -208c121 0 159 121 159 192zM423 710c0 -72 -50 -140 -127 -140
c-82 0 -127 73 -127 140h44c8 -49 37 -77 83 -77s75 28 83 77h44z" />
    <glyph glyph-name="Ocircumflexsmall" horiz-adv-x="592" 
d="M547 259c0 -134 -71 -275 -251 -275c-183 0 -251 153 -251 267c0 168 104 263 262 263c152 0 240 -118 240 -255zM464 247c0 75 -31 196 -176 196c-123 0 -160 -108 -160 -180c0 -74 31 -208 177 -208c121 0 159 121 159 192zM296 667l-96 -107l-32 21l111 170h35
l111 -170l-32 -21z" />
    <glyph glyph-name="Odieresissmall" horiz-adv-x="592" 
d="M547 259c0 -134 -71 -275 -251 -275c-183 0 -251 153 -251 267c0 168 104 263 262 263c152 0 240 -118 240 -255zM464 247c0 75 -31 196 -176 196c-123 0 -160 -108 -160 -180c0 -74 31 -208 177 -208c121 0 159 121 159 192zM143 637c0 28 25 54 53 54s54 -26 54 -54
s-26 -53 -54 -53s-53 25 -53 53zM342 637c0 28 25 54 53 54s54 -26 54 -54s-26 -53 -54 -53s-53 25 -53 53z" />
    <glyph glyph-name="Ogravesmall" horiz-adv-x="592" 
d="M547 259c0 -134 -71 -275 -251 -275c-183 0 -251 153 -251 267c0 168 104 263 262 263c152 0 240 -118 240 -255zM464 247c0 75 -31 196 -176 196c-123 0 -160 -108 -160 -180c0 -74 31 -208 177 -208c121 0 159 121 159 192zM335 560l-149 146l70 45l111 -170z" />
    <glyph glyph-name="Ohungarumlaut.small" horiz-adv-x="592" 
d="M547 259c0 -134 -71 -275 -251 -275c-183 0 -251 153 -251 267c0 168 104 263 262 263c152 0 240 -118 240 -255zM464 247c0 75 -31 196 -176 196c-123 0 -160 -108 -160 -180c0 -74 31 -208 177 -208c121 0 159 121 159 192zM337 706l-149 -146l-32 21l111 170zM495 706
l-149 -146l-32 21l111 170z" />
    <glyph glyph-name="Omacron.small" horiz-adv-x="592" 
d="M547 259c0 -134 -71 -275 -251 -275c-183 0 -251 153 -251 267c0 168 104 263 262 263c152 0 240 -118 240 -255zM464 247c0 75 -31 196 -176 196c-123 0 -160 -108 -160 -180c0 -74 31 -208 177 -208c121 0 159 121 159 192zM435 612h-279v59h279v-59z" />
    <glyph glyph-name="Otildesmall" horiz-adv-x="592" 
d="M547 259c0 -134 -71 -275 -251 -275c-183 0 -251 153 -251 267c0 168 104 263 262 263c152 0 240 -118 240 -255zM464 247c0 75 -31 196 -176 196c-123 0 -160 -108 -160 -180c0 -74 31 -208 177 -208c121 0 159 121 159 192zM422 737l32 -21l-54 -83s-18 -31 -54 -31
s-53 26 -88 26c-21 0 -49 -32 -80 -68l-32 21l54 83s18 31 54 31s53 -26 88 -26c21 0 49 32 80 68z" />
    <glyph glyph-name="Oslashsmall" horiz-adv-x="592" 
d="M547 259c0 -134 -71 -275 -251 -275c-54 0 -98 13 -133 34l-38 -54l-39 27l40 56c-57 55 -81 136 -81 204c0 168 104 263 262 263c47 0 88 -12 123 -32l35 50l39 -27l-36 -51c51 -48 79 -119 79 -195zM128 263c0 -42 10 -104 45 -149l212 304c-25 15 -57 25 -97 25
c-123 0 -160 -108 -160 -180zM464 247c0 41 -10 97 -43 139l-213 -304c24 -17 56 -27 97 -27c121 0 159 121 159 192z" />
    <glyph glyph-name="Oslashacute.small" horiz-adv-x="592" 
d="M547 259c0 -134 -71 -275 -251 -275c-54 0 -98 13 -133 34l-38 -54l-39 27l40 56c-57 55 -81 136 -81 204c0 168 104 263 262 263c47 0 88 -12 123 -32l35 50l39 -27l-36 -51c51 -48 79 -119 79 -195zM128 263c0 -42 10 -104 45 -149l212 304c-25 15 -57 25 -97 25
c-123 0 -160 -108 -160 -180zM464 247c0 41 -10 97 -43 139l-213 -304c24 -17 56 -27 97 -27c121 0 159 121 159 192zM396 706l-149 -146l-32 21l111 170z" />
    <glyph glyph-name="OEsmall" horiz-adv-x="809" 
d="M743 429h-267v-142h189v-69h-189v-149h288v-69h-372c-28 -10 -60 -16 -96 -16c-183 0 -251 153 -251 267c0 168 104 263 262 263c34 0 64 -6 91 -16h345v-69zM305 55c32 0 61 6 91 25v339c-28 18 -69 24 -108 24c-123 0 -160 -108 -160 -180c0 -74 31 -208 177 -208z" />
    <glyph glyph-name="Racute.small" horiz-adv-x="527" 
d="M160 192v-192h-80v498h188c132 0 188 -51 188 -148c0 -72 -32 -127 -124 -148l170 -202h-95l-162 192h-85zM257 429h-97v-170h93c106 0 120 42 120 88c0 45 -21 82 -116 82zM363 706l-149 -146l-32 21l111 170z" />
    <glyph glyph-name="Rcaron.small" horiz-adv-x="527" 
d="M160 192v-192h-80v498h188c132 0 188 -51 188 -148c0 -72 -32 -127 -124 -148l170 -202h-95l-162 192h-85zM257 429h-97v-170h93c106 0 120 42 120 88c0 45 -21 82 -116 82zM159 751l96 -107l97 107l32 -21l-111 -170h-35l-111 170z" />
    <glyph glyph-name="Rcommaaccent.small" horiz-adv-x="527" 
d="M160 192v-192h-80v498h188c132 0 188 -51 188 -148c0 -72 -32 -127 -124 -148l170 -202h-95l-162 192h-85zM257 429h-97v-170h93c106 0 120 42 120 88c0 45 -21 82 -116 82zM203 -83h85l-46 -180h-39v180z" />
    <glyph glyph-name="Sacute.small" horiz-adv-x="460" 
d="M215 55c73 0 117 30 117 71c0 111 -280 72 -280 244c0 86 81 144 177 144c68 0 130 -23 166 -54l-15 -59c-45 25 -98 42 -148 42c-61 0 -99 -26 -99 -65c0 -112 282 -79 282 -238c0 -94 -75 -156 -188 -156c-74 0 -136 25 -184 71l26 47c40 -27 87 -47 146 -47zM328 706
l-149 -146l-32 21l111 170z" />
    <glyph glyph-name="Scaronsmall" horiz-adv-x="460" 
d="M215 55c73 0 117 30 117 71c0 111 -280 72 -280 244c0 86 81 144 177 144c68 0 130 -23 166 -54l-15 -59c-45 25 -98 42 -148 42c-61 0 -99 -26 -99 -65c0 -112 282 -79 282 -238c0 -94 -75 -156 -188 -156c-74 0 -136 25 -184 71l26 47c40 -27 87 -47 146 -47zM130 751
l96 -107l97 107l32 -21l-111 -170h-35l-111 170z" />
    <glyph glyph-name="Scedilla.small" horiz-adv-x="460" 
d="M235 -77c56 -9 82 -38 82 -70c0 -44 -49 -94 -136 -108l-20 36c46 10 81 41 81 66c0 18 -19 33 -66 36l17 103c-59 6 -110 30 -150 69l26 47c40 -27 87 -47 146 -47c73 0 117 30 117 71c0 111 -280 72 -280 244c0 86 81 144 177 144c68 0 130 -23 166 -54l-15 -59
c-45 25 -98 42 -148 42c-61 0 -99 -26 -99 -65c0 -112 282 -79 282 -238c0 -89 -67 -149 -170 -155z" />
    <glyph glyph-name="Scircumflex.small" horiz-adv-x="460" 
d="M215 55c73 0 117 30 117 71c0 111 -280 72 -280 244c0 86 81 144 177 144c68 0 130 -23 166 -54l-15 -59c-45 25 -98 42 -148 42c-61 0 -99 -26 -99 -65c0 -112 282 -79 282 -238c0 -94 -75 -156 -188 -156c-74 0 -136 25 -184 71l26 47c40 -27 87 -47 146 -47zM228 667
l-96 -107l-32 21l111 170h35l111 -170l-32 -21z" />
    <glyph glyph-name="Scommaaccent.small" horiz-adv-x="460" 
d="M215 55c73 0 117 30 117 71c0 111 -280 72 -280 244c0 86 81 144 177 144c68 0 130 -23 166 -54l-15 -59c-45 25 -98 42 -148 42c-61 0 -99 -26 -99 -65c0 -112 282 -79 282 -238c0 -94 -75 -156 -188 -156c-74 0 -136 25 -184 71l26 47c40 -27 87 -47 146 -47zM191 -83
h85l-46 -180h-39v180z" />
    <glyph glyph-name="Tcaron.small" horiz-adv-x="501" 
d="M25 498h451v-69h-186v-429h-80v429h-185v69zM158 751l96 -107l97 107l32 -21l-111 -170h-35l-111 170z" />
    <glyph glyph-name="Tbar.small" horiz-adv-x="501" 
d="M25 498h451v-69h-186v-158h128v-54h-128v-217h-80v217h-128v54h128v158h-185v69z" />
    <glyph glyph-name="Tcommaaccent.small" horiz-adv-x="501" 
d="M25 498h451v-69h-186v-429h-80v429h-185v69zM209 -83h85l-46 -180h-39v180z" />
    <glyph glyph-name="uni021B.small" horiz-adv-x="501" 
d="M25 498h451v-69h-186v-429h-80v429h-185v69zM209 -83h85l-46 -180h-39v180z" />
    <glyph glyph-name="Uacutesmall" horiz-adv-x="558" 
d="M413 498h80v-290c0 -153 -85 -224 -214 -224s-214 71 -214 224v290h80v-293c0 -98 56 -150 134 -150s134 52 134 150v293zM402 706l-149 -146l-32 21l111 170z" />
    <glyph glyph-name="Ubreve.small" horiz-adv-x="558" 
d="M413 498h80v-290c0 -153 -85 -224 -214 -224s-214 71 -214 224v290h80v-293c0 -98 56 -150 134 -150s134 52 134 150v293zM409 710c0 -72 -50 -140 -127 -140c-82 0 -127 73 -127 140h44c8 -49 37 -77 83 -77s75 28 83 77h44z" />
    <glyph glyph-name="Ucircumflexsmall" horiz-adv-x="558" 
d="M413 498h80v-290c0 -153 -85 -224 -214 -224s-214 71 -214 224v290h80v-293c0 -98 56 -150 134 -150s134 52 134 150v293zM282 667l-96 -107l-32 21l111 170h35l111 -170l-32 -21z" />
    <glyph glyph-name="Udieresissmall" horiz-adv-x="558" 
d="M413 498h80v-290c0 -153 -85 -224 -214 -224s-214 71 -214 224v290h80v-293c0 -98 56 -150 134 -150s134 52 134 150v293zM129 637c0 28 25 54 53 54s54 -26 54 -54s-26 -53 -54 -53s-53 25 -53 53zM328 637c0 28 25 54 53 54s54 -26 54 -54s-26 -53 -54 -53
s-53 25 -53 53z" />
    <glyph glyph-name="Uhungarumlaut.small" horiz-adv-x="558" 
d="M413 498h80v-290c0 -153 -85 -224 -214 -224s-214 71 -214 224v290h80v-293c0 -98 56 -150 134 -150s134 52 134 150v293zM318 706l-149 -146l-32 21l111 170zM476 706l-149 -146l-32 21l111 170z" />
    <glyph glyph-name="Ugravesmall" horiz-adv-x="558" 
d="M413 498h80v-290c0 -153 -85 -224 -214 -224s-214 71 -214 224v290h80v-293c0 -98 56 -150 134 -150s134 52 134 150v293zM321 560l-149 146l70 45l111 -170z" />
    <glyph glyph-name="Umacron.small" horiz-adv-x="558" 
d="M413 498h80v-290c0 -153 -85 -224 -214 -224s-214 71 -214 224v290h80v-293c0 -98 56 -150 134 -150s134 52 134 150v293zM421 612h-279v59h279v-59z" />
    <glyph glyph-name="Uogonek.small" horiz-adv-x="558" 
d="M394 -222c-25 -21 -60 -33 -95 -33c-54 0 -105 29 -105 96c0 49 30 101 85 143c-129 0 -214 71 -214 224v290h80v-293c0 -98 56 -150 134 -150s134 52 134 150v293h80v-290c0 -111 -45 -179 -119 -208c-59 -24 -106 -82 -106 -140c0 -41 29 -57 60 -57c16 0 32 4 46 11z
" />
    <glyph glyph-name="Uring.small" horiz-adv-x="558" 
d="M413 498h80v-290c0 -153 -85 -224 -214 -224s-214 71 -214 224v290h80v-293c0 -98 56 -150 134 -150s134 52 134 150v293zM386 633c0 -57 -45 -96 -100 -96s-100 39 -100 96c0 56 45 95 100 95s100 -39 100 -95zM340 633c0 33 -20 57 -54 57s-55 -25 -55 -57
c0 -34 22 -58 55 -58c34 0 54 24 54 58z" />
    <glyph glyph-name="Utilde.small" horiz-adv-x="558" 
d="M413 498h80v-290c0 -153 -85 -224 -214 -224s-214 71 -214 224v290h80v-293c0 -98 56 -150 134 -150s134 52 134 150v293zM413 737l32 -21l-54 -83s-18 -31 -54 -31s-53 26 -88 26c-21 0 -49 -32 -80 -68l-32 21l54 83s18 31 54 31s53 -26 88 -26c21 0 49 32 80 68z" />
    <glyph glyph-name="Wacute.small" horiz-adv-x="849" 
d="M834 498l-185 -498h-77l-148 415l-147 -415h-77l-185 498h90l137 -406l137 406h94l141 -406l133 406h87zM522 706l-149 -146l-32 21l111 170z" />
    <glyph glyph-name="Wcircumflex.small" horiz-adv-x="849" 
d="M834 498l-185 -498h-77l-148 415l-147 -415h-77l-185 498h90l137 -406l137 406h94l141 -406l133 406h87zM423 667l-96 -107l-32 21l111 170h35l111 -170l-32 -21z" />
    <glyph glyph-name="Wdieresis.small" horiz-adv-x="849" 
d="M834 498l-185 -498h-77l-148 415l-147 -415h-77l-185 498h90l137 -406l137 406h94l141 -406l133 406h87zM272 637c0 28 25 54 53 54s54 -26 54 -54s-26 -53 -54 -53s-53 25 -53 53zM471 637c0 28 25 54 53 54s54 -26 54 -54s-26 -53 -54 -53s-53 25 -53 53z" />
    <glyph glyph-name="Wgrave.small" horiz-adv-x="849" 
d="M834 498l-185 -498h-77l-148 415l-147 -415h-77l-185 498h90l137 -406l137 406h94l141 -406l133 406h87zM483 560l-149 146l70 45l111 -170z" />
    <glyph glyph-name="Yacutesmall" horiz-adv-x="517" 
d="M262 269l153 229h87l-203 -289v-209h-80v208l-204 290h90zM374 706l-149 -146l-32 21l111 170z" />
    <glyph glyph-name="Ycircumflex.small" horiz-adv-x="517" 
d="M262 269l153 229h87l-203 -289v-209h-80v208l-204 290h90zM258 667l-96 -107l-32 21l111 170h35l111 -170l-32 -21z" />
    <glyph glyph-name="Ydieresissmall" horiz-adv-x="517" 
d="M262 269l153 229h87l-203 -289v-209h-80v208l-204 290h90zM105 637c0 28 25 54 53 54s54 -26 54 -54s-26 -53 -54 -53s-53 25 -53 53zM304 637c0 28 25 54 53 54s54 -26 54 -54s-26 -53 -54 -53s-53 25 -53 53z" />
    <glyph glyph-name="Ygrave.small" horiz-adv-x="517" 
d="M262 269l153 229h87l-203 -289v-209h-80v208l-204 290h90zM303 560l-149 146l70 45l111 -170z" />
    <glyph glyph-name="Zacute.small" horiz-adv-x="480" 
d="M435 0h-395v71l290 358h-285v69h379v-69l-289 -360h300v-69zM341 706l-149 -146l-32 21l111 170z" />
    <glyph glyph-name="Zcaronsmall" horiz-adv-x="480" 
d="M435 0h-395v71l290 358h-285v69h379v-69l-289 -360h300v-69zM143 751l96 -107l97 107l32 -21l-111 -170h-35l-111 170z" />
    <glyph glyph-name="Zdotaccent.small" horiz-adv-x="480" 
d="M435 0h-395v71l290 358h-285v69h379v-69l-289 -360h300v-69zM185 637c0 28 25 54 53 54s54 -26 54 -54s-26 -53 -54 -53s-53 25 -53 53z" />
    <glyph glyph-name="Ethsmall" horiz-adv-x="558" 
d="M257 0h-177v228h-70v54h70v216h183c172 0 250 -102 250 -239c0 -134 -56 -259 -256 -259zM237 429h-77v-147h133v-54h-133v-159h93c156 0 177 107 177 178c0 75 -28 182 -193 182z" />
    <glyph glyph-name="Thornsmall" horiz-adv-x="495" 
d="M455 251c0 -134 -126 -176 -223 -176h-72v-75h-80v498h80v-73h67c102 0 228 -36 228 -174zM373 244c0 76 -51 112 -150 112h-63v-212h68c85 0 145 36 145 100z" />
    <glyph glyph-name="Eng.small" horiz-adv-x="587" 
d="M428 -95v92l-273 416v-413h-75v498h104l247 -376v376h76v-611c0 -107 -64 -145 -128 -145c-36 0 -71 12 -96 34l20 36c20 -7 38 -11 53 -11c48 0 72 37 72 104z" />
    <glyph glyph-name="germandbls.small" horiz-adv-x="920" 
d="M215 55c73 0 117 30 117 71c0 111 -280 72 -280 244c0 86 81 144 177 144c68 0 130 -23 166 -54l-15 -59c-45 25 -98 42 -148 42c-61 0 -99 -26 -99 -65c0 -112 282 -79 282 -238c0 -94 -75 -156 -188 -156c-74 0 -136 25 -184 71l26 47c40 -27 87 -47 146 -47zM675 55
c73 0 117 30 117 71c0 111 -280 72 -280 244c0 86 81 144 177 144c68 0 130 -23 166 -54l-15 -59c-45 25 -98 42 -148 42c-61 0 -99 -26 -99 -65c0 -112 282 -79 282 -238c0 -94 -75 -156 -188 -156c-74 0 -136 25 -184 71l26 47c40 -27 87 -47 146 -47z" />
    <glyph glyph-name="Ksmall.alt" horiz-adv-x="523" 
d="M450 41c67 -86 118 -115 173 -115c24 0 56 6 75 15l20 -36c-30 -29 -62 -45 -113 -45c-79 0 -151 41 -217 132l-162 226h-66v-218h-80v498h80v-211h49l191 211h97l-215 -228z" />
    <glyph glyph-name="Kcommaaccent.smallalt" horiz-adv-x="523" 
d="M450 41c67 -86 118 -115 173 -115c24 0 56 6 75 15l20 -36c-30 -29 -62 -45 -113 -45c-79 0 -151 41 -217 132l-162 226h-66v-218h-80v498h80v-211h49l191 211h97l-215 -228zM203 -83h85l-46 -180h-39v180z" />
    <glyph glyph-name="Qsmall.alt" horiz-adv-x="592" 
d="M547 259c0 -122 -59 -250 -206 -271l40 -96c27 -63 73 -91 129 -91c19 0 34 4 57 16l20 -36c-25 -29 -64 -44 -105 -44c-105 0 -149 76 -178 149l-40 100c-159 16 -219 158 -219 265c0 168 104 263 262 263c152 0 240 -118 240 -255zM464 247c0 75 -31 196 -176 196
c-123 0 -160 -108 -160 -180c0 -74 31 -208 177 -208c121 0 159 121 159 192z" />
    <glyph glyph-name="Rsmall.alt" horiz-adv-x="528" 
d="M160 192v-192h-80v498h188c132 0 188 -51 188 -148c0 -73 -32 -127 -125 -148l119 -161c64 -86 118 -115 173 -115c24 0 56 6 75 15l20 -36c-30 -29 -62 -45 -113 -45c-79 0 -151 41 -217 132l-144 200h-84zM257 429h-97v-170h93c106 0 120 42 120 88
c0 45 -21 82 -116 82z" />
    <glyph glyph-name="Racute.smallalt" horiz-adv-x="528" 
d="M160 192v-192h-80v498h188c132 0 188 -51 188 -148c0 -73 -32 -127 -125 -148l119 -161c64 -86 118 -115 173 -115c24 0 56 6 75 15l20 -36c-30 -29 -62 -45 -113 -45c-79 0 -151 41 -217 132l-144 200h-84zM257 429h-97v-170h93c106 0 120 42 120 88
c0 45 -21 82 -116 82zM363 706l-149 -146l-32 21l111 170z" />
    <glyph glyph-name="Rcaron.smallalt" horiz-adv-x="528" 
d="M160 192v-192h-80v498h188c132 0 188 -51 188 -148c0 -73 -32 -127 -125 -148l119 -161c64 -86 118 -115 173 -115c24 0 56 6 75 15l20 -36c-30 -29 -62 -45 -113 -45c-79 0 -151 41 -217 132l-144 200h-84zM257 429h-97v-170h93c106 0 120 42 120 88
c0 45 -21 82 -116 82zM159 751l96 -107l97 107l32 -21l-111 -170h-35l-111 170z" />
    <glyph glyph-name="Rcommaaccent.smallalt" horiz-adv-x="528" 
d="M160 192v-192h-80v498h188c132 0 188 -51 188 -148c0 -73 -32 -127 -125 -148l119 -161c64 -86 118 -115 173 -115c24 0 56 6 75 15l20 -36c-30 -29 -62 -45 -113 -45c-79 0 -151 41 -217 132l-144 200h-84zM257 429h-97v-170h93c106 0 120 42 120 88
c0 45 -21 82 -116 82zM203 -83h85l-46 -180h-39v180z" />
    <glyph glyph-name="exclamsmall" horiz-adv-x="325" 
d="M211 498l-22 -332h-53l-21 332h96zM105 41c0 32 25 58 57 58s58 -26 58 -58s-26 -57 -58 -57s-57 25 -57 57z" />
    <glyph glyph-name="questionsmall" horiz-adv-x="426" 
d="M126 41c0 32 25 58 57 58s58 -26 58 -58s-26 -57 -58 -57s-57 25 -57 57zM165 504c122 0 216 -69 216 -177c0 -104 -104 -145 -179 -145h-56l-17 66h33c72 0 137 21 137 89c0 52 -62 100 -150 100c-41 0 -69 -8 -69 -8l-15 59s43 16 100 16z" />
    <glyph glyph-name="exclamdownsmall" horiz-adv-x="325" 
d="M189 332l22 -332h-96l21 332h53zM105 457c0 32 25 57 57 57s58 -25 58 -57s-26 -58 -58 -58s-57 26 -57 58z" />
    <glyph glyph-name="questiondownsmall" horiz-adv-x="426" 
d="M290 457c0 -32 -25 -58 -57 -58s-58 26 -58 58s26 57 58 57s57 -25 57 -57zM251 -6c57 0 100 16 100 16l-15 59s-28 -8 -69 -8c-88 0 -150 48 -150 100c0 68 65 89 137 89h33l-17 66h-56c-75 0 -179 -41 -179 -145c0 -108 94 -177 216 -177z" />
    <glyph glyph-name="quoteleft.small" horiz-adv-x="160" 
d="M6 400l57 239h39v-239h-96z" />
    <glyph glyph-name="quoteright.small" horiz-adv-x="165" 
d="M144 639l-57 -239h-39v239h96z" />
    <glyph glyph-name="quotedblleft.small" horiz-adv-x="340" 
d="M186 400l57 239h39v-239h-96zM6 400l57 239h39v-239h-96z" />
    <glyph glyph-name="quotedblright.small" horiz-adv-x="345" 
d="M324 639l-57 -239h-39v239h96zM144 639l-57 -239h-39v239h96z" />
    <glyph glyph-name="ampersandsmall" horiz-adv-x="587" 
d="M410 39c-54 -39 -118 -55 -171 -55c-84 0 -184 35 -184 141c0 67 54 106 119 129c-47 40 -88 81 -88 134c0 71 70 126 160 126c99 0 165 -57 165 -123c0 -93 -83 -129 -119 -151l119 -109c40 41 45 119 45 157h80c-3 -115 -48 -169 -76 -201l102 -87l-48 -52zM360 84
l-140 123c-34 -15 -82 -37 -82 -85c0 -46 51 -67 114 -67c29 0 79 6 108 29zM334 381c0 35 -40 65 -88 65c-49 0 -82 -32 -82 -59c0 -38 31 -61 78 -104c39 14 92 47 92 98z" />
    <glyph glyph-name="ampersandsmall.alt" horiz-adv-x="636" 
d="M621 268h-91c-7 -84 -35 -142 -70 -181l102 -87l-48 -52l-104 91c-41 -35 -107 -55 -170 -55c-95 0 -185 54 -185 151c0 67 40 115 90 145c-30 28 -59 69 -59 108c0 71 64 126 154 126c104 0 169 -58 169 -177h212v-69zM238 446c-47 -1 -71 -30 -71 -59
c0 -38 28 -62 75 -104l169 -152c34 34 42 96 44 137h-117v59c0 63 -21 119 -100 119zM360 84l-169 149c-38 -24 -54 -54 -54 -87c0 -57 56 -91 115 -91c39 0 80 8 108 29z" />
    <glyph glyph-name="zero.slash" horiz-adv-x="520" 
d="M480 303c0 -150 -58 -319 -220 -319c-173 0 -220 192 -220 340c0 169 60 331 220 331c172 0 220 -184 220 -352zM395 289c0 47 -2 117 -19 176l-208 -350c22 -36 53 -60 100 -60c98 0 127 135 127 234zM125 339c0 -44 2 -104 17 -158l207 348c-21 33 -52 55 -97 55
c-103 0 -127 -145 -127 -245z" />
    <glyph glyph-name="zerooldstyle" horiz-adv-x="520" 
d="M490 235c0 -150 -98 -251 -230 -251c-153 0 -230 124 -230 272c0 169 100 258 230 258c152 0 230 -111 230 -279zM407 227c0 108 -36 216 -153 216c-91 0 -141 -89 -141 -177c0 -107 43 -210 154 -210c96 0 140 84 140 171z" />
    <glyph glyph-name="oneoldstyle" horiz-adv-x="368" 
d="M25 447l228 67v-514h-80v403h-148v44z" />
    <glyph glyph-name="twooldstyle" horiz-adv-x="500" 
d="M63 385l-17 66c34 28 98 63 177 63c112 0 207 -63 207 -180c0 -124 -159 -218 -236 -260h253v-74h-405v59c111 51 300 161 300 272c0 62 -42 107 -137 107c-50 0 -105 -25 -142 -53z" />
    <glyph glyph-name="threeoldstyle" horiz-adv-x="495" 
d="M357 51c0 99 -107 108 -211 108v69c95 4 176 39 176 115c0 58 -55 95 -115 95c-55 0 -100 -21 -140 -53l-17 66c34 31 97 63 171 63c103 0 189 -63 189 -159c0 -74 -64 -134 -139 -152c73 -8 174 -35 174 -159c0 -123 -122 -196 -280 -196c-64 0 -114 12 -114 12l17 66
s43 -6 86 -6c117 0 203 44 203 131z" />
    <glyph glyph-name="fouroldstyle" horiz-adv-x="520" 
d="M485 0h-100v-141h-85v141h-275v59l279 439h81v-429h100v-69zM300 69v314l-191 -314h191z" />
    <glyph glyph-name="fiveoldstyle" horiz-adv-x="500" 
d="M455 64c0 -123 -101 -216 -279 -216c-64 0 -114 12 -114 12l17 66s43 -6 86 -6c117 0 202 43 202 130c0 91 -65 128 -135 128c-42 0 -85 -15 -119 -35l-36 20v335h336v-74h-257v-198c29 12 67 23 105 23c128 0 194 -87 194 -185z" />
    <glyph glyph-name="sixoldstyle" horiz-adv-x="510" 
d="M125 315c45 61 106 78 147 78c130 0 197 -92 197 -196c0 -106 -70 -213 -210 -213c-128 0 -219 106 -219 291c0 199 94 375 290 375c67 0 95 -14 95 -14l-17 -66s-34 8 -67 8c-153 0 -216 -150 -216 -263zM260 318c-56 0 -104 -28 -130 -70c1 -99 43 -189 141 -189
c74 0 111 62 111 127c0 70 -43 132 -122 132z" />
    <glyph glyph-name="sevenoldstyle" horiz-adv-x="450" 
d="M420 424l-215 -565h-90l224 565h-319v74h400v-74z" />
    <glyph glyph-name="eightoldstyle" horiz-adv-x="510" 
d="M61 486c0 112 93 169 189 169c95 0 189 -57 189 -167c0 -76 -57 -122 -107 -151c71 -35 135 -79 135 -166c0 -123 -105 -187 -213 -187c-107 0 -211 58 -211 184c0 83 62 135 117 167c-55 32 -99 76 -99 151zM129 176c0 -82 68 -121 134 -121c61 0 118 38 118 114
c0 72 -84 100 -166 138c-40 -24 -86 -66 -86 -131zM353 476c0 62 -38 108 -105 108c-55 0 -101 -37 -101 -98c0 -60 59 -91 127 -122c42 25 79 62 79 112z" />
    <glyph glyph-name="nineoldstyle" horiz-adv-x="510" 
d="M240 101c-132 0 -200 113 -200 210c0 114 76 204 206 204c157 0 224 -138 224 -299c0 -168 -54 -367 -285 -367c-64 0 -94 12 -94 12l17 66s23 -6 66 -6c174 0 210 128 211 250c-32 -49 -96 -70 -145 -70zM244 440c-66 0 -116 -47 -116 -118c0 -95 59 -145 134 -145
c59 0 106 32 122 61c0 126 -56 202 -140 202z" />
    <glyph glyph-name="zero.slash.oldstyle" horiz-adv-x="520" 
d="M490 235c0 -150 -98 -251 -230 -251c-153 0 -230 124 -230 272c0 169 100 258 230 258c152 0 230 -111 230 -279zM113 266c0 -51 10 -101 32 -140l201 284c-23 21 -53 33 -92 33c-91 0 -141 -89 -141 -177zM407 227c0 50 -8 101 -28 141l-200 -283c22 -18 51 -29 88 -29
c96 0 140 84 140 171z" />
    <glyph glyph-name="centoldstyle" horiz-adv-x="482" 
d="M243 -80v81c-134 13 -198 114 -198 230c0 143 76 233 198 248v96h54v-94c57 -3 112 -27 140 -53l-15 -58c-30 17 -75 41 -142 41c-103 0 -152 -76 -152 -168c0 -112 53 -172 175 -172c39 0 94 16 119 36l20 -36c-35 -42 -93 -64 -145 -70v-81h-54z" />
    <glyph glyph-name="dollaroldstyle" horiz-adv-x="460" 
d="M215 55c73 0 117 30 117 71c0 111 -280 72 -280 244c0 78 65 133 149 142v63h54v-63c56 -5 106 -26 137 -52l-15 -58c-45 25 -97 41 -147 41c-61 0 -95 -26 -95 -65c0 -112 280 -76 280 -235c0 -86 -63 -147 -160 -157v-66h-54v65c-62 5 -116 28 -158 69l26 47
c38 -27 97 -46 146 -46z" />
    <glyph glyph-name="Euro.small" horiz-adv-x="551" 
d="M422 170h-241c21 -61 69 -115 172 -115c49 0 103 16 128 36l20 -36c-41 -49 -102 -71 -170 -71c-138 0 -212 84 -237 186h-48v54h376v-54zM422 278h-376v54h48c29 113 123 182 242 182c57 0 121 -19 170 -59l-15 -58c-47 27 -99 46 -156 46c-93 0 -139 -52 -157 -111h244
v-54z" />
    <glyph glyph-name="sterling.small" horiz-adv-x="512" 
d="M45 278h73v17c0 142 59 218 186 218c63 0 105 -30 135 -59l-15 -58c-27 22 -63 46 -120 46c-79 0 -105 -49 -105 -146v-18h166v-54h-166v-155h273v-69h-427v44l73 18v162h-73v54z" />
    <glyph glyph-name="yen.small" horiz-adv-x="517" 
d="M67 278h103l-155 220h90l150 -220h10l150 220h87l-155 -220h100v-54h-380v54zM67 170h380v-54h-148v-116h-80v116h-152v54z" />
    <glyph glyph-name="florin.small" horiz-adv-x="446" 
d="M105 -44l26 227h-89v59h96l8 64c14 122 73 208 200 208c38 0 89 -14 125 -38l-15 -58c-39 14 -78 25 -120 25c-85 0 -102 -62 -112 -148l-6 -53h149v-59h-156l-28 -238c-15 -122 -79 -208 -205 -208c-48 0 -101 20 -123 44l20 36c39 -14 61 -16 93 -16
c84 0 122 49 137 155z" />
    <glyph glyph-name="numbersign.small" horiz-adv-x="528" 
d="M35 173h74l27 156h-53v59h64l19 110h69l-19 -110h143l19 110h70l-19 -110h64v-59h-75l-27 -156h53v-59h-63l-19 -114h-69l19 114h-144l-19 -114h-69l19 114h-64v59zM205 329l-27 -156h144l27 156h-144z" />
    <glyph glyph-name="afii61352.small" horiz-adv-x="953" 
d="M150 413v-413h-75v498h104l249 -376v376h74v-498h-77zM888 37h-270v59h270v-59zM899 303c0 -104 -62 -166 -153 -166c-87 0 -139 74 -139 160c0 104 62 166 153 166c87 0 139 -74 139 -160zM836 292c0 58 -24 120 -87 120c-53 0 -79 -53 -79 -104c0 -58 25 -120 87 -120
c53 0 79 53 79 104z" />
    <glyph glyph-name="zerosuperior" unicode="&#x2070;" horiz-adv-x="388" 
d="M338 516c0 -98 -38 -209 -144 -209c-113 0 -145 125 -145 222c0 110 39 216 145 216c112 0 144 -120 144 -229zM273 507c0 61 -4 179 -84 179c-60 0 -75 -88 -75 -148c0 -61 8 -173 85 -173c59 0 74 82 74 142z" />
    <glyph glyph-name="onesuperior" unicode="&#xb9;" horiz-adv-x="253" 
d="M25 699l157 45v-427h-63v345h-94v37z" />
    <glyph glyph-name="twosuperior" unicode="&#xb2;" horiz-adv-x="339" 
d="M53 651l-14 51c24 21 67 43 118 43c75 0 138 -51 138 -135c0 -83 -72 -176 -154 -237h170v-56h-273v45c71 48 191 152 191 246c0 43 -26 80 -82 80c-32 0 -69 -19 -94 -37z" />
    <glyph glyph-name="threesuperior" unicode="&#xb3;" horiz-adv-x="349" 
d="M239 446c0 59 -69 65 -134 65v53c60 2 111 23 111 68c0 34 -33 56 -68 56c-33 0 -64 -16 -92 -37l-14 51c24 23 66 43 115 43c68 0 125 -42 125 -105c0 -42 -29 -78 -70 -95c45 -8 93 -30 93 -103c0 -81 -80 -129 -184 -129c-42 0 -78 8 -78 8l13 51s34 -4 59 -4
c71 0 124 26 124 78z" />
    <glyph glyph-name="foursuperior" unicode="&#x2074;" horiz-adv-x="366" 
d="M329 417h-58v-100h-64v100h-174v44l179 272h59v-263h58v-53zM207 470v177l-107 -177h107z" />
    <glyph glyph-name="fivesuperior" unicode="&#x2075;" horiz-adv-x="348" 
d="M307 452c0 -81 -66 -142 -182 -142c-44 0 -79 9 -79 9l13 51s36 -4 59 -4c71 0 123 24 123 77c0 54 -39 76 -81 76c-26 0 -53 -9 -75 -22l-28 15v221h223v-57h-163v-114c17 7 38 12 61 12c85 0 129 -57 129 -122z" />
    <glyph glyph-name="sixsuperior" unicode="&#x2076;" horiz-adv-x="360" 
d="M238 685c-88 0 -128 -81 -133 -149c29 31 65 40 89 40c85 0 130 -60 130 -129c0 -71 -47 -140 -139 -140c-84 0 -144 68 -144 190c0 129 62 243 190 243c42 0 66 -12 66 -12l-13 -50s-25 7 -46 7zM186 519c-32 0 -61 -17 -77 -41c2 -57 27 -114 84 -114c44 0 66 38 66 76
c0 41 -26 79 -73 79z" />
    <glyph glyph-name="sevensuperior" unicode="&#x2077;" horiz-adv-x="330" 
d="M298 679l-138 -362h-69l142 359h-200v57h265v-54z" />
    <glyph glyph-name="eightsuperior" unicode="&#x2078;" horiz-adv-x="362" 
d="M117 633c0 -35 34 -54 73 -73c25 17 45 39 45 66c0 37 -20 64 -61 64c-31 0 -57 -22 -57 -57zM156 512c-26 -16 -51 -42 -51 -77c0 -49 39 -71 79 -71c36 0 70 21 70 67c0 36 -43 56 -98 81zM39 430c0 51 36 84 71 106c-33 22 -59 51 -59 97c0 74 61 112 125 112
c62 0 126 -38 126 -111c0 -47 -32 -77 -64 -96c43 -23 81 -52 81 -106c0 -81 -68 -124 -141 -124c-70 0 -139 39 -139 122z" />
    <glyph glyph-name="ninesuperior" unicode="&#x2079;" horiz-adv-x="360" 
d="M172 472c-88 0 -133 76 -133 139c0 76 51 134 136 134c103 0 148 -89 148 -194c0 -109 -35 -238 -187 -238c-43 0 -65 8 -65 8l12 51s19 -4 46 -4c99 0 127 69 130 140c-23 -22 -61 -36 -87 -36zM175 689c-40 0 -70 -29 -70 -71c0 -58 36 -87 81 -87c35 0 61 18 73 34
c-2 75 -36 124 -84 124z" />
    <glyph glyph-name="parenleftsuperior" unicode="&#x207d;" horiz-adv-x="253" 
d="M204 226l-6 -2c-108 80 -160 192 -160 298c0 103 58 228 161 311l23 -39c-79 -70 -119 -178 -119 -268c0 -89 40 -198 119 -270z" />
    <glyph glyph-name="parenrightsuperior" unicode="&#x207e;" horiz-adv-x="253" 
d="M45 224l-6 2l-18 30c79 72 119 181 119 270c0 90 -40 198 -119 268l23 39c103 -83 161 -208 161 -311c0 -106 -52 -218 -160 -298z" />
    <glyph glyph-name="hyphensuperior" horiz-adv-x="253" 
d="M208 474h-163v54h163v-54z" />
    <glyph glyph-name="commasuperior" horiz-adv-x="194" 
d="M144 388l-39 -152h-34v152h73z" />
    <glyph glyph-name="periodsuperior" horiz-adv-x="191" 
d="M54 353c0 24 17 42 41 42c23 0 42 -18 42 -42c0 -23 -19 -41 -42 -41c-24 0 -41 18 -41 41z" />
    <glyph glyph-name="plus.superior" unicode="&#x207a;" horiz-adv-x="389" 
d="M167 351v123h-122v54h122v122h54v-122h123v-54h-123v-123h-54z" />
    <glyph glyph-name="minus.superior" unicode="&#x207b;" horiz-adv-x="389" 
d="M344 474h-299v54h299v-54z" />
    <glyph glyph-name="equal.superior" unicode="&#x207c;" horiz-adv-x="389" 
d="M344 410h-299v54h299v-54zM344 538h-299v54h299v-54z" />
    <glyph glyph-name="zeroinferior" unicode="&#x2080;" horiz-adv-x="388" 
d="M338 72c0 -98 -38 -209 -144 -209c-113 0 -145 125 -145 222c0 110 39 216 145 216c112 0 144 -120 144 -229zM273 63c0 61 -4 179 -84 179c-60 0 -75 -88 -75 -148c0 -61 8 -173 85 -173c59 0 74 82 74 142z" />
    <glyph glyph-name="oneinferior" unicode="&#x2081;" horiz-adv-x="253" 
d="M25 255l157 45v-427h-63v345h-94v37z" />
    <glyph glyph-name="twoinferior" unicode="&#x2082;" horiz-adv-x="339" 
d="M53 207l-14 51c24 21 67 43 118 43c75 0 138 -51 138 -135c0 -83 -72 -176 -154 -237h170v-56h-273v45c71 48 191 152 191 246c0 43 -26 80 -82 80c-32 0 -69 -19 -94 -37z" />
    <glyph glyph-name="threeinferior" unicode="&#x2083;" horiz-adv-x="349" 
d="M239 2c0 59 -69 65 -134 65v53c60 2 111 23 111 68c0 34 -33 56 -68 56c-33 0 -64 -16 -92 -37l-14 51c24 23 66 43 115 43c68 0 125 -42 125 -105c0 -42 -29 -78 -70 -95c45 -8 93 -30 93 -103c0 -81 -80 -129 -184 -129c-42 0 -78 8 -78 8l13 51s34 -4 59 -4
c71 0 124 26 124 78z" />
    <glyph glyph-name="fourinferior" unicode="&#x2084;" horiz-adv-x="366" 
d="M329 -27h-58v-100h-64v100h-174v44l179 272h59v-263h58v-53zM207 26v177l-107 -177h107z" />
    <glyph glyph-name="fiveinferior" unicode="&#x2085;" horiz-adv-x="348" 
d="M307 8c0 -81 -66 -142 -182 -142c-44 0 -79 9 -79 9l13 51s36 -4 59 -4c71 0 123 24 123 77c0 54 -39 76 -81 76c-26 0 -53 -9 -75 -22l-28 15v221h223v-57h-163v-114c17 7 38 12 61 12c85 0 129 -57 129 -122z" />
    <glyph glyph-name="sixinferior" unicode="&#x2086;" horiz-adv-x="360" 
d="M238 241c-88 0 -128 -81 -133 -149c29 31 65 40 89 40c85 0 130 -60 130 -129c0 -71 -47 -140 -139 -140c-84 0 -144 68 -144 190c0 129 62 243 190 243c42 0 66 -12 66 -12l-13 -50s-25 7 -46 7zM186 75c-32 0 -61 -17 -77 -41c2 -57 27 -114 84 -114c44 0 66 38 66 76
c0 41 -26 79 -73 79z" />
    <glyph glyph-name="seveninferior" unicode="&#x2087;" horiz-adv-x="330" 
d="M298 234l-138 -362h-69l142 359h-200v57h265v-54z" />
    <glyph glyph-name="eightinferior" unicode="&#x2088;" horiz-adv-x="362" 
d="M117 189c0 -35 34 -54 73 -73c25 17 45 39 45 66c0 37 -20 64 -61 64c-31 0 -57 -22 -57 -57zM156 68c-26 -16 -51 -42 -51 -77c0 -49 39 -71 79 -71c36 0 70 21 70 67c0 36 -43 56 -98 81zM39 -14c0 51 36 84 71 106c-33 22 -59 51 -59 97c0 74 61 112 125 112
c62 0 126 -38 126 -111c0 -47 -32 -77 -64 -96c43 -23 81 -52 81 -106c0 -81 -68 -124 -141 -124c-70 0 -139 39 -139 122z" />
    <glyph glyph-name="nineinferior" unicode="&#x2089;" horiz-adv-x="360" 
d="M172 28c-88 0 -133 76 -133 139c0 76 51 134 136 134c103 0 148 -89 148 -194c0 -109 -35 -238 -187 -238c-43 0 -65 8 -65 8l12 51s19 -4 46 -4c99 0 127 69 130 140c-23 -22 -61 -36 -87 -36zM175 245c-40 0 -70 -29 -70 -71c0 -58 36 -87 81 -87c35 0 61 18 73 34
c-2 75 -36 124 -84 124z" />
    <glyph glyph-name="parenleftinferior" unicode="&#x208d;" horiz-adv-x="253" 
d="M204 -220l-6 -2c-108 80 -160 192 -160 298c0 103 58 228 161 311l23 -39c-79 -70 -119 -178 -119 -268c0 -89 40 -198 119 -270z" />
    <glyph glyph-name="parenrightinferior" unicode="&#x208e;" horiz-adv-x="253" 
d="M45 -222l-6 2l-18 30c79 72 119 181 119 270c0 90 -40 198 -119 268l23 39c103 -83 161 -208 161 -311c0 -106 -52 -218 -160 -298z" />
    <glyph glyph-name="hypheninferior" horiz-adv-x="253" 
d="M208 29h-163v54h163v-54z" />
    <glyph glyph-name="commainferior" horiz-adv-x="194" 
d="M144 -57l-39 -152h-34v152h73z" />
    <glyph glyph-name="periodinferior" horiz-adv-x="191" 
d="M54 -91c0 24 17 42 41 42c23 0 42 -18 42 -42c0 -23 -19 -41 -42 -41c-24 0 -41 18 -41 41z" />
    <glyph glyph-name="plus.inferior" unicode="&#x208a;" horiz-adv-x="389" 
d="M167 -94v123h-122v54h122v122h54v-122h123v-54h-123v-123h-54z" />
    <glyph glyph-name="minus.inferior" unicode="&#x208b;" horiz-adv-x="389" 
d="M344 29h-299v54h299v-54z" />
    <glyph glyph-name="equal.inferior" unicode="&#x208c;" horiz-adv-x="389" 
d="M344 -36h-299v54h299v-54zM344 92h-299v54h299v-54z" />
    <glyph glyph-name="zero.tab" 
d="M495 303c0 -150 -58 -319 -220 -319c-173 0 -220 192 -220 340c0 169 60 331 220 331c172 0 220 -184 220 -352zM407 290c0 98 -8 289 -140 289c-101 0 -124 -142 -124 -240c0 -97 14 -279 140 -279c96 0 124 133 124 230z" />
    <glyph glyph-name="one.tab" 
d="M92 588l233 67v-581h126v-74h-359v74h148v470h-148v44z" />
    <glyph glyph-name="two.tab" 
d="M89 526l-17 66c34 28 98 63 177 63c112 0 207 -73 207 -200c0 -132 -126 -286 -257 -381h284v-74h-415v59c111 76 300 242 300 393c0 72 -42 127 -137 127c-50 0 -105 -26 -142 -53z" />
    <glyph glyph-name="three.tab" 
d="M387 192c0 99 -107 108 -211 108v69c95 4 176 39 176 115c0 58 -55 95 -115 95c-55 0 -100 -21 -140 -53l-17 66c34 31 97 63 171 63c103 0 189 -63 189 -159c0 -74 -64 -134 -139 -152c73 -8 174 -35 174 -159c0 -123 -122 -196 -280 -196c-64 0 -114 12 -114 12l17 66
s43 -6 86 -6c117 0 203 44 203 131z" />
    <glyph glyph-name="four.tab" 
d="M495 158h-100v-158h-85v158h-265v59l269 422h81v-412h100v-69zM310 227v297l-181 -297h181z" />
    <glyph glyph-name="five.tab" 
d="M475 205c0 -123 -101 -216 -279 -216c-64 0 -114 12 -114 12l17 66s43 -6 86 -6c117 0 202 43 202 130c0 91 -65 128 -135 128c-42 0 -85 -15 -119 -35l-36 20v335h336v-74h-257v-198c29 12 67 23 105 23c128 0 194 -87 194 -185z" />
    <glyph glyph-name="six.tab" 
d="M145 315c45 61 106 78 147 78c130 0 197 -92 197 -196c0 -106 -70 -213 -210 -213c-128 0 -219 106 -219 291c0 199 94 375 290 375c67 0 95 -14 95 -14l-17 -66s-34 8 -67 8c-153 0 -216 -150 -216 -263zM280 318c-56 0 -104 -28 -130 -70c1 -99 43 -189 141 -189
c74 0 111 62 111 127c0 70 -43 132 -122 132z" />
    <glyph glyph-name="seven.tab" 
d="M470 565l-215 -565h-90l224 565h-319v74h400v-74z" />
    <glyph glyph-name="eight.tab" 
d="M81 486c0 112 93 169 189 169c95 0 189 -57 189 -167c0 -76 -57 -123 -108 -151c71 -35 136 -80 136 -166c0 -123 -105 -187 -213 -187c-107 0 -211 58 -211 184c0 83 62 135 117 166c-55 33 -99 77 -99 152zM149 176c0 -82 68 -121 134 -121c61 0 118 38 118 114
c0 71 -84 99 -166 137c-40 -23 -86 -65 -86 -130zM373 476c0 62 -38 108 -105 108c-55 0 -101 -37 -101 -98c0 -60 59 -92 126 -123c42 26 80 62 80 113z" />
    <glyph glyph-name="nine.tab" 
d="M260 241c-132 0 -200 113 -200 210c0 114 76 204 206 204c157 0 224 -138 224 -299c0 -168 -54 -367 -285 -367c-64 0 -94 12 -94 12l17 66s23 -6 66 -6c174 0 210 128 211 250c-32 -49 -96 -70 -145 -70zM264 580c-66 0 -116 -47 -116 -118c0 -95 59 -145 134 -145
c59 0 106 32 122 61c0 126 -56 202 -140 202z" />
    <glyph glyph-name="zero.slash.tab" 
d="M495 303c0 -150 -58 -319 -220 -319c-173 0 -220 192 -220 340c0 169 60 331 220 331c172 0 220 -184 220 -352zM410 289c0 47 -2 117 -19 176l-208 -350c22 -36 53 -60 100 -60c98 0 127 135 127 234zM140 339c0 -44 2 -104 17 -158l207 348c-21 33 -52 55 -97 55
c-103 0 -127 -145 -127 -245z" />
    <glyph glyph-name="cent.tab" 
d="M261 0v76c-121 19 -186 131 -186 245c0 141 86 230 186 247v87h59v-84c54 -5 103 -28 132 -53l-15 -58c-30 18 -70 41 -137 41c-83 0 -142 -76 -142 -168c0 -112 58 -188 170 -188c39 0 89 16 114 36l20 -36c-36 -43 -91 -65 -142 -70v-75h-59z" />
    <glyph glyph-name="dollar.tab" 
d="M260 60c62 0 142 26 142 101c0 146 -334 125 -334 329c0 107 76 168 178 179v88h59v-87c70 -6 135 -37 166 -62l-17 -66c-55 34 -121 53 -175 53c-67 0 -123 -35 -123 -100c0 -132 334 -120 334 -321c0 -129 -97 -178 -185 -188v-88h-59v88c-71 5 -139 31 -191 81l29 52
c43 -33 111 -59 176 -59z" />
    <glyph glyph-name="Euro.tab" 
d="M426 241h-277c24 -101 85 -181 217 -181c65 0 114 30 148 57l22 -42s-62 -91 -192 -91c-182 0 -264 127 -287 257h-47v59h416v-59zM426 359h-416v59h47c27 142 120 253 290 253c83 0 145 -35 179 -63l-17 -66c-61 34 -103 53 -173 53c-90 0 -168 -70 -192 -177h282v-59z
" />
    <glyph glyph-name="sterling.tab" 
d="M50 359h73v94c0 142 75 218 202 218c78 0 131 -35 159 -63l-17 -66c-42 32 -92 53 -142 53c-89 0 -117 -54 -117 -141v-95h190v-59h-190v-226h304v-74h-465v44l76 19v237h-73v59z" />
    <glyph glyph-name="yen.tab" 
d="M480 301h-410v59h117l-193 295h94l178 -295h22l176 295h92l-192 -295h116v-59zM70 242h410v-59h-162v-183h-85v183h-163v59z" />
    <glyph glyph-name="florin.tab" 
d="M-100 -219l20 36c39 -14 61 -16 93 -16c84 0 126 49 141 155l48 345h-94v69h104l13 93c17 122 83 208 210 208c38 0 89 -12 125 -36l-15 -59c-39 14 -78 24 -120 24c-85 0 -110 -62 -122 -148l-12 -82h152v-69h-161l-50 -356c-17 -122 -83 -208 -209 -208
c-48 0 -101 20 -123 44z" />
    <glyph glyph-name="numbersign.tab" 
d="M46 213h68l40 226h-60v59h70l28 157h69l-28 -157h143l28 157h70l-28 -157h58v-59h-68l-40 -226h59v-59h-70l-27 -154h-69l27 154h-144l-27 -154h-69l27 154h-57v59zM223 439l-40 -226h143l40 226h-143z" />
    <glyph glyph-name="zero.taboldstyle" 
d="M505 235c0 -150 -98 -251 -230 -251c-153 0 -230 124 -230 272c0 169 100 258 230 258c152 0 230 -111 230 -279zM422 227c0 108 -36 216 -153 216c-91 0 -141 -89 -141 -177c0 -107 43 -210 154 -210c96 0 140 84 140 171z" />
    <glyph glyph-name="one.taboldstyle" 
d="M92 447l228 67v-445h121v-69h-348v69h147v334h-148v44z" />
    <glyph glyph-name="two.taboldstyle" 
d="M89 385l-17 66c34 28 98 63 177 63c112 0 207 -63 207 -180c0 -124 -159 -218 -236 -260h253v-74h-405v59c111 51 300 161 300 272c0 62 -42 107 -137 107c-50 0 -105 -25 -142 -53z" />
    <glyph glyph-name="three.taboldstyle" 
d="M387 51c0 99 -107 108 -211 108v69c95 4 176 39 176 115c0 58 -55 95 -115 95c-55 0 -100 -21 -140 -53l-17 66c34 31 97 63 171 63c103 0 189 -63 189 -159c0 -74 -64 -134 -139 -152c73 -8 174 -35 174 -159c0 -123 -122 -196 -280 -196c-64 0 -114 12 -114 12l17 66
s43 -6 86 -6c117 0 203 44 203 131z" />
    <glyph glyph-name="four.taboldstyle" 
d="M495 0h-100v-141h-85v141h-275v59l279 439h81v-429h100v-69zM310 69v314l-191 -314h191z" />
    <glyph glyph-name="five.taboldstyle" 
d="M475 64c0 -123 -101 -216 -279 -216c-64 0 -114 12 -114 12l17 66s43 -6 86 -6c117 0 202 43 202 130c0 91 -65 128 -135 128c-42 0 -85 -15 -119 -35l-36 20v335h336v-74h-257v-198c29 12 67 23 105 23c128 0 194 -87 194 -185z" />
    <glyph glyph-name="six.taboldstyle" 
d="M145 315c45 61 106 78 147 78c130 0 197 -92 197 -196c0 -106 -70 -213 -210 -213c-128 0 -219 106 -219 291c0 199 94 375 290 375c67 0 95 -14 95 -14l-17 -66s-34 8 -67 8c-153 0 -216 -150 -216 -263zM280 318c-56 0 -104 -28 -130 -70c1 -99 43 -189 141 -189
c74 0 111 62 111 127c0 70 -43 132 -122 132z" />
    <glyph glyph-name="seven.taboldstyle" 
d="M470 424l-215 -565h-90l224 565h-319v74h400v-74z" />
    <glyph glyph-name="eight.taboldstyle" 
d="M81 486c0 112 93 169 189 169c95 0 189 -57 189 -167c0 -76 -57 -122 -107 -151c71 -35 135 -79 135 -166c0 -123 -105 -187 -213 -187c-107 0 -211 58 -211 184c0 83 62 135 117 167c-55 32 -99 76 -99 151zM149 176c0 -82 68 -121 134 -121c61 0 118 38 118 114
c0 72 -84 100 -166 138c-40 -24 -86 -66 -86 -131zM373 476c0 62 -38 108 -105 108c-55 0 -101 -37 -101 -98c0 -60 59 -91 127 -122c42 25 79 62 79 112z" />
    <glyph glyph-name="nine.taboldstyle" 
d="M260 100c-132 0 -200 113 -200 210c0 114 76 204 206 204c157 0 224 -138 224 -299c0 -168 -54 -367 -285 -367c-64 0 -94 12 -94 12l17 66s23 -6 66 -6c174 0 210 128 211 250c-32 -49 -96 -70 -145 -70zM264 439c-66 0 -116 -47 -116 -118c0 -95 59 -145 134 -145
c59 0 106 32 122 61c0 126 -56 202 -140 202z" />
    <glyph glyph-name="zero.slash.taboldstyle" 
d="M505 235c0 -150 -98 -251 -230 -251c-153 0 -230 124 -230 272c0 169 100 258 230 258c152 0 230 -111 230 -279zM128 266c0 -51 10 -101 32 -140l201 284c-23 21 -53 33 -92 33c-91 0 -141 -89 -141 -177zM422 227c0 50 -8 101 -28 141l-200 -283c22 -18 51 -29 88 -29
c96 0 140 84 140 171z" />
    <glyph glyph-name="centoldstyle.tab" 
d="M273 -80v81c-134 13 -198 114 -198 230c0 143 76 233 198 248v96h54v-94c57 -3 112 -27 140 -53l-15 -58c-30 17 -75 41 -142 41c-103 0 -152 -76 -152 -168c0 -112 53 -172 175 -172c39 0 94 16 119 36l20 -36c-35 -42 -93 -64 -145 -70v-81h-54z" />
    <glyph glyph-name="dollaroldstyle.tab" 
d="M265 55c73 0 117 30 117 71c0 111 -280 72 -280 244c0 78 65 133 149 142v63h54v-63c56 -5 106 -26 137 -52l-15 -58c-45 25 -97 41 -147 41c-61 0 -95 -26 -95 -65c0 -112 280 -76 280 -235c0 -86 -63 -147 -160 -157v-66h-54v65c-62 5 -116 28 -158 69l26 47
c38 -27 97 -46 146 -46z" />
    <glyph glyph-name="Euro.small.tab" 
d="M416 170h-241c21 -61 69 -115 172 -115c49 0 103 16 128 36l20 -36c-41 -49 -102 -71 -170 -71c-138 0 -212 84 -237 186h-48v54h376v-54zM416 278h-376v54h48c29 113 123 182 242 182c57 0 121 -19 170 -59l-15 -58c-47 27 -99 46 -156 46c-93 0 -139 -52 -157 -111h244
v-54z" />
    <glyph glyph-name="sterling.small.tab" 
d="M63 278h73v17c0 142 59 218 186 218c63 0 105 -30 135 -59l-15 -58c-27 22 -63 46 -120 46c-79 0 -105 -49 -105 -146v-18h166v-54h-166v-155h273v-69h-427v44l73 18v162h-73v54z" />
    <glyph glyph-name="yen.small.tab" 
d="M84 278h103l-155 220h90l150 -220h10l150 220h87l-155 -220h100v-54h-380v54zM84 170h380v-54h-148v-116h-80v116h-152v54z" />
    <glyph glyph-name="florin.small.tab" 
d="M160 -44l26 227h-89v59h96l8 64c14 122 73 208 200 208c38 0 89 -14 125 -38l-15 -58c-39 14 -78 25 -120 25c-85 0 -102 -62 -112 -148l-6 -53h149v-59h-156l-28 -238c-15 -122 -79 -208 -205 -208c-48 0 -101 20 -123 44l20 36c39 -14 61 -16 93 -16
c84 0 122 49 137 155z" />
    <glyph glyph-name="numbersign.small.tab" 
d="M46 173h74l27 156h-53v59h64l19 110h69l-19 -110h143l19 110h70l-19 -110h64v-59h-75l-27 -156h53v-59h-63l-19 -114h-69l19 114h-144l-19 -114h-69l19 114h-64v59zM216 329l-27 -156h144l27 156h-144z" />
    <glyph glyph-name="asuperior" horiz-adv-x="359" 
d="M80 549l-12 48c30 22 79 37 112 37c94 0 119 -54 119 -135v-182h-33l-18 37c-21 -32 -55 -47 -96 -47c-58 0 -100 34 -100 92c0 84 86 99 148 99h39v9c0 49 -20 72 -68 72c-30 0 -69 -16 -91 -30zM239 392v61h-28c-41 0 -97 -5 -97 -48c0 -26 18 -46 55 -46
c31 0 60 15 70 33z" />
    <glyph glyph-name="bsuperior" horiz-adv-x="409" 
d="M204 579c-26 0 -55 -12 -71 -27v-152c15 -27 42 -38 73 -38c53 0 84 44 84 100c0 58 -23 117 -86 117zM123 354l-18 -37h-33v479h61v-191c24 20 56 29 82 29c87 0 138 -74 138 -161c0 -105 -63 -165 -139 -165c-32 0 -69 13 -91 46z" />
    <glyph glyph-name="csuperior" horiz-adv-x="362" 
d="M219 362c24 0 57 12 73 26l18 -32c-29 -34 -74 -48 -112 -48c-94 0 -145 80 -145 162c0 103 69 164 146 164c42 0 81 -17 105 -37l-13 -47c-20 13 -49 30 -90 30c-52 0 -85 -47 -85 -103c0 -68 34 -115 103 -115z" />
    <glyph glyph-name="dsuperior" horiz-adv-x="408" 
d="M203 362c37 0 60 18 70 40v150c-19 16 -39 27 -72 27c-53 0 -86 -44 -86 -100c0 -59 24 -117 88 -117zM192 308c-87 0 -139 73 -139 160c0 98 62 166 139 166c33 0 59 -9 81 -28v190h60v-479h-33l-18 37c-21 -32 -52 -46 -90 -46z" />
    <glyph glyph-name="esuperior" horiz-adv-x="387" 
d="M229 361c23 0 56 13 73 27l18 -32c-29 -34 -74 -48 -112 -48c-100 0 -149 80 -149 162c0 101 61 164 138 164c76 0 132 -50 133 -140l-25 -40h-184c9 -55 42 -93 108 -93zM121 501h151c-2 54 -35 82 -73 82c-46 0 -72 -38 -78 -82z" />
    <glyph glyph-name="egrave.superior" horiz-adv-x="387" 
d="M212 677l-102 102l49 32l77 -117zM229 361c23 0 56 13 73 27l18 -32c-29 -34 -74 -48 -112 -48c-100 0 -149 80 -149 162c0 101 61 164 138 164c76 0 132 -50 133 -140l-25 -40h-184c9 -55 42 -93 108 -93zM121 501h151c-2 54 -35 82 -73 82c-46 0 -72 -38 -78 -82z" />
    <glyph glyph-name="fsuperior" horiz-adv-x="252" 
d="M281 779l-11 -46c-21 11 -46 19 -66 19c-50 0 -66 -27 -66 -90v-38h98v-54h-98v-253h-61v253h-48v38l48 12v52c0 81 43 134 121 134c27 0 59 -10 83 -27z" />
    <glyph glyph-name="gsuperior" horiz-adv-x="387" 
d="M346 575l-62 11c18 -19 26 -45 26 -68c0 -69 -51 -118 -124 -118c-23 0 -45 6 -64 17c-3 -6 -5 -14 -5 -19c0 -86 230 18 230 -131c0 -75 -70 -117 -163 -117c-77 0 -136 38 -136 96c0 31 23 61 55 78c-22 15 -32 37 -32 59c0 18 8 40 22 57c-20 19 -31 46 -31 78
c0 77 62 116 119 116c20 0 41 -4 56 -10h109v-49zM103 258c0 -39 45 -59 93 -59c55 0 95 24 95 68c0 49 -88 32 -151 43c-19 -10 -37 -29 -37 -52zM255 516c0 44 -33 69 -71 69c-37 0 -66 -28 -66 -64c0 -47 35 -70 70 -70c40 0 67 31 67 65z" />
    <glyph glyph-name="h.superior" unicode="&#x2b0;" horiz-adv-x="393" 
d="M134 543v-226h-61v479h61v-196c26 20 62 34 101 34c56 0 96 -30 96 -107v-210h-60v191c0 43 -11 71 -61 71c-24 0 -61 -21 -76 -36z" />
    <glyph glyph-name="isuperior" unicode="&#x2071;" horiz-adv-x="211" 
d="M135 317h-61v306h61v-306zM66 714c0 23 17 40 39 40s39 -17 39 -40c0 -22 -17 -38 -39 -38s-39 16 -39 38z" />
    <glyph glyph-name="jsuperior" unicode="&#x2b2;" horiz-adv-x="218" 
d="M146 624v-373c0 -72 -44 -97 -87 -97c-24 0 -48 8 -67 26l17 29c15 -5 27 -8 35 -8c28 0 41 22 41 62v361h61zM78 715c0 23 16 39 38 39s39 -16 39 -39c0 -21 -17 -38 -39 -38s-38 17 -38 38z" />
    <glyph glyph-name="ksuperior" horiz-adv-x="362" 
d="M130 317h-61v479h61v-295h24l102 123h74l-118 -139l117 -168h-72l-92 130h-35v-130z" />
    <glyph glyph-name="lsuperior" horiz-adv-x="191" 
d="M126 317h-61v479h61v-479z" />
    <glyph glyph-name="msuperior" horiz-adv-x="593" 
d="M108 624l18 -37c33 31 64 47 104 47c39 0 69 -12 85 -45c37 31 68 45 106 45c58 0 97 -30 97 -106v-211h-61v192c0 43 -11 70 -59 70c-28 0 -57 -20 -71 -36v-226h-61v192c0 43 -10 70 -59 70c-28 0 -57 -20 -71 -36v-226h-61v307h33z" />
    <glyph glyph-name="nsuperior" unicode="&#x207f;" horiz-adv-x="393" 
d="M105 624l18 -37c32 31 70 47 111 47c56 0 96 -30 96 -106v-211h-60v192c0 43 -11 70 -61 70c-24 0 -61 -21 -76 -36v-226h-61v307h33z" />
    <glyph glyph-name="osuperior" horiz-adv-x="400" 
d="M346 474c0 -104 -62 -166 -153 -166c-87 0 -139 74 -139 160c0 104 62 166 153 166c87 0 139 -74 139 -160zM283 463c0 58 -24 120 -87 120c-53 0 -79 -53 -79 -104c0 -58 25 -120 87 -120c53 0 79 53 79 104z" />
    <glyph glyph-name="psuperior" horiz-adv-x="409" 
d="M204 580c-25 0 -61 -18 -71 -41v-144c21 -26 54 -33 73 -33c53 0 84 45 84 100c0 59 -23 118 -86 118zM105 624l18 -37c30 32 63 47 92 47c87 0 138 -74 138 -160c0 -105 -63 -167 -145 -167c-23 0 -52 11 -75 30v-176h-61v463h33z" />
    <glyph glyph-name="qsuperior" horiz-adv-x="409" 
d="M208 362c29 0 58 15 67 33v147c-7 15 -35 38 -72 38c-53 0 -86 -46 -86 -101c0 -58 24 -117 91 -117zM284 587l18 37h33v-463h-60v174c-17 -18 -50 -28 -81 -28c-87 0 -139 75 -139 161c0 98 62 166 135 166c38 0 74 -20 94 -47z" />
    <glyph glyph-name="rsuperior" unicode="&#x2b3;" horiz-adv-x="299" 
d="M105 624l18 -37c25 29 61 44 89 44c15 0 38 -6 52 -20l-13 -50c-19 7 -36 12 -51 12c-25 0 -50 -11 -67 -30v-226h-61v307h33z" />
    <glyph glyph-name="ssuperior" horiz-adv-x="328" 
d="M267 597l-13 -47c-18 12 -52 33 -87 33c-32 0 -51 -12 -51 -35c0 -49 162 -46 162 -146c0 -52 -40 -94 -117 -94c-38 0 -84 17 -113 46l21 37c24 -22 60 -32 85 -32c36 0 64 13 64 40c0 52 -162 49 -162 145c0 55 46 90 109 90c39 0 78 -17 102 -37z" />
    <glyph glyph-name="tsuperior" horiz-adv-x="296" 
d="M88 621l23 80h34v-77h105v-54h-105v-150c0 -42 15 -60 48 -60c15 0 25 2 41 9l17 -31c-17 -15 -48 -27 -76 -27c-60 0 -91 30 -91 98v161h-48v38z" />
    <glyph glyph-name="usuperior" horiz-adv-x="393" 
d="M287 317l-18 37c-30 -30 -71 -47 -110 -47c-57 0 -97 30 -97 106v211h61v-192c0 -43 11 -71 60 -71c30 0 62 20 77 36v227h60v-307h-33z" />
    <glyph glyph-name="vsuperior" horiz-adv-x="362" 
d="M154 317l-123 306h67l85 -226l83 226h65l-123 -306h-54z" />
    <glyph glyph-name="wsuperior" unicode="&#x2b7;" horiz-adv-x="554" 
d="M356 317l-80 228l-79 -228h-53l-111 306h68l71 -225l75 225h61l77 -226l69 226h66l-111 -306h-53z" />
    <glyph glyph-name="xsuperior" unicode="&#x2e3;" horiz-adv-x="365" 
d="M29 317l116 152l-114 154h73l79 -111l78 111h73l-116 -152l118 -154h-77l-79 111l-80 -111h-71z" />
    <glyph glyph-name="ysuperior" unicode="&#x2b8;" horiz-adv-x="363" 
d="M147 161h-64l70 164l-120 299h67l85 -228l83 228h65z" />
    <glyph glyph-name="zsuperior" horiz-adv-x="342" 
d="M291 317h-239v53l161 200h-158v54h232v-51l-158 -202h162v-54z" />
    <glyph glyph-name="ainferior" horiz-adv-x="359" 
d="M80 105l-12 48c30 22 79 37 112 37c94 0 119 -54 119 -135v-182h-33l-18 37c-21 -32 -55 -47 -96 -47c-58 0 -100 34 -100 92c0 84 86 99 148 99h39v9c0 49 -20 72 -68 72c-30 0 -69 -16 -91 -30zM239 -52v61h-28c-41 0 -97 -5 -97 -48c0 -26 18 -46 55 -46
c31 0 60 15 70 33z" />
    <glyph glyph-name="binferior" horiz-adv-x="409" 
d="M204 135c-26 0 -55 -12 -71 -27v-152c15 -27 42 -38 73 -38c53 0 84 44 84 100c0 58 -23 117 -86 117zM123 -90l-18 -37h-33v479h61v-191c24 20 56 29 82 29c87 0 138 -74 138 -161c0 -105 -63 -165 -139 -165c-32 0 -69 13 -91 46z" />
    <glyph glyph-name="cinferior" horiz-adv-x="362" 
d="M219 -82c24 0 57 12 73 26l18 -32c-29 -34 -74 -48 -112 -48c-94 0 -145 80 -145 162c0 103 69 164 146 164c42 0 81 -17 105 -37l-13 -47c-20 13 -49 30 -90 30c-52 0 -85 -47 -85 -103c0 -68 34 -115 103 -115z" />
    <glyph glyph-name="dinferior" horiz-adv-x="408" 
d="M203 -82c37 0 60 18 70 40v150c-19 16 -39 27 -72 27c-53 0 -86 -44 -86 -100c0 -59 24 -117 88 -117zM192 -136c-87 0 -139 73 -139 160c0 98 62 166 139 166c33 0 59 -9 81 -28v190h60v-479h-33l-18 37c-21 -32 -52 -46 -90 -46z" />
    <glyph glyph-name="einferior" horiz-adv-x="387" 
d="M229 -83c23 0 56 13 73 27l18 -32c-29 -34 -74 -48 -112 -48c-100 0 -149 80 -149 162c0 101 61 164 138 164c76 0 132 -50 133 -140l-25 -40h-184c9 -55 42 -93 108 -93zM121 57h151c-2 54 -35 82 -73 82c-46 0 -72 -38 -78 -82z" />
    <glyph glyph-name="finferior" horiz-adv-x="252" 
d="M281 334l-11 -46c-21 11 -46 19 -66 19c-50 0 -66 -27 -66 -90v-38h98v-54h-98v-253h-61v253h-48v38l48 12v52c0 81 43 134 121 134c27 0 59 -10 83 -27z" />
    <glyph glyph-name="ginferior" horiz-adv-x="387" 
d="M346 131l-62 11c18 -19 26 -45 26 -68c0 -69 -51 -118 -124 -118c-23 0 -45 6 -64 17c-3 -6 -5 -14 -5 -19c0 -86 230 18 230 -131c0 -75 -70 -117 -163 -117c-77 0 -136 38 -136 96c0 31 23 61 55 78c-22 15 -32 37 -32 59c0 18 8 40 22 57c-20 19 -31 46 -31 78
c0 77 62 116 119 116c20 0 41 -4 56 -10h109v-49zM103 -186c0 -39 45 -59 93 -59c55 0 95 24 95 68c0 49 -88 32 -151 43c-19 -10 -37 -29 -37 -52zM255 72c0 44 -33 69 -71 69c-37 0 -66 -28 -66 -64c0 -47 35 -70 70 -70c40 0 67 31 67 65z" />
    <glyph glyph-name="hinferior" horiz-adv-x="393" 
d="M134 99v-226h-61v479h61v-196c26 20 62 34 101 34c56 0 96 -30 96 -107v-210h-60v191c0 43 -11 71 -61 71c-24 0 -61 -21 -76 -36z" />
    <glyph glyph-name="iinferior" unicode="&#x1d62;" horiz-adv-x="211" 
d="M135 -127h-61v306h61v-306zM66 270c0 23 17 40 39 40s39 -17 39 -40c0 -22 -17 -38 -39 -38s-39 16 -39 38z" />
    <glyph glyph-name="jinferior" horiz-adv-x="218" 
d="M146 180v-373c0 -72 -44 -97 -87 -97c-24 0 -48 8 -67 26l17 29c15 -5 27 -8 35 -8c28 0 41 22 41 62v361h61zM78 271c0 23 16 39 38 39s39 -16 39 -39c0 -21 -17 -38 -39 -38s-38 17 -38 38z" />
    <glyph glyph-name="kinferior" horiz-adv-x="362" 
d="M130 -127h-61v479h61v-295h24l102 123h74l-118 -139l117 -168h-72l-92 130h-35v-130z" />
    <glyph glyph-name="linferior" horiz-adv-x="191" 
d="M126 -127h-61v479h61v-479z" />
    <glyph glyph-name="minferior" horiz-adv-x="593" 
d="M108 180l18 -37c33 31 64 47 104 47c39 0 69 -12 85 -45c37 31 68 45 106 45c58 0 97 -30 97 -106v-211h-61v192c0 43 -11 70 -59 70c-28 0 -57 -20 -71 -36v-226h-61v192c0 43 -10 70 -59 70c-28 0 -57 -20 -71 -36v-226h-61v307h33z" />
    <glyph glyph-name="ninferior" horiz-adv-x="393" 
d="M105 180l18 -37c32 31 70 47 111 47c56 0 96 -30 96 -106v-211h-60v192c0 43 -11 70 -61 70c-24 0 -61 -21 -76 -36v-226h-61v307h33z" />
    <glyph glyph-name="oinferior" horiz-adv-x="400" 
d="M346 30c0 -104 -62 -166 -153 -166c-87 0 -139 74 -139 160c0 104 62 166 153 166c87 0 139 -74 139 -160zM283 19c0 58 -24 120 -87 120c-53 0 -79 -53 -79 -104c0 -58 25 -120 87 -120c53 0 79 53 79 104z" />
    <glyph glyph-name="pinferior" horiz-adv-x="409" 
d="M204 136c-25 0 -61 -18 -71 -41v-144c21 -26 54 -33 73 -33c53 0 84 45 84 100c0 59 -23 118 -86 118zM105 180l18 -37c30 32 63 47 92 47c87 0 138 -74 138 -160c0 -105 -63 -167 -145 -167c-23 0 -52 11 -75 30v-176h-61v463h33z" />
    <glyph glyph-name="qinferior" horiz-adv-x="409" 
d="M208 -82c29 0 58 15 67 33v147c-7 15 -35 38 -72 38c-53 0 -86 -46 -86 -101c0 -58 24 -117 91 -117zM284 143l18 37h33v-463h-60v174c-17 -18 -50 -28 -81 -28c-87 0 -139 75 -139 161c0 98 62 166 135 166c38 0 74 -20 94 -47z" />
    <glyph glyph-name="rinferior" unicode="&#x1d63;" horiz-adv-x="299" 
d="M105 180l18 -37c25 29 61 44 89 44c15 0 38 -6 52 -20l-13 -50c-19 7 -36 12 -51 12c-25 0 -50 -11 -67 -30v-226h-61v307h33z" />
    <glyph glyph-name="sinferior" horiz-adv-x="328" 
d="M267 153l-13 -47c-18 12 -52 33 -87 33c-32 0 -51 -12 -51 -35c0 -49 162 -46 162 -146c0 -52 -40 -94 -117 -94c-38 0 -84 17 -113 46l21 37c24 -22 60 -32 85 -32c36 0 64 13 64 40c0 52 -162 49 -162 145c0 55 46 90 109 90c39 0 78 -17 102 -37z" />
    <glyph glyph-name="tinferior" horiz-adv-x="296" 
d="M88 181l23 80h34v-77h105v-54h-105v-150c0 -42 15 -60 48 -60c15 0 25 2 41 9l17 -31c-17 -15 -48 -27 -76 -27c-60 0 -91 30 -91 98v161h-48v38z" />
    <glyph glyph-name="uinferior" unicode="&#x1d64;" horiz-adv-x="393" 
d="M287 -127l-18 37c-30 -30 -71 -47 -110 -47c-57 0 -97 30 -97 106v211h61v-192c0 -43 11 -71 60 -71c30 0 62 20 77 36v227h60v-307h-33z" />
    <glyph glyph-name="vinferior" unicode="&#x1d65;" horiz-adv-x="362" 
d="M154 -127l-123 306h67l85 -226l83 226h65l-123 -306h-54z" />
    <glyph glyph-name="winferior" horiz-adv-x="554" 
d="M356 -127l-80 228l-79 -228h-53l-111 306h68l71 -225l75 225h61l77 -226l69 226h66l-111 -306h-53z" />
    <glyph glyph-name="xinferior" horiz-adv-x="365" 
d="M29 -128l116 152l-114 154h73l79 -111l78 111h73l-116 -152l118 -154h-77l-79 111l-80 -111h-71z" />
    <glyph glyph-name="yinferior" horiz-adv-x="363" 
d="M147 -283h-64l70 164l-120 299h67l85 -228l83 228h65z" />
    <glyph glyph-name="zinferior" horiz-adv-x="342" 
d="M291 -127h-239v53l161 200h-158v54h232v-51l-158 -202h162v-54z" />
    <glyph glyph-name="zero.numerator" horiz-adv-x="388" 
d="M338 420c0 -98 -38 -209 -144 -209c-113 0 -145 125 -145 222c0 110 39 216 145 216c112 0 144 -120 144 -229zM273 411c0 61 -4 179 -84 179c-60 0 -75 -88 -75 -148c0 -61 8 -173 85 -173c59 0 74 82 74 142z" />
    <glyph glyph-name="one.numerator" horiz-adv-x="253" 
d="M25 603l157 45v-427h-63v345h-94v37z" />
    <glyph glyph-name="two.numerator" horiz-adv-x="339" 
d="M53 555l-14 51c24 21 67 43 118 43c75 0 138 -51 138 -135c0 -83 -72 -176 -154 -237h170v-56h-273v45c71 48 191 152 191 246c0 43 -26 80 -82 80c-32 0 -69 -19 -94 -37z" />
    <glyph glyph-name="three.numerator" horiz-adv-x="349" 
d="M239 350c0 59 -69 65 -134 65v53c60 2 111 23 111 68c0 34 -33 56 -68 56c-33 0 -64 -16 -92 -37l-14 51c24 23 66 43 115 43c68 0 125 -42 125 -105c0 -42 -29 -78 -70 -95c45 -8 93 -30 93 -103c0 -81 -80 -129 -184 -129c-42 0 -78 8 -78 8l13 51s34 -4 59 -4
c71 0 124 26 124 78z" />
    <glyph glyph-name="four.numerator" horiz-adv-x="366" 
d="M329 321h-58v-100h-64v100h-174v44l179 272h59v-263h58v-53zM207 374v177l-107 -177h107z" />
    <glyph glyph-name="five.numerator" horiz-adv-x="348" 
d="M307 356c0 -81 -66 -142 -182 -142c-44 0 -79 9 -79 9l13 51s36 -4 59 -4c71 0 123 24 123 77c0 54 -39 76 -81 76c-26 0 -53 -9 -75 -22l-28 15v221h223v-57h-163v-114c17 7 38 12 61 12c85 0 129 -57 129 -122z" />
    <glyph glyph-name="six.numerator" horiz-adv-x="360" 
d="M238 589c-88 0 -128 -81 -133 -149c29 31 65 40 89 40c85 0 130 -60 130 -129c0 -71 -47 -140 -139 -140c-84 0 -144 68 -144 190c0 129 62 243 190 243c42 0 66 -12 66 -12l-13 -50s-25 7 -46 7zM186 423c-32 0 -61 -17 -77 -41c2 -57 27 -114 84 -114c44 0 66 38 66 76
c0 41 -26 79 -73 79z" />
    <glyph glyph-name="seven.numerator" horiz-adv-x="330" 
d="M298 582l-138 -362h-69l142 359h-200v57h265v-54z" />
    <glyph glyph-name="eight.numerator" horiz-adv-x="362" 
d="M117 537c0 -35 34 -54 73 -73c25 17 45 39 45 66c0 37 -20 64 -61 64c-31 0 -57 -22 -57 -57zM156 416c-26 -16 -51 -42 -51 -77c0 -49 39 -71 79 -71c36 0 70 21 70 67c0 36 -43 56 -98 81zM39 334c0 51 36 84 71 106c-33 22 -59 51 -59 97c0 74 61 112 125 112
c62 0 126 -38 126 -111c0 -47 -32 -77 -64 -96c43 -23 81 -52 81 -106c0 -81 -68 -124 -141 -124c-70 0 -139 39 -139 122z" />
    <glyph glyph-name="nine.numerator" horiz-adv-x="360" 
d="M172 376c-88 0 -133 76 -133 139c0 76 51 134 136 134c103 0 148 -89 148 -194c0 -109 -35 -238 -187 -238c-43 0 -65 8 -65 8l12 51s19 -4 46 -4c99 0 127 69 130 140c-23 -22 -61 -36 -87 -36zM175 593c-40 0 -70 -29 -70 -71c0 -58 36 -87 81 -87c35 0 61 18 73 34
c-2 75 -36 124 -84 124z" />
    <glyph glyph-name="parenleft.numerator" horiz-adv-x="253" 
d="M204 131l-6 -2c-108 80 -160 192 -160 298c0 103 58 228 161 311l23 -39c-79 -70 -119 -178 -119 -268c0 -89 40 -198 119 -270z" />
    <glyph glyph-name="parenright.numerator" horiz-adv-x="253" 
d="M45 129l-6 2l-18 30c79 72 119 181 119 270c0 90 -40 198 -119 268l23 39c103 -83 161 -208 161 -311c0 -106 -52 -218 -160 -298z" />
    <glyph glyph-name="hyphen.numerator" horiz-adv-x="253" 
d="M208 378h-163v54h163v-54z" />
    <glyph glyph-name="comma.numerator" horiz-adv-x="194" 
d="M144 292l-39 -152h-34v152h73z" />
    <glyph glyph-name="period.numerator" horiz-adv-x="191" 
d="M54 257c0 24 17 42 41 42c23 0 42 -18 42 -42c0 -23 -19 -41 -42 -41c-24 0 -41 18 -41 41z" />
    <glyph glyph-name="zero.denominator" horiz-adv-x="388" 
d="M338 199c0 -98 -38 -209 -144 -209c-113 0 -145 125 -145 222c0 110 39 216 145 216c112 0 144 -120 144 -229zM273 190c0 61 -4 179 -84 179c-60 0 -75 -88 -75 -148c0 -61 8 -173 85 -173c59 0 74 82 74 142z" />
    <glyph glyph-name="one.denominator" horiz-adv-x="253" 
d="M25 382l157 45v-427h-63v345h-94v37z" />
    <glyph glyph-name="two.denominator" horiz-adv-x="339" 
d="M53 334l-14 51c24 21 67 43 118 43c75 0 138 -51 138 -135c0 -83 -72 -176 -154 -237h170v-56h-273v45c71 48 191 152 191 246c0 43 -26 80 -82 80c-32 0 -69 -19 -94 -37z" />
    <glyph glyph-name="three.denominator" horiz-adv-x="349" 
d="M239 129c0 59 -69 65 -134 65v53c60 2 111 23 111 68c0 34 -33 56 -68 56c-33 0 -64 -16 -92 -37l-14 51c24 23 66 43 115 43c68 0 125 -42 125 -105c0 -42 -29 -78 -70 -95c45 -8 93 -30 93 -103c0 -81 -80 -129 -184 -129c-42 0 -78 8 -78 8l13 51s34 -4 59 -4
c71 0 124 26 124 78z" />
    <glyph glyph-name="four.denominator" horiz-adv-x="366" 
d="M329 100h-58v-100h-64v100h-174v44l179 272h59v-263h58v-53zM207 153v177l-107 -177h107z" />
    <glyph glyph-name="five.denominator" horiz-adv-x="348" 
d="M307 135c0 -81 -66 -142 -182 -142c-44 0 -79 9 -79 9l13 51s36 -4 59 -4c71 0 123 24 123 77c0 54 -39 76 -81 76c-26 0 -53 -9 -75 -22l-28 15v221h223v-57h-163v-114c17 7 38 12 61 12c85 0 129 -57 129 -122z" />
    <glyph glyph-name="six.denominator" horiz-adv-x="360" 
d="M238 368c-88 0 -128 -81 -133 -149c29 31 65 40 89 40c85 0 130 -60 130 -129c0 -71 -47 -140 -139 -140c-84 0 -144 68 -144 190c0 129 62 243 190 243c42 0 66 -12 66 -12l-13 -50s-25 7 -46 7zM186 202c-32 0 -61 -17 -77 -41c2 -57 27 -114 84 -114c44 0 66 38 66 76
c0 41 -26 79 -73 79z" />
    <glyph glyph-name="seven.denominator" horiz-adv-x="330" 
d="M298 361l-138 -362h-69l142 359h-200v57h265v-54z" />
    <glyph glyph-name="eight.denominator" horiz-adv-x="362" 
d="M117 316c0 -35 34 -54 73 -73c25 17 45 39 45 66c0 37 -20 64 -61 64c-31 0 -57 -22 -57 -57zM156 195c-26 -16 -51 -42 -51 -77c0 -49 39 -71 79 -71c36 0 70 21 70 67c0 36 -43 56 -98 81zM39 113c0 51 36 84 71 106c-33 22 -59 51 -59 97c0 74 61 112 125 112
c62 0 126 -38 126 -111c0 -47 -32 -77 -64 -96c43 -23 81 -52 81 -106c0 -81 -68 -124 -141 -124c-70 0 -139 39 -139 122z" />
    <glyph glyph-name="nine.denominator" horiz-adv-x="360" 
d="M172 155c-88 0 -133 76 -133 139c0 76 51 134 136 134c103 0 148 -89 148 -194c0 -109 -35 -238 -187 -238c-43 0 -65 8 -65 8l12 51s19 -4 46 -4c99 0 127 69 130 140c-23 -22 -61 -36 -87 -36zM175 372c-40 0 -70 -29 -70 -71c0 -58 36 -87 81 -87c35 0 61 18 73 34
c-2 75 -36 124 -84 124z" />
    <glyph glyph-name="parenleft.denominator" horiz-adv-x="253" 
d="M204 -86l-6 -2c-108 80 -160 192 -160 298c0 103 58 228 161 311l23 -39c-79 -70 -119 -178 -119 -268c0 -89 40 -198 119 -270z" />
    <glyph glyph-name="parenright.denominator" horiz-adv-x="253" 
d="M45 -88l-6 2l-18 30c79 72 119 181 119 270c0 90 -40 198 -119 268l23 39c103 -83 161 -208 161 -311c0 -106 -52 -218 -160 -298z" />
    <glyph glyph-name="hyphen.denominator" horiz-adv-x="253" 
d="M208 162h-163v54h163v-54z" />
    <glyph glyph-name="comma.denominator" horiz-adv-x="194" 
d="M144 71l-39 -152h-34v152h73z" />
    <glyph glyph-name="period.denominator" horiz-adv-x="191" 
d="M54 36c0 24 17 42 41 42c23 0 42 -18 42 -42c0 -23 -19 -41 -42 -41c-24 0 -41 18 -41 41z" />
    <glyph glyph-name="fraction" unicode="&#x2044;" horiz-adv-x="53" 
d="M233 639l-354 -639h-59l354 639h59z" />
    <glyph glyph-name="perthousand" unicode="&#x2030;" horiz-adv-x="1146" 
d="M353 474c0 -99 -64 -165 -151 -165c-100 0 -152 81 -152 179c0 109 66 168 152 168c100 0 151 -73 151 -182zM291 469c0 66 -22 132 -93 132c-55 0 -85 -54 -85 -108c0 -65 26 -128 94 -128c58 0 84 51 84 104zM728 155c0 -99 -64 -165 -151 -165
c-100 0 -152 81 -152 179c0 109 66 168 152 168c100 0 151 -73 151 -182zM666 150c0 66 -22 132 -93 132c-55 0 -85 -54 -85 -108c0 -65 26 -128 94 -128c58 0 84 51 84 104zM1096 155c0 -99 -64 -165 -151 -165c-100 0 -152 81 -152 179c0 109 66 168 152 168
c100 0 151 -73 151 -182zM1034 150c0 66 -22 132 -93 132c-55 0 -85 -54 -85 -108c0 -65 26 -128 94 -128c58 0 84 51 84 104zM593 639l-354 -639h-59l354 639h59z" />
    <glyph glyph-name="onehalf" unicode="&#xbd;" horiz-adv-x="760" 
d="M45 603l157 45v-427h-63v345h-94v37zM443 385l14 -51c25 18 62 37 94 37c56 0 82 -37 82 -80c0 -94 -120 -198 -191 -246v-45h273v56h-170c82 61 154 154 154 237c0 84 -63 135 -138 135c-51 0 -94 -22 -118 -43zM537 639l-354 -639h-59l354 639h59z" />
    <glyph glyph-name="onethird" unicode="&#x2153;" horiz-adv-x="754" 
d="M45 603l157 45v-427h-63v345h-94v37zM638 129c0 59 -69 65 -134 65v53c60 2 111 23 111 68c0 34 -33 56 -68 56c-33 0 -64 -16 -92 -37l-14 51c24 23 66 43 115 43c68 0 125 -42 125 -105c0 -42 -29 -78 -70 -95c45 -8 93 -30 93 -103c0 -81 -80 -129 -184 -129
c-42 0 -78 8 -78 8l13 51s34 -4 59 -4c71 0 124 26 124 78zM537 639l-354 -639h-59l354 639h59z" />
    <glyph glyph-name="onequarter" unicode="&#xbc;" horiz-adv-x="707" 
d="M662 100h-58v-100h-64v100h-174v44l179 272h59v-263h58v-53zM540 153v177l-107 -177h107zM545 639l-354 -639h-59l354 639h59zM45 603l157 45v-427h-63v345h-94v37z" />
    <glyph glyph-name="oneeighth" unicode="&#x215b;" horiz-adv-x="752" 
d="M505 316c0 35 26 57 57 57c41 0 61 -27 61 -64c0 -27 -20 -49 -45 -66c-39 19 -73 38 -73 73zM544 195c55 -25 98 -45 98 -81c0 -46 -34 -67 -70 -67c-40 0 -79 22 -79 71c0 35 25 61 51 77zM427 113c0 -83 69 -122 139 -122c73 0 141 43 141 124c0 54 -38 83 -81 106
c32 19 64 49 64 96c0 73 -64 111 -126 111c-64 0 -125 -38 -125 -112c0 -46 26 -75 59 -97c-35 -22 -71 -55 -71 -106zM542 639l-354 -639h-59l354 639h59zM45 603l157 45v-427h-63v345h-94v37z" />
    <glyph glyph-name="twothirds" unicode="&#x2154;" horiz-adv-x="862" 
d="M60 555l-14 51c24 21 67 43 118 43c75 0 138 -51 138 -135c0 -83 -72 -176 -154 -237h170v-56h-273v45c71 48 191 152 191 246c0 43 -26 80 -82 80c-32 0 -69 -19 -94 -37zM746 129c0 59 -69 65 -134 65v53c60 2 111 23 111 68c0 34 -33 56 -68 56c-33 0 -64 -16 -92 -37
l-14 51c24 23 66 43 115 43c68 0 125 -42 125 -105c0 -42 -29 -78 -70 -95c45 -8 93 -30 93 -103c0 -81 -80 -129 -184 -129c-42 0 -78 8 -78 8l13 51s34 -4 59 -4c71 0 124 26 124 78zM650 639l-354 -639h-59l354 639h59z" />
    <glyph glyph-name="threequarters" unicode="&#xbe;" horiz-adv-x="751" 
d="M249 350c0 59 -69 65 -134 65v53c60 2 111 23 111 68c0 34 -33 56 -68 56c-33 0 -64 -16 -92 -37l-14 51c24 23 66 43 115 43c68 0 125 -42 125 -105c0 -42 -29 -78 -70 -95c45 -8 93 -30 93 -103c0 -81 -80 -129 -184 -129c-42 0 -78 8 -78 8l13 51s34 -4 59 -4
c71 0 124 26 124 78zM706 100h-58v-100h-64v100h-174v44l179 272h59v-263h58v-53zM584 153v177l-107 -177h107zM609 639l-354 -639h-59l354 639h59z" />
    <glyph glyph-name="threeeighths" unicode="&#x215c;" horiz-adv-x="806" 
d="M249 350c0 59 -69 65 -134 65v53c60 2 111 23 111 68c0 34 -33 56 -68 56c-33 0 -64 -16 -92 -37l-14 51c24 23 66 43 115 43c68 0 125 -42 125 -105c0 -42 -29 -78 -70 -95c45 -8 93 -30 93 -103c0 -81 -80 -129 -184 -129c-42 0 -78 8 -78 8l13 51s34 -4 59 -4
c71 0 124 26 124 78zM559 316c0 35 26 57 57 57c41 0 61 -27 61 -64c0 -27 -20 -49 -45 -66c-39 19 -73 38 -73 73zM598 195c55 -25 98 -45 98 -81c0 -46 -34 -67 -70 -67c-40 0 -79 22 -79 71c0 35 25 61 51 77zM481 113c0 -83 69 -122 139 -122c73 0 141 43 141 124
c0 54 -38 83 -81 106c32 19 64 49 64 96c0 73 -64 111 -126 111c-64 0 -125 -38 -125 -112c0 -46 26 -75 59 -97c-35 -22 -71 -55 -71 -106zM606 639l-354 -639h-59l354 639h59z" />
    <glyph glyph-name="fiveeighths" unicode="&#x215d;" horiz-adv-x="812" 
d="M320 356c0 -81 -66 -142 -182 -142c-44 0 -79 9 -79 9l13 51s36 -4 59 -4c71 0 123 24 123 77c0 54 -39 76 -81 76c-26 0 -53 -9 -75 -22l-28 15v221h223v-57h-163v-114c17 7 38 12 61 12c85 0 129 -57 129 -122zM565 316c0 35 26 57 57 57c41 0 61 -27 61 -64
c0 -27 -20 -49 -45 -66c-39 19 -73 38 -73 73zM604 195c55 -25 98 -45 98 -81c0 -46 -34 -67 -70 -67c-40 0 -79 22 -79 71c0 35 25 61 51 77zM487 113c0 -83 69 -122 139 -122c73 0 141 43 141 124c0 54 -38 83 -81 106c32 19 64 49 64 96c0 73 -64 111 -126 111
c-64 0 -125 -38 -125 -112c0 -46 26 -75 59 -97c-35 -22 -71 -55 -71 -106zM612 639l-354 -639h-59l354 639h59z" />
    <glyph glyph-name="seveneighths" unicode="&#x215e;" horiz-adv-x="725" 
d="M310 582l-138 -362h-69l142 359h-200v57h265v-54zM478 316c0 35 26 57 57 57c41 0 61 -27 61 -64c0 -27 -20 -49 -45 -66c-39 19 -73 38 -73 73zM517 195c55 -25 98 -45 98 -81c0 -46 -34 -67 -70 -67c-40 0 -79 22 -79 71c0 35 25 61 51 77zM400 113
c0 -83 69 -122 139 -122c73 0 141 43 141 124c0 54 -38 83 -81 106c32 19 64 49 64 96c0 73 -64 111 -126 111c-64 0 -125 -38 -125 -112c0 -46 26 -75 59 -97c-35 -22 -71 -55 -71 -106zM525 639l-354 -639h-59l354 639h59z" />
    <glyph glyph-name="f_k.alt" horiz-adv-x="816" 
d="M889 -140c-71 0 -138 43 -197 132l-143 213h-68v-205h-80v676c-24 5 -61 8 -89 8c-95 0 -131 -64 -131 -150v-68h154v-69h-154v-397h-80v397h-76v44l76 19v85c0 122 84 208 211 208c53 0 115 -10 169 -16v-463h50l160 192h97l-180 -210l146 -215
c57 -84 105 -115 160 -115c25 0 52 5 72 15l20 -36c-20 -29 -66 -45 -117 -45z" />
    <glyph glyph-name="f_f_k.alt" horiz-adv-x="1107" 
d="M1180 -140c-71 0 -138 43 -197 132l-143 213h-68v-205h-80v676c-24 5 -61 8 -89 8c-95 0 -131 -64 -131 -150v-68h154v-69h-154v-397h-80v397h-211v-397h-80v397h-76v44l76 19v85c0 122 64 199 171 199c20 0 43 -3 63 -12l-15 -58c-13 3 -26 5 -38 5
c-74 0 -101 -44 -101 -150v-63h211v79c0 122 84 208 211 208c53 0 115 -10 169 -16v-463h50l160 192h97l-180 -210l146 -215c57 -84 105 -115 160 -115c25 0 52 5 72 15l20 -36c-20 -29 -66 -45 -117 -45z" />
    <glyph glyph-name="t_t" horiz-adv-x="715" 
d="M440 466l35 119h40v-119h165v-69h-165v-245c0 -71 27 -102 83 -102c24 0 39 3 62 12l20 -36c-23 -22 -68 -37 -110 -37c-89 0 -135 44 -135 145v263h-259v-245c0 -71 27 -102 83 -102c24 0 39 3 62 12l20 -36c-23 -22 -68 -37 -110 -37c-89 0 -135 44 -135 145v263h-76
v44l80 20l36 124h40v-119h264z" />
    <glyph glyph-name="c_h" horiz-adv-x="989" 
d="M298 55c39 0 89 16 114 36l20 -36c-41 -49 -108 -71 -166 -71c-143 0 -221 123 -221 247c0 158 104 251 221 251c13 0 26 -1 39 -3c-37 37 -69 85 -69 139c0 94 72 130 174 130c53 0 142 -5 196 -11v-315c41 33 101 60 166 60c85 0 144 -45 144 -160v-322h-80v293
c0 72 -18 118 -102 118c-45 0 -106 -34 -128 -60v-351h-80v687c-24 4 -71 8 -108 8c-58 0 -119 -13 -119 -87c0 -70 56 -124 114 -176l6 -4l-15 -58c-30 18 -68 41 -135 41c-86 0 -141 -76 -141 -168c0 -112 58 -188 170 -188z" />
    <glyph glyph-name="c_l" horiz-adv-x="681" 
d="M298 55c39 0 89 16 114 36l20 -36c-41 -49 -108 -71 -166 -71c-143 0 -221 123 -221 247c0 158 104 251 221 251c13 0 26 -1 39 -3c-37 37 -69 85 -69 139c0 94 72 130 174 130c53 0 142 -5 196 -11v-737h-80v687c-24 4 -71 8 -108 8c-58 0 -119 -13 -119 -87
c0 -70 56 -124 114 -176l6 -4l-15 -58c-30 18 -68 41 -135 41c-86 0 -141 -76 -141 -168c0 -112 58 -188 170 -188z" />
    <glyph glyph-name="c_k" horiz-adv-x="938" 
d="M298 55c39 0 89 16 114 36l20 -36c-41 -49 -108 -71 -166 -71c-143 0 -221 123 -221 247c0 158 104 251 221 251c13 0 26 -1 39 -3c-37 37 -69 85 -69 139c0 94 72 130 174 130c53 0 142 -5 196 -11v-463h50l160 192h97l-180 -210l180 -256h-95l-144 205h-68v-205h-80
v687c-24 4 -71 8 -108 8c-58 0 -119 -13 -119 -87c0 -70 56 -124 114 -176l6 -4l-15 -58c-30 18 -68 41 -135 41c-86 0 -141 -76 -141 -168c0 -112 58 -188 170 -188z" />
    <glyph glyph-name="c_k.alt" horiz-adv-x="941" 
d="M298 55c39 0 89 16 114 36l20 -36c-41 -49 -108 -71 -166 -71c-143 0 -221 123 -221 247c0 158 104 251 221 251c13 0 26 -1 39 -3c-37 37 -69 85 -69 139c0 94 72 130 174 130c53 0 142 -5 196 -11v-463h50l160 192h97l-180 -210l146 -215c57 -84 105 -115 160 -115
c25 0 52 5 72 15l20 -36c-20 -29 -66 -45 -117 -45c-71 0 -138 43 -197 132l-143 213h-68v-205h-80v687c-24 4 -71 8 -108 8c-58 0 -119 -13 -119 -87c0 -70 56 -124 114 -176l6 -4l-15 -58c-30 18 -68 41 -135 41c-86 0 -141 -76 -141 -168c0 -112 58 -188 170 -188z" />
    <glyph glyph-name="c_t" horiz-adv-x="834" 
d="M410 748c53 0 170 -5 224 -11v-271h165v-69h-165v-245c0 -71 27 -102 83 -102c24 0 39 3 62 12l20 -36c-23 -22 -68 -37 -110 -37c-89 0 -135 44 -135 145v263h-76v44l76 19v227c-44 4 -99 8 -136 8c-58 0 -119 -13 -119 -87c0 -70 56 -124 114 -176l6 -4l-15 -58
c-30 18 -68 41 -135 41c-86 0 -141 -76 -141 -168c0 -112 58 -188 170 -188c39 0 89 16 114 36l20 -36c-41 -49 -108 -71 -166 -71c-143 0 -221 123 -221 247c0 158 104 251 221 251c13 0 26 -1 39 -3c-37 37 -69 85 -69 139c0 94 72 130 174 130z" />
    <glyph glyph-name="s_h" horiz-adv-x="936" 
d="M369 428l-15 -58c-25 17 -75 46 -132 46c-54 0 -88 -21 -88 -62c0 -89 255 -76 255 -228c0 -79 -59 -142 -177 -142c-58 0 -128 24 -167 67l25 45c35 -31 92 -46 131 -46c62 0 109 23 109 69c0 94 -254 84 -254 229c0 82 69 134 163 134c11 0 23 -1 34 -3
c-37 37 -70 85 -70 139c0 94 72 130 174 130c53 0 142 -5 196 -11v-315c41 33 101 60 166 60c85 0 144 -45 144 -160v-322h-80v293c0 72 -18 118 -102 118c-45 0 -106 -34 -128 -60v-351h-80v687c-24 4 -71 8 -108 8c-58 0 -119 -13 -119 -87c0 -70 59 -124 117 -176z" />
    <glyph glyph-name="s_l" horiz-adv-x="628" 
d="M369 428l-15 -58c-25 17 -75 46 -132 46c-54 0 -88 -21 -88 -62c0 -89 255 -76 255 -228c0 -79 -59 -142 -177 -142c-58 0 -128 24 -167 67l25 45c35 -31 92 -46 131 -46c62 0 109 23 109 69c0 94 -254 84 -254 229c0 82 69 134 163 134c11 0 23 -1 34 -3
c-37 37 -70 85 -70 139c0 94 72 130 174 130c53 0 142 -5 196 -11v-737h-80v687c-24 4 -71 8 -108 8c-58 0 -119 -13 -119 -87c0 -70 59 -124 117 -176z" />
    <glyph glyph-name="s_lcaron" horiz-adv-x="676" 
d="M369 428l-15 -58c-25 17 -75 46 -132 46c-54 0 -88 -21 -88 -62c0 -89 255 -76 255 -228c0 -79 -59 -142 -177 -142c-58 0 -128 24 -167 67l25 45c35 -31 92 -46 131 -46c62 0 109 23 109 69c0 94 -254 84 -254 229c0 82 69 134 163 134c11 0 23 -1 34 -3
c-37 37 -70 85 -70 139c0 94 72 130 174 130c53 0 142 -5 196 -11v-737h-80v687c-24 4 -71 8 -108 8c-58 0 -119 -13 -119 -87c0 -70 59 -124 117 -176zM706 737l-44 -194h-39v194h83z" />
    <glyph glyph-name="s_k" horiz-adv-x="885" 
d="M369 428l-15 -58c-25 17 -75 46 -132 46c-54 0 -88 -21 -88 -62c0 -89 255 -76 255 -228c0 -79 -59 -142 -177 -142c-58 0 -128 24 -167 67l25 45c35 -31 92 -46 131 -46c62 0 109 23 109 69c0 94 -254 84 -254 229c0 82 69 134 163 134c11 0 23 -1 34 -3
c-37 37 -70 85 -70 139c0 94 72 130 174 130c53 0 142 -5 196 -11v-463h50l160 192h97l-180 -210l180 -256h-95l-144 205h-68v-205h-80v687c-24 4 -71 8 -108 8c-58 0 -119 -13 -119 -87c0 -70 59 -124 117 -176z" />
    <glyph glyph-name="s_k.alt" horiz-adv-x="888" 
d="M369 428l-15 -58c-25 17 -75 46 -132 46c-54 0 -88 -21 -88 -62c0 -89 255 -76 255 -228c0 -79 -59 -142 -177 -142c-58 0 -128 24 -167 67l25 45c35 -31 92 -46 131 -46c62 0 109 23 109 69c0 94 -254 84 -254 229c0 82 69 134 163 134c11 0 23 -1 34 -3
c-37 37 -70 85 -70 139c0 94 72 130 174 130c53 0 142 -5 196 -11v-463h50l160 192h97l-180 -210l146 -215c57 -84 105 -115 160 -115c25 0 52 5 72 15l20 -36c-20 -29 -66 -45 -117 -45c-71 0 -138 43 -197 132l-143 213h-68v-205h-80v687c-24 4 -71 8 -108 8
c-58 0 -119 -13 -119 -87c0 -70 59 -124 117 -176z" />
    <glyph glyph-name="s_p" horiz-adv-x="945" 
d="M357 748c53 0 142 -5 196 -11v-316c48 46 93 61 137 61c132 0 210 -113 210 -245c0 -160 -96 -253 -221 -253c-40 0 -91 16 -126 50v-279h-80v932c-24 4 -71 8 -108 8c-58 0 -119 -13 -119 -87c0 -70 59 -124 117 -176l6 -4l-15 -58c-25 17 -75 46 -132 46
c-54 0 -88 -21 -88 -62c0 -89 255 -76 255 -228c0 -79 -59 -142 -177 -142c-58 0 -128 24 -167 67l25 45c35 -31 92 -46 131 -46c62 0 109 23 109 69c0 94 -254 84 -254 229c0 82 69 134 163 134c11 0 23 -1 34 -3c-37 37 -70 85 -70 139c0 94 72 130 174 130zM673 411
c-43 0 -102 -28 -120 -67v-233c36 -46 91 -56 123 -56c88 0 141 73 141 165c0 95 -39 191 -144 191z" />
    <glyph glyph-name="s_t" unicode="&#xfb06;" horiz-adv-x="781" 
d="M357 748c53 0 170 -5 224 -11v-271h165v-69h-165v-245c0 -71 27 -102 83 -102c24 0 39 3 62 12l20 -36c-23 -22 -68 -37 -110 -37c-89 0 -135 44 -135 145v263h-76v44l76 19v227c-44 4 -99 8 -136 8c-58 0 -119 -13 -119 -87c0 -70 59 -124 117 -176l6 -4l-15 -58
c-25 17 -75 46 -132 46c-54 0 -88 -21 -88 -62c0 -89 255 -76 255 -228c0 -79 -59 -142 -177 -142c-58 0 -128 24 -167 67l25 45c35 -31 92 -46 131 -46c62 0 109 23 109 69c0 94 -254 84 -254 229c0 82 69 134 163 134c11 0 23 -1 34 -3c-37 37 -70 85 -70 139
c0 94 72 130 174 130z" />
    <glyph glyph-name="s_tcaron" horiz-adv-x="781" 
d="M357 748c53 0 170 -5 224 -11v-271h165v-69h-165v-245c0 -71 27 -102 83 -102c24 0 39 3 62 12l20 -36c-23 -22 -68 -37 -110 -37c-89 0 -135 44 -135 145v263h-76v44l76 19v227c-44 4 -99 8 -136 8c-58 0 -119 -13 -119 -87c0 -70 59 -124 117 -176l6 -4l-15 -58
c-25 17 -75 46 -132 46c-54 0 -88 -21 -88 -62c0 -89 255 -76 255 -228c0 -79 -59 -142 -177 -142c-58 0 -128 24 -167 67l25 45c35 -31 92 -46 131 -46c62 0 109 23 109 69c0 94 -254 84 -254 229c0 82 69 134 163 134c11 0 23 -1 34 -3c-37 37 -70 85 -70 139
c0 94 72 130 174 130zM732 737l-43 -194h-40v194h83z" />
    <glyph glyph-name="T_h" horiz-adv-x="1041" 
d="M658 351v-351h-80v606c-21 -16 -50 -25 -89 -25h-159v-581h-85v581h-220v74h474c71 0 79 35 79 66v16h80v-315c41 33 101 60 166 60c85 0 144 -45 144 -160v-322h-80v293c0 72 -18 118 -102 118c-45 0 -106 -34 -128 -60z" />
    <glyph glyph-name="T_T" horiz-adv-x="1050" 
d="M1035 581h-220v-581h-85v581h-410v-581h-85v581h-220v74h1020v-74z" />
    <glyph glyph-name="f.alt" horiz-adv-x="345" 
d="M25 441l76 19v90c0 122 64 199 171 199c20 0 43 -3 63 -12l-15 -58c-13 3 -26 5 -38 5c-74 0 -101 -44 -101 -150v-68h154v-69h-154v-397h-80v397h-76v44z" />
    <glyph glyph-name="ff.alt" horiz-adv-x="636" 
d="M626 737l-15 -58c-13 3 -26 5 -38 5c-74 0 -101 -44 -101 -150v-68h154v-69h-154v-397h-80v397h-211v-397h-80v397h-76v44l76 19v85c0 122 64 199 171 199c20 0 43 -3 63 -12l-15 -58c-13 3 -26 5 -38 5c-74 0 -101 -44 -101 -150v-63h211v84c0 122 64 199 171 199
c20 0 43 -3 63 -12z" />
    </font>
</defs>
</svg>
